<svg width="4" height="16" viewBox="0 0 4 16" fill="none" xmlns="http://www.w3.org/2000/svg">
<path d="M2.00002 8.83301C2.46026 8.83301 2.83335 8.45991 2.83335 7.99967C2.83335 7.53944 2.46026 7.16634 2.00002 7.16634C1.53978 7.16634 1.16669 7.53944 1.16669 7.99967C1.16669 8.45991 1.53978 8.83301 2.00002 8.83301Z" stroke="#98A2B3" stroke-width="1.66667" stroke-linecap="round" stroke-linejoin="round"/>
<path d="M2.00002 2.99967C2.46026 2.99967 2.83335 2.62658 2.83335 2.16634C2.83335 1.7061 2.46026 1.33301 2.00002 1.33301C1.53978 1.33301 1.16669 1.7061 1.16669 2.16634C1.16669 2.62658 1.53978 2.99967 2.00002 2.99967Z" stroke="#98A2B3" stroke-width="1.66667" stroke-linecap="round" stroke-linejoin="round"/>
<path d="M2.00002 14.6663C2.46026 14.6663 2.83335 14.2932 2.83335 13.833C2.83335 13.3728 2.46026 12.9997 2.00002 12.9997C1.53978 12.9997 1.16669 13.3728 1.16669 13.833C1.16669 14.2932 1.53978 14.6663 2.00002 14.6663Z" stroke="#98A2B3" stroke-width="1.66667" stroke-linecap="round" stroke-linejoin="round"/>
</svg>
