<svg width="40" height="40" viewBox="0 0 40 40" fill="none" xmlns="http://www.w3.org/2000/svg">
<path d="M0 20C0 8.95431 8.95431 0 20 0C31.0457 0 40 8.95431 40 20C40 31.0457 31.0457 40 20 40C8.95431 40 0 31.0457 0 20Z" fill="#F2F4F7"/>
<path d="M20 0.375C30.8386 0.375 39.625 9.16141 39.625 20C39.625 30.8386 30.8386 39.625 20 39.625C9.16141 39.625 0.375 30.8386 0.375 20C0.375 9.16141 9.16141 0.375 20 0.375Z" stroke="black" stroke-opacity="0.08" stroke-width="0.75"/>
<path d="M11.1811 26H8.93111L13.0277 14.3636H15.63L19.7322 26H17.4822L14.3743 16.75H14.2834L11.1811 26ZM11.255 21.4375H17.3913V23.1307H11.255V21.4375ZM30.6783 18.2898H28.5533C28.4927 17.9413 28.3809 17.6326 28.218 17.3636C28.0552 17.0909 27.8525 16.8598 27.6101 16.6705C27.3677 16.4811 27.0911 16.339 26.7805 16.2443C26.4737 16.1458 26.1423 16.0966 25.7862 16.0966C25.1536 16.0966 24.593 16.2557 24.1044 16.5739C23.6158 16.8883 23.2332 17.3504 22.9567 17.9602C22.6802 18.5663 22.5419 19.3068 22.5419 20.1818C22.5419 21.072 22.6802 21.822 22.9567 22.4318C23.237 23.0379 23.6196 23.4962 24.1044 23.8068C24.593 24.1136 25.1518 24.267 25.7805 24.267C26.129 24.267 26.4548 24.2216 26.7578 24.1307C27.0646 24.036 27.3393 23.8977 27.5817 23.7159C27.8279 23.5341 28.0343 23.3106 28.201 23.0455C28.3714 22.7803 28.4889 22.4773 28.5533 22.1364L30.6783 22.1477C30.5987 22.7008 30.4264 23.2197 30.1612 23.7045C29.8999 24.1894 29.5571 24.6174 29.1328 24.9886C28.7086 25.3561 28.2124 25.6439 27.6442 25.8523C27.076 26.0568 26.4453 26.1591 25.7521 26.1591C24.7294 26.1591 23.8165 25.9223 23.0135 25.4489C22.2105 24.9754 21.5779 24.2917 21.1158 23.3977C20.6536 22.5038 20.4226 21.4318 20.4226 20.1818C20.4226 18.928 20.6555 17.8561 21.1214 16.9659C21.5874 16.072 22.2218 15.3883 23.0249 14.9148C23.8279 14.4413 24.737 14.2045 25.7521 14.2045C26.3999 14.2045 27.0021 14.2955 27.5589 14.4773C28.1158 14.6591 28.612 14.9261 29.0476 15.2784C29.4832 15.6269 29.8411 16.0549 30.1214 16.5625C30.4055 17.0663 30.5911 17.642 30.6783 18.2898Z" fill="#667085"/>
</svg>
