<svg width="25" height="25" viewBox="0 0 25 25" fill="none" xmlns="http://www.w3.org/2000/svg">
<path d="M12.9419 23.643C9.45835 23.643 6.625 20.6186 6.625 16.9003V7.46055C6.625 6.96341 7.00238 6.56158 7.4672 6.56158C7.93218 6.56158 8.30956 6.96341 8.30956 7.46055V16.9003C8.30956 19.6262 10.3874 21.8449 12.9419 21.8449C15.4964 21.8449 17.5742 19.6262 17.5742 16.9003V7.01098C17.5742 5.27593 16.252 3.86451 14.6265 3.86451C13.0008 3.86451 11.6785 5.27593 11.6785 7.01098V16.0013C11.6785 16.7447 12.2453 17.3499 12.9419 17.3499C13.6385 17.3499 14.2053 16.7447 14.2053 16.0013V7.46055C14.2053 6.96341 14.5827 6.56158 15.0475 6.56158C15.5125 6.56158 15.8898 6.96341 15.8898 7.46055V16.0013C15.8898 17.7364 14.5674 19.1478 12.9419 19.1478C11.3164 19.1478 9.99396 17.7364 9.99396 16.0013V7.01098C9.99396 4.28527 12.0718 2.06641 14.6265 2.06641C17.181 2.06641 19.2588 4.28527 19.2588 7.01098V16.9003C19.2588 20.6186 16.4255 23.643 12.9419 23.643Z" fill="#070311" fill-opacity="0.33"/>
</svg>
