<svg width="41" height="40" viewBox="0 0 41 40" fill="none" xmlns="http://www.w3.org/2000/svg">
<rect x="0.833328" width="40" height="40" rx="20" fill="#EAECF0"/>
<path d="M25.8784 18.5587V14.2344M23.7162 16.3965H28.0405M23.7162 26.4866V25.6218C23.7162 24.4108 23.7162 23.8054 23.4806 23.3429C23.2733 22.936 22.9425 22.6053 22.5357 22.398C22.0731 22.1623 21.4677 22.1623 20.2568 22.1623H17.0856C15.8747 22.1623 15.2692 22.1623 14.8067 22.398C14.3999 22.6053 14.0691 22.936 13.8618 23.3429C13.6261 23.8054 13.6261 24.4108 13.6261 25.6218V26.4866M21.1937 16.7569C21.1937 18.15 20.0643 19.2794 18.6712 19.2794C17.278 19.2794 16.1487 18.15 16.1487 16.7569C16.1487 15.3637 17.278 14.2344 18.6712 14.2344C20.0643 14.2344 21.1937 15.3637 21.1937 16.7569Z" stroke="#6F7784" stroke-width="1.08108" stroke-linecap="round" stroke-linejoin="round"/>
</svg>
