<svg width="48" height="48" viewBox="0 0 48 48" fill="none" xmlns="http://www.w3.org/2000/svg">
<rect width="48" height="48" rx="24" fill="#EAECF0"/>
<g clip-path="url(#clip0_3841_22728)">
<path d="M22.4115 25.0866C24.0941 25.0866 24.9578 24.5587 24.9578 23.4234C24.9578 22.4433 24.2455 21.7912 22.6987 21.7912C20.8239 21.7912 20.0747 22.6276 19.9039 24.1259C19.6303 24.1085 19.3314 24.1027 18.9238 24.1007C18.9238 24.0192 18.9258 23.9377 18.9258 23.8542C18.9258 22.3346 18.297 21.7853 16.6201 21.7853C15.8011 21.7853 15.0791 21.9076 14.6385 22.0862L14.7045 23.2992C15.0888 23.0954 15.6613 22.8994 16.2048 22.8994C16.9714 22.8994 17.2043 23.2157 17.2043 23.9746L17.2023 24.0871C17.1499 24.0852 17.0141 24.0852 16.9403 24.0852C15.0306 24.0852 14.1456 24.6636 14.1456 25.7349C14.1456 26.8392 14.6948 27.4894 16.2611 27.4894C17.0859 27.4894 17.901 27.3729 18.951 27.3729C18.8734 26.9304 18.8714 26.2938 18.8714 25.8571C18.8714 25.6262 18.8831 25.3506 18.8947 25.0381C19.3431 25.042 19.673 25.0537 19.8904 25.0634C20.0534 26.8373 20.9733 27.4932 22.8889 27.4932C23.5973 27.4932 24.3135 27.3729 24.688 27.1982L24.622 25.9852C24.2494 26.2007 23.7312 26.3773 23.1626 26.3773C22.2213 26.3773 21.7108 25.8863 21.7108 25.1099V25.0731C21.8797 25.0808 22.2154 25.0866 22.4115 25.0866ZM16.6686 26.4297C16.0864 26.4297 15.838 26.2356 15.838 25.7485C15.838 25.2788 16.1543 25.0129 16.95 25.0129C17.0238 25.0129 17.1131 25.011 17.1771 25.0168C17.1732 25.4709 17.1635 26.0008 17.1888 26.3695C17.051 26.4064 16.8472 26.4297 16.6686 26.4297ZM21.7031 24.1492V24.1221C21.7031 23.3613 21.9437 22.8023 22.6424 22.8023C23.0383 22.8023 23.2926 23.01 23.2926 23.3865C23.2926 23.9163 22.9394 24.1628 22.2057 24.1628C22.0291 24.1628 21.8409 24.1609 21.7031 24.1492ZM28.3989 26.2783C27.836 26.2783 27.6711 26.0551 27.6711 25.238V23.1284H28.7812V21.9561H27.6885C27.6885 21.5408 27.7215 20.9275 27.7564 20.5063H26.7278C26.592 21.5311 26.295 22.059 25.3596 22.2143C25.3557 22.4899 25.3712 22.8664 25.3596 23.1284H25.9826C25.9728 23.7106 25.9554 24.7742 25.9554 25.7426C25.9554 26.9789 26.5958 27.4855 27.7991 27.4855C28.3853 27.4855 28.8161 27.4001 28.9597 27.3593L28.886 26.1541C28.7812 26.2259 28.5735 26.2783 28.3989 26.2783ZM40.1097 23.8542C40.1097 22.3346 39.4809 21.7853 37.8059 21.7853C36.985 21.7853 36.2649 21.9076 35.8244 22.0862L35.8904 23.2992C36.2746 23.0954 36.8452 22.8994 37.3906 22.8994C38.1572 22.8994 38.3901 23.2157 38.3901 23.9746V24.0871C38.3358 24.0852 38.2019 24.0852 38.1281 24.0852C36.2164 24.0852 35.3334 24.6636 35.3334 25.7349C35.3334 26.8392 35.8826 27.4894 37.4488 27.4894C38.2737 27.4894 39.0888 27.3729 40.1368 27.3729C40.0612 26.9304 40.0592 26.2938 40.0592 25.8571C40.0573 25.3622 40.1097 24.6674 40.1097 23.8542ZM37.8545 26.4297C37.2703 26.4297 37.0238 26.2356 37.0238 25.7485C37.0238 25.2788 37.3401 25.0129 38.1359 25.0129C38.2077 25.0129 38.297 25.011 38.361 25.0168C38.3591 25.4709 38.3474 26.0008 38.3746 26.3695C38.2368 26.4064 38.0311 26.4297 37.8545 26.4297ZM34.6327 24.846C34.6327 24.388 34.6424 23.7785 34.6424 23.7785C34.6424 22.4064 34.0408 21.7912 32.3387 21.7912C31.3838 21.7912 30.7026 21.9581 29.6371 21.9581C29.6973 22.9207 29.6992 24.1104 29.6953 24.8479C29.6992 25.5971 29.6701 26.9401 29.6371 27.3729H31.4653C31.4226 26.9382 31.3877 25.6902 31.3916 24.8479C31.3916 24.3686 31.3974 23.7882 31.4168 23.01C31.5992 22.9479 31.8302 22.9013 32.0806 22.9013C32.721 22.9013 32.9268 23.2021 32.9268 24.027C32.9268 24.027 32.9365 24.5452 32.9365 24.8499C32.9365 25.599 32.9112 26.9421 32.8782 27.3749H34.7065C34.6638 26.9362 34.6269 25.6883 34.6327 24.846ZM11.9874 21.5447C11.8166 21.3739 11.5934 21.2885 11.3722 21.2885C11.149 21.2885 10.9238 21.3739 10.7531 21.5466L9.73995 22.5617L8.72491 21.5466C8.55218 21.3719 8.32898 21.2866 8.10579 21.2866C7.8826 21.2866 7.65941 21.3719 7.48862 21.5427L6.25426 22.7771C5.91462 23.1167 5.91462 23.6699 6.2562 24.0114L9.73801 27.4932L13.2198 24.0114C13.5614 23.6718 13.5595 23.1187 13.2198 22.7771L11.9874 21.5447ZM41.5614 22.1017C41.5614 21.9173 41.4488 21.8397 41.2295 21.8397H40.8841V22.748H41.0335V22.3598H41.1732L41.4081 22.748H41.5769L41.3227 22.3482C41.4605 22.3346 41.5614 22.2667 41.5614 22.1017ZM41.0335 22.2337V21.9678H41.214C41.3033 21.9678 41.412 21.9814 41.412 22.09C41.412 22.222 41.313 22.2317 41.2023 22.2317H41.0335V22.2337ZM41.1965 21.4593C40.7618 21.4593 40.3891 21.7873 40.3891 22.2802C40.3891 22.748 40.7249 23.1012 41.1965 23.1012C41.6274 23.1012 42 22.7751 42 22.2802C42 21.7853 41.6274 21.4593 41.1965 21.4593ZM41.1965 22.9576C40.8064 22.9576 40.5638 22.6529 40.5638 22.2802C40.5638 21.8804 40.8394 21.6029 41.1965 21.6029C41.5478 21.6029 41.8234 21.8824 41.8234 22.2802C41.8234 22.682 41.5478 22.9576 41.1965 22.9576Z" fill="#7D3F98"/>
</g>
<defs>
<clipPath id="clip0_3841_22728">
<rect width="36" height="9" fill="white" transform="translate(6 19.5)"/>
</clipPath>
</defs>
</svg>
