<svg width="16" height="20" viewBox="0 0 16 20" fill="none" xmlns="http://www.w3.org/2000/svg">
<path d="M9.66659 1.8916V5.33372C9.66659 5.80043 9.66659 6.03378 9.75741 6.21204C9.83731 6.36885 9.96479 6.49633 10.1216 6.57622C10.2999 6.66705 10.5332 6.66705 10.9999 6.66705H14.442M9.66659 14.167H4.66659M11.3333 10.8337H4.66659M14.6666 8.32385V14.3337C14.6666 15.7338 14.6666 16.4339 14.3941 16.9686C14.1544 17.439 13.772 17.8215 13.3016 18.0612C12.7668 18.3337 12.0667 18.3337 10.6666 18.3337H5.33325C3.93312 18.3337 3.23306 18.3337 2.69828 18.0612C2.22787 17.8215 1.84542 17.439 1.60574 16.9686C1.33325 16.4339 1.33325 15.7338 1.33325 14.3337V5.66699C1.33325 4.26686 1.33325 3.5668 1.60574 3.03202C1.84542 2.56161 2.22787 2.17916 2.69828 1.93948C3.23306 1.66699 3.93312 1.66699 5.33325 1.66699H8.00973C8.62121 1.66699 8.92695 1.66699 9.21466 1.73607C9.46975 1.79731 9.71362 1.89832 9.9373 2.03539C10.1896 2.19 10.4058 2.40619 10.8382 2.83857L13.495 5.49542C13.9274 5.9278 14.1436 6.14399 14.2982 6.39628C14.4353 6.61996 14.5363 6.86382 14.5975 7.11891C14.6666 7.40663 14.6666 7.71237 14.6666 8.32385Z" stroke="#344054" stroke-width="1.66667" stroke-linecap="round" stroke-linejoin="round"/>
</svg>
