<svg width="48" height="48" viewBox="0 0 48 48" fill="none" xmlns="http://www.w3.org/2000/svg">
<rect width="48" height="48" rx="12" fill="#EAECF0"/>
<g clip-path="url(#clip0_9579_12636)">
<path d="M26.9091 17.4556C26.1765 17.5137 25.3301 17.5718 24.4837 17.6855C23.1876 17.8523 21.8915 18.0797 20.8212 18.5858C18.736 19.4356 17.3262 21.2404 17.3262 23.8941C17.3262 27.2266 19.4687 28.9168 22.1728 28.9168C23.0765 28.9168 23.8083 28.8065 24.4837 28.6364C25.5566 28.2978 26.4586 27.6763 27.529 26.5495C28.1505 27.3959 28.3181 27.7917 29.3902 28.6945C29.6714 28.8082 29.9527 28.8082 30.1784 28.6381C30.8547 28.0747 32.037 27.0582 32.6586 26.4939C32.939 26.2656 32.8834 25.9297 32.715 25.6458C32.0935 24.8559 31.4753 24.177 31.4753 22.6553V17.5744C31.4753 15.426 31.642 13.4519 30.0673 11.9857C28.7695 10.7965 26.7407 10.3477 25.1642 10.3477C24.9385 10.3477 24.7137 10.3477 24.4871 10.3477C21.6128 10.5161 18.5701 11.7557 17.8922 15.3157C17.781 15.7645 18.1204 15.9363 18.3453 15.9936L21.5008 16.3903C21.8394 16.3305 22.0078 16.0501 22.0634 15.7662C22.3481 14.5274 23.3612 13.9059 24.488 13.7922C24.5453 13.7922 24.6017 13.7922 24.7145 13.7922C25.3899 13.7922 26.1217 14.076 26.5176 14.636C26.9647 15.3157 26.9117 16.2202 26.9117 17.0084L26.9091 17.4556ZM26.2893 24.1736C25.8952 24.9644 25.2181 25.4723 24.4854 25.6424C24.3734 25.6424 24.2058 25.7005 24.0357 25.7005C22.7961 25.7005 22.0608 24.7404 22.0608 23.3281C22.0608 21.5242 23.1329 20.6744 24.4854 20.2803C25.2181 20.1118 26.0645 20.0537 26.91 20.0537V20.7317C26.9091 22.0312 26.9621 23.046 26.2893 24.1736ZM39.28 32.0125V32.1963C39.2501 33.3 38.6679 35.4177 37.2897 36.583C37.0144 36.7967 36.7383 36.6744 36.8597 36.3658C37.2607 35.3869 38.1772 33.1145 37.7488 32.5939C37.4453 32.1963 36.1877 32.2262 35.1165 32.3186C34.6275 32.3801 34.1974 32.4083 33.8606 32.475C33.5554 32.5032 33.4921 32.2297 33.7999 32.0159C34.1983 31.7398 34.6283 31.526 35.1173 31.3696C36.8606 30.8498 38.8842 31.1559 39.1603 31.4944C39.2202 31.5816 39.28 31.7654 39.28 32.0125ZM36.3715 34.1584C35.9731 34.4636 35.5465 34.7414 35.1165 34.9902C31.9011 36.9232 27.7376 37.9321 24.1255 37.9321C18.306 37.9321 13.1011 35.7845 9.15219 32.1963C8.81364 31.9193 9.08978 31.5218 9.48818 31.7355C13.744 34.2199 19.0104 35.7246 24.4606 35.7246C27.8915 35.7246 31.5925 35.08 35.1156 33.6976C35.3593 33.6087 35.6354 33.4821 35.8808 33.3932C36.4322 33.1444 36.923 33.7625 36.3715 34.1584Z" fill="black"/>
</g>
<defs>
<clipPath id="clip0_9579_12636">
<rect width="30.28" height="30.28" fill="white" transform="translate(9 9)"/>
</clipPath>
</defs>
</svg>
