<svg width="48" height="48" viewBox="0 0 48 48" fill="none" xmlns="http://www.w3.org/2000/svg">
<rect width="48" height="48" rx="12" fill="#EAECF0"/>
<path d="M10.2976 22.9458C9.60785 22.9458 9.23867 23.1822 8.9796 23.4397L8.90916 23.5141V21.125H8.31329V24.9844C8.31329 26.1478 9.20952 26.8732 10.2377 26.8732C11.3704 26.8732 12.2285 26.0012 12.2285 24.8807C12.2285 23.8404 11.3339 22.9458 10.2976 22.9458ZM10.2377 26.321C9.48722 26.321 8.85168 25.7292 8.85168 24.9366C8.85168 24.1432 9.38683 23.4923 10.2507 23.4923C11.1145 23.4923 11.623 24.191 11.623 24.922C11.6238 25.7179 11.0854 26.321 10.2377 26.321Z" fill="#599D15"/>
<path d="M15.8524 23.5982H15.8443C15.5909 23.2994 15.2006 22.9473 14.5335 22.9473C13.4373 22.9473 12.6091 23.7666 12.6091 24.9016C12.6091 26.0974 13.4989 26.8722 14.4947 26.8722C15.1156 26.8722 15.5682 26.5735 15.8362 26.2513H15.8516V26.7419H16.4571V23.0695H15.8516V23.5982H15.8524ZM14.5416 26.3209C13.6462 26.3209 13.2139 25.5995 13.2139 24.9016C13.2139 24.2038 13.6462 23.4905 14.557 23.4905C15.2703 23.4905 15.854 24.0597 15.854 24.9243C15.854 25.7436 15.2241 26.3209 14.5416 26.3209Z" fill="#599D15"/>
<path d="M21.2078 22.9473C20.5715 22.9473 20.127 23.3383 19.9432 23.7059C19.7894 23.2768 19.3223 22.9473 18.7475 22.9473C18.2722 22.9473 17.8966 23.2007 17.6513 23.5294H17.6359V23.0695H17.0295V26.7419H17.6359V24.7025C17.6359 23.9358 18.0269 23.4913 18.6398 23.4913C19.1838 23.4913 19.5133 23.9512 19.5133 24.5568V26.7419H20.127V24.7025C20.127 23.8589 20.6104 23.4913 21.1236 23.4913C21.7446 23.4913 22.0053 23.9892 22.0053 24.5568V26.7419H22.6109V24.6029C22.6109 23.5221 22.0361 22.9473 21.2078 22.9473Z" fill="#599D15"/>
<path d="M29.346 22.9473C28.2417 22.9473 27.3835 23.7666 27.3835 24.9016C27.3835 26.0132 28.2344 26.8722 29.346 26.8722C30.4802 26.8722 31.3085 25.9833 31.3085 24.9016C31.3085 23.7901 30.4883 22.9473 29.346 22.9473ZM29.346 26.3201C28.6408 26.3201 28.0118 25.7299 28.0118 24.9016C28.0118 24.0888 28.5639 23.4913 29.346 23.4913C30.1507 23.4913 30.6794 24.1277 30.6794 24.9016C30.6802 25.7064 30.12 26.3201 29.346 26.3201Z" fill="#599D15"/>
<path d="M25.0722 22.9435C24.3824 22.9435 24.0132 23.1799 23.7542 23.4374L23.6837 23.5119V21.4102H23.0879V24.9821C23.0879 26.1455 23.9841 26.8709 25.0123 26.8709C26.1449 26.8709 27.0031 25.999 27.0031 24.8785C27.0023 23.8382 26.1077 22.9435 25.0722 22.9435ZM25.0123 26.3188C24.2618 26.3188 23.6262 25.727 23.6262 24.9344C23.6262 24.1409 24.1614 23.49 25.0252 23.49C25.8891 23.49 26.3975 24.1887 26.3975 24.9198C26.3983 25.7156 25.8599 26.3188 25.0123 26.3188Z" fill="#599D15"/>
<path d="M38.4436 24.6358H36.4908V23.0684H36.0439V26.7407H36.4908V25.0446H38.4436V26.7407H38.8905V23.0684H38.4436V24.6358Z" fill="#599D15"/>
<path d="M41.8624 24.1451C41.8624 23.6391 41.5337 23.0684 40.6189 23.0684H39.5575V26.7407H40.0044V25.2065H40.495L41.6033 26.7407H42.1692L41.0115 25.1628C41.4746 25.0713 41.8624 24.6673 41.8624 24.1451ZM40.0044 24.7969V23.478H40.6666C41.141 23.478 41.3993 23.7152 41.3993 24.1459C41.3993 24.5014 41.1572 24.7977 40.6715 24.7977H40.0044V24.7969Z" fill="#599D15"/>
<path d="M42.966 23.2047C42.9433 23.1529 42.9126 23.1076 42.8729 23.0695C42.834 23.0315 42.7887 23.0015 42.7369 22.9796C42.6851 22.9578 42.6292 22.9473 42.5709 22.9473C42.5118 22.9473 42.4568 22.9578 42.4041 22.9796C42.3515 23.0015 42.3062 23.0315 42.2665 23.0695C42.2268 23.1076 42.1961 23.1529 42.1734 23.2047C42.1507 23.2565 42.1394 23.3132 42.1394 23.3731C42.1394 23.4346 42.1507 23.4921 42.1734 23.5448C42.1961 23.5974 42.2277 23.6427 42.2665 23.6808C42.3062 23.7196 42.3515 23.7496 42.4041 23.7706C42.4568 23.7917 42.5118 23.803 42.5709 23.803C42.63 23.803 42.6851 23.7925 42.7369 23.7706C42.7887 23.7496 42.834 23.7196 42.8729 23.6808C42.9118 23.6419 42.9425 23.5966 42.966 23.5448C42.9887 23.4921 43 23.4355 43 23.3731C43.0008 23.3132 42.9895 23.2573 42.966 23.2047ZM42.8956 23.5197C42.8778 23.5642 42.8527 23.603 42.8211 23.6362C42.7895 23.6686 42.7523 23.6945 42.7094 23.714C42.6665 23.7326 42.6203 23.7423 42.5709 23.7423C42.5207 23.7423 42.4738 23.7326 42.4309 23.714C42.388 23.6953 42.3499 23.6694 42.3183 23.6362C42.2868 23.603 42.2617 23.565 42.2438 23.5197C42.226 23.4751 42.2171 23.4266 42.2171 23.3739C42.2171 23.3229 42.226 23.2752 42.2438 23.2306C42.2617 23.1861 42.2868 23.148 42.3183 23.1157C42.3499 23.0833 42.3871 23.0574 42.4309 23.0388C42.4738 23.0201 42.5207 23.0104 42.5709 23.0104C42.6203 23.0104 42.6665 23.0193 42.7094 23.0388C42.7523 23.0574 42.7895 23.0833 42.8211 23.1157C42.8527 23.148 42.8778 23.1869 42.8956 23.2306C42.9134 23.2752 42.9223 23.3229 42.9223 23.3739C42.9231 23.4266 42.9142 23.4751 42.8956 23.5197Z" fill="#599D15"/>
<path d="M42.7344 23.3671C42.7595 23.346 42.7724 23.3128 42.7724 23.2683C42.7724 23.2205 42.7578 23.1841 42.7295 23.1606C42.7012 23.1371 42.6566 23.125 42.5975 23.125H42.4041V23.6261H42.4818V23.4108H42.5644L42.7004 23.6261H42.7838L42.6405 23.4051C42.6785 23.4003 42.7093 23.3881 42.7344 23.3671ZM42.5627 23.3468H42.481V23.1873H42.5838C42.5967 23.1873 42.6097 23.1881 42.6235 23.1906C42.6372 23.1922 42.6486 23.1962 42.6591 23.2011C42.6696 23.2068 42.6777 23.2141 42.6842 23.2238C42.6907 23.2335 42.6939 23.2473 42.6939 23.2634C42.6939 23.2837 42.6907 23.2991 42.6834 23.3096C42.6761 23.3209 42.6664 23.329 42.6542 23.3339C42.6421 23.3395 42.6283 23.3428 42.6121 23.3436C42.5967 23.346 42.5805 23.3468 42.5627 23.3468Z" fill="#599D15"/>
<path d="M33.6522 22.9473C32.5479 22.9473 31.6898 23.7666 31.6898 24.9016C31.6898 26.0132 32.5407 26.8722 33.6522 26.8722C34.7865 26.8722 35.6147 25.9833 35.6147 24.9016C35.6147 23.7901 34.7946 22.9473 33.6522 22.9473ZM33.6522 26.3201C32.9471 26.3201 32.318 25.7299 32.318 24.9016C32.318 24.0888 32.8702 23.4913 33.6522 23.4913C34.457 23.4913 34.9857 24.1277 34.9857 24.9016C34.9865 25.7064 34.4262 26.3201 33.6522 26.3201Z" fill="#599D15"/>
<path d="M6.4229 21.1253C6.41804 21.1237 6.41561 21.1293 6.41885 21.1334C7.0301 21.8232 7.47295 22.6579 7.69478 23.193C7.41466 22.8926 7.14749 22.5801 6.84794 22.3721C6.24074 21.9487 5.59953 21.739 5.00528 21.6596C5.00042 21.6588 4.998 21.6653 5.00204 21.6685C6.45771 22.836 6.11849 23.4464 8.01863 23.6877C8.02186 23.6885 8.0251 23.6844 8.02348 23.6812C7.74255 22.8157 7.65107 22.1737 7.17421 21.6637C7.02362 21.5034 6.58158 21.1803 6.4229 21.1253Z" fill="#599D15"/>
</svg>
