<svg width="32" height="32" viewBox="0 0 32 32" fill="none" xmlns="http://www.w3.org/2000/svg">
<path d="M0 16C0 7.16344 7.16344 0 16 0C24.8366 0 32 7.16344 32 16C32 24.8366 24.8366 32 16 32C7.16344 32 0 24.8366 0 16Z" fill="#EBF3F6"/>
<path d="M10 22.0014H22M12 20.0014V14.6681M14.6667 20.0014V14.6681M17.3333 20.0014V14.6681M20 20.0014V14.6681M21.3333 12.6681L16.2827 9.51145C16.1801 9.44736 16.1288 9.41531 16.0739 9.40282C16.0252 9.39177 15.9748 9.39177 15.9261 9.40282C15.8712 9.41531 15.8199 9.44736 15.7173 9.51145L10.6667 12.6681H21.3333Z" stroke="#3684A4" stroke-width="1.33333" stroke-linecap="round" stroke-linejoin="round"/>
</svg>
