<svg width="48" height="48" viewBox="0 0 48 48" fill="none" xmlns="http://www.w3.org/2000/svg">
<rect width="48" height="48" rx="12" fill="#EAECF0"/>
<g clip-path="url(#clip0_9579_9481)">
<path d="M39.6144 27.5C37.9047 27.5 36.5138 24.4719 36.5138 20.75V14H42.7149V20.75C42.7149 24.4715 41.324 27.5 39.6144 27.5ZM37.0776 15.2273V20.75C37.0776 23.7949 38.2154 26.2727 39.6144 26.2727C41.013 26.2727 42.1512 23.7953 42.1512 20.75V15.2273H37.0776Z" fill="#B4913B"/>
<path d="M41.0236 18.0908H38.2049V19.3181H38.5904L38.3951 22.7189H38.9633L39.1586 19.3181H40.0701L40.2654 22.7189H40.8337L40.6384 19.3181H41.0236V18.0908Z" fill="#B4913B"/>
<path d="M8.38223 15.7178C10.0734 15.7178 10.9754 17.4355 10.9754 19.8901C10.9754 21.8541 10.299 23.3265 9.39714 23.8665V23.9152C10.8063 24.6756 11.3136 26.4679 11.3136 28.3575C11.3136 31.0575 10.4117 32.8984 8.72066 32.8984H5V32.4079C5.67648 32.4079 5.67648 32.4079 5.67648 30.8125V17.8041C5.67648 16.2087 5.67648 16.2087 5 16.2087V15.7182L8.38223 15.7178ZM7.70593 23.8174C8.72066 23.8174 9.11527 22.3446 9.11527 20.0132C9.11527 17.9269 8.72066 16.2083 8.04418 16.2083H7.48044V23.8174H7.70593ZM7.48044 24.3086V32.4083H8.26967C9.17165 32.4083 9.45352 30.4443 9.45352 28.236C9.45352 26.0269 8.94615 24.3086 7.93143 24.3086H7.48044Z" fill="#121316"/>
<path d="M11.8325 26.8856C11.8325 22.7132 13.4108 20.3818 14.8201 20.3818C16.1165 20.3818 17.2891 21.6091 16.9509 25.7815H13.6137C13.6137 29.0951 14.4819 30.3224 15.3273 30.3224C16.342 30.3224 16.793 29.0951 17.0185 28.236H17.1313C16.9059 30.6906 16.1167 33.1442 14.7074 33.1442C12.8471 33.1442 11.8325 30.1987 11.8325 26.8856ZM13.6137 25.2897H15.2709C15.4628 23.6215 15.6205 20.8723 14.7636 20.8723C14.1211 20.8723 13.6588 22.1732 13.6137 25.2897Z" fill="#121316"/>
<path d="M21.7539 23.8174C21.7539 22.7132 21.4157 22.3447 21.0774 22.3447C20.7279 22.3447 20.3446 22.7128 19.9499 23.4497V30.8125C19.9499 32.4079 19.9499 32.4079 20.6264 32.4079V32.8984H17.4697V32.4079C18.1461 32.4079 18.1461 32.4079 18.1461 30.8125V23.0814C18.1461 21.8542 18.1461 21.8542 17.5824 21.8542V21.486L19.8937 20.3818H19.9838L19.9499 22.9587H19.9725C20.4007 21.3632 21.2127 20.3818 22.0356 20.3818C22.791 20.3818 23.5576 21.3628 23.5576 24.0628V30.8128C23.5576 32.4083 23.5576 32.4083 24.2341 32.4083V32.8988H21.3029V32.4083C21.7537 32.4083 21.7537 32.4083 21.7537 30.8128L21.7539 23.8174Z" fill="#121316"/>
<path d="M27.7633 30.3214C28.778 30.3214 29.229 29.0941 29.4545 28.235H29.5673C29.342 30.6895 28.5528 33.1433 27.1434 33.1433C25.2832 33.1433 24.2685 30.1982 24.2685 26.8845C24.2685 22.7123 25.8468 20.3809 27.2562 20.3809C28.6653 20.3809 29.4094 21.8781 29.4094 23.4491C29.4094 24.3077 29.229 25.1668 28.5525 25.1668C27.9888 25.1668 27.8648 24.4063 27.8761 23.89C27.9324 22.099 27.8761 20.8718 27.1994 20.8718C26.4103 20.8718 26.0496 23.1545 26.0496 26.0014C26.0498 29.2164 26.9179 30.3214 27.7633 30.3214Z" fill="#121316"/>
<path d="M33.9418 23.817C33.9418 22.7128 33.6036 22.3442 33.2654 22.3442C32.9158 22.3442 32.5325 22.7124 32.1379 23.4491V30.812C32.1379 32.4074 32.1379 32.4075 32.8144 32.4075V32.898H29.6577V32.4075C30.3341 32.4075 30.3341 32.4074 30.3341 30.812V16.6996C30.3341 15.4723 30.3341 15.4723 29.7704 15.4723V15.1041L32.0479 14H32.1379V22.9583H32.1604C32.5887 21.3628 33.4007 20.3814 34.2235 20.3814C34.9789 20.3814 35.7456 21.3624 35.7456 24.0624V30.8124C35.7456 32.4079 35.7456 32.4079 36.4221 32.4079V32.8983H33.4909V32.4079C33.9417 32.4079 33.9417 32.4079 33.9417 30.8124L33.9418 23.817Z" fill="#121316"/>
</g>
<defs>
<clipPath id="clip0_9579_9481">
<rect width="38" height="20" fill="white" transform="translate(5 14)"/>
</clipPath>
</defs>
</svg>
