<svg width="31" height="35" viewBox="0 0 31 35" fill="none" xmlns="http://www.w3.org/2000/svg">
<g clip-path="url(#clip0_9579_12137)">
<path d="M15.9536 19.5999H19.7732C20.8595 19.5999 21.5474 18.9205 21.5474 17.8246C21.5474 16.7955 20.8595 16.0493 19.7732 16.0493H15.9536C15.8268 16.0493 15.7185 16.1731 15.7185 16.2968V19.3433C15.7365 19.4875 15.8273 19.5908 15.9536 19.5908V19.5999ZM15.9536 26.6194H19.8995C21.1126 26.6194 21.8365 25.92 21.8365 24.6843C21.8365 23.6083 21.1485 22.7492 19.8995 22.7492H15.9536C15.8268 22.7492 15.7185 22.8729 15.7185 22.9967V26.352C15.7365 26.5166 15.8273 26.6194 15.9536 26.6194ZM29.9283 0.0867348L18.6325 12.8904H20.4791C23.3576 12.8904 25.0589 14.9487 25.0589 17.1925C25.0589 18.9678 24.0086 20.2589 22.8825 20.8357C22.7013 20.918 22.7013 21.2122 22.9005 21.2886C24.204 21.8642 25.127 23.4082 25.127 25.2201C25.127 27.7722 23.6244 29.81 20.7099 29.81H12.7127C12.5859 29.81 12.4776 29.6863 12.4776 29.5626V19.8678L0.0774386 33.9051C-0.0853164 34.0901 0.0230293 34.4199 0.258646 34.4199H30.0731C30.1819 34.4199 30.2718 34.3123 30.2718 34.194V0.272334C30.3262 0.0463871 30.0731 -0.0773457 29.9278 0.0872727L29.9283 0.0867348Z" fill="#34313F"/>
</g>
<defs>
<clipPath id="clip0_9579_12137">
<rect width="30.28" height="34.43" fill="white"/>
</clipPath>
</defs>
</svg>
