<svg width="48" height="48" viewBox="0 0 48 48" fill="none" xmlns="http://www.w3.org/2000/svg">
<rect width="48" height="48" rx="12" fill="#EAECF0"/>
<g clip-path="url(#clip0_9579_12135)">
<path d="M24.9536 26.5999H28.7732C29.8595 26.5999 30.5474 25.9205 30.5474 24.8246C30.5474 23.7955 29.8595 23.0493 28.7732 23.0493H24.9536C24.8268 23.0493 24.7185 23.1731 24.7185 23.2968V26.3433C24.7365 26.4875 24.8273 26.5908 24.9536 26.5908V26.5999ZM24.9536 33.6194H28.8995C30.1126 33.6194 30.8365 32.92 30.8365 31.6843C30.8365 30.6083 30.1485 29.7492 28.8995 29.7492H24.9536C24.8268 29.7492 24.7185 29.8729 24.7185 29.9967V33.352C24.7365 33.5166 24.8273 33.6194 24.9536 33.6194ZM38.9283 7.08673L27.6325 19.8904H29.4791C32.3576 19.8904 34.0589 21.9487 34.0589 24.1925C34.0589 25.9678 33.0086 27.2589 31.8825 27.8357C31.7013 27.918 31.7013 28.2122 31.9005 28.2886C33.204 28.8642 34.127 30.4082 34.127 32.2201C34.127 34.7722 32.6244 36.81 29.7099 36.81H21.7127C21.5859 36.81 21.4776 36.6863 21.4776 36.5626V26.8678L9.07744 40.9051C8.91468 41.0901 9.02303 41.4199 9.25865 41.4199H39.0731C39.1819 41.4199 39.2718 41.3123 39.2718 41.194V7.27233C39.3262 7.04639 39.0731 6.92265 38.9278 7.08727L38.9283 7.08673Z" fill="#34313F"/>
</g>
<defs>
<clipPath id="clip0_9579_12135">
<rect width="30.28" height="34.43" fill="white" transform="translate(9 7)"/>
</clipPath>
</defs>
</svg>
