<svg width="48" height="48" viewBox="0 0 48 48" fill="none" xmlns="http://www.w3.org/2000/svg">
<rect width="48" height="48" rx="24" fill="#EAECF0"/>
<mask id="mask0_3841_22722" style="mask-type:luminance" maskUnits="userSpaceOnUse" x="6" y="20" width="36" height="7">
<path d="M42 20H6V26.9096H42V20Z" fill="white"/>
</mask>
<g mask="url(#mask0_3841_22722)">
<path d="M21.5087 22.9401V20.0602H22.5899C23.1045 20.0284 23.6309 20.244 23.6309 20.8063C23.6309 21.1212 23.4112 21.341 23.1246 21.4362V21.4446C23.488 21.5206 23.7587 21.7721 23.7587 22.1949C23.7587 22.7655 23.041 22.9727 22.5982 22.941H21.5087V22.9401ZM22.6099 21.2165C22.8698 21.2165 23.0126 21.1087 23.0126 20.8773C23.0126 20.6458 22.8689 20.5381 22.6099 20.5381H22.127V21.2173H22.6099V21.2165ZM22.6099 22.4614C22.9015 22.4614 23.1003 22.4096 23.1003 22.0787C23.1003 21.7479 22.9007 21.6961 22.6099 21.6961H22.127V22.4622H22.6099V22.4614Z" fill="black"/>
<path d="M24.7522 20.0601V22.94H24.154V20.0601H24.7522Z" fill="black"/>
<path d="M26.5719 22.6924C26.4442 22.8762 26.257 22.9999 25.9537 22.9999C25.7542 22.9999 25.3673 22.8486 25.2954 22.557C25.2636 22.4334 25.2553 22.3056 25.2553 22.2379V20.937H25.8544V22.1385C25.8576 22.354 25.9179 22.6013 26.2136 22.6013C26.4008 22.6013 26.5645 22.43 26.5729 22.1385V20.937H27.171V22.5813C27.1752 22.7007 27.1828 22.8211 27.1953 22.9405H26.5962L26.5719 22.6932V22.6924Z" fill="black"/>
<path d="M28.2308 22.0986C28.2308 22.3576 28.2668 22.6016 28.5743 22.6016C28.7814 22.6016 28.885 22.5255 28.9411 22.3426H29.48C29.4281 22.8372 29.0404 23.0009 28.5743 23.0009C27.8884 23.0009 27.6125 22.6141 27.6125 21.9432C27.6125 21.3408 27.9634 20.8779 28.5743 20.8779C28.9494 20.8779 29.2602 21.0058 29.4281 21.3567C29.4841 21.4686 29.5116 21.5881 29.5275 21.7159C29.5434 21.8396 29.5434 21.9674 29.5434 22.0986H28.2308ZM28.9252 21.7001C28.9252 21.4803 28.8659 21.2773 28.5743 21.2773C28.2994 21.2773 28.2393 21.4812 28.2308 21.7001H28.9252Z" fill="black"/>
<path d="M31.5577 20.9936C31.5619 20.6903 31.3781 20.4471 31.0071 20.4471C30.5685 20.4471 30.4565 21.0972 30.4565 21.5007C30.4565 21.9042 30.5685 22.5543 31.0071 22.5543C31.3781 22.5543 31.5619 22.3111 31.5577 22.0078H32.2162C32.1885 22.7297 31.6697 23.0013 31.0071 23.0013C30.1732 23.0013 29.7983 22.3429 29.7983 21.5015C29.7983 20.6602 30.1732 20.001 31.0071 20.001C31.6697 20.001 32.1885 20.2725 32.2162 20.9944H31.5577V20.9936Z" fill="black"/>
<path d="M33.0832 20.9375L33.0949 21.301H33.1033C33.2312 20.986 33.4868 20.9058 33.7859 20.9142V21.4447H33.5269C33.4265 21.453 33.2954 21.5082 33.2353 21.5926C33.1709 21.7045 33.1592 21.8157 33.155 21.9477V22.9411H32.5602L32.5561 21.3369C32.5561 21.2534 32.5443 21.0854 32.536 20.9375H33.0824H33.0832Z" fill="black"/>
<path d="M35.0969 23.0001C34.4427 23.0001 34.0518 22.569 34.0518 21.939C34.0518 21.309 34.4427 20.8779 35.0969 20.8779C35.7512 20.8779 36.1422 21.309 36.1422 21.939C36.1422 22.569 35.7512 23.0001 35.0969 23.0001ZM35.0969 22.6007C35.4637 22.6007 35.5238 22.2573 35.5238 21.9382C35.5238 21.619 35.4645 21.2756 35.0969 21.2756C34.7293 21.2756 34.67 21.619 34.67 21.9382C34.67 22.2573 34.7301 22.6007 35.0969 22.6007Z" fill="black"/>
<path d="M37.5828 21.4723C37.5745 21.337 37.4473 21.2768 37.3113 21.2768C37.1474 21.2768 37.0724 21.3244 37.0724 21.4564C37.0724 21.7714 38.217 21.5918 38.217 22.3421C38.217 22.7807 37.6823 23.0004 37.3113 23.0004C36.8442 23.0004 36.4372 22.8166 36.4299 22.3579H36.9846C36.9962 22.5134 37.1358 22.6011 37.312 22.6011C37.4757 22.6011 37.5995 22.5334 37.5995 22.378C37.5995 22.2226 37.312 22.1507 37.1927 22.1223C36.8099 22.0304 36.4549 21.9469 36.4549 21.4798C36.4549 21.0612 36.9619 20.8774 37.3128 20.8774C37.7357 20.8774 38.0949 21.0287 38.1224 21.4723H37.5836H37.5828Z" fill="black"/>
<path d="M39.5774 21.4723C39.5698 21.337 39.4421 21.2768 39.3059 21.2768C39.1422 21.2768 39.0669 21.3244 39.0669 21.4564C39.0669 21.7714 40.2116 21.5918 40.2116 22.3421C40.2116 22.7807 39.6769 23.0004 39.3059 23.0004C38.8388 23.0004 38.432 22.8166 38.4244 22.3579H38.9792C38.991 22.5134 39.1312 22.6011 39.3066 22.6011C39.4705 22.6011 39.5941 22.5334 39.5941 22.378C39.5941 22.2226 39.3066 22.1507 39.1873 22.1223C38.8038 22.0304 38.4494 21.9469 38.4494 21.4798C38.4494 21.0612 38.9557 20.8774 39.3076 20.8774C39.7303 20.8774 40.0895 21.0287 40.1172 21.4723H39.5783H39.5774Z" fill="black"/>
<path d="M21.5087 26.8506V23.9698H22.5899C23.1045 23.9381 23.6309 24.1536 23.6309 24.7159C23.6309 25.0309 23.4112 25.2507 23.1246 25.3459V25.3534C23.488 25.4294 23.7587 25.6809 23.7587 26.1037C23.7587 26.6743 23.041 26.8815 22.5982 26.8498H21.5087V26.8506ZM22.6099 25.127C22.8698 25.127 23.0126 25.0192 23.0126 24.7878C23.0126 24.5563 22.8689 24.4486 22.6099 24.4486H22.127V25.127H22.6099ZM22.6099 26.3719C22.9015 26.3719 23.1003 26.3201 23.1003 25.9884C23.1003 25.6567 22.9007 25.6057 22.6099 25.6057H22.127V26.3719H22.6099Z" fill="black"/>
<path d="M24.7522 23.9697V26.8505H24.154V23.9697H24.7522Z" fill="black"/>
<path d="M26.5719 26.6021C26.4442 26.7859 26.257 26.9095 25.9537 26.9095C25.7542 26.9095 25.3673 26.7583 25.2954 26.4667C25.2636 26.3431 25.2553 26.2152 25.2553 26.1475V24.8467H25.8544V26.0481C25.8576 26.2637 25.9179 26.511 26.2136 26.511C26.4008 26.511 26.5645 26.3397 26.5729 26.0481V24.8467H27.171V26.4901C27.1752 26.6096 27.1828 26.7299 27.1953 26.8494H26.5962L26.5719 26.6021Z" fill="black"/>
<path d="M28.2308 26.0079C28.2308 26.2678 28.2668 26.5109 28.5743 26.5109C28.7814 26.5109 28.885 26.4349 28.9411 26.2519H29.48C29.4281 26.7465 29.0404 26.9103 28.5743 26.9103C27.8884 26.9103 27.6125 26.5234 27.6125 25.8533C27.6125 25.251 27.9634 24.7881 28.5743 24.7881C28.9494 24.7881 29.2602 24.9159 29.4281 25.2668C29.4841 25.3788 29.5116 25.4983 29.5275 25.6261C29.5434 25.7498 29.5434 25.8776 29.5434 26.0088H28.2308V26.0079ZM28.9252 25.6094C28.9252 25.3896 28.8659 25.1866 28.5743 25.1866C28.2994 25.1866 28.2393 25.3905 28.2308 25.6094H28.9252Z" fill="black"/>
<path d="M31.4744 24.7909C31.4501 24.4993 31.2947 24.3556 30.9956 24.3556C30.7684 24.3556 30.5368 24.475 30.5368 24.7265C30.5368 25.0382 30.8159 25.0732 31.0632 25.1334C31.5018 25.2454 32.1485 25.369 32.1485 25.9472C32.1485 26.6615 31.5261 26.9088 30.9078 26.9088C30.2494 26.9088 29.7833 26.654 29.8024 25.9271H30.4332C30.409 26.2463 30.5929 26.4618 30.9162 26.4618C31.1634 26.4618 31.491 26.3858 31.491 26.0783C31.491 25.7391 31.0799 25.7157 30.8326 25.6514C30.43 25.552 29.8794 25.3682 29.8794 24.8577C29.8794 24.1993 30.4859 23.9077 31.0767 23.9077C31.6356 23.9077 32.0701 24.211 32.0701 24.7892H31.4751L31.4744 24.7909Z" fill="black"/>
<path d="M32.5876 26.8505V23.9697H33.1816V25.0826L33.1902 25.091C33.3137 24.9072 33.5017 24.7877 33.8043 24.7877C34.0038 24.7877 34.3907 24.9356 34.4625 25.2263C34.4943 25.35 34.5027 25.4778 34.5027 25.5455V26.8505H33.9045V25.6457C33.9003 25.4302 33.841 25.1871 33.5452 25.1871C33.358 25.1871 33.1943 25.355 33.1858 25.6457V26.8505H32.5876Z" fill="black"/>
<path d="M35.636 23.9697V24.4844H34.9976V23.9697H35.636ZM35.6159 24.847V26.8497H35.0177V24.847H35.6159Z" fill="black"/>
<path d="M36.6572 26.0079C36.6572 26.2678 36.6932 26.5109 37.0005 26.5109C37.2078 26.5109 37.3115 26.4349 37.3674 26.2519H37.9062C37.8545 26.7465 37.4676 26.9103 37.0005 26.9103C36.3147 26.9103 36.039 26.5234 36.039 25.8533C36.039 25.251 36.3899 24.7881 37.0005 24.7881C37.3757 24.7881 37.6866 24.9159 37.8545 25.2668C37.9106 25.3788 37.9381 25.4983 37.9547 25.6261C37.9707 25.7498 37.9707 25.8776 37.9707 26.0088H36.6582L36.6572 26.0079ZM37.3516 25.6094C37.3516 25.3896 37.2921 25.1866 37.0005 25.1866C36.7258 25.1866 36.6656 25.3905 36.6572 25.6094H37.3516Z" fill="black"/>
<path d="M38.9434 23.9697V26.8505H38.3452V23.9697H38.9434Z" fill="black"/>
<path d="M40.8381 23.9697H41.4365V26.4512C41.4365 26.5832 41.4481 26.7185 41.4566 26.8505H40.8575C40.8491 26.7544 40.8416 26.6625 40.8416 26.5673H40.8332C40.7012 26.8029 40.4781 26.9107 40.2191 26.9107C39.6325 26.9107 39.3578 26.3643 39.3578 25.8496C39.3578 25.3349 39.6727 24.7885 40.2951 24.7885C40.5024 24.7885 40.7178 24.9122 40.8298 25.0801H40.8381V23.9714V23.9697ZM40.4071 26.5113C40.7305 26.5113 40.8381 26.1245 40.8381 25.8488C40.8381 25.5731 40.7305 25.1862 40.4071 25.1862C40.0245 25.1862 39.976 25.5413 39.976 25.8488C39.976 26.1562 40.0236 26.5113 40.4071 26.5113Z" fill="black"/>
<path d="M12.4241 26.8153C12.2386 26.8153 12.1041 26.6825 12.1041 26.4961C12.1041 26.3098 12.2378 26.1787 12.4241 26.1787C12.6104 26.1787 12.7416 26.3123 12.7416 26.4961C12.7416 26.68 12.6087 26.8153 12.4241 26.8153ZM12.4241 26.1177C12.2144 26.1177 12.0439 26.2881 12.0439 26.4961C12.0439 26.7042 12.2144 26.8763 12.4241 26.8763C12.6338 26.8763 12.8025 26.7059 12.8025 26.4961C12.8025 26.2864 12.633 26.1177 12.4241 26.1177Z" fill="#00A3E0"/>
<path d="M12.4144 26.4675H12.3375V26.328H12.457C12.5087 26.328 12.5597 26.3355 12.5597 26.3965C12.5597 26.4784 12.4745 26.4683 12.4144 26.4683M12.6199 26.3981C12.6199 26.3196 12.5814 26.2778 12.4687 26.2778H12.2815V26.7106H12.3366V26.5185H12.4294L12.5514 26.7106H12.614L12.4854 26.5185C12.5606 26.5118 12.619 26.48 12.619 26.3973" fill="#00A3E0"/>
<path d="M10.9094 21.9251V20.0327H7.89324V21.9251H6V24.9521H7.89324V26.8445H10.9094V24.9521H12.8026V21.9251H10.9094Z" fill="#00A3E0"/>
<path d="M18.9201 26.8181C18.7379 26.8181 18.6068 26.6877 18.6068 26.5047C18.6068 26.3218 18.7388 26.1931 18.9201 26.1931C19.1014 26.1931 19.2309 26.3235 19.2309 26.5047C19.2309 26.686 19.1005 26.8181 18.9201 26.8181ZM18.9201 26.1338C18.7146 26.1338 18.5475 26.3001 18.5475 26.5047C18.5475 26.7094 18.7146 26.8774 18.9201 26.8774C19.1256 26.8774 19.291 26.7103 19.291 26.5047C19.291 26.2992 19.1248 26.1338 18.9201 26.1338Z" fill="#00A3E0"/>
<path d="M18.9095 26.4759H18.8343V26.3389H18.9512C19.003 26.3389 19.0523 26.3472 19.0523 26.4065C19.0523 26.4859 18.9688 26.4759 18.9095 26.4759ZM19.1108 26.4065C19.1108 26.3305 19.0732 26.2896 18.9629 26.2896H18.7791V26.714H18.8334V26.5252H18.9245L19.044 26.714H19.105L18.978 26.5252C19.0523 26.5193 19.11 26.4884 19.11 26.4057" fill="#00A3E0"/>
<path d="M18.8864 20.0361C18.1545 20.4053 17.4243 20.6034 16.5679 20.6067C15.7115 20.6092 14.9813 20.402 14.2485 20.0327C13.7673 20.9793 13.6913 22.5175 14.1073 23.8017C14.5084 25.0399 15.2854 26.1669 16.5679 26.8763C17.8504 26.1678 18.6274 25.0399 19.0284 23.8017C19.4445 22.5167 19.3676 20.9827 18.8872 20.0361" fill="#00A3E0"/>
<path d="M10.5603 24.9152V24.9177L9.70139 23.3044C9.63873 23.1665 9.6663 22.9384 9.90191 22.9058L11.1568 22.7847C11.2345 22.9894 11.2763 23.2124 11.2763 23.4439C11.2763 24.0404 10.9964 24.5726 10.5603 24.9144" fill="#F9F9F9"/>
<path d="M10.435 25.008H10.4341C10.1392 25.201 9.78576 25.3146 9.40645 25.3146C9.02713 25.3146 8.67372 25.201 8.37878 25.0072L9.28947 23.6453C9.35715 23.5501 9.45825 23.5576 9.52258 23.6453L10.4333 25.0072H10.4341L10.435 25.008Z" fill="#F9F9F9"/>
<path d="M7.5366 23.4444C7.5366 23.2121 7.57838 22.9899 7.65608 22.7852L8.91016 22.9063C9.14577 22.9389 9.1725 23.167 9.11068 23.3048L8.25096 24.9182V24.9157C7.81566 24.5731 7.53577 24.0417 7.53577 23.4452" fill="#F9F9F9"/>
<path d="M9.40683 23.9385C9.39681 23.9385 9.38762 23.9426 9.3801 23.9535L8.7518 24.916C8.95149 25.0054 9.17374 25.0547 9.40683 25.0547C9.63994 25.0547 9.86136 25.0054 10.0619 24.916L9.43273 23.9535C9.42523 23.9435 9.41604 23.9385 9.40683 23.9385Z" fill="#00A3E0"/>
<path d="M8.79211 23.1493L7.84214 23.0615C7.8129 23.1844 7.79703 23.313 7.79703 23.4442C7.79703 23.8461 7.94325 24.212 8.18469 24.4936L8.8506 23.2228C8.86646 23.1835 8.86146 23.1543 8.79294 23.1493" fill="#00A3E0"/>
<path d="M9.40707 21.5747C10.1565 21.5747 10.804 22.0159 11.1015 22.6542H9.77052C9.58086 22.65 9.49647 22.5389 9.49313 22.4486C9.48811 22.3417 9.50566 22.3074 9.59422 22.193C9.6903 22.0643 9.6243 21.8187 9.40707 21.8145C9.18984 21.8187 9.12299 22.0651 9.21991 22.193C9.30849 22.3074 9.3252 22.3417 9.32101 22.4486C9.31768 22.5389 9.23412 22.65 9.04362 22.6542H7.71268C8.01012 22.0159 8.65679 21.5747 9.40707 21.5747Z" fill="#F9F9F9"/>
<path d="M10.6304 22.397C10.4291 22.1622 10.1601 21.985 9.85427 21.8965C9.94951 22.0544 9.87181 22.2608 9.7824 22.3585C9.76569 22.3752 9.77404 22.3928 9.78909 22.397H10.6304Z" fill="#00A3E0"/>
<path d="M10.0204 23.1493C9.95191 23.1543 9.94689 23.1835 9.96276 23.2228L10.6278 24.4936C10.8701 24.2112 11.0163 23.8452 11.0163 23.4442C11.0163 23.313 11.0005 23.1852 10.9704 23.0615L10.0204 23.1493Z" fill="#00A3E0"/>
<path d="M8.95956 21.8965C8.65293 21.985 8.38473 22.1613 8.18338 22.397H9.02474C9.03978 22.3928 9.04814 22.3752 9.03059 22.3585C8.94118 22.2608 8.86516 22.0544 8.95956 21.8965Z" fill="#00A3E0"/>
<path d="M18.5439 23.6556C18.1838 24.7117 17.6215 25.6483 16.5671 26.3016C16.5671 26.3016 16.5671 26.3016 16.5688 26.3025H16.5671C15.5127 25.6483 14.9504 24.7117 14.5903 23.6548C14.2703 22.7157 14.1926 21.617 14.5435 20.7598C15.0707 20.9411 15.3798 20.997 15.6673 21.0413C15.9346 21.0831 16.1736 21.109 16.5663 21.114H16.5679C16.9589 21.109 17.1987 21.0831 17.4661 21.0413C17.7527 20.997 18.0618 20.9411 18.5898 20.7598C18.9416 21.617 18.863 22.7165 18.5439 23.6548" fill="#F9F9F9"/>
<path d="M17.4833 21.2875C17.175 21.3284 16.8692 21.3594 16.5692 21.3619H16.5676C16.266 21.3594 15.961 21.3284 15.6527 21.2875C15.3444 21.2457 15.0461 21.1756 14.7261 21.0903C14.5022 21.7236 14.5498 22.5232 14.7228 23.2342C15.0461 24.5744 15.8549 25.5928 16.5684 26.0423C17.2819 25.5937 18.0907 24.5744 18.414 23.2342C18.5861 22.5232 18.6329 21.7236 18.4098 21.0903C18.0907 21.1756 17.7916 21.2457 17.4841 21.2875" fill="#00A3E0"/>
<path d="M17.3244 22.0018C17.3085 22.0545 17.296 22.0536 17.2617 22.0862C17.1899 22.1514 17.0946 22.2182 17.0019 22.3076C16.9426 22.3645 16.8849 22.3979 16.8423 22.4664C16.8323 22.4814 16.8105 22.524 16.8105 22.524C16.6518 22.4923 16.4905 22.4889 16.3669 22.4639L16.361 22.3285C16.361 22.3285 16.5198 22.3268 16.5357 22.2316C16.5357 22.2266 16.5323 22.1974 16.5148 22.184C16.493 22.1681 16.4454 22.1506 16.4346 22.1464C16.5549 22.1656 16.6602 22.209 16.7838 22.2634C16.7913 22.2508 16.7713 22.2049 16.7621 22.1948C16.7454 22.1756 16.7262 22.1606 16.6827 22.1506C16.6075 22.1313 16.4271 22.1088 16.4271 22.1088C16.4271 22.1088 16.4922 22.1063 16.5799 22.1029C16.6184 22.0971 16.6576 22.0812 16.666 22.0687C16.6752 22.0495 16.6627 22.0194 16.6368 21.991C16.6192 21.9718 16.6008 21.9542 16.5866 21.9342C16.5682 21.9083 16.5448 21.8606 16.5123 21.8314C16.4722 21.7838 16.351 21.7378 16.351 21.7378C16.351 21.7378 16.341 21.6568 16.361 21.6175C16.3761 21.5883 16.4404 21.5849 16.4613 21.595C16.5515 21.6459 16.6543 21.7011 16.7755 21.7228C16.8005 21.7412 16.8014 21.747 16.8089 21.7838C16.8264 21.8648 16.7947 21.9835 16.8114 22.0403C16.8197 22.0587 16.8373 22.0578 16.8515 22.0503C16.9643 21.9901 17.0403 21.8849 17.1548 21.8364C17.2082 21.8139 17.3603 21.8907 17.326 22.0018" fill="#F9F9F9"/>
<path d="M16.8232 23.5516C16.8232 23.5516 16.8374 23.3118 16.8391 23.1965C16.9026 23.1714 16.9167 23.1088 16.8925 23.0578C16.8792 23.0294 16.8315 23.0093 16.8031 23.0018C16.6711 22.9684 16.5508 22.9626 16.4146 22.9475C16.2951 22.935 16.2007 22.9191 16.0913 22.8907C15.8674 22.8331 15.6777 22.7303 15.5783 22.5264C15.4555 22.2741 15.5658 21.9616 15.8072 21.8355C15.9902 21.7402 16.1957 21.7586 16.3804 21.8288C16.4447 21.8539 16.479 21.909 16.5182 21.9633C16.5358 21.9875 16.5633 21.9976 16.5784 22.0243C16.5876 22.0393 16.5667 22.0469 16.5583 22.0485C16.5182 22.0602 16.3829 22.0619 16.3386 22.0569C16.2835 22.0494 16.1915 22.0527 16.1364 22.0644C16.1941 22.097 16.2567 22.1379 16.3144 22.1605C16.3494 22.1738 16.377 22.1738 16.4096 22.1897C16.423 22.1964 16.4614 22.2073 16.4614 22.2256C16.4572 22.2432 16.4255 22.2499 16.4021 22.2574C16.3503 22.2716 16.2784 22.2749 16.2116 22.2591C16.1063 22.2348 16.057 22.173 15.9919 22.2115C15.9484 22.2374 15.9476 22.2967 15.9618 22.3568C15.9852 22.4504 16.0829 22.4888 16.1656 22.5164C16.453 22.6091 16.7605 22.5565 17.0413 22.7011C17.1499 22.757 17.2727 22.8698 17.2952 22.9901C17.3913 23.4923 16.824 23.5516 16.824 23.5516" fill="#F9F9F9"/>
<path d="M16.3691 23.0506C16.3691 23.0506 16.4259 23.0565 16.5638 23.0657C16.6699 23.0732 16.7409 23.1024 16.7409 23.1024L16.7276 23.6079C16.6148 23.5862 16.5412 23.5745 16.436 23.5603C16.4017 23.3773 16.3574 23.3147 16.2839 23.1801C16.2672 23.1492 16.2814 23.1375 16.2864 23.13C16.2964 23.1116 16.37 23.0932 16.37 23.0932L16.3683 23.0498L16.3691 23.0506Z" fill="#F9F9F9"/>
<path d="M17.1371 24.1515C17.1179 24.2333 17.0652 24.2985 16.9792 24.3503C16.8889 24.4046 16.7945 24.4088 16.7945 24.4088L16.802 24.1314C16.802 24.1314 16.8229 24.1264 16.8371 24.1089C16.8513 24.0913 16.8547 24.0796 16.8513 24.0554C16.8488 24.0395 16.8363 24.0186 16.8112 24.0078C16.7837 23.9961 16.7419 23.9919 16.7243 23.9902C16.5873 23.9735 16.462 23.9585 16.3283 23.9367C16.086 23.8975 15.9147 23.758 15.929 23.5273C15.939 23.372 16.1019 23.3235 16.2172 23.2759C16.2548 23.3427 16.289 23.4146 16.3024 23.4505C16.3241 23.5123 16.3358 23.5532 16.3358 23.5532C16.3358 23.5532 16.284 23.5624 16.2882 23.6051C16.2924 23.6427 16.3342 23.6585 16.3601 23.6627C16.5297 23.6861 16.7544 23.7145 16.8739 23.7546C16.9533 23.7822 17.031 23.8265 17.0753 23.8883C17.1421 23.981 17.158 24.0562 17.1354 24.1531" fill="#F9F9F9"/>
<path d="M16.4699 24.0518C16.5802 24.0643 16.6203 24.0685 16.7139 24.0793L16.7047 24.5372L16.5986 24.4795L16.4933 24.4286L16.4699 24.0518Z" fill="#F9F9F9"/>
<path d="M16.8961 25.1376C16.8359 25.1878 16.7641 25.2045 16.7641 25.2045L16.7716 25.009C16.7716 25.009 16.7933 24.9889 16.7875 24.9647C16.7775 24.9254 16.6379 24.8318 16.5636 24.8034C16.4875 24.7734 16.3864 24.7449 16.3138 24.7132C16.1458 24.6405 16.0848 24.4926 16.1534 24.3322C16.1784 24.2729 16.2452 24.2319 16.2828 24.2102C16.3229 24.1868 16.3814 24.1685 16.3814 24.1685L16.399 24.3974C16.399 24.3974 16.3773 24.4057 16.3706 24.4258C16.358 24.4659 16.3948 24.4885 16.4048 24.4926C16.5151 24.5419 16.6755 24.6054 16.7925 24.6748C16.9437 24.7633 16.9939 24.8277 16.9939 24.9346C16.9939 25.0307 16.9529 25.0917 16.8969 25.1385" fill="#F9F9F9"/>
<path d="M16.6808 25.6341C16.6808 25.67 16.6665 25.6984 16.598 25.7001C16.5412 25.7001 16.5162 25.6809 16.5145 25.6216C16.5053 25.3584 16.4936 24.8638 16.4936 24.8638C16.4936 24.8638 16.568 24.8863 16.603 24.9072C16.6139 24.9131 16.6523 24.9381 16.6866 24.9732C16.6933 24.9832 16.6991 24.9858 16.6983 25.0016C16.6941 25.1938 16.6824 25.5497 16.6816 25.6341" fill="#F9F9F9"/>
<path d="M16.3897 25.4168C16.3797 25.4861 16.4081 25.5154 16.4014 25.548C16.3897 25.6006 16.3563 25.5847 16.3362 25.5455C16.3087 25.4928 16.2903 25.4661 16.2828 25.385C16.2702 25.2564 16.3346 25.1945 16.3638 25.1653C16.3956 25.1336 16.4248 25.1177 16.4248 25.1177L16.4348 25.3341C16.4348 25.3341 16.3997 25.3474 16.3897 25.4168Z" fill="#F9F9F9"/>
<path d="M16.2158 21.8837C16.2517 21.9087 16.2442 21.9538 16.2952 21.9446C16.3219 21.9405 16.3378 21.9238 16.3611 21.9071C16.3645 21.9054 16.3912 21.9087 16.3988 21.9112C16.3419 21.8536 16.2283 21.8536 16.1531 21.8511C16.1723 21.8878 16.1932 21.8686 16.2149 21.8828" fill="#00A3E0"/>
<path d="M40.4374 22.9619C40.3296 22.9619 40.2519 22.8842 40.2519 22.7764C40.2519 22.6686 40.3296 22.5917 40.4374 22.5917C40.5452 22.5917 40.6219 22.6694 40.6219 22.7764C40.6219 22.8833 40.5452 22.9619 40.4374 22.9619ZM40.4374 22.5566C40.3154 22.5566 40.2168 22.6561 40.2168 22.7764C40.2168 22.8967 40.3154 22.997 40.4374 22.997C40.5594 22.997 40.6572 22.8975 40.6572 22.7764C40.6572 22.6552 40.5584 22.5566 40.4374 22.5566Z" fill="black"/>
<path d="M40.4313 22.7597H40.387V22.6786H40.4563C40.4865 22.6786 40.5164 22.6828 40.5164 22.7179C40.5164 22.7655 40.4671 22.7597 40.4321 22.7597M40.5516 22.7196C40.5516 22.6745 40.5289 22.6494 40.4639 22.6494H40.3551V22.9009H40.387V22.7898H40.4412L40.5122 22.9009H40.549L40.4738 22.7898C40.5173 22.7856 40.5516 22.7672 40.5516 22.7196Z" fill="black"/>
<path d="M41.781 26.8134C41.6732 26.8134 41.5955 26.7357 41.5955 26.6279C41.5955 26.5202 41.6732 26.4433 41.781 26.4433C41.8888 26.4433 41.9655 26.521 41.9655 26.6279C41.9655 26.7349 41.8888 26.8134 41.781 26.8134ZM41.781 26.4082C41.659 26.4082 41.5604 26.5076 41.5604 26.6279C41.5604 26.7483 41.659 26.8485 41.781 26.8485C41.903 26.8485 42.0008 26.7491 42.0008 26.6279C42.0008 26.5068 41.902 26.4082 41.781 26.4082Z" fill="black"/>
<path d="M41.7742 26.6108H41.7299V26.5297H41.7992C41.8293 26.5297 41.8593 26.5339 41.8593 26.569C41.8593 26.6166 41.81 26.6108 41.775 26.6108M41.8945 26.5707C41.8945 26.5256 41.8718 26.5005 41.8068 26.5005H41.698V26.752H41.7299V26.6409H41.784L41.8551 26.752H41.8919L41.8166 26.6409C41.8602 26.6367 41.8945 26.6183 41.8945 26.5707Z" fill="black"/>
</g>
</svg>
