<svg width="24" height="41" viewBox="0 0 24 41" fill="none" xmlns="http://www.w3.org/2000/svg">
<path d="M14.8282 23.8987L9.17133 23.8987M14.8282 23.8987C15.6443 22.0809 16.276 20.1858 16.7138 18.2418M14.8282 23.8987L19.5422 28.6127C19.5422 28.6127 21.8804 25.2375 21.4278 22.9559C20.9187 20.4103 16.7138 18.2418 16.7138 18.2418M9.17133 23.8987C8.37143 22.0954 7.75548 20.216 7.33285 18.289C6.67493 15.434 6.75837 12.4581 7.57524 9.64445C8.39211 6.8308 9.91524 4.27291 11.9998 2.21409C14.5642 4.77853 18.3354 10.0205 16.7138 18.2418M9.17133 23.8987L4.45728 28.6127C4.45728 28.6127 2.11912 25.2375 2.57167 22.9559C3.08078 20.4103 7.28571 18.2418 7.28571 18.2418M9.17133 32.384C8.94505 34.9861 11.9998 38.9836 11.9998 38.9836C11.9998 38.9836 15.0545 34.9861 14.8282 32.384C14.7056 30.9226 13.48 29.7158 11.9998 29.7253C11.2835 29.7419 10.5987 30.0226 10.0767 30.5133C9.55465 31.0039 9.23225 31.6701 9.17133 32.384Z" stroke="#3684A4" stroke-width="3.2" stroke-linecap="round" stroke-linejoin="round"/>
</svg>
