<svg width="24" height="41" viewBox="0 0 24 41" fill="none" xmlns="http://www.w3.org/2000/svg">
<path d="M14.8282 23.8286L9.17133 23.8286M14.8282 23.8286C15.6443 22.0108 16.276 20.1157 16.7138 18.1718M14.8282 23.8286L19.5422 28.5427C19.5422 28.5427 21.8804 25.1674 21.4278 22.8858C20.9187 20.3402 16.7138 18.1718 16.7138 18.1718M9.17133 23.8286C8.37143 22.0253 7.75548 20.1459 7.33285 18.2189C6.67493 15.3639 6.75837 12.388 7.57524 9.57439C8.39211 6.76073 9.91524 4.20284 11.9998 2.14402C14.5642 4.70846 18.3354 9.95048 16.7138 18.1718M9.17133 23.8286L4.45728 28.5427C4.45728 28.5427 2.11912 25.1674 2.57167 22.8858C3.08078 20.3402 7.28571 18.1718 7.28571 18.1718M9.17133 32.3139C8.94505 34.9161 11.9998 38.9136 11.9998 38.9136C11.9998 38.9136 15.0545 34.9161 14.8282 32.3139C14.7056 30.8526 13.48 29.6458 11.9998 29.6552C11.2835 29.6719 10.5987 29.9525 10.0767 30.4432C9.55465 30.9339 9.23225 31.6001 9.17133 32.3139Z" stroke="#3684A4" stroke-width="3.2" stroke-linecap="round" stroke-linejoin="round"/>
</svg>
