<svg width="23" height="24" viewBox="0 0 23 24" fill="none" xmlns="http://www.w3.org/2000/svg">
<g filter="url(#filter0_d_10640_44356)">
<path d="M5.25452 1.10527H17.2731C19.6585 1.10527 21.5922 3.03903 21.5922 5.42444V17.443C21.5922 19.8284 19.6585 21.7622 17.2731 21.7622H5.25452C2.86911 21.7622 0.935349 19.8284 0.935349 17.443V5.42444C0.935349 3.03903 2.86911 1.10527 5.25452 1.10527Z" stroke="#009FF5" stroke-width="0.37558" shape-rendering="crispEdges"/>
<g clip-path="url(#clip0_10640_44356)">
<path d="M12.18 9.12107H14.7888C14.9957 9.12107 15.0991 9.12107 15.1596 9.16457C15.2124 9.20252 15.2468 9.26094 15.2543 9.32551C15.263 9.39951 15.2127 9.48994 15.1123 9.67079L14.4897 10.7915C14.4532 10.857 14.435 10.8898 14.4279 10.9246C14.4215 10.9553 14.4215 10.987 14.4279 11.0177C14.435 11.0525 14.4532 11.0853 14.4897 11.1508L15.1123 12.2715C15.2127 12.4524 15.263 12.5428 15.2543 12.6168C15.2468 12.6814 15.2124 12.7398 15.1596 12.7777C15.0991 12.8212 14.9957 12.8212 14.7888 12.8212H11.5325C11.2734 12.8212 11.1439 12.8212 11.045 12.7708C10.958 12.7265 10.8872 12.6557 10.8429 12.5687C10.7925 12.4698 10.7925 12.3402 10.7925 12.0812V10.9712M9.17363 15.5963L7.32356 8.19604M8.01735 10.9712H11.44C11.699 10.9712 11.8285 10.9712 11.9275 10.9207C12.0145 10.8764 12.0853 10.8056 12.1296 10.7186C12.18 10.6197 12.18 10.4902 12.18 10.2311V8.01103C12.18 7.75199 12.18 7.62247 12.1296 7.52354C12.0853 7.43651 12.0145 7.36575 11.9275 7.32141C11.8285 7.271 11.699 7.271 11.44 7.271H8.0401C7.71702 7.271 7.55548 7.271 7.445 7.33794C7.34816 7.39661 7.27621 7.48877 7.24277 7.59694C7.20463 7.72037 7.24381 7.87709 7.32217 8.19052L8.01735 10.9712Z" stroke="#344054" stroke-width="0.75116" stroke-linecap="round" stroke-linejoin="round"/>
</g>
</g>
<defs>
<filter id="filter0_d_10640_44356" x="-0.00360107" y="0.541901" width="22.535" height="22.535" filterUnits="userSpaceOnUse" color-interpolation-filters="sRGB">
<feFlood flood-opacity="0" result="BackgroundImageFix"/>
<feColorMatrix in="SourceAlpha" type="matrix" values="0 0 0 0 0 0 0 0 0 0 0 0 0 0 0 0 0 0 127 0" result="hardAlpha"/>
<feOffset dy="0.37558"/>
<feGaussianBlur stdDeviation="0.37558"/>
<feComposite in2="hardAlpha" operator="out"/>
<feColorMatrix type="matrix" values="0 0 0 0 0.0627451 0 0 0 0 0.0941176 0 0 0 0 0.156863 0 0 0 0.05 0"/>
<feBlend mode="normal" in2="BackgroundImageFix" result="effect1_dropShadow_10640_44356"/>
<feBlend mode="normal" in="SourceGraphic" in2="effect1_dropShadow_10640_44356" result="shape"/>
</filter>
<clipPath id="clip0_10640_44356">
<rect width="10.5162" height="10.5162" fill="white" transform="translate(6.00586 6.17578)"/>
</clipPath>
</defs>
</svg>
