<svg width="48" height="48" viewBox="0 0 48 48" fill="none" xmlns="http://www.w3.org/2000/svg">
<rect width="48" height="48" rx="12" fill="#EAECF0"/>
<path d="M25.7593 19.5835C22.772 19.5835 20.1781 21.2631 18.8673 23.7287C17.5565 21.263 14.9627 19.5837 11.9756 19.5837C10.2198 19.5837 8.59966 20.1637 7.29607 21.1428V14.5713H7.29535C7.27711 13.7245 6.58612 13.043 5.73486 13.043C4.8835 13.043 4.19269 13.7245 4.17463 14.5713H4.17391V27.5144H4.17716C4.24651 31.7632 7.71019 35.187 11.9755 35.187C14.9626 35.187 17.5565 33.5072 18.8672 31.0415C20.1781 33.5074 22.772 35.1869 25.7591 35.1869C30.0678 35.1869 33.5608 31.6937 33.5608 27.3852C33.5609 23.0762 30.0677 19.5835 25.7593 19.5835ZM11.9755 32.0647C9.39096 32.0647 7.29598 29.9696 7.29598 27.3853C7.29598 24.8006 9.39106 22.7056 11.9755 22.7056C14.56 22.7056 16.6551 24.8006 16.6551 27.3853C16.6551 29.9696 14.56 32.0647 11.9755 32.0647ZM25.7593 32.0647C23.1747 32.0647 21.0798 29.9696 21.0798 27.3851C21.0798 24.8004 23.1748 22.7056 25.7593 22.7056C28.3436 22.7056 30.4389 24.8004 30.4389 27.3851C30.4388 29.9696 28.3436 32.0647 25.7593 32.0647Z" fill="#0161D5"/>
<path d="M44.0533 32.7321L40.0579 27.3914L44.0533 22.0507L44.0526 22.05C44.5468 21.3619 44.4036 20.4021 43.7228 19.8907C43.0422 19.3797 42.0805 19.5095 41.5574 20.1757L41.5571 20.1756L38.1086 24.7852L34.6602 20.1756L34.6597 20.1764C34.1366 19.5095 33.175 19.3797 32.4942 19.891C31.8134 20.4025 31.6702 21.3623 32.1647 22.0502L32.1639 22.0507L36.1593 27.3914L32.1639 32.7321L32.1647 32.7325C31.6701 33.4206 31.8134 34.3803 32.4942 34.8916C33.175 35.403 34.1366 35.2731 34.6597 34.6067L34.6602 34.6073L38.1086 29.9975L41.5571 34.6073L41.5574 34.6071C42.0806 35.2733 43.0422 35.403 43.7228 34.8919C44.4036 34.3806 44.5468 33.4208 44.0526 32.7328L44.0533 32.7321Z" fill="#0161D5"/>
</svg>
