<svg width="48" height="48" viewBox="0 0 48 48" fill="none" xmlns="http://www.w3.org/2000/svg">
<rect width="48" height="48" rx="12" fill="#EAECF0"/>
<path d="M34.035 9.47855C33.1308 9.47534 32.2385 9.68349 31.429 10.0864C30.6196 10.4893 29.9155 11.0758 29.373 11.7991L28.2345 13.3096C28.0038 13.6137 27.7061 13.8607 27.3646 14.0314C27.023 14.202 26.6468 14.2917 26.265 14.2936H6V38.5201H13.944C14.8481 38.523 15.7404 38.3148 16.5498 37.9119C17.3592 37.509 18.0633 36.9227 18.606 36.1996L19.7445 34.6906C19.9749 34.3859 20.2725 34.1385 20.6141 33.9676C20.9556 33.7967 21.332 33.7068 21.714 33.7051H42V9.47855H34.035ZM35.697 27.4021H27.207C26.3029 27.3991 25.4106 27.6073 24.6012 28.0102C23.7918 28.4131 23.0877 28.9994 22.545 29.7226L21.4065 31.2331C21.1758 31.5372 20.8781 31.7842 20.5366 31.9549C20.195 32.1255 19.8188 32.2152 19.437 32.2171H12.303V20.5966H20.7945C21.6984 20.5995 22.5905 20.3913 23.3996 19.9884C24.2088 19.5855 24.9126 18.9991 25.455 18.2761L26.5935 16.7671C26.8241 16.4626 27.1217 16.2153 27.4632 16.0444C27.8048 15.8735 28.1811 15.7836 28.563 15.7816H35.7195L35.697 27.4021Z" fill="black"/>
</svg>
