<svg width="48" height="48" viewBox="0 0 48 48" fill="none" xmlns="http://www.w3.org/2000/svg">
<rect width="48" height="48" rx="24" fill="#EAECF0"/>
<path d="M23 23H18.2C17.0799 23 16.5198 23 16.092 23.218C15.7157 23.4097 15.4097 23.7157 15.218 24.092C15 24.5198 15 25.0799 15 26.2V33M33 33V18.2C33 17.0799 33 16.5198 32.782 16.092C32.5903 15.7157 32.2843 15.4097 31.908 15.218C31.4802 15 30.9201 15 29.8 15H26.2C25.0799 15 24.5198 15 24.092 15.218C23.7157 15.4097 23.4097 15.7157 23.218 16.092C23 16.5198 23 17.0799 23 18.2V33M34 33H14M26.5 19H29.5M26.5 23H29.5M26.5 27H29.5" stroke="#6F7784" stroke-width="2" stroke-linecap="round" stroke-linejoin="round"/>
</svg>
