<svg width="48" height="48" viewBox="0 0 48 48" fill="none" xmlns="http://www.w3.org/2000/svg">
<rect width="48" height="48" rx="12" fill="#EFEFEF"/>
<path d="M28.8416 28.1837C27.973 28.9546 26.8877 29.9136 24.9194 29.9136H23.7422C23.0682 29.926 22.3985 29.8038 21.7723 29.554C21.1462 29.3043 20.5762 28.9321 20.0957 28.4593C19.1784 27.5134 18.6735 26.2424 18.6916 24.9248V23.314C18.6739 21.997 19.1787 20.7265 20.0957 19.7809C20.5762 19.3081 21.1462 18.9359 21.7723 18.6862C22.3985 18.4365 23.0682 18.3142 23.7422 18.3266H24.9194C26.8891 18.3266 27.973 19.2842 28.8416 20.0494C29.7446 20.8447 30.5227 21.5396 32.5986 21.5396C32.9155 21.5393 33.2318 21.5139 33.5447 21.4635L33.5361 21.4448C33.4134 21.1361 33.2695 20.8363 33.1054 20.5475L31.7171 18.1443C31.0913 17.0609 30.1914 16.1613 29.1078 15.5358C28.0242 14.9104 26.7951 14.5811 25.5439 14.5811H22.7631C21.5119 14.5811 20.2828 14.9104 19.1992 15.5358C18.1156 16.1613 17.2157 17.0609 16.5899 18.1443L15.2016 20.5475C14.5766 21.6316 14.2476 22.8609 14.2476 24.1122C14.2476 25.3635 14.5766 26.5929 15.2016 27.6769L16.5899 30.0802C17.2156 31.1637 18.1155 32.0635 19.1991 32.6892C20.2827 33.315 21.5118 33.6445 22.7631 33.6448H25.5396C26.7909 33.6445 28.02 33.315 29.1036 32.6892C30.1872 32.0635 31.0871 31.1637 31.7128 30.0802L33.1011 27.6798C33.2655 27.3916 33.4094 27.0923 33.5318 26.7839L33.5404 26.7667C33.2278 26.7139 32.9113 26.6875 32.5943 26.6878C30.5184 26.6878 29.7403 27.3783 28.8373 28.1765" fill="#006BFF"/>
<path d="M24.9226 19.7852H23.7453C21.5775 19.7852 20.1562 21.3328 20.1562 23.3139V24.9247C20.1562 26.9073 21.5804 28.455 23.7453 28.455H24.9226C28.0809 28.455 27.8326 25.2348 32.6018 25.2348C33.0535 25.2335 33.5044 25.2748 33.9484 25.3583C34.0934 24.5392 34.0934 23.7009 33.9484 22.8818C33.5042 22.9639 33.0535 23.0052 32.6018 23.0053C27.8311 23.0053 28.0809 19.7852 24.9226 19.7852Z" fill="#006BFF"/>
<path d="M36.6868 26.5354C35.8747 25.9402 34.9381 25.5372 33.9476 25.3568V25.3812C33.8614 25.8555 33.7282 26.3201 33.5499 26.768C34.3679 26.8952 35.1439 27.215 35.8139 27.7011C35.8152 27.7083 35.8152 27.7156 35.8139 27.7227C35.3413 29.256 34.5711 30.6812 33.5475 31.9167C32.5238 33.1522 31.2666 34.1739 29.8479 34.9233C28.4292 35.6727 26.8767 36.1352 25.2791 36.2843C23.6815 36.4335 22.0703 36.2663 20.5373 35.7924C19.0045 35.3192 17.58 34.5486 16.3451 33.5246C15.1102 32.5007 14.0891 31.2435 13.3403 29.8248C12.5914 28.4062 12.1294 26.8538 11.9807 25.2566C11.8319 23.6593 11.9993 22.0483 12.4734 20.5158C12.9458 18.9831 13.7157 17.5586 14.7391 16.3237C15.7624 15.0888 17.0192 14.0678 18.4375 13.319C19.8558 12.5702 21.4077 12.1083 23.0047 11.9597C24.6016 11.8112 26.2122 11.9789 27.7442 12.4533C29.6443 13.0382 31.3727 14.0784 32.7791 15.4836C34.1856 16.8887 35.2274 18.6162 35.8139 20.5158C35.8126 20.5234 35.8126 20.5312 35.8139 20.5388C35.144 21.0246 34.3679 21.3435 33.5499 21.4691C33.728 21.918 33.8612 22.3835 33.9476 22.8588C33.9462 22.8663 33.9462 22.8741 33.9476 22.8817C34.9378 22.7011 35.8743 22.2987 36.6868 21.7045C37.4678 21.1303 37.3156 20.4727 37.1979 20.0865C36.1278 16.6183 33.724 13.7171 30.5151 12.021C27.3062 10.3249 23.555 9.97276 20.0865 11.0421C16.6183 12.1121 13.7171 14.516 12.021 17.7248C10.3249 20.9337 9.97276 24.6849 11.0421 28.1534C12.1118 31.6218 14.5156 34.5233 17.7246 36.2194C20.9335 37.9156 24.6849 38.2676 28.1534 37.1979C30.2835 36.5409 32.221 35.3735 33.7972 33.7972C35.3735 32.221 36.5409 30.2835 37.1979 28.1534C37.3156 27.7672 37.4678 27.114 36.6868 26.5368" fill="#006BFF"/>
<path d="M33.545 21.4706C33.2327 21.522 32.9168 21.5484 32.6003 21.5495C30.5244 21.5495 29.7449 20.859 28.8447 20.0593C27.9733 19.287 26.8908 18.328 24.9211 18.328H23.7439C23.0698 18.3159 22.4001 18.4384 21.7739 18.6883C21.1478 18.9383 20.5778 19.3107 20.0974 19.7837C19.1804 20.7293 18.6756 21.9997 18.6933 23.3168V24.9276C18.6752 26.2451 19.1801 27.5161 20.0974 28.4621C20.5779 28.9349 21.1479 29.3071 21.7741 29.5568C22.4002 29.8065 23.0699 29.9288 23.7439 29.9164H24.9211C26.8908 29.9164 27.9733 28.9574 28.8447 28.1936C29.7449 27.3983 30.5244 26.7035 32.6003 26.7035C32.9167 26.7036 33.2326 26.7291 33.545 26.7795C33.727 26.3295 33.8622 25.8619 33.9484 25.3841V25.3597C33.5037 25.2782 33.0525 25.2374 32.6003 25.2377C27.8297 25.2377 28.0795 28.4592 24.9211 28.4592H23.7439C21.5761 28.4592 20.1548 26.9102 20.1548 24.9276V23.3139C20.1548 21.3327 21.5775 19.7851 23.7439 19.7851H24.9211C28.0795 19.7851 27.8312 23.0053 32.6003 23.0053C33.0526 23.0054 33.5039 22.9635 33.9484 22.8804V22.8588C33.8624 22.3838 33.7287 21.9187 33.5493 21.4706" fill="#0AE8F0"/>
</svg>
