<svg width="48" height="48" viewBox="0 0 48 48" fill="none" xmlns="http://www.w3.org/2000/svg">
<rect width="48" height="48" rx="12" fill="#EAECF0"/>
<path d="M38.087 21.0786H9.39136M30.116 9.3916V15.2351M17.3624 9.3916V15.2351M17.0435 38.609H30.4348C33.1133 38.609 34.4526 38.609 35.4757 38.1313C36.3756 37.7111 37.1072 37.0407 37.5657 36.216C38.087 35.2786 38.087 34.0513 38.087 31.5968V19.3255C38.087 16.871 38.087 15.6438 37.5657 14.7063C37.1072 13.8816 36.3756 13.2112 35.4757 12.791C34.4526 12.3133 33.1133 12.3133 30.4348 12.3133H17.0435C14.365 12.3133 13.0258 12.3133 12.0027 12.791C11.1028 13.2112 10.3712 13.8816 9.91263 14.7063C9.39136 15.6438 9.39136 16.871 9.39136 19.3255V31.5968C9.39136 34.0513 9.39136 35.2786 9.91263 36.216C10.3712 37.0407 11.1028 37.7111 12.0027 38.1313C13.0258 38.609 14.365 38.609 17.0435 38.609Z" stroke="black" stroke-width="2" stroke-linecap="round" stroke-linejoin="round"/>
</svg>
