<svg width="32" height="32" viewBox="0 0 32 32" fill="none" xmlns="http://www.w3.org/2000/svg">
<path d="M25.55 8.93133C25.55 7.44133 24.79 6.12133 23.64 5.35133C22.95 4.88133 22.12 4.61133 21.23 4.61133H20.16V7.24133C20.16 7.79133 19.72 8.24133 19.16 8.24133C18.61 8.24133 18.16 7.79133 18.16 7.24133V4.61133H9.39V7.24133C9.39 7.79133 8.94 8.24133 8.39 8.24133C7.83 8.24133 7.39 7.79133 7.39 7.24133V4.61133H6.32C5.13 4.61133 4.05 5.09133 3.27 5.88133C2.48 6.66133 2 7.74133 2 8.93133V9.59133H25.55V8.93133ZM6.32 26.5413H15.31C14.5224 25.1834 14.1083 23.6411 14.11 22.0713C14.11 17.1313 18.12 13.1213 23.05 13.1213C23.92 13.1213 24.76 13.2413 25.55 13.4713V11.5913H2V22.2313C2 24.6113 3.94 26.5413 6.32 26.5413Z" fill="#8280FF"/>
<path d="M9.39063 3.99023C9.39063 3.44023 8.94063 2.99023 8.39063 2.99023C7.83063 2.99023 7.39062 3.44023 7.39062 3.99023V4.61023H9.39063V3.99023ZM20.1606 3.99023C20.1606 3.44023 19.7206 2.99023 19.1606 2.99023C18.6106 2.99023 18.1606 3.44023 18.1606 3.99023V4.61023H20.1606V3.99023ZM23.0506 15.1202C19.2206 15.1202 16.1106 18.2402 16.1106 22.0702C16.1106 25.9002 19.2206 29.0102 23.0506 29.0102C26.8806 29.0102 30.0006 25.9002 30.0006 22.0702C30.0006 18.2402 26.8806 15.1202 23.0506 15.1202ZM25.0206 23.0702H23.0506C22.5006 23.0702 22.0506 22.6202 22.0506 22.0702V20.0102C22.0506 19.4602 22.5006 19.0102 23.0506 19.0102C23.6106 19.0102 24.0506 19.4602 24.0506 20.0102V21.0702H25.0206C25.5706 21.0702 26.0206 21.5102 26.0206 22.0702C26.0206 22.6202 25.5706 23.0702 25.0206 23.0702Z" fill="#8280FF"/>
</svg>
