<svg width="48" height="48" viewBox="0 0 48 48" fill="none" xmlns="http://www.w3.org/2000/svg">
<rect width="48" height="48" rx="12" fill="#EFEFEF"/>
<path d="M32.25 15.75H15.75V32.25H32.25V15.75Z" fill="white"/>
<path d="M25.2598 21.6899L26.0158 22.7699L27.2038 21.9059V28.1699H28.4998V19.9619H27.4198L25.2598 21.6899Z" fill="#1E88E5"/>
<path d="M23.2073 23.8088C23.676 23.3783 23.967 22.7813 23.967 22.1221C23.967 20.8118 22.8172 19.7461 21.4042 19.7461C20.2027 19.7461 19.1752 20.5028 18.9067 21.5858L20.1495 21.9016C20.2732 21.4036 20.8005 21.0421 21.4042 21.0421C22.1107 21.0421 22.686 21.5266 22.686 22.1221C22.686 22.7176 22.1107 23.2021 21.4042 23.2021H20.6565V24.4981H21.4042C22.215 24.4981 22.899 25.0613 22.899 25.7281C22.899 26.4061 22.2495 26.9581 21.4507 26.9581C20.7292 26.9581 20.1128 26.5006 20.0153 25.8946L18.75 26.1016C18.9465 27.3286 20.1075 28.2541 21.45 28.2541C22.9553 28.2541 24.18 27.1208 24.18 25.7281C24.18 24.9608 23.802 24.2723 23.2073 23.8088Z" fill="#1E88E5"/>
<path d="M31.5 37.5H16.5L15.75 34.5L16.5 31.5H31.5L32.25 34.5L31.5 37.5Z" fill="#FBC02D"/>
<path d="M34.5 32.25L37.5 31.5V16.5L34.5 15.75L31.5 16.5V31.5L34.5 32.25Z" fill="#4CAF50"/>
<path d="M31.5 16.5L32.25 13.5L31.5 10.5H12.75C11.5073 10.5 10.5 11.5073 10.5 12.75V31.5L13.5 32.25L16.5 31.5V16.5H31.5Z" fill="#1E88E5"/>
<path d="M31.5 31.5V37.5L37.5 31.5H31.5Z" fill="#E53935"/>
<path d="M35.25 10.5H31.5V16.5H37.5V12.75C37.5 11.5073 36.4928 10.5 35.25 10.5Z" fill="#1565C0"/>
<path d="M12.75 37.5H16.5V31.5H10.5V35.25C10.5 36.4928 11.5073 37.5 12.75 37.5Z" fill="#1565C0"/>
</svg>
