<svg width="49" height="48" viewBox="0 0 49 48" fill="none" xmlns="http://www.w3.org/2000/svg">
<rect x="0.333282" width="48" height="48" rx="24" fill="#EAECF0"/>
<path d="M33.3333 22H15.3333M28.3333 14V18M20.3333 14V18M22.8333 26L24.3333 25V30M23.0833 30H25.5833M20.1333 34H28.5333C30.2134 34 31.0535 34 31.6952 33.673C32.2597 33.3854 32.7187 32.9265 33.0063 32.362C33.3333 31.7202 33.3333 30.8802 33.3333 29.2V20.8C33.3333 19.1198 33.3333 18.2798 33.0063 17.638C32.7187 17.0735 32.2597 16.6146 31.6952 16.327C31.0535 16 30.2134 16 28.5333 16H20.1333C18.4531 16 17.613 16 16.9713 16.327C16.4068 16.6146 15.9479 17.0735 15.6602 17.638C15.3333 18.2798 15.3333 19.1198 15.3333 20.8V29.2C15.3333 30.8802 15.3333 31.7202 15.6602 32.362C15.9479 32.9265 16.4068 33.3854 16.9713 33.673C17.613 34 18.4531 34 20.1333 34Z" stroke="#6F7784" stroke-width="2" stroke-linecap="round" stroke-linejoin="round"/>
</svg>
