<svg width="48" height="48" viewBox="0 0 48 48" fill="none" xmlns="http://www.w3.org/2000/svg">
<rect width="48" height="48" rx="12" fill="#EAECF0"/>
<path d="M14.3972 31.1449C14.1485 30.393 13.9534 29.6243 13.8134 28.8448C13.6546 27.8817 13.571 26.9078 13.5632 25.9317C13.5679 24.5662 13.716 23.2049 14.0052 21.8703C14.0952 21.4691 14.1978 21.0697 14.2937 20.6702C14.6271 19.583 15.0592 18.5286 15.5847 17.5202C17.0684 14.7481 19.1366 12.5514 21.9863 11.1653C24.5817 9.9027 27.2963 9.56494 30.116 10.2855C30.6074 10.4163 31.0829 10.6012 31.5337 10.8368C32.7497 11.4814 33.6553 12.4013 34.0715 13.7415C34.3761 14.7301 34.3674 15.7887 34.0465 16.7722C33.446 18.7003 32.356 20.1473 30.1968 20.4308C29.6723 20.5 29.347 20.199 29.4229 19.6644C29.4763 19.2908 29.6614 18.968 29.8399 18.6419C30.5171 17.3826 30.9416 16.065 30.7573 14.6122C30.6739 13.9942 30.4796 13.4196 30.0451 12.9509C29.6231 12.483 29.1193 12.1453 28.498 12.0085C27.2571 11.7358 26.0795 11.9635 24.9344 12.4622C23.7669 12.9717 22.7878 13.739 21.9321 14.6722C20.8357 15.8745 19.9804 17.2763 19.4127 18.8012C19.1715 19.3604 18.9735 19.9373 18.8206 20.5267C18.4321 21.947 18.205 23.4065 18.1434 24.8776C18.0892 25.9417 18.09 27.0051 18.2451 28.0626C18.351 28.7864 18.4886 29.502 18.7455 30.1892C19.4852 32.3867 20.7537 34.1131 23.0438 34.8745C24.5675 35.3815 26.0987 35.2556 27.589 34.7185C29.6306 33.9821 31.1793 32.6102 32.4261 30.8664C32.9096 30.1889 33.3388 29.4741 33.7096 28.7289C33.7308 28.6886 33.7545 28.6496 33.7804 28.6121C33.8855 28.4562 34.0006 28.3102 34.2183 28.3511C34.4493 28.3936 34.5661 28.5513 34.6228 28.7681C34.7162 29.1317 34.6303 29.4803 34.5394 29.8256C34.2633 30.8689 33.7463 31.7979 33.1533 32.6886C32.688 33.3636 32.1702 34.0008 31.6046 34.5943C30.854 35.3107 30.0618 35.9728 29.1611 36.4966C28.7571 36.7333 28.3393 36.9458 27.9101 37.1329C26.2763 37.8359 24.5742 38.0252 22.812 37.8618C21.5485 37.7442 20.3643 37.3756 19.2259 36.8443C18.7235 36.5697 18.2391 36.2632 17.7756 35.927C17.2302 35.5308 16.7707 35.0396 16.3345 34.5292C15.519 33.556 14.8818 32.4465 14.4522 31.2517C14.4322 31.2142 14.4138 31.18 14.3972 31.1449Z" fill="url(#paint0_linear_9579_8999)"/>
<defs>
<linearGradient id="paint0_linear_9579_8999" x1="24.1132" y1="9.91211" x2="31.0435" y2="38.0876" gradientUnits="userSpaceOnUse">
<stop stop-color="#02C4CC"/>
<stop offset="1" stop-color="#13A4D5"/>
</linearGradient>
</defs>
</svg>
