<svg width="60" height="60" viewBox="0 0 60 60" fill="none" xmlns="http://www.w3.org/2000/svg">
<rect width="60" height="60" rx="12" fill="#EAECF0"/>
<path d="M35.3333 18.6237C37.309 19.6055 38.6667 21.6442 38.6667 24C38.6667 26.3558 37.309 28.3945 35.3333 29.3763M38 36.3552C40.0153 37.2671 41.83 38.7533 43.3333 40.6667M16.6667 40.6667C19.262 37.3634 22.7856 35.3333 26.6667 35.3333C30.5478 35.3333 34.0714 37.3634 36.6667 40.6667M32.6667 24C32.6667 27.3137 29.9804 30 26.6667 30C23.353 30 20.6667 27.3137 20.6667 24C20.6667 20.6863 23.353 18 26.6667 18C29.9804 18 32.6667 20.6863 32.6667 24Z" stroke="#3684A4" stroke-width="2" stroke-linecap="round" stroke-linejoin="round"/>
</svg>
