<svg width="44" height="44" viewBox="0 0 44 44" fill="none" xmlns="http://www.w3.org/2000/svg">
<rect width="44" height="44" rx="22" fill="#3684A4"/>
<path d="M19 32C19.5523 32 20 31.5523 20 31C20 30.4477 19.5523 30 19 30C18.4477 30 18 30.4477 18 31C18 31.5523 18.4477 32 19 32Z" stroke="white" stroke-width="2" stroke-linecap="round" stroke-linejoin="round"/>
<path d="M27 32C27.5523 32 28 31.5523 28 31C28 30.4477 27.5523 30 27 30C26.4477 30 26 30.4477 26 31C26 31.5523 26.4477 32 27 32Z" stroke="white" stroke-width="2" stroke-linecap="round" stroke-linejoin="round"/>
<path d="M12 12H13.3062C13.5522 12 13.6752 12 13.7742 12.0452C13.8614 12.0851 13.9353 12.1492 13.9871 12.2299C14.0459 12.3215 14.0633 12.4433 14.0981 12.6869L14.5714 16M14.5714 16L15.6233 23.7314C15.7568 24.7125 15.8235 25.2031 16.0581 25.5723C16.2648 25.8977 16.5611 26.1564 16.9114 26.3174C17.3089 26.5 17.8039 26.5 18.7941 26.5H27.352C28.2945 26.5 28.7658 26.5 29.151 26.3304C29.4905 26.1809 29.7818 25.9398 29.9923 25.6342C30.2309 25.2876 30.3191 24.8247 30.4955 23.8988L31.8191 16.9497C31.8812 16.6238 31.9122 16.4609 31.8672 16.3335C31.8278 16.2218 31.7499 16.1277 31.6475 16.068C31.5308 16 31.365 16 31.0332 16H14.5714Z" stroke="white" stroke-width="2" stroke-linecap="round" stroke-linejoin="round"/>
</svg>
