<svg width="20" height="20" viewBox="0 0 20 20" fill="none" xmlns="http://www.w3.org/2000/svg">
<g clip-path="url(#clip0_8595_17721)">
<path d="M1.66675 1.66666H2.75522C2.96023 1.66666 3.06274 1.66666 3.14523 1.70436C3.21793 1.73758 3.27954 1.79101 3.32271 1.85828C3.37169 1.93461 3.38619 2.03609 3.41518 2.23904L3.80961 4.99999M3.80961 4.99999L4.68618 11.4428C4.79742 12.2604 4.85304 12.6692 5.0485 12.9769C5.22073 13.2481 5.46765 13.4637 5.75954 13.5978C6.0908 13.75 6.50337 13.75 7.3285 13.75H14.4601C15.2455 13.75 15.6383 13.75 15.9592 13.6087C16.2422 13.4841 16.485 13.2832 16.6603 13.0285C16.8592 12.7397 16.9327 12.3539 17.0796 11.5823L18.1827 5.7914C18.2344 5.51983 18.2603 5.38404 18.2228 5.27791C18.1899 5.1848 18.125 5.10639 18.0397 5.05667C17.9425 4.99999 17.8042 4.99999 17.5278 4.99999H3.80961ZM8.33341 17.5C8.33341 17.9602 7.96032 18.3333 7.50008 18.3333C7.03984 18.3333 6.66675 17.9602 6.66675 17.5C6.66675 17.0398 7.03984 16.6667 7.50008 16.6667C7.96032 16.6667 8.33341 17.0398 8.33341 17.5ZM15.0001 17.5C15.0001 17.9602 14.627 18.3333 14.1667 18.3333C13.7065 18.3333 13.3334 17.9602 13.3334 17.5C13.3334 17.0398 13.7065 16.6667 14.1667 16.6667C14.627 16.6667 15.0001 17.0398 15.0001 17.5Z" stroke="white" stroke-width="1.67" stroke-linecap="round" stroke-linejoin="round"/>
</g>
<defs>
<clipPath id="clip0_8595_17721">
<rect width="20" height="20" fill="white"/>
</clipPath>
</defs>
</svg>
