<svg width="24" height="24" viewBox="0 0 24 24" fill="none" xmlns="http://www.w3.org/2000/svg">
<g clip-path="url(#clip0_2611_4120)">
<path d="M3.66666 3.66669H4.75513C4.96014 3.66669 5.06265 3.66669 5.14514 3.70439C5.21784 3.73761 5.27944 3.79104 5.32261 3.85831C5.3716 3.93464 5.3861 4.03612 5.41509 4.23907L5.80951 7.00002M5.80951 7.00002L6.68609 13.4429C6.79733 14.2605 6.85295 14.6693 7.04841 14.977C7.22064 15.2481 7.46756 15.4637 7.75945 15.5978C8.09071 15.75 8.50328 15.75 9.32841 15.75H16.46C17.2454 15.75 17.6382 15.75 17.9591 15.6087C18.2421 15.4841 18.4849 15.2832 18.6602 15.0285C18.8591 14.7397 18.9326 14.3539 19.0796 13.5823L20.1826 7.79143C20.2343 7.51986 20.2602 7.38408 20.2227 7.27794C20.1898 7.18483 20.1249 7.10642 20.0396 7.0567C19.9424 7.00002 19.8041 7.00002 19.5277 7.00002H5.80951ZM10.3333 19.5C10.3333 19.9603 9.96023 20.3334 9.49999 20.3334C9.03975 20.3334 8.66666 19.9603 8.66666 19.5C8.66666 19.0398 9.03975 18.6667 9.49999 18.6667C9.96023 18.6667 10.3333 19.0398 10.3333 19.5ZM17 19.5C17 19.9603 16.6269 20.3334 16.1667 20.3334C15.7064 20.3334 15.3333 19.9603 15.3333 19.5C15.3333 19.0398 15.7064 18.6667 16.1667 18.6667C16.6269 18.6667 17 19.0398 17 19.5Z" stroke="#344054" stroke-width="1.66667" stroke-linecap="round" stroke-linejoin="round"/>
</g>
<defs>
<clipPath id="clip0_2611_4120">
<rect width="20" height="20" fill="white" transform="translate(2 2)"/>
</clipPath>
</defs>
</svg>
