<svg width="11" height="12" viewBox="0 0 11 12" fill="none" xmlns="http://www.w3.org/2000/svg">
<path d="M3.9178 4.575C4.02947 4.25754 4.2499 3.98985 4.54003 3.81934C4.83016 3.64883 5.17127 3.5865 5.50296 3.64339C5.83464 3.70028 6.13549 3.87272 6.35221 4.13018C6.56894 4.38763 6.68755 4.71347 6.68705 5.05C6.68705 6 5.26205 6.475 5.26205 6.475M5.30005 8.375H5.3048M10.05 6C10.05 8.62335 7.9234 10.75 5.30005 10.75C2.6767 10.75 0.550049 8.62335 0.550049 6C0.550049 3.37665 2.6767 1.25 5.30005 1.25C7.9234 1.25 10.05 3.37665 10.05 6Z" stroke="#667085" stroke-width="0.633333" stroke-linecap="round" stroke-linejoin="round"/>
</svg>
