<svg width="49" height="48" viewBox="0 0 49 48" fill="none" xmlns="http://www.w3.org/2000/svg">
<g filter="url(#filter0_iii_9188_41943)">
<path d="M47.9 24C47.9 36.9235 37.4235 47.4 24.5 47.4C11.5765 47.4 1.1 36.9235 1.1 24C1.1 11.0765 11.5765 0.6 24.5 0.6C37.4235 0.6 47.9 11.0765 47.9 24Z" fill="#8280FF" stroke="#F9FAFB" stroke-width="1.2"/>
</g>
<path opacity="0.6" d="M30.324 16.941C31.3961 16.941 32.2652 16.0719 32.2652 14.9998C32.2652 13.9277 31.3961 13.0586 30.324 13.0586C29.2519 13.0586 28.3828 13.9277 28.3828 14.9998C28.3828 16.0719 29.2519 16.941 30.324 16.941Z" fill="#FCFCFC" stroke="#FCFCFC" stroke-width="0.705882"/>
<path d="M36.324 29.2935C37.3961 29.2935 38.2652 28.4244 38.2652 27.3523C38.2652 26.2802 37.3961 25.4111 36.324 25.4111C35.2519 25.4111 34.3828 26.2802 34.3828 27.3523C34.3828 28.4244 35.2519 29.2935 36.324 29.2935Z" fill="#FCFCFC" stroke="#FCFCFC" stroke-width="0.705882"/>
<path opacity="0.6" d="M30.324 38.1177C31.3961 38.1177 32.2652 37.2486 32.2652 36.1765C32.2652 35.1044 31.3961 34.2354 30.324 34.2354C29.2519 34.2354 28.3828 35.1044 28.3828 36.1765C28.3828 37.2486 29.2519 38.1177 30.324 38.1177Z" fill="#FCFCFC" stroke="#FCFCFC" stroke-width="0.705882"/>
<path d="M10.9121 21.5293C12.569 21.5293 13.9121 20.1862 13.9121 18.5293C13.9121 16.8724 12.569 15.5293 10.9121 15.5293C9.25526 15.5293 7.91211 16.8724 7.91211 18.5293C7.91211 20.1862 9.25526 21.5293 10.9121 21.5293Z" fill="#FCFCFC" stroke="#FCFCFC" stroke-width="0.705882"/>
<path d="M14.4414 33.5293C16.0983 33.5293 17.4414 32.1862 17.4414 30.5293C17.4414 28.8724 16.0983 27.5293 14.4414 27.5293C12.7846 27.5293 11.4414 28.8724 11.4414 30.5293C11.4414 32.1862 12.7846 33.5293 14.4414 33.5293Z" fill="#FCFCFC" stroke="#FCFCFC" stroke-width="0.705882"/>
<path d="M5.44164 28.2358C6.02641 28.2358 6.50046 27.7618 6.50046 27.177C6.50046 26.5922 6.02641 26.1182 5.44164 26.1182C4.85686 26.1182 4.38281 26.5922 4.38281 27.177C4.38281 27.7618 4.85686 28.2358 5.44164 28.2358Z" fill="#FCFCFC" stroke="#FCFCFC" stroke-width="0.705882"/>
<path d="M21.676 31.0591C22.2608 31.0591 22.7348 30.585 22.7348 30.0002C22.7348 29.4155 22.2608 28.9414 21.676 28.9414C21.0912 28.9414 20.6172 29.4155 20.6172 30.0002C20.6172 30.585 21.0912 31.0591 21.676 31.0591Z" fill="#FCFCFC" stroke="#FCFCFC" stroke-width="0.705882"/>
<path opacity="0.5" d="M21.676 10.9409C22.2608 10.9409 22.7348 10.4668 22.7348 9.88207C22.7348 9.29729 22.2608 8.82324 21.676 8.82324C21.0912 8.82324 20.6172 9.29729 20.6172 9.88207C20.6172 10.4668 21.0912 10.9409 21.676 10.9409Z" fill="#FCFCFC" stroke="#FCFCFC" stroke-width="0.705882"/>
<defs>
<filter id="filter0_iii_9188_41943" x="-0.7" y="-4.8" width="51.6" height="56.616" filterUnits="userSpaceOnUse" color-interpolation-filters="sRGB">
<feFlood flood-opacity="0" result="BackgroundImageFix"/>
<feBlend mode="normal" in="SourceGraphic" in2="BackgroundImageFix" result="shape"/>
<feColorMatrix in="SourceAlpha" type="matrix" values="0 0 0 0 0 0 0 0 0 0 0 0 0 0 0 0 0 0 127 0" result="hardAlpha"/>
<feOffset dx="-1.2" dy="3.816"/>
<feGaussianBlur stdDeviation="2.4"/>
<feComposite in2="hardAlpha" operator="arithmetic" k2="-1" k3="1"/>
<feColorMatrix type="matrix" values="0 0 0 0 1 0 0 0 0 1 0 0 0 0 1 0 0 0 0.45 0"/>
<feBlend mode="normal" in2="shape" result="effect1_innerShadow_9188_41943"/>
<feColorMatrix in="SourceAlpha" type="matrix" values="0 0 0 0 0 0 0 0 0 0 0 0 0 0 0 0 0 0 127 0" result="hardAlpha"/>
<feOffset dx="0.352942" dy="-1.41176"/>
<feGaussianBlur stdDeviation="1.05882"/>
<feComposite in2="hardAlpha" operator="arithmetic" k2="-1" k3="1"/>
<feColorMatrix type="matrix" values="0 0 0 0 0 0 0 0 0 0 0 0 0 0 0 0 0 0 0.25 0"/>
<feBlend mode="normal" in2="effect1_innerShadow_9188_41943" result="effect2_innerShadow_9188_41943"/>
<feColorMatrix in="SourceAlpha" type="matrix" values="0 0 0 0 0 0 0 0 0 0 0 0 0 0 0 0 0 0 127 0" result="hardAlpha"/>
<feOffset dx="2.4" dy="-4.8"/>
<feGaussianBlur stdDeviation="2.4"/>
<feComposite in2="hardAlpha" operator="arithmetic" k2="-1" k3="1"/>
<feColorMatrix type="matrix" values="0 0 0 0 0 0 0 0 0 0 0 0 0 0 0 0 0 0 0.08 0"/>
<feBlend mode="normal" in2="effect2_innerShadow_9188_41943" result="effect3_innerShadow_9188_41943"/>
</filter>
</defs>
</svg>
