<svg width="48" height="48" viewBox="0 0 48 48" fill="none" xmlns="http://www.w3.org/2000/svg">
<rect width="48" height="48" rx="12" fill="#EAECF0"/>
<path d="M19.5705 37.5573C22.0167 37.5573 24.0025 35.5715 24.0025 33.1253V28.6934H19.5705C17.1244 28.6934 15.1386 30.6791 15.1386 33.1253C15.1386 35.5715 17.1244 37.5573 19.5705 37.5573Z" fill="#0ACF83"/>
<path d="M15.1304 24.2581C15.1304 21.8119 17.1162 19.8262 19.5624 19.8262H23.9943V28.6947H19.5624C17.1162 28.6947 15.1304 26.7089 15.1304 24.2628V24.2581Z" fill="#A259FF"/>
<path d="M15.1304 15.389C15.1304 12.9428 17.1162 10.957 19.5624 10.957H23.9943V19.8256H19.5624C17.1162 19.8256 15.1304 17.8398 15.1304 15.3936V15.389Z" fill="#F24E1E"/>
<path d="M23.9592 10.957H28.3912C30.8374 10.957 32.8231 12.9428 32.8231 15.389C32.8231 17.8352 30.8374 19.8209 28.3912 19.8209H23.9592V10.957Z" fill="#FF7262"/>
<path d="M32.8696 24.2581C32.8696 26.7043 30.8839 28.6901 28.4377 28.6901C25.9915 28.6901 23.9592 26.7043 23.9592 24.2581C23.9592 21.8119 25.945 19.8262 28.3912 19.8262C30.8374 19.8262 32.8231 21.8119 32.8231 24.2581H32.8696Z" fill="#1ABCFE"/>
</svg>
