<svg width="87" height="88" viewBox="0 0 87 88" fill="none" xmlns="http://www.w3.org/2000/svg">
<path d="M86.5 44C86.5 68.0298 67.2429 87.5 43.5 87.5C19.7571 87.5 0.5 68.0298 0.5 44C0.5 19.9702 19.7571 0.5 43.5 0.5C67.2429 0.5 86.5 19.9702 86.5 44Z" fill="#3684A4" fill-opacity="0.08" stroke="#D0D5DD"/>
<g clip-path="url(#clip0_8702_22893)">
<path d="M46.3287 46.8284L40.6718 46.8284M46.3287 46.8284C47.1448 45.0106 47.7765 43.1154 48.2143 41.1715M46.3287 46.8284L51.0427 51.5424C51.0427 51.5424 53.3809 48.1672 52.9283 45.8856C52.4192 43.34 48.2143 41.1715 48.2143 41.1715M40.6718 46.8284C39.8719 45.0251 39.256 43.1456 38.8333 41.2187C38.1754 38.3637 38.2589 35.3878 39.0757 32.5741C39.8926 29.7605 41.4157 27.2026 43.5002 25.1438C46.0647 27.7082 49.8359 32.9502 48.2143 41.1715M40.6718 46.8284L35.9578 51.5424C35.9578 51.5424 33.6196 48.1672 34.0722 45.8856C34.5813 43.34 38.7862 41.1715 38.7862 41.1715M40.6718 55.3137C40.4455 57.9158 43.5002 61.9133 43.5002 61.9133C43.5002 61.9133 46.5549 57.9158 46.3287 55.3137C46.2061 53.8523 44.9805 52.6455 43.5002 52.6549C42.784 52.6716 42.0992 52.9523 41.5772 53.4429C41.0551 53.9336 40.7327 54.5998 40.6718 55.3137Z" stroke="#3684A4" stroke-width="2.5" stroke-linecap="round" stroke-linejoin="round"/>
</g>
<defs>
<clipPath id="clip0_8702_22893">
<rect width="32" height="32" fill="white" transform="translate(20.8726 44) rotate(-45)"/>
</clipPath>
</defs>
</svg>
