<svg width="344" height="337" viewBox="0 0 344 337" fill="none" xmlns="http://www.w3.org/2000/svg">
<g clip-path="url(#clip0_3175_9425)">
<path d="M218.385 76.1244H125.692C123.58 76.1269 121.555 76.9672 120.061 78.4608C118.567 79.9544 117.727 81.9795 117.725 84.0918V290.103L116.662 290.427L93.9232 297.391C92.8455 297.719 91.6815 297.607 90.6867 297.078C89.6919 296.549 88.9475 295.647 88.617 294.57L20.9786 73.6332C20.6495 72.5555 20.7617 71.3912 21.2905 70.3962C21.8194 69.4012 22.7217 68.6569 23.7991 68.3269L58.84 57.5974L160.425 26.5032L195.465 15.7737C195.999 15.6096 196.559 15.5522 197.115 15.6049C197.67 15.6576 198.21 15.8193 198.702 16.0808C199.195 16.3423 199.632 16.6984 199.987 17.1288C200.342 17.5591 200.609 18.0553 200.772 18.5888L218.061 75.062L218.385 76.1244Z" fill="#EDEEF0"/>
<path d="M238.612 75.0611L217.775 6.99795C217.428 5.86389 216.861 4.80925 216.107 3.89431C215.352 2.97937 214.425 2.22206 213.378 1.66565C212.331 1.10923 211.184 0.764615 210.004 0.651505C208.823 0.538395 207.632 0.659006 206.498 1.00643L157.233 16.0861L55.6534 47.1857L6.38808 62.2707C4.09948 62.9735 2.18319 64.5556 1.05986 66.6697C-0.0634746 68.7839 -0.302087 71.2574 0.396409 73.5473L71.6147 306.159C72.1821 308.008 73.3271 309.626 74.8815 310.776C76.4359 311.926 78.318 312.547 80.2515 312.549C81.1465 312.55 82.0363 312.415 82.8913 312.151L116.663 301.814L117.725 301.485V300.375L116.663 300.699L82.578 311.136C80.5579 311.752 78.376 311.541 76.5109 310.551C74.6459 309.56 73.2499 307.87 72.6293 305.851L1.41646 73.2339C1.10896 72.2337 1.00179 71.1826 1.10108 70.1409C1.20037 69.0992 1.50416 68.0873 1.99507 67.1632C2.48598 66.2391 3.15437 65.4209 3.96195 64.7554C4.76953 64.09 5.70043 63.5904 6.70137 63.2852L55.9667 48.2002L157.546 17.106L206.812 2.02096C207.571 1.78927 208.36 1.67114 209.154 1.6704C210.857 1.67422 212.515 2.22342 213.884 3.23755C215.252 4.25168 216.261 5.67745 216.76 7.30603L237.502 75.0611L237.831 76.1234H238.936L238.612 75.0611Z" fill="#EDEEF0"/>
<path d="M65.1635 68.5003C64.1397 68.4995 63.1431 68.1707 62.3199 67.5621C61.4967 66.9535 60.8902 66.0971 60.5894 65.1185L53.7479 42.7716C53.564 42.1713 53.5002 41.5407 53.5601 40.9158C53.62 40.2908 53.8025 39.6838 54.097 39.1294C54.3915 38.575 54.7924 38.084 55.2767 37.6845C55.761 37.285 56.3192 36.9849 56.9196 36.8012L150.372 8.19077C151.584 7.82083 152.894 7.947 154.013 8.54158C155.132 9.13617 155.97 10.1506 156.342 11.3622L163.184 33.7094C163.554 34.9217 163.427 36.2312 162.833 37.3505C162.238 38.4698 161.224 39.3076 160.013 39.68L66.5601 68.2905C66.1075 68.4293 65.6368 68.5001 65.1635 68.5003Z" fill="#3684A4"/>
<path d="M101.002 24.4848C106.869 24.4848 111.625 19.7286 111.625 13.8615C111.625 7.99447 106.869 3.23828 101.002 3.23828C95.1351 3.23828 90.3789 7.99447 90.3789 13.8615C90.3789 19.7286 95.1351 24.4848 101.002 24.4848Z" fill="#3684A4"/>
<path d="M101.002 20.5887C104.717 20.5887 107.729 17.5769 107.729 13.8617C107.729 10.1465 104.717 7.13477 101.002 7.13477C97.2869 7.13477 94.2751 10.1465 94.2751 13.8617C94.2751 17.5769 97.2869 20.5887 101.002 20.5887Z" fill="white"/>
<path d="M320.098 309.835H140.565C139.368 309.834 138.22 309.358 137.374 308.511C136.528 307.665 136.051 306.517 136.05 305.32V90.1995C136.051 89.0024 136.527 87.8548 137.374 87.0084C138.22 86.162 139.368 85.6859 140.565 85.6846H320.098C321.295 85.686 322.442 86.1621 323.289 87.0085C324.135 87.8549 324.611 89.0025 324.613 90.1995V305.32C324.611 306.517 324.135 307.665 323.289 308.511C322.442 309.358 321.295 309.834 320.098 309.835Z" fill="#EDEEF0"/>
<path d="M237.502 75.0615H125.692C123.298 75.0649 121.004 76.0174 119.311 77.71C117.618 79.4027 116.666 81.6975 116.662 84.0913V300.699L117.725 300.375V84.0913C117.727 81.979 118.567 79.9539 120.061 78.4603C121.555 76.9667 123.58 76.1264 125.692 76.1238H237.831L237.502 75.0615ZM334.97 75.0615H125.692C123.298 75.0649 121.004 76.0174 119.311 77.71C117.618 79.4027 116.666 81.6975 116.662 84.0913V327.364C116.666 329.757 117.618 332.052 119.311 333.745C121.004 335.438 123.298 336.39 125.692 336.393H334.97C337.364 336.39 339.659 335.438 341.351 333.745C343.044 332.052 343.996 329.757 344 327.364V84.0913C343.996 81.6975 343.044 79.4027 341.351 77.71C339.659 76.0174 337.364 75.0649 334.97 75.0615ZM342.938 327.364C342.935 329.476 342.095 331.501 340.601 332.995C339.107 334.488 337.082 335.329 334.97 335.331H125.692C123.58 335.329 121.555 334.488 120.061 332.995C118.567 331.501 117.727 329.476 117.725 327.364V84.0913C117.727 81.979 118.567 79.9539 120.061 78.4603C121.555 76.9667 123.58 76.1264 125.692 76.1238H334.97C337.082 76.1264 339.107 76.9667 340.601 78.4603C342.095 79.9539 342.935 81.979 342.938 84.0913V327.364Z" fill="#EDEEF0"/>
<path d="M279.198 98.433H181.464C180.197 98.4316 178.982 97.9275 178.086 97.0313C177.189 96.1351 176.685 94.92 176.684 93.6526V70.2814C176.685 69.014 177.189 67.7989 178.086 66.9027C178.982 66.0065 180.197 65.5024 181.464 65.501H279.198C280.466 65.5024 281.681 66.0065 282.577 66.9027C283.473 67.7989 283.977 69.014 283.979 70.2814V93.6526C283.977 94.92 283.473 96.1351 282.577 97.0313C281.681 97.9275 280.466 98.4316 279.198 98.433Z" fill="#3684A4"/>
<path d="M230.331 67.0942C236.198 67.0942 240.954 62.338 240.954 56.4709C240.954 50.6038 236.198 45.8477 230.331 45.8477C224.464 45.8477 219.708 50.6038 219.708 56.4709C219.708 62.338 224.464 67.0942 230.331 67.0942Z" fill="#3684A4"/>
<path d="M230.331 62.9411C233.904 62.9411 236.801 60.0441 236.801 56.4706C236.801 52.897 233.904 50 230.331 50C226.757 50 223.86 52.897 223.86 56.4706C223.86 60.0441 226.757 62.9411 230.331 62.9411Z" fill="white"/>
</g>
<defs>
<clipPath id="clip0_3175_9425">
<rect width="344" height="335.787" fill="white" transform="translate(0 0.606445)"/>
</clipPath>
</defs>
</svg>
