<svg width="48" height="48" viewBox="0 0 48 48" fill="none" xmlns="http://www.w3.org/2000/svg">
<rect width="48" height="48" rx="24" fill="#EAECF0"/>
<path d="M23.4101 19.205C23.4101 16.8843 21.5265 15 19.2041 15C16.8823 15 15 16.8819 15 19.2027C15 21.5233 16.8823 23.4101 19.2052 23.4101H23.4101V19.205Z" fill="#228800"/>
<path d="M24.5899 19.2051C24.5899 16.8843 26.4735 15 28.7959 15C31.1177 15 33 16.8819 33 19.2026C33 21.5233 31.1177 23.4101 28.7948 23.4101H24.5899V19.2051Z" fill="#228800"/>
<path d="M24.5899 28.7954C24.5899 31.1184 26.4729 33.0004 28.7962 33.0004C31.117 33.0004 33 31.1198 33 28.7967C33 26.476 31.117 24.5903 28.7948 24.5903H24.5899V28.7954Z" fill="#228800"/>
<path d="M23.4101 28.7954C23.4101 31.1184 21.527 33.0004 19.2038 33.0004C16.883 33.0004 15 31.1198 15 28.7967C15 26.476 16.883 24.5903 19.2052 24.5903H23.4101V28.7954ZM19.2038 31.8146C20.8727 31.8146 22.2305 30.4609 22.2305 28.7967V25.7706H19.2076C17.5379 25.7706 16.1795 27.1334 16.1795 28.7967C16.1795 30.4609 17.5361 31.8146 19.2038 31.8146Z" fill="#228800"/>
</svg>
