<svg width="20" height="21" viewBox="0 0 20 21" fill="none" xmlns="http://www.w3.org/2000/svg">
<path d="M6.5 10.5703C6.5 10.5703 7.8125 12.0703 10 12.0703C12.1875 12.0703 13.5 10.5703 13.5 10.5703M12.75 5.57031H12.76M7.25 5.57031H7.26M5 16.0703V18.4058C5 18.9387 5 19.2051 5.10923 19.3419C5.20422 19.4609 5.34827 19.5302 5.50054 19.53C5.67563 19.5298 5.88367 19.3634 6.29976 19.0305L8.68521 17.1221C9.17252 16.7323 9.41617 16.5374 9.68749 16.3988C9.9282 16.2758 10.1844 16.1859 10.4492 16.1316C10.7477 16.0703 11.0597 16.0703 11.6837 16.0703H14.2C15.8802 16.0703 16.7202 16.0703 17.362 15.7433C17.9265 15.4557 18.3854 14.9968 18.673 14.4323C19 13.7905 19 12.9505 19 11.2703V5.87031C19 4.19015 19 3.35008 18.673 2.70834C18.3854 2.14385 17.9265 1.68491 17.362 1.39729C16.7202 1.07031 15.8802 1.07031 14.2 1.07031H5.8C4.11984 1.07031 3.27976 1.07031 2.63803 1.39729C2.07354 1.68491 1.6146 2.14385 1.32698 2.70834C1 3.35008 1 4.19015 1 5.87031V12.0703C1 13.0003 1 13.4653 1.10222 13.8468C1.37962 14.882 2.18827 15.6907 3.22354 15.9681C3.60504 16.0703 4.07003 16.0703 5 16.0703ZM13.25 5.57031C13.25 5.84645 13.0261 6.07031 12.75 6.07031C12.4739 6.07031 12.25 5.84645 12.25 5.57031C12.25 5.29417 12.4739 5.07031 12.75 5.07031C13.0261 5.07031 13.25 5.29417 13.25 5.57031ZM7.75 5.57031C7.75 5.84645 7.52614 6.07031 7.25 6.07031C6.97386 6.07031 6.75 5.84645 6.75 5.57031C6.75 5.29417 6.97386 5.07031 7.25 5.07031C7.52614 5.07031 7.75 5.29417 7.75 5.57031Z" stroke="#6F7784" stroke-width="2" stroke-linecap="round" stroke-linejoin="round"/>
</svg>
