<svg width="20" height="20" viewBox="0 0 20 20" fill="none" xmlns="http://www.w3.org/2000/svg">
<path d="M15.8333 6.66602V1.66602M13.3333 4.16602H18.3333M18.3333 9.99935V14.3327C18.3333 15.7328 18.3333 16.4329 18.0608 16.9677C17.8212 17.4381 17.4387 17.8205 16.9683 18.0602C16.4335 18.3327 15.7335 18.3327 14.3333 18.3327H5.66666C4.26653 18.3327 3.56646 18.3327 3.03168 18.0602C2.56128 17.8205 2.17882 17.4381 1.93914 16.9677C1.66666 16.4329 1.66666 15.7328 1.66666 14.3327V5.66602C1.66666 4.26588 1.66666 3.56582 1.93914 3.03104C2.17882 2.56063 2.56128 2.17818 3.03168 1.9385C3.56646 1.66602 4.26653 1.66602 5.66666 1.66602H9.99999M1.78811 16.6046C2.17906 15.1982 3.46899 14.166 4.99999 14.166H10.8333C11.6077 14.166 11.995 14.166 12.317 14.2301C13.6393 14.4931 14.6729 15.5267 14.9359 16.849C15 17.171 15 17.5583 15 18.3327M11.6667 7.91602C11.6667 9.75697 10.1743 11.2493 8.33332 11.2493C6.49237 11.2493 4.99999 9.75697 4.99999 7.91602C4.99999 6.07507 6.49237 4.58268 8.33332 4.58268C10.1743 4.58268 11.6667 6.07507 11.6667 7.91602Z" stroke="#494848" stroke-width="2" stroke-linecap="round" stroke-linejoin="round"/>
</svg>
