<svg width="32" height="32" viewBox="0 0 32 32" fill="none" xmlns="http://www.w3.org/2000/svg">
<rect width="32" height="32" rx="16" fill="#EAECF0"/>
<path d="M13.117 18.8831V20.9011C13.117 21.7084 13.117 22.112 13.2742 22.4203C13.4124 22.6916 13.6329 22.9121 13.9041 23.0503C14.2124 23.2074 14.6161 23.2074 15.4234 23.2074H20.9008C21.7081 23.2074 22.1118 23.2074 22.4201 23.0503C22.6913 22.9121 22.9118 22.6916 23.05 22.4203C23.2071 22.112 23.2071 21.7084 23.2071 20.9011V15.4236C23.2071 14.6163 23.2071 14.2127 23.05 13.9043C22.9118 13.6331 22.6913 13.4126 22.4201 13.2744C22.1118 13.1173 21.7081 13.1173 20.9008 13.1173H18.8828M11.099 18.8831H16.5765C17.3838 18.8831 17.7874 18.8831 18.0958 18.726C18.367 18.5878 18.5875 18.3672 18.7257 18.096C18.8828 17.7877 18.8828 17.384 18.8828 16.5768V11.0993C18.8828 10.292 18.8828 9.88835 18.7257 9.58001C18.5875 9.30878 18.367 9.08827 18.0958 8.95008C17.7874 8.79297 17.3838 8.79297 16.5765 8.79297H11.099C10.2917 8.79297 9.88811 8.79297 9.57977 8.95008C9.30854 9.08827 9.08803 9.30878 8.94983 9.58001C8.79272 9.88835 8.79272 10.292 8.79272 11.0993V16.5768C8.79272 17.384 8.79272 17.7877 8.94983 18.096C9.08803 18.3672 9.30854 18.5878 9.57977 18.726C9.88811 18.8831 10.2917 18.8831 11.099 18.8831Z" stroke="#6F7784" stroke-width="1.08108" stroke-linecap="round" stroke-linejoin="round"/>
</svg>
