<svg width="331" height="193" viewBox="0 0 331 193" fill="none" xmlns="http://www.w3.org/2000/svg">
<g filter="url(#filter0_d_11101_43776)">
<path d="M7 14C7 9.58172 10.5817 6 15 6H302C306.418 6 310 9.58172 310 14V162C310 166.418 306.418 170 302 170H15C10.5817 170 7 166.418 7 162V14Z" fill="url(#paint0_linear_11101_43776)"/>
<path d="M15 6.43066H302C306.181 6.43067 309.569 9.81942 309.569 14V162C309.569 166.181 306.181 169.569 302 169.569H15C10.8194 169.569 7.43066 166.181 7.43066 162V14C7.43067 9.81942 10.8194 6.43066 15 6.43066Z" stroke="url(#paint1_linear_11101_43776)" stroke-opacity="0.3" stroke-width="0.860759"/>
<path d="M262 131.671C262 129.769 263.542 128.228 265.443 128.228H297.578C299.48 128.228 301.021 129.769 301.021 131.671V152.329C301.021 154.23 299.48 155.772 297.578 155.772H265.443C263.542 155.772 262 154.23 262 152.329V131.671Z" fill="white" fill-opacity="0.1"/>
<path opacity="0.5" d="M286.764 134C291.062 134 294.546 137.443 294.546 141.689C294.546 145.936 291.062 149.379 286.764 149.379C284.837 149.379 283.075 148.685 281.716 147.539C280.357 148.685 278.595 149.379 276.668 149.379C272.371 149.379 268.886 145.936 268.886 141.689C268.886 137.443 272.371 134 276.668 134C278.595 134 280.357 134.693 281.716 135.839C283.075 134.693 284.837 134 286.764 134Z" fill="white"/>
<path opacity="0.5" d="M286.764 134C291.062 134 294.546 137.443 294.546 141.689C294.546 145.936 291.062 149.379 286.764 149.379C284.837 149.379 283.075 148.685 281.716 147.539C283.389 146.129 284.45 144.032 284.45 141.689C284.45 139.346 283.389 137.249 281.716 135.839C283.075 134.693 284.837 134 286.764 134Z" fill="white"/>
<path d="M281.716 135.84C283.389 137.25 284.451 139.347 284.451 141.69C284.451 144.033 283.389 146.13 281.716 147.54C280.044 146.13 278.982 144.033 278.982 141.69C278.982 139.347 280.044 137.25 281.716 135.84Z" fill="white"/>
<path d="M23.4647 151.836V143.504L21.5985 144.64V143.036L23.4647 141.92H24.9314V151.836H23.4647ZM29.3368 151.829L29.3437 150.548L33.6612 146.678C34.0101 146.371 34.2465 146.077 34.3705 145.797C34.499 145.517 34.5633 145.237 34.5633 144.957C34.5633 144.603 34.4853 144.287 34.3292 144.006C34.1731 143.722 33.9573 143.497 33.6819 143.332C33.4064 143.166 33.0897 143.084 32.7316 143.084C32.3644 143.084 32.0361 143.171 31.7469 143.345C31.4623 143.515 31.2396 143.743 31.079 144.027C30.9183 144.312 30.8402 144.619 30.8448 144.95H29.3712C29.3712 144.307 29.5158 143.745 29.805 143.263C30.0988 142.776 30.5005 142.397 31.0101 142.127C31.5197 141.851 32.1027 141.713 32.7592 141.713C33.3835 141.713 33.9436 141.856 34.4394 142.14C34.9352 142.42 35.3254 142.806 35.61 143.297C35.8992 143.788 36.0438 144.348 36.0438 144.977C36.0438 145.432 35.9841 145.818 35.8648 146.134C35.7454 146.451 35.5664 146.745 35.3277 147.016C35.0889 147.287 34.7905 147.58 34.4325 147.897L31.0996 150.872L30.9412 150.459H36.0438V151.829H29.3368ZM42.5362 152.022C42.045 152.022 41.5836 151.93 41.1521 151.746C40.7206 151.558 40.3464 151.292 40.0297 150.948C39.7175 150.603 39.4903 150.197 39.3479 149.729L40.7389 149.343C40.8721 149.77 41.1039 150.098 41.4344 150.328C41.765 150.553 42.1322 150.663 42.5362 150.658C42.8989 150.654 43.2179 150.569 43.4934 150.404C43.7688 150.238 43.9846 150.016 44.1407 149.736C44.2967 149.451 44.3748 149.125 44.3748 148.758C44.3748 148.207 44.2026 147.752 43.8583 147.394C43.5186 147.036 43.0733 146.857 42.5224 146.857C42.3663 146.857 42.2057 146.88 42.0404 146.926C41.8797 146.972 41.7282 147.032 41.5859 147.105L40.9111 145.969L44.4092 142.877L44.5607 143.29H39.7405V141.92H45.7038V143.29L42.7979 146.086L42.7841 145.618C43.4084 145.618 43.9501 145.758 44.4092 146.038C44.8683 146.313 45.2218 146.69 45.4697 147.167C45.7222 147.64 45.8484 148.17 45.8484 148.758C45.8484 149.391 45.6992 149.954 45.4008 150.445C45.107 150.936 44.7099 151.322 44.2095 151.602C43.7137 151.882 43.1559 152.022 42.5362 152.022ZM53.9088 151.836V150.108H49.4328V148.744L52.6555 141.92H54.3013L51.0786 148.744H53.9088V146.059H55.3686V148.744H56.3533V150.108H55.3686V151.836H53.9088ZM66.6237 151.836V143.504L64.7576 144.64V143.036L66.6237 141.92H68.0904V151.836H66.6237ZM72.4958 151.829L72.5027 150.548L76.8202 146.678C77.1691 146.371 77.4056 146.077 77.5295 145.797C77.6581 145.517 77.7223 145.237 77.7223 144.957C77.7223 144.603 77.6443 144.287 77.4882 144.006C77.3321 143.722 77.1164 143.497 76.8409 143.332C76.5655 143.166 76.2487 143.084 75.8906 143.084C75.5234 143.084 75.1951 143.171 74.9059 143.345C74.6213 143.515 74.3986 143.743 74.238 144.027C74.0773 144.312 73.9993 144.619 74.0038 144.95H72.5302C72.5302 144.307 72.6748 143.745 72.964 143.263C73.2579 142.776 73.6595 142.397 74.1691 142.127C74.6787 141.851 75.2617 141.713 75.9182 141.713C76.5425 141.713 77.1026 141.856 77.5984 142.14C78.0942 142.42 78.4844 142.806 78.769 143.297C79.0582 143.788 79.2028 144.348 79.2028 144.977C79.2028 145.432 79.1432 145.818 79.0238 146.134C78.9044 146.451 78.7254 146.745 78.4867 147.016C78.248 147.287 77.9496 147.58 77.5915 147.897L74.2586 150.872L74.1002 150.459H79.2028V151.829H72.4958ZM85.6952 152.022C85.204 152.022 84.7426 151.93 84.3111 151.746C83.8796 151.558 83.5054 151.292 83.1887 150.948C82.8765 150.603 82.6493 150.197 82.507 149.729L83.898 149.343C84.0311 149.77 84.2629 150.098 84.5934 150.328C84.924 150.553 85.2912 150.663 85.6952 150.658C86.0579 150.654 86.3769 150.569 86.6524 150.404C86.9278 150.238 87.1436 150.016 87.2997 149.736C87.4558 149.451 87.5338 149.125 87.5338 148.758C87.5338 148.207 87.3616 147.752 87.0173 147.394C86.6776 147.036 86.2323 146.857 85.6814 146.857C85.5254 146.857 85.3647 146.88 85.1994 146.926C85.0387 146.972 84.8873 147.032 84.7449 147.105L84.0701 145.969L87.5682 142.877L87.7197 143.29H82.8995V141.92H88.8628V143.29L85.9569 146.086L85.9431 145.618C86.5675 145.618 87.1092 145.758 87.5682 146.038C88.0273 146.313 88.3808 146.69 88.6287 147.167C88.8812 147.64 89.0074 148.17 89.0074 148.758C89.0074 149.391 88.8582 149.954 88.5598 150.445C88.266 150.936 87.8689 151.322 87.3685 151.602C86.8727 151.882 86.315 152.022 85.6952 152.022ZM97.0678 151.836V150.108H92.5918V148.744L95.8145 141.92H97.4603L94.2376 148.744H97.0678V146.059H98.5276V148.744H99.5123V150.108H98.5276V151.836H97.0678ZM109.783 151.836V143.504L107.917 144.64V143.036L109.783 141.92H111.249V151.836H109.783ZM115.655 151.829L115.662 150.548L119.979 146.678C120.328 146.371 120.565 146.077 120.689 145.797C120.817 145.517 120.881 145.237 120.881 144.957C120.881 144.603 120.803 144.287 120.647 144.006C120.491 143.722 120.275 143.497 120 143.332C119.724 143.166 119.408 143.084 119.05 143.084C118.682 143.084 118.354 143.171 118.065 143.345C117.78 143.515 117.558 143.743 117.397 144.027C117.236 144.312 117.158 144.619 117.163 144.95H115.689C115.689 144.307 115.834 143.745 116.123 143.263C116.417 142.776 116.819 142.397 117.328 142.127C117.838 141.851 118.421 141.713 119.077 141.713C119.702 141.713 120.262 141.856 120.757 142.14C121.253 142.42 121.643 142.806 121.928 143.297C122.217 143.788 122.362 144.348 122.362 144.977C122.362 145.432 122.302 145.818 122.183 146.134C122.063 146.451 121.884 146.745 121.646 147.016C121.407 147.287 121.109 147.58 120.751 147.897L117.418 150.872L117.259 150.459H122.362V151.829H115.655ZM128.854 152.022C128.363 152.022 127.902 151.93 127.47 151.746C127.039 151.558 126.664 151.292 126.348 150.948C126.036 150.603 125.808 150.197 125.666 149.729L127.057 149.343C127.19 149.77 127.422 150.098 127.752 150.328C128.083 150.553 128.45 150.663 128.854 150.658C129.217 150.654 129.536 150.569 129.811 150.404C130.087 150.238 130.303 150.016 130.459 149.736C130.615 149.451 130.693 149.125 130.693 148.758C130.693 148.207 130.521 147.752 130.176 147.394C129.837 147.036 129.391 146.857 128.84 146.857C128.684 146.857 128.524 146.88 128.358 146.926C128.198 146.972 128.046 147.032 127.904 147.105L127.229 145.969L130.727 142.877L130.879 143.29H126.058V141.92H132.022V143.29L129.116 146.086L129.102 145.618C129.726 145.618 130.268 145.758 130.727 146.038C131.186 146.313 131.54 146.69 131.788 147.167C132.04 147.64 132.166 148.17 132.166 148.758C132.166 149.391 132.017 149.954 131.719 150.445C131.425 150.936 131.028 151.322 130.528 151.602C130.032 151.882 129.474 152.022 128.854 152.022ZM140.227 151.836V150.108H135.751V148.744L138.974 141.92H140.619L137.397 148.744H140.227V146.059H141.687V148.744H142.671V150.108H141.687V151.836H140.227ZM152.942 151.836V143.504L151.076 144.64V143.036L152.942 141.92H154.408V151.836H152.942ZM158.814 151.829L158.821 150.548L163.138 146.678C163.487 146.371 163.724 146.077 163.848 145.797C163.976 145.517 164.04 145.237 164.04 144.957C164.04 144.603 163.962 144.287 163.806 144.006C163.65 143.722 163.434 143.497 163.159 143.332C162.884 143.166 162.567 143.084 162.209 143.084C161.841 143.084 161.513 143.171 161.224 143.345C160.939 143.515 160.717 143.743 160.556 144.027C160.395 144.312 160.317 144.619 160.322 144.95H158.848C158.848 144.307 158.993 143.745 159.282 143.263C159.576 142.776 159.978 142.397 160.487 142.127C160.997 141.851 161.58 141.713 162.236 141.713C162.861 141.713 163.421 141.856 163.916 142.14C164.412 142.42 164.802 142.806 165.087 143.297C165.376 143.788 165.521 144.348 165.521 144.977C165.521 145.432 165.461 145.818 165.342 146.134C165.222 146.451 165.043 146.745 164.805 147.016C164.566 147.287 164.268 147.58 163.91 147.897L160.577 150.872L160.418 150.459H165.521V151.829H158.814ZM172.013 152.022C171.522 152.022 171.061 151.93 170.629 151.746C170.198 151.558 169.823 151.292 169.507 150.948C169.195 150.603 168.967 150.197 168.825 149.729L170.216 149.343C170.349 149.77 170.581 150.098 170.911 150.328C171.242 150.553 171.609 150.663 172.013 150.658C172.376 150.654 172.695 150.569 172.97 150.404C173.246 150.238 173.462 150.016 173.618 149.736C173.774 149.451 173.852 149.125 173.852 148.758C173.852 148.207 173.68 147.752 173.335 147.394C172.996 147.036 172.55 146.857 171.999 146.857C171.843 146.857 171.683 146.88 171.517 146.926C171.357 146.972 171.205 147.032 171.063 147.105L170.388 145.969L173.886 142.877L174.038 143.29H169.218V141.92H175.181V143.29L172.275 146.086L172.261 145.618C172.885 145.618 173.427 145.758 173.886 146.038C174.345 146.313 174.699 146.69 174.947 147.167C175.199 147.64 175.325 148.17 175.325 148.758C175.325 149.391 175.176 149.954 174.878 150.445C174.584 150.936 174.187 151.322 173.687 151.602C173.191 151.882 172.633 152.022 172.013 152.022ZM183.386 151.836V150.108H178.91V148.744L182.133 141.92H183.778L180.556 148.744H183.386V146.059H184.846V148.744H185.83V150.108H184.846V151.836H183.386Z" fill="white"/>
<path d="M24.5992 127.332C23.8555 127.332 23.2219 127.17 22.6986 126.846C22.1753 126.519 21.7741 126.065 21.4953 125.483C21.2198 124.901 21.0821 124.226 21.0821 123.458C21.0821 122.69 21.2198 122.016 21.4953 121.434C21.7741 120.852 22.1753 120.399 22.6986 120.075C23.2219 119.748 23.8555 119.585 24.5992 119.585C25.3394 119.585 25.9712 119.748 26.4945 120.075C27.0213 120.399 27.4224 120.852 27.6979 121.434C27.9733 122.016 28.1111 122.69 28.1111 123.458C28.1111 124.226 27.9733 124.901 27.6979 125.483C27.4224 126.065 27.0213 126.519 26.4945 126.846C25.9712 127.17 25.3394 127.332 24.5992 127.332ZM24.5992 126.304C25.1259 126.311 25.5632 126.195 25.911 125.958C26.2621 125.717 26.5255 125.383 26.7011 124.956C26.8767 124.526 26.9645 124.026 26.9645 123.458C26.9645 122.89 26.8767 122.394 26.7011 121.971C26.5255 121.544 26.2621 121.212 25.911 120.974C25.5632 120.737 25.1259 120.616 24.5992 120.613C24.0724 120.606 23.6334 120.721 23.2822 120.959C22.9344 121.196 22.6728 121.53 22.4972 121.961C22.3216 122.391 22.2321 122.89 22.2286 123.458C22.2252 124.026 22.3113 124.524 22.4868 124.951C22.6624 125.374 22.9258 125.705 23.277 125.942C23.6317 126.18 24.0724 126.301 24.5992 126.304ZM29.761 127.177V119.74H30.8404V126.159H34.2077V127.177H29.761ZM35.7042 127.177V119.74H36.7836V127.177H35.7042ZM40.5966 127.177L38.1796 119.74H39.3003L41.361 126.087L43.4474 119.74H44.5682L42.1511 127.177H40.5966ZM45.9668 127.177V119.74H47.0462V127.177H45.9668ZM48.5971 127.177L51.0141 119.74H52.5686L54.9856 127.177H53.8649L51.639 120.391H51.9179L49.7178 127.177H48.5971ZM49.8521 125.498V124.486H53.7358V125.498H49.8521ZM59.0129 127.177V119.74H62.0187C62.091 119.74 62.1805 119.743 62.2873 119.75C62.394 119.754 62.4956 119.764 62.592 119.781C63.0051 119.847 63.3494 119.988 63.6249 120.205C63.9038 120.422 64.1121 120.695 64.2498 121.026C64.3875 121.356 64.4564 121.721 64.4564 122.121C64.4564 122.713 64.3049 123.224 64.0019 123.655C63.6989 124.081 63.2444 124.348 62.6385 124.455L62.1995 124.507H60.0923V127.177H59.0129ZM63.3615 127.177L61.8948 124.15L62.9845 123.871L64.5958 127.177H63.3615ZM60.0923 123.484H61.9774C62.0463 123.484 62.122 123.481 62.2046 123.474C62.2907 123.467 62.3716 123.455 62.4474 123.438C62.6677 123.386 62.845 123.291 62.9793 123.154C63.1136 123.012 63.21 122.851 63.2685 122.668C63.3271 122.486 63.3563 122.303 63.3563 122.121C63.3563 121.938 63.3271 121.757 63.2685 121.578C63.21 121.396 63.1136 121.236 62.9793 121.098C62.845 120.957 62.6677 120.861 62.4474 120.809C62.3716 120.788 62.2907 120.774 62.2046 120.768C62.122 120.761 62.0463 120.757 61.9774 120.757H60.0923V123.484ZM66.2474 127.177V119.74H67.3267V122.947H71.0452V119.74H72.1298V127.177H71.0452V123.964H67.3267V127.177H66.2474ZM75.8892 127.177V124.104L73.374 119.74H74.6342L76.4366 122.864L78.239 119.74H79.4992L76.9841 124.104V127.177H75.8892ZM80.7364 127.177V119.74H85.4877V120.757H81.8157V122.844H84.868V123.861H81.8157V126.159H85.4877V127.177H80.7364Z" fill="white"/>
<path d="M157.856 127.332C157.35 127.332 156.903 127.222 156.514 127.001C156.124 126.777 155.818 126.471 155.594 126.082C155.374 125.693 155.264 125.245 155.264 124.739V122.177C155.264 121.671 155.374 121.224 155.594 120.835C155.818 120.446 156.124 120.141 156.514 119.921C156.903 119.697 157.35 119.585 157.856 119.585C158.362 119.585 158.81 119.697 159.199 119.921C159.588 120.141 159.893 120.446 160.113 120.835C160.337 121.224 160.449 121.671 160.449 122.177V124.739C160.449 125.245 160.337 125.693 160.113 126.082C159.893 126.471 159.588 126.777 159.199 127.001C158.81 127.222 158.362 127.332 157.856 127.332ZM157.856 126.299C158.132 126.299 158.381 126.233 158.605 126.103C158.832 125.968 159.013 125.789 159.147 125.565C159.282 125.338 159.349 125.085 159.349 124.806V122.1C159.349 121.825 159.282 121.575 159.147 121.351C159.013 121.124 158.832 120.945 158.605 120.814C158.381 120.68 158.132 120.613 157.856 120.613C157.581 120.613 157.33 120.68 157.102 120.814C156.879 120.945 156.699 121.124 156.565 121.351C156.431 121.575 156.364 121.825 156.364 122.1V124.806C156.364 125.085 156.431 125.338 156.565 125.565C156.699 125.789 156.879 125.968 157.102 126.103C157.33 126.233 157.581 126.299 157.856 126.299ZM164.964 127.332C164.482 127.332 164.048 127.218 163.662 126.991C163.277 126.76 162.97 126.445 162.743 126.046C162.519 125.646 162.407 125.192 162.407 124.682V122.312C162.407 121.771 162.519 121.296 162.743 120.886C162.97 120.477 163.284 120.158 163.683 119.931C164.086 119.704 164.549 119.59 165.072 119.59C165.465 119.59 165.833 119.664 166.177 119.812C166.522 119.96 166.82 120.181 167.071 120.473L166.281 121.212C166.14 121.029 165.962 120.885 165.749 120.778C165.539 120.668 165.313 120.613 165.072 120.613C164.762 120.613 164.49 120.687 164.256 120.835C164.022 120.979 163.838 121.17 163.704 121.408C163.573 121.646 163.507 121.9 163.507 122.172V123.536L163.296 123.298C163.509 123.019 163.774 122.799 164.091 122.637C164.408 122.475 164.747 122.394 165.108 122.394C165.57 122.394 165.981 122.503 166.343 122.72C166.708 122.933 166.993 123.224 167.2 123.593C167.41 123.961 167.515 124.376 167.515 124.837C167.515 125.302 167.398 125.724 167.164 126.103C166.933 126.478 166.623 126.777 166.234 127.001C165.849 127.222 165.425 127.332 164.964 127.332ZM164.964 126.294C165.232 126.294 165.477 126.228 165.697 126.097C165.918 125.967 166.093 125.791 166.224 125.571C166.355 125.35 166.42 125.106 166.42 124.837C166.42 124.569 166.355 124.324 166.224 124.104C166.097 123.883 165.923 123.708 165.702 123.577C165.482 123.446 165.238 123.381 164.969 123.381C164.7 123.381 164.454 123.446 164.23 123.577C164.01 123.708 163.834 123.883 163.704 124.104C163.573 124.324 163.507 124.569 163.507 124.837C163.507 125.102 163.573 125.345 163.704 125.565C163.834 125.786 164.01 125.963 164.23 126.097C164.451 126.228 164.695 126.294 164.964 126.294ZM171.219 119.74H172.309L170.326 127.177H169.236L171.219 119.74ZM173.966 127.172L173.971 126.211L177.21 123.309C177.471 123.078 177.649 122.857 177.742 122.647C177.838 122.437 177.886 122.227 177.886 122.017C177.886 121.752 177.828 121.515 177.711 121.305C177.594 121.091 177.432 120.922 177.225 120.799C177.019 120.675 176.781 120.613 176.512 120.613C176.237 120.613 175.991 120.678 175.774 120.809C175.56 120.936 175.393 121.107 175.273 121.32C175.152 121.534 175.094 121.764 175.097 122.012H173.992C173.992 121.53 174.101 121.108 174.317 120.747C174.538 120.382 174.839 120.098 175.221 119.895C175.603 119.688 176.041 119.585 176.533 119.585C177.001 119.585 177.421 119.692 177.793 119.905C178.165 120.115 178.458 120.404 178.671 120.773C178.888 121.141 178.997 121.561 178.997 122.033C178.997 122.374 178.952 122.663 178.862 122.901C178.773 123.138 178.638 123.358 178.459 123.562C178.28 123.765 178.057 123.985 177.788 124.223L175.288 126.454L175.17 126.144H178.997V127.172H173.966ZM183.7 127.177V125.88H180.343V124.858L182.76 119.74H183.995L181.578 124.858H183.7V122.844H184.795V124.858H185.534V125.88H184.795V127.177H183.7Z" fill="white"/>
<path d="M31.5169 27.1987H33.3313V33.7425C33.3313 34.4598 33.1618 35.0907 32.8227 35.6352C32.4869 36.1796 32.0141 36.6051 31.4044 36.9116C30.7947 37.2148 30.0823 37.3665 29.2672 37.3665C28.4488 37.3665 27.7347 37.2148 27.125 36.9116C26.5153 36.6051 26.0426 36.1796 25.7067 35.6352C25.3709 35.0907 25.203 34.4598 25.203 33.7425V27.1987H27.0174V33.5909C27.0174 34.0082 27.1087 34.3799 27.2913 34.7059C27.4772 35.032 27.738 35.2879 28.0738 35.4738C28.4097 35.6563 28.8074 35.7476 29.2672 35.7476C29.7269 35.7476 30.1247 35.6563 30.4605 35.4738C30.7996 35.2879 31.0604 35.032 31.243 34.7059C31.4256 34.3799 31.5169 34.0082 31.5169 33.5909V27.1987ZM36.9957 32.8132V37.2148H35.2252V29.7028H36.9174V30.9792H37.0054C37.1782 30.5586 37.4537 30.2244 37.832 29.9766C38.2134 29.7288 38.6846 29.6049 39.2454 29.6049C39.7638 29.6049 40.2154 29.7158 40.6001 29.9375C40.9881 30.1592 41.288 30.4804 41.5 30.901C41.7152 31.3216 41.8211 31.8318 41.8179 32.4318V37.2148H40.0474V32.7056C40.0474 32.2035 39.917 31.8106 39.6562 31.527C39.3986 31.2433 39.0416 31.1015 38.5851 31.1015C38.2754 31.1015 37.9999 31.17 37.7586 31.3069C37.5206 31.4406 37.3331 31.6346 37.1962 31.8889C37.0625 32.1432 36.9957 32.4513 36.9957 32.8132ZM47.3688 29.7028V31.0722H43.0503V29.7028H47.3688ZM44.1165 27.903H45.8869V34.9554C45.8869 35.1934 45.9228 35.3759 45.9945 35.5031C46.0695 35.627 46.1673 35.7118 46.2879 35.7574C46.4086 35.8031 46.5423 35.8259 46.689 35.8259C46.7998 35.8259 46.9009 35.8177 46.9922 35.8014C47.0868 35.7851 47.1585 35.7705 47.2074 35.7574L47.5057 37.1415C47.4112 37.1741 47.2759 37.21 47.0998 37.2491C46.927 37.2882 46.7151 37.311 46.464 37.3175C46.0206 37.3306 45.6212 37.2638 45.2658 37.117C44.9104 36.967 44.6284 36.7356 44.4197 36.4226C44.2143 36.1096 44.1132 35.7183 44.1165 35.2488V27.903ZM48.8494 37.2148V29.7028H50.6199V37.2148H48.8494ZM49.7395 28.6366C49.4591 28.6366 49.2179 28.5437 49.0157 28.3578C48.8136 28.1687 48.7125 27.9421 48.7125 27.678C48.7125 27.4107 48.8136 27.1841 49.0157 26.9982C49.2179 26.8091 49.4591 26.7146 49.7395 26.7146C50.0232 26.7146 50.2645 26.8091 50.4634 26.9982C50.6655 27.1841 50.7666 27.4107 50.7666 27.678C50.7666 27.9421 50.6655 28.1687 50.4634 28.3578C50.2645 28.5437 50.0232 28.6366 49.7395 28.6366ZM56.1916 29.7028V31.0722H51.8731V29.7028H56.1916ZM52.9393 27.903H54.7097V34.9554C54.7097 35.1934 54.7456 35.3759 54.8173 35.5031C54.8923 35.627 54.9901 35.7118 55.1107 35.7574C55.2314 35.8031 55.365 35.8259 55.5118 35.8259C55.6226 35.8259 55.7237 35.8177 55.815 35.8014C55.9095 35.7851 55.9813 35.7705 56.0302 35.7574L56.3285 37.1415C56.234 37.1741 56.0986 37.21 55.9226 37.2491C55.7498 37.2882 55.5378 37.311 55.2868 37.3175C54.8434 37.3306 54.444 37.2638 54.0886 37.117C53.7332 36.967 53.4512 36.7356 53.2425 36.4226C53.0371 36.1096 52.936 35.7183 52.9393 35.2488V27.903ZM59.604 27.1987V37.2148H57.8336V27.1987H59.604ZM64.7503 37.3616C63.9971 37.3616 63.3466 37.2051 62.7989 36.8921C62.2544 36.5758 61.8354 36.1291 61.542 35.552C61.2485 34.9717 61.1018 34.2886 61.1018 33.5028C61.1018 32.7301 61.2485 32.0519 61.542 31.4683C61.8387 30.8814 62.2528 30.425 62.7842 30.0989C63.3157 29.7696 63.94 29.6049 64.6573 29.6049C65.1203 29.6049 65.5572 29.6799 65.968 29.8299C66.3821 29.9766 66.7473 30.2049 67.0636 30.5146C67.3831 30.8244 67.6341 31.2189 67.8167 31.6982C67.9993 32.1742 68.0906 32.7415 68.0906 33.4001V33.943H61.9332V32.7497H66.3935C66.3903 32.4106 66.3169 32.109 66.1734 31.8449C66.03 31.5775 65.8295 31.3672 65.5719 31.214C65.3176 31.0607 65.0209 30.9841 64.6818 30.9841C64.3199 30.9841 64.002 31.0722 63.7281 31.2482C63.4542 31.421 63.2407 31.6493 63.0874 31.9329C62.9374 32.2133 62.8608 32.5214 62.8576 32.8572V33.899C62.8576 34.3359 62.9374 34.7108 63.0972 35.0238C63.257 35.3336 63.4803 35.5716 63.7672 35.7379C64.0542 35.9009 64.39 35.9824 64.7747 35.9824C65.0323 35.9824 65.2654 35.9465 65.4741 35.8748C65.6827 35.7998 65.8637 35.6906 66.0169 35.5471C66.1702 35.4037 66.2859 35.226 66.3642 35.014L68.0172 35.1999C67.9129 35.6368 67.714 36.0183 67.4206 36.3443C67.1304 36.6671 66.7587 36.9181 66.3055 37.0975C65.8523 37.2735 65.3339 37.3616 64.7503 37.3616ZM72.376 37.3469C71.7859 37.3469 71.2577 37.1953 70.7915 36.8921C70.3252 36.5888 69.9568 36.1487 69.6862 35.5716C69.4156 34.9945 69.2802 34.2935 69.2802 33.4686C69.2802 32.6339 69.4172 31.9296 69.6911 31.3558C69.9682 30.7787 70.3415 30.3434 70.811 30.05C71.2805 29.7533 71.8038 29.6049 72.3809 29.6049C72.8211 29.6049 73.183 29.6799 73.4667 29.8299C73.7503 29.9766 73.9753 30.1543 74.1416 30.363C74.3079 30.5684 74.4367 30.7624 74.5279 30.945H74.6013V27.1987H76.3766V37.2148H74.6355V36.0313H74.5279C74.4367 36.2139 74.3046 36.4079 74.1318 36.6133C73.959 36.8154 73.7308 36.9882 73.4471 37.1317C73.1634 37.2752 72.8064 37.3469 72.376 37.3469ZM72.87 35.8944C73.245 35.8944 73.5645 35.7933 73.8286 35.5911C74.0927 35.3857 74.2932 35.1004 74.4301 34.7353C74.5671 34.3701 74.6355 33.9446 74.6355 33.4588C74.6355 32.973 74.5671 32.5508 74.4301 32.1921C74.2965 31.8335 74.0976 31.5547 73.8335 31.3558C73.5726 31.1569 73.2515 31.0575 72.87 31.0575C72.4755 31.0575 72.1462 31.1602 71.8821 31.3656C71.618 31.571 71.4191 31.8547 71.2854 32.2166C71.1517 32.5785 71.0849 32.9926 71.0849 33.4588C71.0849 33.9283 71.1517 34.3473 71.2854 34.7157C71.4224 35.0809 71.6229 35.3694 71.887 35.5814C72.1543 35.79 72.482 35.8944 72.87 35.8944ZM79.3538 37.3224C79.0571 37.3224 78.8028 37.2181 78.5909 37.0094C78.379 36.8008 78.2746 36.5465 78.2779 36.2465C78.2746 35.953 78.379 35.702 78.5909 35.4933C78.8028 35.2847 79.0571 35.1803 79.3538 35.1803C79.6407 35.1803 79.8902 35.2847 80.1021 35.4933C80.3173 35.702 80.4265 35.953 80.4298 36.2465C80.4265 36.4454 80.3743 36.6263 80.2733 36.7894C80.1755 36.9524 80.045 37.0828 79.882 37.1806C79.7223 37.2752 79.5462 37.3224 79.3538 37.3224Z" fill="white"/>
<path d="M290.805 24.3223C292.424 27.1262 293.276 30.3069 293.276 33.5447C293.276 36.7824 292.424 39.9631 290.805 42.7671M286.747 26.3512C288.01 28.5383 288.674 31.0192 288.674 33.5447C288.674 36.0701 288.01 38.5511 286.747 40.7382M282.873 28.2141C283.786 29.8124 284.267 31.6254 284.267 33.4709C284.267 35.3164 283.786 37.1294 282.873 38.7277M279 30.2246C279.658 31.2205 280.007 32.3708 280.007 33.5447C280.007 34.7186 279.658 35.8689 279 36.8648" stroke="white" stroke-width="2.21338" stroke-linecap="round"/>
</g>
<defs>
<filter id="filter0_d_11101_43776" x="-3.32911" y="-4.32911" width="333.987" height="196.709" filterUnits="userSpaceOnUse" color-interpolation-filters="sRGB">
<feFlood flood-opacity="0" result="BackgroundImageFix"/>
<feColorMatrix in="SourceAlpha" type="matrix" values="0 0 0 0 0 0 0 0 0 0 0 0 0 0 0 0 0 0 127 0" result="hardAlpha"/>
<feOffset dx="6.88608" dy="8.6076"/>
<feGaussianBlur stdDeviation="6.88608"/>
<feColorMatrix type="matrix" values="0 0 0 0 0 0 0 0 0 0 0 0 0 0 0 0 0 0 0.05 0"/>
<feBlend mode="normal" in2="BackgroundImageFix" result="effect1_dropShadow_11101_43776"/>
<feBlend mode="normal" in="SourceGraphic" in2="effect1_dropShadow_11101_43776" result="shape"/>
</filter>
<linearGradient id="paint0_linear_11101_43776" x1="22.1378" y1="6.00002" x2="311.874" y2="232.229" gradientUnits="userSpaceOnUse">
<stop stop-color="white" stop-opacity="0.51"/>
<stop offset="1" stop-color="white" stop-opacity="0"/>
</linearGradient>
<linearGradient id="paint1_linear_11101_43776" x1="7" y1="12.9251" x2="284.75" y2="206.272" gradientUnits="userSpaceOnUse">
<stop stop-color="white"/>
<stop offset="1" stop-color="white" stop-opacity="0.2"/>
</linearGradient>
</defs>
</svg>
