<svg width="32" height="32" viewBox="0 0 32 32" fill="none" xmlns="http://www.w3.org/2000/svg">
<path d="M27 25V4C27 3.20435 26.6839 2.44129 26.1213 1.87868C25.5587 1.31607 24.7956 1 24 1H8C7.20435 1 6.44129 1.31607 5.87868 1.87868C5.31607 2.44129 5 3.20435 5 4V25H27ZM14.5 4H17.5C17.7652 4 18.0196 4.10536 18.2071 4.29289C18.3946 4.48043 18.5 4.73478 18.5 5C18.5 5.26522 18.3946 5.51957 18.2071 5.70711C18.0196 5.89464 17.7652 6 17.5 6H14.5C14.2348 6 13.9804 5.89464 13.7929 5.70711C13.6054 5.51957 13.5 5.26522 13.5 5C13.5 4.73478 13.6054 4.48043 13.7929 4.29289C13.9804 4.10536 14.2348 4 14.5 4ZM16 9C17.3845 9 18.7378 9.41054 19.889 10.1797C21.0401 10.9489 21.9373 12.0421 22.4672 13.3212C22.997 14.6003 23.1356 16.0078 22.8655 17.3656C22.5954 18.7235 21.9287 19.9708 20.9497 20.9497C19.9708 21.9287 18.7235 22.5954 17.3656 22.8655C16.0078 23.1356 14.6003 22.997 13.3212 22.4672C12.0421 21.9373 10.9489 21.0401 10.1797 19.889C9.41054 18.7378 9 17.3845 9 16C9 14.1435 9.7375 12.363 11.0503 11.0503C12.363 9.7375 14.1435 9 16 9Z" fill="#4AD991"/>
<path d="M16 21C16.9889 21 17.9556 20.7068 18.7779 20.1574C19.6001 19.6079 20.241 18.8271 20.6194 17.9134C20.9978 16.9998 21.0969 15.9945 20.9039 15.0246C20.711 14.0546 20.2348 13.1637 19.5355 12.4645C18.8363 11.7652 17.9454 11.289 16.9755 11.0961C16.0055 10.9031 15.0002 11.0022 14.0866 11.3806C13.173 11.759 12.3921 12.3999 11.8427 13.2222C11.2932 14.0444 11 15.0111 11 16C11 17.3261 11.5268 18.5979 12.4645 19.5355C13.4021 20.4732 14.6739 21 16 21ZM12.78 15C12.9674 14.8138 13.2208 14.7092 13.485 14.7092C13.7492 14.7092 14.0026 14.8138 14.19 15L15.37 16.13L17.81 13.79C17.902 13.6877 18.0141 13.6055 18.1393 13.5485C18.2645 13.4915 18.4001 13.461 18.5377 13.4588C18.6753 13.4566 18.8118 13.4829 18.9387 13.5359C19.0657 13.5888 19.1803 13.6675 19.2755 13.7668C19.3707 13.8661 19.4444 13.984 19.4919 14.1131C19.5395 14.2422 19.5599 14.3797 19.5518 14.517C19.5438 14.6544 19.5075 14.7886 19.4453 14.9113C19.383 15.0339 19.2961 15.1424 19.19 15.23L16.06 18.23C15.8746 18.4087 15.6275 18.509 15.37 18.51C15.1091 18.5116 14.8579 18.4111 14.67 18.23L12.81 16.45C12.7097 16.3586 12.629 16.2478 12.5729 16.1243C12.5168 16.0007 12.4865 15.8671 12.4837 15.7314C12.4808 15.5958 12.5057 15.461 12.5566 15.3353C12.6076 15.2095 12.6836 15.0954 12.78 15ZM5 27V28C5 28.7957 5.31607 29.5587 5.87868 30.1213C6.44129 30.6839 7.20435 31 8 31H24C24.7956 31 25.5587 30.6839 26.1213 30.1213C26.6839 29.5587 27 28.7957 27 28V27H5Z" fill="#4AD991"/>
</svg>
