<svg width="32" height="32" viewBox="0 0 32 32" fill="none" xmlns="http://www.w3.org/2000/svg">
<path d="M26.5535 19.671C26.0719 16.0945 24.0998 13.4891 21.672 13.4891H10.3278C7.89855 13.4891 5.92757 16.0941 5.44481 19.671C3.69333 20.5565 2.78516 22.394 2.78516 24.5257C2.78516 26.1629 3.32222 27.6281 4.36466 28.6215V32H8.56837V29.9457H23.4288V32H27.6325V28.6196C28.6772 27.6258 29.2135 26.1606 29.2135 24.5257C29.2135 22.3936 28.305 20.5562 26.5535 19.671ZM10.3278 14.7518H21.672C23.2689 14.7518 24.6685 16.6451 25.189 19.2105C24.9295 19.1633 24.6523 19.1351 24.3664 19.1203C24.3664 19.1151 24.3683 19.1109 24.3683 19.1056C24.3683 17.6174 23.1576 16.4071 21.6705 16.4071C20.1831 16.4071 18.9735 17.6174 18.9735 19.1056H7.98077C7.58776 19.1043 7.19548 19.1394 6.80896 19.2105C7.32905 16.6447 8.72865 14.7518 10.3278 14.7518ZM23.5288 19.1056H19.8157C19.8159 18.6133 20.0115 18.1411 20.3596 17.7928C20.7076 17.4446 21.1797 17.2487 21.672 17.2482C22.1645 17.2486 22.6366 17.4444 22.9848 17.7927C23.3329 18.141 23.5286 18.6132 23.5288 19.1056ZM7.35093 26.2858C7.11972 26.2859 6.89075 26.2405 6.67711 26.152C6.46347 26.0636 6.26935 25.934 6.10582 25.7705C5.9423 25.6071 5.81258 25.413 5.72407 25.1994C5.63557 24.9858 5.59002 24.7569 5.59002 24.5257C5.59022 24.0585 5.77574 23.6105 6.10588 23.2801C6.43602 22.9496 6.88379 22.7636 7.35093 22.7629C7.81829 22.7632 8.26641 22.949 8.59682 23.2795C8.92722 23.6101 9.11287 24.0583 9.11297 24.5257C9.11297 24.757 9.06738 24.986 8.97881 25.1997C8.89023 25.4133 8.76041 25.6075 8.59677 25.7709C8.43312 25.9344 8.23886 26.064 8.02509 26.1524C7.81132 26.2407 7.58223 26.2861 7.35093 26.2858ZM21.1146 25.9728H10.8844C10.6521 25.9728 10.4632 25.7834 10.4632 25.5504C10.4632 25.3173 10.6514 25.1298 10.8844 25.1298H21.1146C21.3466 25.1298 21.5359 25.3173 21.5359 25.5504C21.5359 25.6622 21.4915 25.7695 21.4126 25.8487C21.3336 25.9278 21.2265 25.9725 21.1146 25.9728ZM21.1146 24.4291H10.8844C10.7728 24.4289 10.6657 24.3845 10.5868 24.3055C10.5078 24.2265 10.4634 24.1195 10.4632 24.0078C10.4632 23.7747 10.6514 23.5881 10.8844 23.5881H21.1146C21.2261 23.5881 21.3331 23.6324 21.412 23.7112C21.4908 23.7901 21.5351 23.8971 21.5351 24.0086C21.5351 24.1201 21.4908 24.2271 21.412 24.3059C21.3331 24.3848 21.2261 24.4291 21.1146 24.4291ZM24.6474 26.2858C24.4161 26.2861 24.187 26.2407 23.9732 26.1524C23.7594 26.064 23.5652 25.9344 23.4015 25.7709C23.2379 25.6075 23.1081 25.4133 23.0195 25.1997C22.9309 24.986 22.8853 24.757 22.8853 24.5257C22.8855 24.0583 23.0712 23.6102 23.4016 23.2797C23.732 22.9491 24.18 22.7633 24.6474 22.7629C25.1147 22.7633 25.5627 22.9491 25.893 23.2797C26.2233 23.6102 26.4089 24.0584 26.409 24.5257C26.4089 24.7569 26.3633 24.9859 26.2747 25.1995C26.1861 25.4131 26.0563 25.6071 25.8928 25.7706C25.7292 25.934 25.535 26.0637 25.3213 26.1521C25.1076 26.2405 24.8786 26.2859 24.6474 26.2858ZM11.5003 0V10.3731H20.4984V0H11.5003ZM12.9165 2.77167C12.9907 2.6885 13.0947 2.63802 13.2059 2.63123C13.3171 2.62445 13.4265 2.66192 13.5102 2.73547L15.1266 4.17316L18.4919 1.26081C18.5768 1.1916 18.6853 1.15819 18.7944 1.16767C18.9034 1.17714 19.0045 1.22875 19.0762 1.31155C19.1479 1.39435 19.1844 1.50181 19.1781 1.61113C19.1719 1.72045 19.1232 1.82302 19.0426 1.89706L15.1191 5.29178L12.952 3.36493C12.8688 3.29086 12.8183 3.18683 12.8117 3.07563C12.805 2.96442 12.8427 2.85512 12.9165 2.77167ZM13.1624 8.97088H12.7758C12.6641 8.97088 12.557 8.92649 12.478 8.84749C12.399 8.76848 12.3546 8.66133 12.3546 8.5496C12.3546 8.43787 12.399 8.33072 12.478 8.25171C12.557 8.17271 12.6641 8.12833 12.7758 8.12833H13.1624C13.2742 8.12833 13.3813 8.17271 13.4603 8.25171C13.5393 8.33072 13.5837 8.43787 13.5837 8.5496C13.5837 8.66133 13.5393 8.76848 13.4603 8.84749C13.3813 8.92649 13.2742 8.97088 13.1624 8.97088ZM13.1624 7.28804H12.7758C12.6642 7.28804 12.5572 7.24369 12.4782 7.16476C12.3993 7.08582 12.3549 6.97877 12.3549 6.86714C12.3549 6.75551 12.3993 6.64845 12.4782 6.56952C12.5572 6.49058 12.6642 6.44624 12.7758 6.44624H13.1624C13.3951 6.44624 13.5837 6.63368 13.5837 6.86676C13.5837 7.09871 13.3951 7.28804 13.1624 7.28804ZM19.1112 8.97088H14.3599C14.2512 8.96628 14.1486 8.91988 14.0733 8.84138C13.9981 8.76288 13.956 8.65834 13.956 8.5496C13.956 8.44086 13.9981 8.33632 14.0733 8.25782C14.1486 8.17932 14.2512 8.13292 14.3599 8.12833H19.1112C19.2198 8.13292 19.3225 8.17932 19.3978 8.25782C19.473 8.33632 19.515 8.44086 19.515 8.5496C19.515 8.65834 19.473 8.76288 19.3978 8.84138C19.3225 8.91988 19.2198 8.96628 19.1112 8.97088ZM19.1112 7.28804H14.3599C14.2482 7.28794 14.1411 7.24352 14.0621 7.16454C13.9831 7.08555 13.9387 6.97846 13.9386 6.86676C13.9386 6.63368 14.1264 6.44624 14.3599 6.44624H19.1112C19.3431 6.44624 19.5317 6.63368 19.5317 6.86676C19.5314 6.97827 19.487 7.08513 19.4083 7.16405C19.3295 7.24297 19.2227 7.28754 19.1112 7.28804Z" fill="#FEC53D"/>
</svg>
