<svg width="32" height="32" viewBox="0 0 32 32" fill="none" xmlns="http://www.w3.org/2000/svg">
<g clip-path="url(#clip0_2582_7385)">
<path d="M24.4375 8.5C24.4375 3.84744 20.6526 0 16 0C11.3474 0 7.5625 3.84744 7.5625 8.5C7.5625 13.1526 11.3474 16.9375 16 16.9375C20.6526 16.9375 24.4375 13.1526 24.4375 8.5ZM15.0625 14.125V13.2925C13.9685 12.9072 13.1775 11.874 13.1775 10.6497C13.1775 10.1316 13.5967 9.71219 14.115 9.71219C14.6331 9.71219 15.0525 10.1316 15.0525 10.6497C15.0525 11.167 15.4726 11.5872 15.99 11.5872C16.5071 11.5872 16.9275 11.167 16.9275 10.6497C16.9275 10.1323 16.5071 9.71219 15.99 9.71219C14.4389 9.71219 13.1775 8.45044 13.1775 6.89969C13.1775 5.67531 13.9685 4.64231 15.0625 4.25681V2.875C15.0625 2.35719 15.4822 1.9375 16 1.9375C16.5178 1.9375 16.9375 2.35719 16.9375 2.875V4.26294C18.0212 4.65406 18.8025 5.68287 18.8025 6.89969C18.8025 7.418 18.3831 7.83719 17.865 7.83719C17.3467 7.83719 16.9275 7.418 16.9275 6.89969C16.9275 6.38231 16.5071 5.96219 15.99 5.96219C15.4726 5.96219 15.0525 6.38231 15.0525 6.89969C15.0525 7.417 15.4726 7.83719 15.99 7.83719C17.5408 7.83719 18.8025 9.09888 18.8025 10.6497C18.8025 11.8664 18.0212 12.8953 16.9375 13.2864V14.125C16.9375 14.6433 16.5181 15.0625 16 15.0625C15.4817 15.0625 15.0625 14.6431 15.0625 14.125ZM0.9375 30.0625L6.47487 30.0438C6.64187 30.0716 15.4099 31.6631 17.3513 31.9866C17.5935 32.0269 17.8294 31.9756 18.0305 31.8347C20.1424 30.3563 32.4521 21.6514 31.6063 22.2436C32.0379 21.9353 32.1175 21.3606 31.8311 20.9311C30.9188 19.6616 29.1449 19.3757 27.9124 20.2561C27.7249 20.3872 18.6102 26.7161 19.1876 26.3125H12.25C11.7249 26.3125 11.3125 25.8999 11.3125 25.375C11.3125 24.8499 11.7249 24.4375 12.25 24.4375H17.875C18.9062 24.4375 19.75 23.5938 19.75 22.5625C19.75 21.5312 18.9062 20.6875 17.875 20.6875H16.7124C16.4876 20.6875 16.2624 20.6123 16.0938 20.4624C15.8638 20.2888 14.9717 19.3193 13.4873 18.8125C9.22975 17.3074 6.52612 20.5525 6.26881 20.6875H0.9375C0.419688 20.6875 0 21.1072 0 21.625V29.1281C0 29.6452 0.420187 30.0642 0.9375 30.0625Z" fill="#FF7878"/>
</g>
<defs>
<clipPath id="clip0_2582_7385">
<rect width="32" height="32" fill="white"/>
</clipPath>
</defs>
</svg>
