<svg width="32" height="32" viewBox="0 0 32 32" fill="none" xmlns="http://www.w3.org/2000/svg">
<path d="M0 16C0 7.16344 7.16344 0 16 0C24.8366 0 32 7.16344 32 16C32 24.8366 24.8366 32 16 32C7.16344 32 0 24.8366 0 16Z" fill="#EBF3F6"/>
<path d="M22.6668 14.6654H9.3335M15.3335 17.332H12.0002M9.3335 13.4654L9.3335 18.532C9.3335 19.2788 9.3335 19.6521 9.47882 19.9374C9.60665 20.1882 9.81063 20.3922 10.0615 20.52C10.3467 20.6654 10.7201 20.6654 11.4668 20.6654L20.5335 20.6654C21.2802 20.6654 21.6536 20.6654 21.9388 20.52C22.1897 20.3922 22.3937 20.1882 22.5215 19.9374C22.6668 19.6521 22.6668 19.2788 22.6668 18.532V13.4654C22.6668 12.7186 22.6668 12.3453 22.5215 12.06C22.3937 11.8092 22.1897 11.6052 21.9388 11.4774C21.6536 11.332 21.2802 11.332 20.5335 11.332L11.4668 11.332C10.7201 11.332 10.3467 11.332 10.0615 11.4774C9.81063 11.6052 9.60665 11.8092 9.47882 12.06C9.3335 12.3453 9.3335 12.7186 9.3335 13.4654Z" stroke="#3684A4" stroke-width="1.33333" stroke-linecap="round" stroke-linejoin="round"/>
</svg>
