<svg width="22" height="21" viewBox="0 0 22 21" fill="none" xmlns="http://www.w3.org/2000/svg">
<path d="M6.5 9.07031H3.6C3.03995 9.07031 2.75992 9.07031 2.54601 9.17931C2.35785 9.27518 2.20487 9.42816 2.10899 9.61632C2 9.83023 2 10.1103 2 10.6703V19.0703M15.5 9.07031H18.4C18.9601 9.07031 19.2401 9.07031 19.454 9.17931C19.6422 9.27518 19.7951 9.42816 19.891 9.61632C20 9.83023 20 10.1103 20 10.6703V19.0703M15.5 19.0703V4.27031C15.5 3.15021 15.5 2.59016 15.282 2.16233C15.0903 1.78601 14.7843 1.48005 14.408 1.2883C13.9802 1.07031 13.4201 1.07031 12.3 1.07031H9.7C8.57989 1.07031 8.01984 1.07031 7.59202 1.2883C7.21569 1.48005 6.90973 1.78601 6.71799 2.16233C6.5 2.59016 6.5 3.15021 6.5 4.27031V19.0703M21 19.0703H1M10 5.07031H12M10 9.07031H12M10 13.0703H12" stroke="#6F7784" stroke-width="2" stroke-linecap="round" stroke-linejoin="round"/>
</svg>
