<svg width="18" height="23" viewBox="0 0 18 23" fill="none" xmlns="http://www.w3.org/2000/svg">
<path d="M11 1.33984V5.47039C11 6.03044 11 6.31046 11.109 6.52437C11.2049 6.71254 11.3578 6.86552 11.546 6.96139C11.7599 7.07038 12.0399 7.07038 12.6 7.07038H16.7305M13 12.0703H5M13 16.0703H5M7 8.07031H5M11 1.07031H5.8C4.11984 1.07031 3.27976 1.07031 2.63803 1.39729C2.07354 1.68491 1.6146 2.14385 1.32698 2.70834C1 3.35008 1 4.19016 1 5.87031V16.2703C1 17.9505 1 18.7905 1.32698 19.4323C1.6146 19.9968 2.07354 20.4557 2.63803 20.7433C3.27976 21.0703 4.11984 21.0703 5.8 21.0703H12.2C13.8802 21.0703 14.7202 21.0703 15.362 20.7433C15.9265 20.4557 16.3854 19.9968 16.673 19.4323C17 18.7905 17 17.9505 17 16.2703V7.07031L11 1.07031Z" stroke="#6F7784" stroke-width="2" stroke-linecap="round" stroke-linejoin="round"/>
</svg>
