<svg width="20" height="20" viewBox="0 0 20 20" fill="none" xmlns="http://www.w3.org/2000/svg">
<path d="M7.49493 20C6.61349 19.9958 5.74169 19.8187 4.93028 19.479C4.11887 19.1393 3.38406 18.6437 2.76861 18.0212C2.15778 17.45 1.6671 16.7656 1.32466 16.0072C0.982217 15.2487 0.794732 14.4311 0.772931 13.601C0.75113 12.771 0.895442 11.9449 1.19761 11.17C1.49977 10.395 1.95386 9.68647 2.53389 9.08486L10.3862 1.26427C10.8055 0.851327 11.3053 0.526503 11.8555 0.309414C12.4056 0.0923248 12.9946 -0.0125261 13.5869 0.00119151C14.2214 0.00332312 14.8491 0.130067 15.4334 0.374032C16.0177 0.617996 16.547 0.974299 16.9903 1.42216C17.8726 2.26026 18.3842 3.40785 18.4142 4.61584C18.4442 5.82383 17.99 6.99474 17.1503 7.87441L9.2553 15.695C9.00243 15.9462 8.70152 16.1453 8.37002 16.2808C8.03853 16.4163 7.68305 16.4855 7.32423 16.4844C6.9366 16.4849 6.5528 16.4088 6.19548 16.2606C5.83816 16.1123 5.51456 15.895 5.24379 15.6213C4.70259 15.1044 4.39004 14.3976 4.37406 13.6545C4.35808 12.9115 4.63996 12.1923 5.15844 11.6531L12.4453 4.43251C12.6527 4.29662 12.9017 4.23657 13.1492 4.26274C13.3968 4.28892 13.6272 4.39967 13.8007 4.57583C13.9742 4.75198 14.0798 4.98244 14.0992 5.22731C14.1186 5.47217 14.0506 5.71602 13.9069 5.91663L6.62008 13.1373C6.49857 13.2817 6.43943 13.4674 6.45539 13.6545C6.47136 13.8415 6.56115 14.0148 6.70543 14.1372C6.85556 14.2863 7.05794 14.373 7.27089 14.3793C7.34977 14.3804 7.42809 14.3661 7.50134 14.3372C7.57458 14.3083 7.6413 14.2653 7.69764 14.2109L15.582 6.39028C16.0245 5.90524 16.2558 5.26786 16.2259 4.61592C16.1959 3.96397 15.9071 3.34985 15.4219 2.90628C14.9713 2.44467 14.3584 2.17102 13.7094 2.14165C13.0605 2.11228 12.4248 2.32943 11.9332 2.7484L4.04888 10.5269C3.66548 10.9331 3.36731 11.4102 3.1715 11.9306C2.97569 12.451 2.88611 13.0044 2.90792 13.5591C2.92974 14.1137 3.06251 14.6587 3.2986 15.1625C3.5347 15.6664 3.86945 16.1192 4.28359 16.4949C4.69891 16.9197 5.19586 17.2585 5.74541 17.4917C6.29496 17.7248 6.88609 17.8476 7.48426 17.8528C8.00002 17.8569 8.51152 17.7605 8.98938 17.569C9.46725 17.3775 9.90206 17.0948 10.2688 16.737L18.1532 8.91645C18.2519 8.81831 18.3693 8.74032 18.4987 8.68695C18.628 8.63357 18.7667 8.60585 18.9069 8.60536C19.0471 8.60487 19.186 8.63162 19.3157 8.6841C19.4454 8.73657 19.5633 8.81374 19.6628 8.91119C19.7623 9.00864 19.8413 9.12446 19.8954 9.25205C19.9495 9.37964 19.9776 9.51649 19.9781 9.65479C19.9786 9.79309 19.9515 9.93014 19.8983 10.0581C19.8451 10.1861 19.7669 10.3024 19.6682 10.4006L11.7838 18.2212C11.224 18.7832 10.5566 19.2299 9.82034 19.5353C9.08407 19.8406 8.29362 19.9986 7.49493 20Z" fill="#6F7784"/>
</svg>
