<svg width="60" height="60" viewBox="0 0 60 60" fill="none" xmlns="http://www.w3.org/2000/svg">
<rect width="60" height="60" rx="12" fill="#EAECF0"/>
<path d="M25.3333 33.5556C25.3333 35.2738 26.7262 36.6667 28.4444 36.6667H31.3333C33.1743 36.6667 34.6667 35.1743 34.6667 33.3333C34.6667 31.4924 33.1743 30 31.3333 30H28.6667C26.8257 30 25.3333 28.5076 25.3333 26.6667C25.3333 24.8257 26.8257 23.3333 28.6667 23.3333H31.5555C33.2738 23.3333 34.6667 24.7262 34.6667 26.4444M30 21.3333V23.3333M30 36.6667V38.6667M43.3333 30C43.3333 37.3638 37.3638 43.3333 30 43.3333C22.6362 43.3333 16.6667 37.3638 16.6667 30C16.6667 22.6362 22.6362 16.6667 30 16.6667C37.3638 16.6667 43.3333 22.6362 43.3333 30Z" stroke="#3684A4" stroke-width="2" stroke-linecap="round" stroke-linejoin="round"/>
</svg>
