<svg width="41" height="40" viewBox="0 0 41 40" fill="none" xmlns="http://www.w3.org/2000/svg">
<rect x="0.5" width="40" height="40" rx="20" fill="#EAECF0"/>
<path d="M26.9865 20.0001L18.3378 20.0001M26.9865 15.6758L18.3378 15.6758M26.9865 24.3244L18.3378 24.3244M15.455 20.0001C15.455 20.3982 15.1323 20.7208 14.7342 20.7208C14.3362 20.7208 14.0135 20.3982 14.0135 20.0001C14.0135 19.6021 14.3362 19.2794 14.7342 19.2794C15.1323 19.2794 15.455 19.6021 15.455 20.0001ZM15.455 15.6758C15.455 16.0738 15.1323 16.3965 14.7342 16.3965C14.3362 16.3965 14.0135 16.0738 14.0135 15.6758C14.0135 15.2778 14.3362 14.9551 14.7342 14.9551C15.1323 14.9551 15.455 15.2778 15.455 15.6758ZM15.455 24.3244C15.455 24.7225 15.1323 25.0452 14.7342 25.0452C14.3362 25.0452 14.0135 24.7225 14.0135 24.3244C14.0135 23.9264 14.3362 23.6037 14.7342 23.6037C15.1323 23.6037 15.455 23.9264 15.455 24.3244Z" stroke="#6F7784" stroke-width="1.08108" stroke-linecap="round" stroke-linejoin="round"/>
</svg>
