<svg width="20" height="20" viewBox="0 0 20 20" fill="none" xmlns="http://www.w3.org/2000/svg">
<path d="M8.33332 12.4993L5.77061 15.0941C5.41314 15.456 5.23441 15.637 5.08078 15.6498C4.9475 15.6608 4.817 15.6073 4.72996 15.5057C4.62962 15.3887 4.62962 15.1343 4.62962 14.6256V13.3257C4.62962 12.8693 4.25588 12.5391 3.80433 12.473V12.473C2.71144 12.3129 1.85314 11.4546 1.69305 10.3617C1.66666 10.1815 1.66666 9.96645 1.66666 9.53638V5.66602C1.66666 4.26588 1.66666 3.56582 1.93914 3.03104C2.17882 2.56063 2.56128 2.17818 3.03168 1.9385C3.56646 1.66602 4.26653 1.66602 5.66666 1.66602H11.8333C13.2335 1.66602 13.9335 1.66602 14.4683 1.9385C14.9387 2.17818 15.3212 2.56063 15.5608 3.03104C15.8333 3.56582 15.8333 4.26588 15.8333 5.66602V9.16602M15.8333 18.3327L14.0197 17.0717C13.7647 16.8945 13.6372 16.8059 13.4985 16.743C13.3754 16.6873 13.2459 16.6467 13.113 16.6222C12.9632 16.5946 12.8079 16.5946 12.4974 16.5946H11C10.0666 16.5946 9.59986 16.5946 9.24334 16.4129C8.92974 16.2531 8.67477 15.9982 8.51498 15.6846C8.33332 15.3281 8.33332 14.8613 8.33332 13.9279V11.8327C8.33332 10.8993 8.33332 10.4326 8.51498 10.076C8.67477 9.76243 8.92974 9.50746 9.24334 9.34767C9.59986 9.16602 10.0666 9.16602 11 9.16602H15.6667C16.6001 9.16602 17.0668 9.16602 17.4233 9.34767C17.7369 9.50746 17.9919 9.76243 18.1517 10.076C18.3333 10.4326 18.3333 10.8993 18.3333 11.8327V14.0946C18.3333 14.8712 18.3333 15.2594 18.2065 15.5657C18.0373 15.9741 17.7128 16.2986 17.3045 16.4677C16.9982 16.5946 16.6099 16.5946 15.8333 16.5946V18.3327Z" stroke="#475467" stroke-width="1.66667" stroke-linecap="round" stroke-linejoin="round"/>
</svg>
