<svg width="18" height="17" viewBox="0 0 18 17" fill="none" xmlns="http://www.w3.org/2000/svg">
<path d="M9.00001 15.6662H16.5M1.50003 15.6662H2.89548C3.30313 15.6662 3.50696 15.6662 3.69877 15.6202C3.86883 15.5793 4.03141 15.512 4.18053 15.4206C4.34872 15.3175 4.49285 15.1734 4.7811 14.8852L15.2501 4.4162C15.9404 3.72585 15.9404 2.60656 15.2501 1.9162C14.5597 1.22585 13.4404 1.22585 12.7501 1.9162L2.28108 12.3852C1.99283 12.6734 1.8487 12.8175 1.74563 12.9857C1.65425 13.1348 1.58691 13.2974 1.54608 13.4675C1.50003 13.6593 1.50003 13.8631 1.50003 14.2708V15.6662Z" stroke="white" stroke-width="1.67" stroke-linecap="round" stroke-linejoin="round"/>
</svg>
