<svg width="20" height="16" viewBox="0 0 20 16" fill="none" xmlns="http://www.w3.org/2000/svg">
<path d="M1.66667 3.83203L8.47077 8.5949C9.02175 8.98058 9.29724 9.17343 9.59689 9.24812C9.86158 9.3141 10.1384 9.3141 10.4031 9.24812C10.7028 9.17343 10.9783 8.98058 11.5292 8.5949L18.3333 3.83203M5.66667 14.6654H14.3333C15.7335 14.6654 16.4335 14.6654 16.9683 14.3929C17.4387 14.1532 17.8212 13.7707 18.0609 13.3003C18.3333 12.7656 18.3333 12.0655 18.3333 10.6654V5.33203C18.3333 3.9319 18.3333 3.23183 18.0609 2.69705C17.8212 2.22665 17.4387 1.8442 16.9683 1.60451C16.4335 1.33203 15.7335 1.33203 14.3333 1.33203H5.66667C4.26654 1.33203 3.56647 1.33203 3.0317 1.60451C2.56129 1.8442 2.17884 2.22665 1.93916 2.69705C1.66667 3.23183 1.66667 3.9319 1.66667 5.33203V10.6654C1.66667 12.0655 1.66667 12.7656 1.93916 13.3003C2.17884 13.7707 2.56129 14.1532 3.0317 14.3929C3.56647 14.6654 4.26654 14.6654 5.66667 14.6654Z" stroke="#494848" stroke-width="2" stroke-linecap="round" stroke-linejoin="round"/>
</svg>
