<svg width="41" height="40" viewBox="0 0 41 40" fill="none" xmlns="http://www.w3.org/2000/svg">
<rect x="0.5" width="40" height="40" rx="20" fill="#EAECF0"/>
<path d="M21.7569 13.2502L27.1825 16.7768C27.3742 16.9014 27.4701 16.9637 27.5395 17.0469C27.601 17.1204 27.6472 17.2055 27.6754 17.2972C27.7072 17.4007 27.7072 17.515 27.7072 17.7437V23.0278C27.7072 24.2387 27.7072 24.8442 27.4715 25.3067C27.2642 25.7135 26.9335 26.0443 26.5266 26.2516C26.0641 26.4872 25.4587 26.4872 24.2477 26.4872H16.7522C15.5413 26.4872 14.9359 26.4872 14.4733 26.2516C14.0665 26.0443 13.7357 25.7135 13.5284 25.3067C13.2928 24.8442 13.2928 24.2387 13.2928 23.0278V17.7437C13.2928 17.515 13.2928 17.4007 13.3246 17.2972C13.3528 17.2055 13.399 17.1204 13.4605 17.0469C13.5299 16.9637 13.6258 16.9014 13.8175 16.7768L19.2431 13.2502M21.7569 13.2502C21.302 12.9545 21.0745 12.8066 20.8294 12.7491C20.6127 12.6982 20.3873 12.6982 20.1706 12.7491C19.9255 12.8066 19.698 12.9545 19.2431 13.2502M21.7569 13.2502L26.2197 16.151C26.7155 16.4733 26.9634 16.6344 27.0492 16.8387C27.1242 17.0173 27.1242 17.2185 27.0492 17.3971C26.9634 17.6014 26.7155 17.7625 26.2197 18.0847L21.7569 20.9856C21.302 21.2813 21.0745 21.4291 20.8294 21.4867C20.6127 21.5375 20.3873 21.5375 20.1706 21.4867C19.9255 21.4291 19.698 21.2813 19.2431 20.9856L14.7803 18.0847C14.2845 17.7625 14.0366 17.6014 13.9508 17.3971C13.8758 17.2185 13.8758 17.0173 13.9508 16.8387C14.0366 16.6344 14.2845 16.4733 14.7803 16.151L19.2431 13.2502M27.3468 25.0458L22.5592 20.7215M18.4408 20.7215L13.6531 25.0458" stroke="#6F7784" stroke-width="1.08108" stroke-linecap="round" stroke-linejoin="round"/>
</svg>
