<svg width="20" height="14" viewBox="0 0 20 14" fill="none" xmlns="http://www.w3.org/2000/svg">
<path d="M2.01677 7.59366C1.90328 7.41396 1.84654 7.32411 1.81477 7.18553C1.79091 7.08143 1.79091 6.91727 1.81477 6.81317C1.84654 6.67458 1.90328 6.58473 2.01677 6.40503C2.95461 4.92005 5.74617 1.16602 10.0003 1.16602C14.2545 1.16602 17.0461 4.92005 17.9839 6.40503C18.0974 6.58473 18.1541 6.67458 18.1859 6.81317C18.2098 6.91727 18.2098 7.08143 18.1859 7.18553C18.1541 7.32411 18.0974 7.41396 17.9839 7.59366C17.0461 9.07865 14.2545 12.8327 10.0003 12.8327C5.74617 12.8327 2.95461 9.07865 2.01677 7.59366Z" stroke="#475467" stroke-width="1.66667" stroke-linecap="round" stroke-linejoin="round"/>
<path d="M10.0003 9.49935C11.381 9.49935 12.5003 8.38006 12.5003 6.99935C12.5003 5.61864 11.381 4.49935 10.0003 4.49935C8.61962 4.49935 7.50034 5.61864 7.50034 6.99935C7.50034 8.38006 8.61962 9.49935 10.0003 9.49935Z" stroke="#475467" stroke-width="1.66667" stroke-linecap="round" stroke-linejoin="round"/>
</svg>
