<svg width="32" height="32" viewBox="0 0 32 32" fill="none" xmlns="http://www.w3.org/2000/svg">
<path d="M0 16C0 7.16344 7.16344 0 16 0C24.8366 0 32 7.16344 32 16C32 24.8366 24.8366 32 16 32C7.16344 32 0 24.8366 0 16Z" fill="#EBF3F6"/>
<path d="M9.3335 17.6664L15.7616 20.8805C15.8491 20.9242 15.8928 20.9461 15.9387 20.9547C15.9793 20.9623 16.021 20.9623 16.0616 20.9547C16.1075 20.9461 16.1512 20.9242 16.2387 20.8805L22.6668 17.6664M9.3335 14.3331L15.7616 11.119C15.8491 11.0752 15.8928 11.0534 15.9387 11.0448C15.9793 11.0372 16.021 11.0372 16.0616 11.0448C16.1075 11.0534 16.1512 11.0752 16.2387 11.119L22.6668 14.3331L16.2387 17.5471C16.1512 17.5909 16.1075 17.6127 16.0616 17.6213C16.021 17.6289 15.9793 17.6289 15.9387 17.6213C15.8928 17.6127 15.8491 17.5909 15.7616 17.5471L9.3335 14.3331Z" stroke="#3684A4" stroke-width="1.33333" stroke-linecap="round" stroke-linejoin="round"/>
</svg>
