<svg width="53" height="52" viewBox="0 0 53 52" fill="none" xmlns="http://www.w3.org/2000/svg">
<g filter="url(#filter0_d_9598_46889)">
<path d="M3 11C3 5.75329 7.25329 1.5 12.5 1.5H40.5C45.7467 1.5 50 5.75329 50 11V39C50 44.2467 45.7467 48.5 40.5 48.5H12.5C7.25329 48.5 3 44.2467 3 39V11Z" stroke="#EAECF0" shape-rendering="crispEdges"/>
<path d="M28.5914 19.7222H34.5451C35.0173 19.7222 35.2534 19.7222 35.3914 19.8215C35.5119 19.9081 35.5903 20.0414 35.6075 20.1888C35.6272 20.3577 35.5126 20.564 35.2833 20.9768L33.8624 23.5343C33.7793 23.684 33.7377 23.7589 33.7214 23.8381C33.707 23.9083 33.707 23.9806 33.7214 24.0508C33.7377 24.13 33.7793 24.2049 33.8624 24.3545L35.2833 26.9121C35.5126 27.3248 35.6272 27.5312 35.6075 27.7001C35.5903 27.8475 35.5119 27.9808 35.3914 28.0674C35.2534 28.1667 35.0173 28.1667 34.5451 28.1667H27.1136C26.5224 28.1667 26.2269 28.1667 26.0011 28.0516C25.8024 27.9504 25.641 27.7889 25.5398 27.5903C25.4247 27.3645 25.4247 27.0689 25.4247 26.4778V23.9444M21.7303 34.5L17.5081 17.6111M19.0914 23.9444H26.9025C27.4937 23.9444 27.7892 23.9444 28.015 23.8294C28.2137 23.7282 28.3751 23.5667 28.4763 23.3681C28.5914 23.1423 28.5914 22.8467 28.5914 22.2556V17.1889C28.5914 16.5977 28.5914 16.3021 28.4763 16.0763C28.3751 15.8777 28.2137 15.7162 28.015 15.615C27.7892 15.5 27.4937 15.5 26.9025 15.5H19.1433C18.406 15.5 18.0374 15.5 17.7852 15.6528C17.5642 15.7867 17.4 15.997 17.3237 16.2439C17.2366 16.5256 17.3261 16.8832 17.5049 17.5985L19.0914 23.9444Z" stroke="#344054" stroke-width="2" stroke-linecap="round" stroke-linejoin="round"/>
</g>
<defs>
<filter id="filter0_d_9598_46889" x="0.5" y="0" width="52" height="52" filterUnits="userSpaceOnUse" color-interpolation-filters="sRGB">
<feFlood flood-opacity="0" result="BackgroundImageFix"/>
<feColorMatrix in="SourceAlpha" type="matrix" values="0 0 0 0 0 0 0 0 0 0 0 0 0 0 0 0 0 0 127 0" result="hardAlpha"/>
<feOffset dy="1"/>
<feGaussianBlur stdDeviation="1"/>
<feComposite in2="hardAlpha" operator="out"/>
<feColorMatrix type="matrix" values="0 0 0 0 0.0627451 0 0 0 0 0.0941176 0 0 0 0 0.156863 0 0 0 0.05 0"/>
<feBlend mode="normal" in2="BackgroundImageFix" result="effect1_dropShadow_9598_46889"/>
<feBlend mode="normal" in="SourceGraphic" in2="effect1_dropShadow_9598_46889" result="shape"/>
</filter>
</defs>
</svg>
