<svg width="18" height="24" viewBox="0 0 18 24" fill="none" xmlns="http://www.w3.org/2000/svg">
<path fill-rule="evenodd" clip-rule="evenodd" d="M5.1599 0H12.8398C15.2246 0 17.1598 1.93525 17.1598 4.32003C17.1598 5.99123 16.2095 7.44161 14.82 8.15996C16.2095 8.87835 17.1598 10.3288 17.1598 12C17.1598 14.3848 15.2246 16.32 12.8398 16.32C11.4832 16.32 10.2721 15.6938 9.47996 14.7149V19.68C9.47996 22.0648 7.54469 24 5.1599 24C2.77511 24 0.839844 22.0648 0.839844 19.68C0.839844 18.0088 1.79023 16.5583 3.1797 15.84C1.79023 15.1216 0.839844 13.6712 0.839844 12C0.839844 10.3288 1.79022 8.87835 3.17968 8.15996C1.79023 7.44161 0.839844 5.99123 0.839844 4.32003C0.839844 1.93525 2.77511 0 5.1599 0ZM1.79984 4.32003C1.79984 2.46545 3.3053 0.96 5.1599 0.96H8.51973V7.67994H5.1599L5.14949 7.67995C3.29965 7.67433 1.79984 6.17112 1.79984 4.32003ZM8.51996 11.9543C8.5198 11.9695 8.51973 11.9847 8.51973 12C8.51973 12.0152 8.5198 12.0304 8.51996 12.0457V15.3599H5.15988C3.3053 15.36 1.79984 13.8546 1.79984 12C1.79984 10.1488 3.29971 8.64553 5.14958 8.63996L5.1599 8.63997H8.51973L8.51996 11.9543ZM9.47996 12.0402V11.9597C9.5015 10.1282 10.9912 8.64734 12.826 8.63997H12.8398C12.8432 8.63997 12.8467 8.63996 12.8501 8.63996C14.7 8.64553 16.1998 10.1488 16.1998 12C16.1998 13.8546 14.6944 15.36 12.8398 15.36C10.9986 15.36 9.50155 13.8763 9.47996 12.0402ZM10.1251 8.63997C9.88809 8.83174 9.67175 9.04806 9.47996 9.28506V8.63997H10.1251ZM12.8502 7.67995C12.8467 7.67994 12.8433 7.67994 12.8398 7.67994C12.8345 7.67994 12.8293 7.67995 12.824 7.67997H9.47996V0.96H12.8398C14.6944 0.96 16.1998 2.46545 16.1998 4.32003C16.1998 6.17112 14.7 7.67433 12.8502 7.67995ZM5.1599 16.3199C3.3053 16.3199 1.79984 17.8254 1.79984 19.68C1.79984 21.5345 3.3053 23.04 5.1599 23.04C7.01451 23.04 8.51996 21.5345 8.51996 19.68V16.3199H5.1599Z" fill="#090A0B"/>
</svg>
