<svg width="14" height="12" viewBox="0 0 14 12" fill="none" xmlns="http://www.w3.org/2000/svg">
<path d="M8.35312 9.75C8.54688 9.30937 8.9875 9 9.5 9C10.0125 9 10.4531 9.30937 10.6469 9.75H13C13.275 9.75 13.5 9.975 13.5 10.25C13.5 10.525 13.275 10.75 13 10.75H10.6469C10.4531 11.1906 10.0125 11.5 9.5 11.5C8.9875 11.5 8.54688 11.1906 8.35312 10.75H1C0.725 10.75 0.5 10.525 0.5 10.25C0.5 9.975 0.725 9.75 1 9.75H8.35312ZM3.35313 5.5C3.54688 5.05937 3.9875 4.75 4.5 4.75C5.0125 4.75 5.45312 5.05937 5.64687 5.5H13C13.275 5.5 13.5 5.725 13.5 6C13.5 6.275 13.275 6.5 13 6.5H5.64687C5.45312 6.94063 5.0125 7.25 4.5 7.25C3.9875 7.25 3.54688 6.94063 3.35313 6.5H1C0.725 6.5 0.5 6.275 0.5 6C0.5 5.725 0.725 5.5 1 5.5H3.35313ZM8.35312 1.25C8.54688 0.809375 8.9875 0.5 9.5 0.5C10.0125 0.5 10.4531 0.809375 10.6469 1.25H13C13.275 1.25 13.5 1.475 13.5 1.75C13.5 2.025 13.275 2.25 13 2.25H10.6469C10.4531 2.69062 10.0125 3 9.5 3C8.9875 3 8.54688 2.69062 8.35312 2.25H1C0.725 2.25 0.5 2.025 0.5 1.75C0.5 1.475 0.725 1.25 1 1.25H8.35312Z" fill="#768F97"/>
</svg>
