<svg width="40" height="40" viewBox="0 0 40 40" fill="none" xmlns="http://www.w3.org/2000/svg">
<path d="M21.6667 11.6667L19.8074 7.94819C19.2723 6.87801 19.0048 6.34288 18.6056 5.95194C18.2526 5.60622 17.8272 5.34329 17.3601 5.18218C16.832 5 16.2337 5 15.0372 5H8.66668C6.79984 5 5.86641 5 5.15338 5.36331C4.52617 5.68289 4.01623 6.19282 3.69666 6.82003C3.33334 7.53307 3.33334 8.46649 3.33334 10.3333V11.6667M3.33334 11.6667H28.6667C31.4669 11.6667 32.8671 11.6667 33.9366 12.2116C34.8774 12.691 35.6423 13.4559 36.1217 14.3967C36.6667 15.4663 36.6667 16.8664 36.6667 19.6667V27C36.6667 29.8003 36.6667 31.2004 36.1217 32.27C35.6423 33.2108 34.8774 33.9757 33.9366 34.455C32.8671 35 31.4669 35 28.6667 35H11.3333C8.53308 35 7.13295 35 6.06339 34.455C5.12258 33.9757 4.35768 33.2108 3.87831 32.27C3.33334 31.2004 3.33334 29.8003 3.33334 27V11.6667ZM15 23.3333L18.3333 26.6667L25.8333 19.1667" stroke="#3684A4" stroke-width="2" stroke-linecap="round" stroke-linejoin="round"/>
</svg>
