<svg width="49" height="48" viewBox="0 0 49 48" fill="none" xmlns="http://www.w3.org/2000/svg">
<rect x="0.666626" width="48" height="48" rx="12" fill="#EAECF0"/>
<path d="M20.1666 24L23.1666 27L29.1666 21M20.4666 33H28.8666C30.5468 33 31.3869 33 32.0286 32.673C32.5931 32.3854 33.052 31.9265 33.3396 31.362C33.6666 30.7202 33.6666 29.8802 33.6666 28.2V19.8C33.6666 18.1198 33.6666 17.2798 33.3396 16.638C33.052 16.0735 32.5931 15.6146 32.0286 15.327C31.3869 15 30.5468 15 28.8666 15H20.4666C18.7865 15 17.9464 15 17.3047 15.327C16.7402 15.6146 16.2812 16.0735 15.9936 16.638C15.6666 17.2798 15.6666 18.1198 15.6666 19.8V28.2C15.6666 29.8802 15.6666 30.7202 15.9936 31.362C16.2812 31.9265 16.7402 32.3854 17.3047 32.673C17.9464 33 18.7865 33 20.4666 33Z" stroke="#3684A4" stroke-width="2" stroke-linecap="round" stroke-linejoin="round"/>
</svg>
