<svg width="49" height="48" viewBox="0 0 49 48" fill="none" xmlns="http://www.w3.org/2000/svg">
<rect x="0.333344" width="48" height="48" rx="12" fill="#EAECF0"/>
<path d="M26.3333 23H20.3333M22.3333 27H20.3333M28.3333 19H20.3333M32.3333 22.5V18.8C32.3333 17.1198 32.3333 16.2798 32.0064 15.638C31.7187 15.0735 31.2598 14.6146 30.6953 14.327C30.0536 14 29.2135 14 27.5333 14H21.1333C19.4532 14 18.6131 14 17.9714 14.327C17.4069 14.6146 16.9479 15.0735 16.6603 15.638C16.3333 16.2798 16.3333 17.1198 16.3333 18.8V29.2C16.3333 30.8802 16.3333 31.7202 16.6603 32.362C16.9479 32.9265 17.4069 33.3854 17.9714 33.673C18.6131 34 19.4532 34 21.1333 34H23.8333M34.3333 34L32.8333 32.5M33.8333 30C33.8333 31.933 32.2663 33.5 30.3333 33.5C28.4003 33.5 26.8333 31.933 26.8333 30C26.8333 28.067 28.4003 26.5 30.3333 26.5C32.2663 26.5 33.8333 28.067 33.8333 30Z" stroke="#3684A4" stroke-width="2" stroke-linecap="round" stroke-linejoin="round"/>
</svg>
