<svg width="48" height="48" viewBox="0 0 48 48" fill="none" xmlns="http://www.w3.org/2000/svg">
<rect width="48" height="48" rx="12" fill="#EAECF0"/>
<path d="M28 33V31.8C28 30.1198 28 29.2798 27.673 28.638C27.3854 28.0735 26.9265 27.6146 26.362 27.327C25.7202 27 24.8802 27 23.2 27H18.8C17.1198 27 16.2798 27 15.638 27.327C15.0735 27.6146 14.6146 28.0735 14.327 28.638C14 29.2798 14 30.1198 14 31.8V33M28 18L30 20L34 16M24.5 19.5C24.5 21.433 22.933 23 21 23C19.067 23 17.5 21.433 17.5 19.5C17.5 17.567 19.067 16 21 16C22.933 16 24.5 17.567 24.5 19.5Z" stroke="#3684A4" stroke-width="2" stroke-linecap="round" stroke-linejoin="round"/>
</svg>
