<svg width="49" height="48" viewBox="0 0 49 48" fill="none" xmlns="http://www.w3.org/2000/svg">
<rect x="0.666626" width="48" height="48" rx="12" fill="#EAECF0"/>
<path d="M17.6666 21V29M22.1666 21V29M27.1666 21V29M31.6666 21V29M15.6666 30.6L15.6666 31.4C15.6666 31.9601 15.6666 32.2401 15.7756 32.454C15.8715 32.6422 16.0245 32.7952 16.2126 32.891C16.4265 33 16.7066 33 17.2666 33H32.0666C32.6267 33 32.9067 33 33.1206 32.891C33.3088 32.7952 33.4618 32.6422 33.5576 32.454C33.6666 32.2401 33.6666 31.9601 33.6666 31.4V30.6C33.6666 30.04 33.6666 29.7599 33.5576 29.546C33.4618 29.3579 33.3088 29.2049 33.1206 29.109C32.9067 29 32.6267 29 32.0666 29H17.2666C16.7066 29 16.4265 29 16.2126 29.109C16.0245 29.2049 15.8715 29.3579 15.7756 29.546C15.6666 29.7599 15.6666 30.04 15.6666 30.6ZM24.3195 15.0772L16.9195 16.7216C16.4725 16.8209 16.2489 16.8706 16.0821 16.9908C15.9349 17.0969 15.8194 17.2409 15.7478 17.4076C15.6666 17.5965 15.6666 17.8255 15.6666 18.2835L15.6666 19.4C15.6666 19.9601 15.6666 20.2401 15.7756 20.454C15.8715 20.6422 16.0245 20.7952 16.2126 20.891C16.4265 21 16.7066 21 17.2666 21H32.0666C32.6267 21 32.9067 21 33.1206 20.891C33.3088 20.7952 33.4618 20.6422 33.5576 20.454C33.6666 20.2401 33.6666 19.9601 33.6666 19.4V18.2835C33.6666 17.8255 33.6666 17.5965 33.5855 17.4076C33.5139 17.2409 33.3983 17.0969 33.2512 16.9908C33.0843 16.8706 32.8608 16.8209 32.4137 16.7216L25.0137 15.0772C24.8842 15.0484 24.8194 15.034 24.754 15.0282C24.6959 15.0231 24.6374 15.0231 24.5793 15.0282C24.5138 15.034 24.4491 15.0484 24.3195 15.0772Z" stroke="#3684A4" stroke-width="2" stroke-linecap="round" stroke-linejoin="round"/>
</svg>
