<svg width="49" height="48" viewBox="0 0 49 48" fill="none" xmlns="http://www.w3.org/2000/svg">
<rect x="0.333344" width="48" height="48" rx="12" fill="#EAECF0"/>
<path d="M16.3334 33.8174C16.9359 34 17.7498 34 19.1333 34H29.5333C30.9169 34 31.7307 34 32.3333 33.8174M16.3334 33.8174C16.2042 33.7783 16.0847 33.7308 15.9714 33.673C15.4069 33.3854 14.9479 32.9265 14.6603 32.362C14.3333 31.7202 14.3333 30.8802 14.3333 29.2V18.8C14.3333 17.1198 14.3333 16.2798 14.6603 15.638C14.9479 15.0735 15.4069 14.6146 15.9714 14.327C16.6131 14 17.4532 14 19.1333 14H29.5333C31.2135 14 32.0536 14 32.6953 14.327C33.2598 14.6146 33.7187 15.0735 34.0064 15.638C34.3333 16.2798 34.3333 17.1198 34.3333 18.8V29.2C34.3333 30.8802 34.3333 31.7202 34.0064 32.362C33.7187 32.9265 33.2598 33.3854 32.6953 33.673C32.582 33.7308 32.4625 33.7783 32.3333 33.8174M16.3334 33.8174C16.3337 33.0081 16.3385 32.5799 16.4102 32.2196C16.7258 30.6329 17.9662 29.3925 19.553 29.0769C19.9394 29 20.404 29 21.3333 29H27.3333C28.2627 29 28.7273 29 29.1137 29.0769C30.7005 29.3925 31.9409 30.6329 32.2565 32.2196C32.3281 32.5799 32.333 33.0081 32.3333 33.8174M28.3333 21.5C28.3333 23.7091 26.5425 25.5 24.3333 25.5C22.1242 25.5 20.3333 23.7091 20.3333 21.5C20.3333 19.2909 22.1242 17.5 24.3333 17.5C26.5425 17.5 28.3333 19.2909 28.3333 21.5Z" stroke="#3684A4" stroke-width="2" stroke-linecap="round" stroke-linejoin="round"/>
</svg>
