<svg width="48" height="48" viewBox="0 0 48 48" fill="none" xmlns="http://www.w3.org/2000/svg">
<rect width="48" height="48" rx="12" fill="#EAECF0"/>
<path d="M38.59 39C38.055 39.93 38.292 40.68 37.395 41.197C36.498 41.715 35.465 42 34.39 42H13.61C12.536 42 11.504 41.715 10.606 41.198C9.708 40.681 9.945 39.93 9.41 39L17.08 30H30.92L38.59 39Z" fill="#1E88E5"/>
<path d="M27.463 6.99972C28.536 6.99772 29.567 6.28372 30.464 6.80172C31.361 7.32072 32.124 8.07172 32.661 9.00272L43.051 26.9987C43.588 27.9287 43.858 28.9657 43.859 30.0007C43.86 31.0377 42.592 32.0737 42.053 33.0017L30.926 29.9967L24.002 18.0037L27.463 6.99972Z" fill="#FBC02D"/>
<path d="M43.86 30C43.86 31.04 43.59 32.07 43.05 33L39.38 39.35C38.85 40.13 38.17 40.75 37.39 41.2L30.92 30H43.86Z" fill="#E53935"/>
<path d="M5.94699 33.0004C5.40899 32.0724 4.14099 31.0364 4.14099 30.0004C4.14199 28.9644 4.41099 27.9274 4.94899 26.9964L15.339 9.00037C15.876 8.07037 16.639 7.31837 17.535 6.80037C18.432 6.28137 19.464 6.99537 20.537 6.99737L23.996 18.0064L17.074 29.9954L5.94699 33.0004Z" fill="#4CAF50"/>
<path d="M17.08 30L10.61 41.2C9.83001 40.75 9.15001 40.13 8.62001 39.35L4.95001 33C4.41001 32.07 4.14001 31.04 4.14001 30H17.08Z" fill="#1565C0"/>
<path d="M30.46 6.8L24 18L17.53 6.8C18.31 6.35 19.19 6.07 20.13 6.01L27.46 6C28.54 6 29.57 6.28 30.46 6.8Z" fill="#2E7D32"/>
</svg>
