<svg width="48" height="48" viewBox="0 0 48 48" fill="none" xmlns="http://www.w3.org/2000/svg">
<rect width="48" height="48" rx="12" fill="#EAECF0"/>
<path d="M38.0866 24.9036C38.0866 23.9149 37.9909 22.8943 37.8314 21.9375H24.0214V27.5827H31.9311C31.6121 29.4007 30.5596 30.9954 28.9968 32.016L33.7171 35.6838C36.4919 33.1003 38.0866 29.3369 38.0866 24.9036Z" fill="#4280EF"/>
<path d="M24.0238 39.1913C27.9787 39.1913 31.2956 37.8837 33.7196 35.6511L28.9993 32.0152C27.6916 32.9083 26.0013 33.4186 24.0238 33.4186C20.1966 33.4186 16.9753 30.8352 15.7952 27.3906L10.9474 31.1222C13.4351 36.0658 18.4743 39.1913 24.0238 39.1913Z" fill="#34A353"/>
<path d="M15.794 27.3592C15.188 25.5413 15.188 23.5638 15.794 21.7459L10.9461 17.9824C8.87302 22.1286 8.87302 27.0084 10.9461 31.1227L15.794 27.3592Z" fill="#F6B704"/>
<path d="M24.0238 15.7173C26.0969 15.6855 28.1381 16.4828 29.6372 17.918L33.8153 13.708C31.1681 11.2203 27.6597 9.88077 24.0238 9.91267C18.4743 9.91267 13.4351 13.0383 10.9474 17.9818L15.7952 21.7453C16.9753 18.2689 20.1966 15.7173 24.0238 15.7173Z" fill="#E54335"/>
</svg>
