<svg width="20" height="20" viewBox="0 0 20 20" fill="none" xmlns="http://www.w3.org/2000/svg">
<path d="M5 6.66665V13.3333H11.6667V6.66665H5Z" fill="white"/>
<path d="M1.25 7.08335V12.9167L3.33333 13.3334L5.41667 12.9167V7.08335L3.33333 6.66669L1.25 7.08335Z" fill="#1E88E5"/>
<path d="M15.4167 9.99998V15.8333C15.4167 16.5237 14.8571 17.0833 14.1667 17.0833H5.41667L5 15L5.41667 12.9166H11.25V9.99998L13.3333 9.58331L15.4167 9.99998Z" fill="#4CAF50"/>
<path d="M15.4167 4.16669V10H11.25V7.08335H5.41667L5 5.00002L5.41667 2.91669H14.1667C14.8571 2.91669 15.4167 3.47627 15.4167 4.16669Z" fill="#FBC02D"/>
<path d="M5.41667 12.9167V17.0834H2.5C1.80958 17.0834 1.25 16.5238 1.25 15.8334V12.9167H5.41667Z" fill="#1565C0"/>
<path d="M5.41667 2.91669V7.08335H1.25L5.41667 2.91669Z" fill="#E53935"/>
<path d="M15.8333 10L15.4167 13.5209L11.25 10L15.4167 6.47919L15.8333 10Z" fill="#2E7D32"/>
<path d="M19.1667 4.21247V15.7875C19.1667 16.1375 18.7583 16.3333 18.4875 16.1125L15.4167 13.5208V6.47914L18.4875 3.88747C18.7583 3.66664 19.1667 3.86247 19.1667 4.21247Z" fill="#4CAF50"/>
</svg>
