<svg width="57" height="56" viewBox="0 0 57 56" fill="none" xmlns="http://www.w3.org/2000/svg">
<rect x="0.670013" width="56" height="56" rx="28" fill="#EAECF0"/>
<path d="M15.3367 28.0001H42.0033M15.3367 28.0001C15.3367 35.3639 21.3062 41.3334 28.67 41.3334M15.3367 28.0001C15.3367 20.6363 21.3062 14.6667 28.67 14.6667M42.0033 28.0001C42.0033 35.3639 36.0338 41.3334 28.67 41.3334M42.0033 28.0001C42.0033 20.6363 36.0338 14.6667 28.67 14.6667M28.67 14.6667C32.005 18.3179 33.9003 23.0561 34.0033 28.0001C33.9003 32.944 32.005 37.6823 28.67 41.3334M28.67 14.6667C25.335 18.3179 23.4397 23.0561 23.3367 28.0001C23.4397 32.944 25.335 37.6823 28.67 41.3334" stroke="#3684A4" stroke-width="2" stroke-linecap="round" stroke-linejoin="round"/>
</svg>
