<svg width="48" height="48" viewBox="0 0 48 48" fill="none" xmlns="http://www.w3.org/2000/svg">
<rect width="48" height="48" rx="12" fill="#EEEEEE" fill-opacity="0.933333"/>
<path d="M26.8766 9.3916V10.769C32.877 12.8352 36.7482 18.0006 36.7482 23.6826C36.7482 23.5104 36.7482 23.5104 36.5546 23.3382C35.3932 19.0337 31.7156 15.5901 26.8766 14.557V15.5901C29.9735 16.451 32.6834 18.345 34.2319 20.9277C30.7478 18.5172 25.3281 17.8285 19.9084 19.5503C12.3595 21.7886 7.90759 27.8149 9.8432 32.8082C11.3917 36.5962 16.2307 38.8345 21.6504 38.6623C25.3281 37.4571 28.2315 35.3909 29.9735 32.9804C29.5864 34.7022 28.8122 36.2518 27.6508 37.6293C33.0705 35.7353 36.7482 32.1195 37.3289 28.1593L37.9095 26.0931C39.0709 18.6894 34.4254 11.8021 26.8766 9.3916Z" fill="#49A94C"/>
<path d="M31.1349 24.7159C31.9091 27.643 29.0057 30.57 24.7474 31.4309C20.489 32.2918 16.4242 30.7422 15.65 27.8151C14.8758 24.8881 17.7792 21.961 22.0375 20.9279C26.2959 19.8948 30.3606 21.961 31.1349 24.7159Z" fill="black"/>
<path d="M27.8442 24.0271C28.2314 25.2324 27.07 26.4376 25.3279 26.782C23.5859 27.1263 22.0374 26.4376 21.6503 25.4045C21.2632 24.1993 22.4245 22.994 24.1666 22.6497C25.9086 22.3053 27.4571 22.8218 27.8442 24.0271Z" fill="white"/>
</svg>
