<svg width="24" height="25" viewBox="0 0 24 25" fill="none" xmlns="http://www.w3.org/2000/svg">
<g clip-path="url(#clip0_9301_6654)">
<path d="M13.4999 13.5704L10.4999 13.5704M13.4999 13.5704C13.9327 12.6064 14.2677 11.6014 14.4999 10.5704M13.4999 13.5704L15.9999 16.0704C15.9999 16.0704 17.2399 14.2804 16.9999 13.0704C16.7299 11.7204 14.4999 10.5704 14.4999 10.5704M10.4999 13.5704C10.0757 12.6141 9.74901 11.6174 9.52488 10.5954C9.17596 9.08134 9.22022 7.50315 9.65343 6.01098C10.0866 4.51881 10.8944 3.16229 11.9999 2.07044C13.3599 3.43044 15.3599 6.21044 14.4999 10.5704M10.4999 13.5704L7.99988 16.0704C7.99988 16.0704 6.75988 14.2804 6.99988 13.0704C7.26988 11.7204 9.49988 10.5704 9.49988 10.5704M10.4999 18.0704C10.3799 19.4504 11.9999 21.5704 11.9999 21.5704C11.9999 21.5704 13.6199 19.4504 13.4999 18.0704C13.4349 17.2954 12.7849 16.6554 11.9999 16.6604C11.62 16.6693 11.2568 16.8181 10.98 17.0783C10.7032 17.3386 10.5322 17.6919 10.4999 18.0704Z" stroke="#41C887" stroke-width="2" stroke-linecap="round" stroke-linejoin="round"/>
</g>
<defs>
<clipPath id="clip0_9301_6654">
<rect width="16.9706" height="16.9706" fill="white" transform="translate(0 12.0703) rotate(-45)"/>
</clipPath>
</defs>
</svg>
