<svg width="48" height="48" viewBox="0 0 48 48" fill="none" xmlns="http://www.w3.org/2000/svg">
<rect width="48" height="48" rx="12" fill="#EAECF0"/>
<g clip-path="url(#clip0_9303_7616)">
<path d="M6 31.5209V32.3946H7.23858V35.6258H8.19355V32.3943H9.43249V31.5205M12.5552 35.6258V33.9802H10.9696V35.6258H10.0121V31.5205H10.9696V33.1297H12.5552V31.5205H13.5108V35.6258M14.3071 35.6258V31.5205H16.9164V32.3954H15.2635V33.1294H16.7708V33.9565H15.2635V34.7582H16.9164V35.6258M12.2613 39.0849L12.6666 40.0722H11.8507L12.2621 39.0849H12.2613ZM12.2038 37.4039L10.2633 41.5446H11.2365L11.5467 40.8004H12.9695L13.2797 41.5449H14.2743L12.3338 37.4043L12.2038 37.4039Z" fill="#822B2F"/>
<mask id="mask0_9303_7616" style="mask-type:luminance" maskUnits="userSpaceOnUse" x="6" y="6" width="36" height="36">
<path d="M6 6H41.9996V41.6126H6V6Z" fill="white"/>
</mask>
<g mask="url(#mask0_9303_7616)">
<path d="M16.2417 38.2626C16.0961 38.2626 16.0058 38.2673 15.8715 38.2881V39.4218C15.9952 39.4312 16.0633 39.4374 16.1755 39.4374C16.6306 39.4374 16.9225 39.2175 16.9225 38.8054C16.9225 38.4632 16.6531 38.2626 16.2417 38.2626ZM17.0911 41.5447L16.3892 40.2064C16.332 40.2111 16.2814 40.2111 16.2253 40.2111C16.0852 40.2111 16.0058 40.2064 15.8715 40.2002V41.5451H14.915V37.4769C15.2635 37.4383 15.6457 37.4092 16.1292 37.4092C17.4133 37.4092 17.919 38.0219 17.919 38.7708C17.919 39.2587 17.6547 39.6956 17.2105 39.9588L18.1779 41.5451H17.0915L17.0911 41.5447Z" fill="#822B2F"/>
</g>
<path d="M22.5225 37.438V41.5458H23.4789V40.0542H24.8951V39.2176H23.4789V38.3139H25.1325V37.438" fill="#822B2F"/>
<mask id="mask1_9303_7616" style="mask-type:luminance" maskUnits="userSpaceOnUse" x="6" y="6" width="36" height="36">
<path d="M6 6H41.9996V41.6126H6V6Z" fill="white"/>
</mask>
<g mask="url(#mask1_9303_7616)">
<path d="M36.0494 38.2622C35.8856 38.2622 35.8004 38.2677 35.6548 38.2848V40.704C35.8295 40.7223 35.9024 40.7266 36.1099 40.7266C37.0106 40.7266 37.4089 40.2213 37.4089 39.4549C37.4089 38.7093 36.9374 38.2626 36.0498 38.2626M35.9573 41.5782C35.4746 41.5782 35.2037 41.5563 34.6987 41.5112V37.4762C35.1757 37.4259 35.5081 37.4092 35.9198 37.4092C37.6299 37.4092 38.4283 38.295 38.4283 39.4542C38.4276 40.6644 37.6681 41.5775 35.9573 41.5775" fill="#822B2F"/>
</g>
<path d="M18.4057 37.438V38.3129H19.6436V41.5437H20.5993V38.3129H21.8379V37.438M8.69552 37.438V39.0472H7.11035V37.438H6.15283V41.5437H7.11035V39.8973H8.69552V41.5437H9.65122V37.438" fill="#822B2F"/>
<mask id="mask2_9303_7616" style="mask-type:luminance" maskUnits="userSpaceOnUse" x="6" y="6" width="36" height="36">
<path d="M6 6H41.9996V41.6126H6V6Z" fill="white"/>
</mask>
<g mask="url(#mask2_9303_7616)">
<path d="M32.0569 38.2626C31.9127 38.2626 31.8217 38.2673 31.6866 38.2881V39.4218C31.8104 39.4313 31.8781 39.4375 31.991 39.4375C32.4454 39.4375 32.7374 39.2176 32.7374 38.8054C32.7374 38.4632 32.4679 38.2629 32.0565 38.2629M32.9063 41.5447L32.2043 40.2064C32.1476 40.2111 32.0962 40.2111 32.0405 40.2111C31.9 40.2111 31.821 40.2064 31.6863 40.2002V41.5451H30.7298V37.4769C31.0786 37.4383 31.4609 37.4092 31.9444 37.4092C33.2274 37.4092 33.7338 38.0219 33.7338 38.7708C33.7338 39.2587 33.4691 39.6956 33.025 39.9588L33.9927 41.5451H32.9063V41.5447ZM27.8271 38.224C27.1747 38.224 26.7349 38.7545 26.7349 39.4946C26.7349 40.229 27.1747 40.7667 27.8271 40.7667C28.4799 40.7667 28.9182 40.2286 28.9182 39.4946C28.9182 38.7545 28.4799 38.224 27.8271 38.224ZM27.8092 41.6124C26.5321 41.6124 25.7158 40.6986 25.7158 39.4946C25.7158 38.2848 26.5707 37.3706 27.8471 37.3706C29.1206 37.3706 29.942 38.2844 29.942 39.4946C29.942 40.6986 29.0791 41.6124 27.8092 41.6124Z" fill="#822B2F"/>
</g>
<mask id="mask3_9303_7616" style="mask-type:luminance" maskUnits="userSpaceOnUse" x="6" y="6" width="36" height="36">
<path d="M6 6H41.9996V41.6126H6V6Z" fill="white"/>
</mask>
<g mask="url(#mask3_9303_7616)">
<path d="M18.9224 20.124V22.9066C20.406 22.8731 21.8841 22.8608 23.3444 22.879C26.1441 21.6968 28.7691 20.6261 31.6952 20.1928C31.7145 20.1673 31.7316 20.1437 31.7454 20.1244H18.9227L18.9224 20.124Z" fill="#EFF4F9"/>
</g>
<mask id="mask4_9303_7616" style="mask-type:luminance" maskUnits="userSpaceOnUse" x="6" y="6" width="36" height="36">
<path d="M6 6H41.9996V41.6126H6V6Z" fill="white"/>
</mask>
<g mask="url(#mask4_9303_7616)">
<path d="M29.1814 21.9996C29.5728 21.7557 29.6875 21.6745 30.1797 21.5264C30.2587 21.503 30.5875 21.2952 30.6457 21.2631C30.7313 21.2158 30.8296 20.9828 30.9224 20.8907C31.1562 20.6504 31.3331 20.5026 31.612 20.2863C31.6357 20.2667 31.6666 20.2295 31.695 20.1924C28.7693 20.6256 26.1447 21.696 23.3442 22.8792C24.1008 22.8887 24.8515 22.9084 25.5968 22.9339C27.1324 22.3841 28.7646 22.2578 29.1814 21.9996Z" fill="#DEEAF3"/>
</g>
<mask id="mask5_9303_7616" style="mask-type:luminance" maskUnits="userSpaceOnUse" x="6" y="6" width="36" height="36">
<path d="M6 6H41.9996V41.6126H6V6Z" fill="white"/>
</mask>
<g mask="url(#mask5_9303_7616)">
<path d="M18.9224 24.6805C20.4813 24.0969 21.9351 23.4743 23.3444 22.8791C21.8845 22.8609 20.4063 22.8729 18.9224 22.9067V24.6805Z" fill="#DEEAF3"/>
</g>
<mask id="mask6_9303_7616" style="mask-type:luminance" maskUnits="userSpaceOnUse" x="6" y="6" width="36" height="36">
<path d="M6 6H41.9996V41.6126H6V6Z" fill="white"/>
</mask>
<g mask="url(#mask6_9303_7616)">
<path d="M22.5815 26.6053C22.5269 24.5199 24.0113 23.5012 25.5961 22.934C24.8505 22.9085 24.1008 22.8889 23.3436 22.8794C21.9346 23.4743 20.4808 24.0972 18.9219 24.6816V28.5571C20.3236 28.7603 21.6524 28.8302 22.9048 28.7814C22.7592 28.4082 22.6464 27.9884 22.5754 27.5399C22.528 27.2676 22.5346 27.0473 22.5572 26.8463C22.5699 26.7466 22.5815 26.6516 22.5815 26.6053Z" fill="#CEE1EE"/>
</g>
<mask id="mask7_9303_7616" style="mask-type:luminance" maskUnits="userSpaceOnUse" x="6" y="6" width="36" height="36">
<path d="M6 6H41.9996V41.6126H6V6Z" fill="white"/>
</mask>
<g mask="url(#mask7_9303_7616)">
<path d="M24.7198 31.1479C24.585 31.0168 24.427 30.9141 24.2901 30.7911C23.7491 30.3018 23.4091 29.8627 23.0432 29.1043C22.9948 29.0016 22.9485 28.8932 22.9048 28.7803C21.6524 28.8294 20.3247 28.7592 18.9219 28.5564V34.0594C20.9359 33.9057 23.1553 33.629 25.2994 33.2744C25.3139 33.1353 25.3227 33.0159 25.327 32.9963C25.327 32.989 25.3576 32.2892 25.3361 32.2656C25.1304 31.9197 24.9884 31.4118 24.7198 31.1479ZM37.2654 27.0447C37.2009 27.4263 37.1256 27.8042 36.945 28.3831C36.945 28.3838 36.7393 28.923 36.6566 29.0959C36.531 29.3635 36.46 29.736 36.3457 30.0826C36.3406 30.0971 36.3155 30.1634 36.2787 30.2537C36.2766 30.2595 36.2547 30.3076 36.2452 30.3272C36.7804 30.1277 37.2949 29.9355 37.4234 29.9049V26.7866C37.3498 26.8864 37.2719 27.0014 37.2657 27.0444M33.3308 30.1718C33.218 29.9836 33.1331 29.6228 32.9777 29.6027C32.8284 29.7163 32.4796 29.8332 32.1374 29.9209C32.1374 29.9209 32.0085 30.0203 31.5265 30.0895L31.1442 30.1423C30.9596 30.1678 30.7485 30.2224 30.5515 30.2238C30.4583 30.2246 30.3716 30.2286 30.2894 30.2333C30.2486 30.4226 30.2832 30.5806 30.0782 30.6356C29.8015 30.7084 29.2466 30.4856 28.6896 30.7496C28.5928 30.8431 28.5185 30.9545 28.4741 31.0554C28.2738 31.5079 28.2447 31.5564 28.0736 31.7788C28.0226 31.8472 27.5847 32.3009 27.5333 32.3519C27.3367 32.5485 27.2333 32.7505 27.1722 32.9409C29.8772 32.425 32.3056 31.8014 33.8358 31.1752C33.6985 30.8584 33.5664 30.5752 33.5555 30.5624C33.4535 30.4314 33.4422 30.3611 33.3308 30.1718ZM34.5068 28.7457C34.5381 29.0814 34.5417 29.2765 34.6513 29.5277C34.6834 29.602 34.8028 30.4649 34.8974 30.8104C34.987 30.7849 35.1071 30.7448 35.2841 30.6815C35.3023 30.2759 35.3205 29.0825 35.3343 28.9485C35.3365 28.9274 35.3416 28.8611 35.3423 28.84C35.3442 28.8189 35.3351 28.7453 35.3241 28.6638C35.0711 28.7184 34.7868 28.7402 34.5068 28.7457Z" fill="#BBD6E9"/>
</g>
<mask id="mask8_9303_7616" style="mask-type:luminance" maskUnits="userSpaceOnUse" x="6" y="6" width="36" height="36">
<path d="M6 6H41.9996V41.6126H6V6Z" fill="white"/>
</mask>
<g mask="url(#mask8_9303_7616)">
<path d="M39.8129 10.5507C39.3269 11.1551 38.3042 11.4638 37.7508 11.8512C37.6074 11.9502 37.4923 12.0824 37.2884 12.2138C37.2265 12.2513 37.0227 12.3777 36.8861 12.4403C36.8716 12.4465 36.8039 12.504 36.7871 12.476C36.7543 12.4323 36.9764 12.18 36.9997 12.1519C37.563 11.4274 38.0774 10.7204 38.1877 9.62635C38.2085 9.37733 38.2219 9.17381 38.2085 8.99651C38.2558 8.99651 38.3155 8.99905 38.3752 9.00233C39.0655 9.03364 39.9837 9.10063 40.0769 9.78691C40.1198 10.1109 39.9531 10.3767 39.8126 10.5515M39.8198 11.3681C39.6218 11.8621 38.9399 12.271 38.3745 12.4647C38.2157 12.5171 37.8768 12.7137 37.773 12.6405C37.7322 12.6096 37.9489 12.4286 37.9987 12.3886C38.4902 11.9936 39.1321 11.6954 39.6225 11.3233C39.7412 11.2286 39.8461 11.1471 39.8694 11.1231C39.8643 11.1729 39.8646 11.2614 39.8198 11.3681ZM35.3341 28.9492C35.3206 29.0832 35.3013 30.2766 35.2831 30.6822C35.1069 30.7456 34.9871 30.7842 34.8972 30.8115C34.8025 30.4656 34.6824 29.6027 34.6507 29.5288C34.5415 29.2776 34.5368 29.0817 34.5058 28.7461C34.7862 28.741 35.0701 28.7199 35.3235 28.6652C35.3345 28.7472 35.3436 28.8207 35.3425 28.8411L35.3341 28.9492ZM27.173 32.9413C27.2349 32.7505 27.3379 32.5481 27.5342 32.3522C27.5859 32.3013 28.0238 31.8476 28.0745 31.7792C28.2456 31.5571 28.2747 31.5083 28.4749 31.0554C28.5186 30.9553 28.5936 30.8435 28.6905 30.7496C29.2475 30.4856 29.802 30.7084 30.0787 30.636C30.284 30.5814 30.2498 30.4234 30.2898 30.2337C30.3725 30.2286 30.4591 30.2253 30.552 30.2242C30.7493 30.2227 30.9605 30.1689 31.1454 30.1427L31.5277 30.0899C32.0094 30.0207 32.1382 29.9217 32.1382 29.9217C32.4805 29.8336 32.8285 29.7167 32.9793 29.6031C33.134 29.6231 33.2185 29.9839 33.331 30.1721C33.4427 30.3615 33.4547 30.4317 33.5567 30.5635C33.5669 30.5759 33.7001 30.8595 33.837 31.1763C32.3061 31.8025 29.8777 32.4258 27.173 32.942M32.6341 13.4393C32.5999 13.4102 32.4572 13.3869 32.4932 13.2729C32.506 13.2376 32.5853 13.211 32.6083 13.2099C32.8449 13.1652 33.2345 13.278 33.1052 13.5026C33.1052 13.5026 32.9006 13.6421 32.8897 13.6428C32.8897 13.6428 32.795 13.6053 32.7757 13.5933C32.7193 13.5558 32.6709 13.4666 32.6345 13.4397M26.7023 11.0896C26.6513 11.0473 26.604 11.0022 26.5639 10.9512C26.411 10.8129 26.2909 10.5609 26.2246 10.3123C26.099 9.82805 25.9668 9.92562 26.2646 9.62781C26.3367 9.54917 26.4547 9.47199 26.5887 9.40026C26.6724 9.35839 26.7889 9.29978 26.8668 9.27939C26.8901 9.27211 26.9007 9.26774 26.9407 9.26009C26.9451 9.31106 26.9509 9.38679 26.9527 9.4749C27.0019 10.2722 27.1322 10.889 27.4639 11.4773C27.1672 11.3444 26.9742 11.2479 26.703 11.0896M26.3247 9.02527C26.4674 8.8476 26.7962 8.655 26.9254 8.57454C26.9415 8.56508 26.9582 8.5527 26.9691 8.54432C26.9509 8.69505 26.9415 8.83486 26.9309 8.89893C26.8581 8.92624 26.7332 8.96884 26.6047 9.01616C26.5268 9.04383 26.4263 9.10536 26.3116 9.1374C26.2242 9.15925 26.2872 9.07187 26.3251 9.02454M40.1137 6.80514C40.2389 7.10441 40.7238 8.14275 40.6652 8.43802C40.6423 8.55306 40.5924 8.85051 40.5505 8.92333C40.536 8.95136 40.4533 9.0959 40.3663 9.08716C40.1857 9.0726 40.1715 8.52831 40.1144 8.35974C40.0357 8.1402 39.8923 7.97273 39.7139 7.77285C39.6593 7.71169 39.5271 7.61375 39.4638 7.56096C39.0648 7.20781 38.566 6.48185 37.9904 6.34787C37.9875 6.34714 37.9831 6.34532 37.9795 6.35333C37.9773 6.35915 37.9831 6.37517 37.9933 6.38609C38.0151 6.40721 38.1498 6.50988 38.4258 6.79459C38.5838 6.95733 38.7983 7.16703 38.9264 7.34943C39.0782 7.56606 39.4565 7.90501 39.5876 8.09797C39.6771 8.23122 39.8035 8.44821 39.8253 8.64881C39.8399 8.77988 39.8399 8.81993 39.7634 8.83668C39.7146 8.85124 39.3884 8.72673 38.8889 8.68886C38.8438 8.68886 38.4244 8.651 38.3792 8.651C37.7472 8.58 37.7858 8.60731 37.2488 8.43765C36.8898 8.32479 36.4514 8.16824 36.0601 8.08814C36.0127 8.0794 35.4946 7.90064 35.4637 7.93887C35.4393 7.96508 35.613 8.07249 35.6494 8.08814C35.8023 8.15659 36.2435 8.32006 36.4132 8.40015C36.628 8.50646 36.821 8.58947 37.0125 8.66447C37.3096 8.7817 37.5913 8.88801 37.9481 8.97029C37.9154 9.3999 37.8316 10.1182 37.6605 10.4266C37.3194 11.0455 36.8468 11.6451 36.3477 12.1133C36.2421 12.2131 36.1402 12.3598 35.9963 12.4894C35.8736 12.6034 35.7124 12.788 35.5951 12.8156C35.5216 12.8309 35.4204 12.8091 35.3348 12.8266C35.2169 12.852 35.1237 12.9176 35.021 12.903C34.9201 12.8848 34.8863 12.796 34.7971 12.7512C34.6798 12.6984 34.4898 12.6576 34.3442 12.6383C34.2342 12.6256 34.1902 12.6383 34.2084 12.5382C34.2084 12.5338 34.2157 12.5284 34.22 12.4647C34.2444 12.1377 34.2492 11.8323 34.2462 11.6007C34.2317 10.6552 33.6382 9.90414 33.284 9.26519C33.1984 9.10864 33.0153 8.75294 32.8726 8.58874C32.7146 8.41217 32.8092 8.71799 32.834 8.81665C32.8646 8.92952 32.9636 9.05803 32.9964 9.15342C33.0208 9.2073 33.0412 9.28667 33.0601 9.34055C33.2472 9.89868 33.7245 10.6512 33.7955 11.3259C33.7999 11.3681 33.809 11.4223 33.8072 11.4525C33.7635 11.8931 33.6987 12.4487 33.2829 12.5386C33.2574 12.5459 33.221 12.5524 33.1955 12.5524C32.5402 12.548 31.973 11.6495 31.6824 11.1784C31.3897 10.7015 31.1727 10.2657 30.9819 9.65184C30.8946 9.36932 30.8571 8.54214 30.8301 8.24287C30.8247 8.19372 30.8199 7.88462 30.8181 7.84312C30.817 7.82601 30.8108 7.80307 30.7992 7.80307C30.7642 7.80307 30.7125 8.08341 30.6947 8.15622C30.635 8.39433 30.6182 8.91422 30.6182 9.12684C30.6182 9.71774 30.793 10.3094 31.0333 10.8271C31.1764 11.1402 31.4913 11.7653 31.6675 12.0649C31.7203 12.153 31.8525 12.3241 31.8437 12.39C31.8244 12.5415 31.535 12.5386 31.444 12.5655C30.99 12.6325 30.3852 12.5743 29.853 12.4264C29.3407 12.2845 28.8634 12.117 28.4404 11.8519C28.3948 11.8166 28.3446 11.7875 28.3147 11.7427C27.7504 11.2975 27.4104 10.2799 27.2895 9.50293C27.2713 9.37077 27.2611 9.19929 27.2618 9.17454C27.3143 9.16143 27.3583 9.14905 27.4038 9.13813C28.0009 8.98777 28.8026 8.46714 29.2508 8.1879C29.4044 8.09542 29.5541 7.99639 29.692 7.88135C29.7088 7.86678 29.7139 7.8595 29.7095 7.85404C29.707 7.8504 29.695 7.85222 29.6782 7.85841C29.0312 8.0612 28.1684 8.5953 27.5651 8.75039C27.5214 8.76241 27.3532 8.80719 27.2418 8.82575C27.2418 8.7675 27.2466 8.651 27.2466 8.62551C27.248 8.55488 27.2444 8.49081 27.2444 8.43073C27.3128 8.3834 27.3827 8.31168 27.4781 8.23777C27.9951 7.83001 28.3399 6.66315 28.6941 6.08719C28.6978 6.08246 28.7098 6.06316 28.705 6.05952C28.7003 6.05479 28.6912 6.06134 28.6774 6.06826C28.0548 6.36134 27.7599 7.64579 27.2036 8.01241C26.7507 8.31241 26.1816 8.54141 25.8758 8.96447C25.8409 9.01325 25.7644 9.19929 25.7018 9.21641C25.677 9.2215 25.5864 9.30269 25.5387 9.27648C25.373 9.17636 25.2245 8.85779 25.1109 8.6794C24.9471 8.41726 24.9915 7.65635 25.0257 7.37492C25.0781 6.93876 25.4371 6.37554 25.6468 6.01692C25.6519 6.00964 25.6541 6.00527 25.6519 6.00236C25.649 5.99872 25.6428 6.00309 25.6348 6.006C25.5511 6.0395 25.3472 6.22445 25.3126 6.26158C25.0199 6.5958 24.6427 7.15356 24.6136 7.61703C24.5823 8.05392 24.7024 9.0249 24.9864 9.31179C25.0374 9.37296 25.0883 9.42611 25.1517 9.47271C25.4994 9.78472 25.6614 10.2493 25.839 10.6996C25.8955 10.8489 25.9555 10.9643 26.0528 11.0994C26.3706 11.5763 26.9739 11.8341 27.5145 12.1031C28.0264 12.3565 28.6286 12.6194 29.2038 12.8014C29.5668 12.9172 30.0459 13.0344 30.4806 13.1145C30.6445 13.1466 30.7901 13.1775 30.8724 13.2467C30.9306 13.2962 30.9678 13.5026 31.0012 13.6046C31.0431 13.7349 31.0923 13.8631 31.1276 13.9621C31.2233 14.2286 31.2816 14.4853 31.3813 14.6793C31.5219 14.9378 31.8546 15.0496 32.1605 15.1636C32.2005 15.1697 32.3887 15.2269 32.6083 15.2145C32.7503 15.2094 32.7677 15.3784 32.7601 15.4574C32.7539 15.5713 32.7696 15.6478 32.7674 15.761C32.7615 16.0534 32.787 16.0541 32.7492 16.3053C32.7419 16.3628 32.6738 16.539 32.6279 16.6832C32.6181 16.705 32.6046 16.7283 32.6003 16.7487C32.5711 16.8896 32.554 17.151 32.5078 17.2941C32.4659 17.4434 32.2832 17.8999 32.2369 18.5953C32.2176 18.8764 32.1146 19.1429 31.9872 19.4123C31.9275 19.539 31.938 19.6082 31.8914 19.7509C31.8433 19.9002 31.815 20.0148 31.7658 20.0931C31.7458 20.1237 31.6628 20.2453 31.6114 20.2868C31.3329 20.5034 31.1563 20.6509 30.9215 20.8912C30.829 20.9836 30.7315 21.2163 30.6448 21.2636C30.5866 21.2957 30.2578 21.5039 30.1788 21.5276C29.6873 21.6754 29.5726 21.7569 29.1805 22.0001C28.3348 22.5255 22.4732 22.4989 22.582 26.6057C22.582 26.6523 22.5704 26.7477 22.558 26.846C22.5354 27.048 22.5289 27.2683 22.5762 27.5399C22.6683 28.1231 22.8303 28.6587 23.0444 29.1054C23.4096 29.8638 23.75 30.3032 24.2906 30.7922C24.4275 30.9149 24.5848 31.0179 24.7202 31.149C24.9889 31.4129 25.1306 31.9208 25.3363 32.2667C25.3581 32.29 25.3272 32.9893 25.3272 32.9974C25.3228 33.0167 25.314 33.1364 25.2991 33.2759C23.1547 33.6305 20.9368 33.9068 18.9224 34.0608V35.6263H37.4239V29.9049C37.295 29.9351 36.7795 30.127 36.2454 30.3272L36.2781 30.2544C36.3145 30.1634 36.34 30.0968 36.3455 30.0819C36.4602 29.736 36.5312 29.3635 36.6571 29.0959C36.7398 28.9226 36.9448 28.3834 36.9448 28.3824C37.1261 27.8035 37.2018 27.4256 37.2659 27.0444C37.2768 26.9606 37.5549 26.6159 37.5549 26.6159C37.638 26.5077 37.7031 26.3625 37.7952 26.2307C37.7952 26.2307 38.243 25.2986 38.2314 24.4933C38.227 24.3451 38.2733 23.6778 38.2678 23.0982C38.2722 23.0654 38.2769 23.0356 38.2769 22.9977C38.2769 22.8874 38.266 22.7865 38.2532 22.6839C38.2532 22.6748 38.2532 22.6649 38.2514 22.6562C38.2489 22.6344 38.2496 22.61 38.247 22.5881C38.2241 22.4388 38.2569 22.1461 38.2496 22.0129C38.2398 21.8389 38.1786 21.8581 38.1659 21.6779C38.1564 21.5552 38.1171 21.4609 38.085 21.3466C38.0632 21.2629 38.0159 21.1864 37.9758 21.1122C37.9685 21.0637 37.9638 21.0266 37.9638 21.0124C37.9856 20.3887 37.5706 19.6457 37.5597 19.6198C37.3631 19.1662 37.3849 19.1491 37.4177 18.592C37.3951 17.9112 37.283 17.5417 37.2138 17.3695C37.1858 17.3531 36.9746 16.8998 36.9058 16.7524C36.8767 16.6912 36.873 16.6249 36.8876 16.5641C36.9338 16.3694 37.2717 16.3129 37.4075 16.2197C37.4949 16.1626 37.5932 16.0122 37.6339 15.9048C37.6376 15.8939 37.6394 15.8841 37.6394 15.8702V15.6627C37.6394 15.6463 37.6285 15.6336 37.6263 15.619C37.6197 15.5877 37.6299 15.5404 37.627 15.5047C37.627 15.4945 37.627 15.4843 37.6307 15.4745C37.749 15.1075 37.8724 14.7827 37.5225 14.6C37.3787 14.5224 37.185 14.4893 37.1938 14.3451C37.1985 14.2352 37.3394 14.1944 37.4224 14.1394C37.6438 13.9952 37.7949 13.8613 37.9201 13.6552C37.9729 13.5653 37.9729 13.3268 38.0366 13.2649C38.081 13.2205 38.2041 13.183 38.2864 13.1393C38.5521 13.0031 38.8125 12.9136 39.0495 12.7763C39.6902 12.4108 40.382 11.7081 40.8749 11.2017C41.1178 10.9523 41.5084 10.5027 41.6879 10.1787C41.831 9.91652 41.9588 9.27575 41.9755 8.92915C41.9806 8.84651 41.9999 8.5709 41.9992 8.5578C41.9992 8.54323 41.9981 8.52867 41.9919 8.52867C41.9857 8.52758 41.9781 8.53377 41.9759 8.54141C41.8059 8.95755 41.6424 9.71373 41.3759 10.0654C41.1775 10.3232 40.5822 10.9884 40.2888 11.1773L40.2487 11.2017C40.2578 11.1791 40.2713 11.1478 40.2779 11.1271C40.291 11.0936 40.2975 11.0568 40.3019 11.0251C40.3703 10.6064 40.5655 10.309 40.5655 9.59941C40.5655 9.53024 40.6936 9.40645 40.7268 9.35002C40.9525 8.96701 40.978 8.4453 40.9146 8.05319C40.8727 7.7947 40.4948 7.12589 40.3539 6.96716C40.3419 6.9515 40.1231 6.68573 40.0918 6.71849C40.078 6.73014 40.1016 6.78403 40.1129 6.80587" fill="#822B2F"/>
</g>
<mask id="mask9_9303_7616" style="mask-type:luminance" maskUnits="userSpaceOnUse" x="6" y="6" width="36" height="36">
<path d="M6 6H41.9996V41.6126H6V6Z" fill="white"/>
</mask>
<g mask="url(#mask9_9303_7616)">
<path d="M33.0634 16.9441C33.1545 16.8786 33.0962 16.398 33.0962 16.3846C33.0962 16.3736 33.0314 16.4512 33.0034 16.4949C32.9742 16.5397 33.0016 16.7352 33.0016 16.741C33.0016 16.7483 33.0034 16.7687 33.0045 16.7774C33.0081 16.7836 33.0016 16.792 32.9935 16.7945C32.9863 16.7963 32.956 16.8356 32.8938 16.8848C32.8931 16.8848 32.8195 17.1236 33.0631 16.9438M37.4414 15.8519C37.33 15.7489 37.3741 15.8898 37.2933 15.9269C37.1768 15.9924 37.0737 15.959 36.8928 15.9269C36.607 15.6757 36.2083 16.0944 35.8442 15.8971C35.8115 15.8475 35.8646 15.8097 35.893 15.7733C36.2171 15.7463 35.9986 15.8454 36.339 15.7747C36.339 15.7747 36.4876 15.7573 36.4748 15.7172C36.4632 15.6793 36.2192 15.7816 35.9451 15.6491C35.6538 15.6171 35.845 15.8967 35.6342 15.9648C35.553 15.9903 35.6196 16.1232 35.6873 16.0886C35.7547 16.0547 35.8264 15.9575 36.0995 16.0256C36.2444 16.1785 36.3143 15.8355 36.4213 16.153C36.4431 16.2185 36.4843 16.1468 36.4843 16.1468C36.4756 16.0776 36.5047 16.054 36.5345 16.0183C36.5698 16.0569 36.5957 16.125 36.6649 16.1275L36.7144 15.9695C36.7865 16.0605 36.9194 16.1071 37.0508 16.1064C37.2044 16.0307 37.4571 16.0664 37.4422 15.8516M35.8661 14.207C35.936 14.2777 36.0743 14.2744 36.1475 14.2252C36.2254 14.1724 36.2626 14.2314 36.3459 14.2187C36.4297 14.2048 36.1821 14.0286 36.1654 14.1029C36.1544 14.1663 36.1093 14.1211 36.0499 14.1473C35.9684 14.1597 35.932 14.0636 35.8752 14.0286C35.8734 13.9831 35.8996 13.9522 35.9316 13.9216L35.9637 13.8932C36.031 13.8313 36.0401 13.7851 35.9841 13.7075C35.9222 13.7847 35.8705 13.7672 35.7856 13.7672C35.6837 13.7709 35.6393 13.8109 35.6371 13.9172C35.6677 13.9718 35.758 13.9981 35.7325 14.0629C35.6888 14.1575 35.5555 14.1229 35.4995 14.0891C35.3276 14.1298 35.1474 14.1546 35.0538 14.3294C35.1172 14.3538 35.151 14.3476 35.1984 14.3013L35.2395 14.2631C35.2541 14.2485 35.2676 14.2413 35.2858 14.2413C35.4969 14.1666 35.7117 14.3832 35.8668 14.2074M33.966 14.4054C33.8968 14.3945 33.8666 14.369 33.8069 14.3712C33.7395 14.3741 33.9245 14.5431 33.946 14.5511C33.9944 14.5686 34.1702 14.5948 34.1954 14.5948C34.3424 14.5766 34.3716 14.4455 34.4295 14.3712C34.3384 14.4368 34.1233 14.4295 33.966 14.4054ZM34.1477 14.0479C34.0355 13.8914 33.8382 14.0581 33.7159 14.1215C33.7905 14.3727 33.9846 14.0363 34.1477 14.0479ZM36.2061 14.8016C36.1836 14.9363 36.1417 15.0517 36.2243 15.1777C36.2688 15.2075 36.4756 15.3815 36.7872 15.3222C37.112 15.3641 36.9219 14.8864 37.3624 14.9931C37.4899 15.0247 37.4018 14.9082 37.5044 14.8402C37.5044 14.8402 37.5481 14.7965 37.5008 14.7834C37.4527 14.7703 37.417 14.7597 37.3453 14.8613C37.0795 14.8664 36.7846 14.6101 36.591 14.8951C36.694 14.9552 36.8334 14.7703 36.9441 14.9108C36.963 15.0582 36.8385 15.178 36.7228 15.1824C36.5808 15.1849 36.5498 15.178 36.4144 15.123C36.2273 15.0593 36.3357 14.9301 36.3226 14.826C36.4093 14.6643 36.5986 14.7204 36.7224 14.6257C36.5353 14.5846 36.2833 14.6068 36.2054 14.8023M33.8382 16.1042C33.8498 16.0984 33.8659 16.0948 33.8812 16.0904C33.8619 16.0649 33.8273 16.034 33.8 16.0198L33.4869 15.8778C33.4858 15.8759 33.4843 15.8752 33.4843 15.8716C33.4636 15.8621 33.4443 15.849 33.4253 15.8341C33.4217 15.8148 33.4155 15.7955 33.4071 15.7751C33.3984 15.7591 33.3867 15.7467 33.3766 15.7307L33.3718 15.7096C33.3682 15.7088 33.3645 15.7088 33.3627 15.7074C33.358 15.7016 33.3554 15.6946 33.3503 15.6892L33.3474 15.6324C33.4224 15.655 33.56 15.7234 33.6176 15.7751L33.6598 15.7733C33.6179 15.675 33.4912 15.6269 33.4257 15.5454C33.3802 15.4871 33.358 15.4143 33.3077 15.3586L33.3041 15.3309C33.3704 15.3437 33.4323 15.3841 33.4789 15.4209L33.5204 15.4172C33.4934 15.3692 33.3988 15.2323 33.331 15.1631C33.3394 15.1449 33.3529 15.1292 33.3558 15.1114C33.3631 15.0411 33.3074 14.8929 33.2655 14.8296C33.2138 14.8645 33.129 14.9497 33.0711 15.016L33.0747 15.0233C33.0991 15.1143 33.0959 15.2199 33.0645 15.3145C33.0773 15.806 33.4694 16.0653 33.7698 16.1865C33.8269 16.2003 33.8852 16.2164 33.9423 16.2218C33.9642 16.2218 33.986 16.2276 34.0079 16.2327C33.9915 16.2109 33.9758 16.1927 33.9605 16.1694C33.919 16.1512 33.8924 16.1239 33.8393 16.1049" fill="white"/>
</g>
<mask id="mask10_9303_7616" style="mask-type:luminance" maskUnits="userSpaceOnUse" x="6" y="6" width="36" height="36">
<path d="M6 6H41.9996V41.6126H6V6Z" fill="white"/>
</mask>
<g mask="url(#mask10_9303_7616)">
<path d="M34.7009 13.7453L34.5753 13.6529C34.4573 13.5691 34.3583 13.5411 34.1955 13.5047C33.838 13.4574 33.6312 13.5862 33.4248 13.8305L33.4649 13.8542C33.5486 13.7195 33.6352 13.7042 33.775 13.6423C33.8559 13.6321 34.0816 13.5768 34.1453 13.6823C34.007 13.7126 33.7769 13.7457 33.7186 13.903C33.8024 13.8382 33.9691 13.8036 34.0754 13.8338C34.1424 13.8666 34.2159 13.9212 34.2902 13.9722C34.3073 13.986 34.3277 13.994 34.3466 14.0064C34.3346 14.0115 34.3161 14.0188 34.3113 14.026C34.2367 14.1928 34.4883 14.195 34.4832 14.0661C34.5614 14.0897 34.6426 14.0952 34.7351 14.0406C34.8505 13.9416 34.7497 13.808 34.7009 13.7453ZM32.7604 13.9492C32.7476 13.9365 32.7502 13.8902 32.7374 13.8709C32.6537 13.7675 32.5467 13.737 32.444 13.6689C32.3628 13.6168 32.2893 13.5305 32.1993 13.4635C31.9569 13.2731 31.6842 13.0281 31.3707 12.9531C31.3081 12.9396 31.1581 12.9331 31.1402 12.9531C31.0885 13.0175 31.2283 13.3281 31.2422 13.3871C31.2553 13.4355 31.2422 13.4865 31.2553 13.5415C31.3099 13.7726 31.4861 14.1287 31.5611 14.3461C31.6128 14.4928 31.6103 14.5958 31.6751 14.6628C31.7697 14.7596 32.0912 14.8427 32.2896 14.8692C32.3391 14.8736 32.4844 14.8925 32.5066 14.8809C32.5376 14.8674 32.6333 14.6533 32.5962 14.6005C32.5357 14.5146 32.2634 14.6206 32.1345 14.6133C31.9427 14.606 32.0042 14.5208 31.9452 14.3461C31.8771 14.1476 31.7064 14.0067 31.6248 13.7963C31.6048 13.7381 31.603 13.6543 31.5757 13.5669C31.5669 13.544 31.4759 13.4162 31.5349 13.3765C31.5684 13.351 31.7144 13.5207 31.7413 13.5768C31.7537 13.6048 31.7967 13.8935 31.8433 13.887C31.8931 13.8771 31.8822 13.5629 31.9569 13.6044C31.9878 13.6215 31.9325 13.8899 31.9933 13.9368C32.0308 13.9641 32.1003 13.9237 32.1243 13.8589C32.1546 13.8385 32.1192 13.7519 32.1607 13.7453C32.2459 13.7563 32.2008 14.1287 32.342 14.0766C32.4025 14.0548 32.3406 13.9001 32.3912 13.8866C32.4411 13.8709 32.5041 14.105 32.5062 14.1287C32.5084 14.1447 32.5019 14.2285 32.5062 14.2306C32.6038 14.2973 32.59 14.0286 32.6228 14.0115C32.6326 14.0078 32.8405 14.1877 32.8383 14.1804C32.8456 14.2434 32.6905 14.3005 32.6865 14.3188C32.6519 14.4236 32.7982 14.5274 32.8266 14.5226C32.8936 14.5153 32.9242 14.3355 32.965 14.3188C32.9952 14.3042 33.0269 14.2277 32.993 14.1913C32.9559 14.0257 32.8481 14.0333 32.76 13.9489M26.9632 27.8991C26.8813 27.8634 26.8879 27.9653 26.8121 27.9894L26.7641 27.9992C26.6741 28.0232 26.6781 28.0327 26.7277 28.1587C26.897 28.2479 26.9774 28.1612 27.0317 27.9839C27.0317 27.9839 27.0451 27.9311 26.9625 27.8991M26.3807 28.2078C26.2948 28.2479 26.2897 28.3127 26.297 28.3928L26.3006 28.4503C26.353 28.4976 26.3909 28.5085 26.4441 28.4787L26.4732 28.4576L26.5016 28.4394C26.5438 28.4048 26.499 28.4339 26.5824 28.3866C26.6661 28.3392 26.6261 28.3014 26.5329 28.2573C26.4892 28.2355 26.432 28.2271 26.3807 28.2078ZM27.6823 28.0272L27.6502 28.0665L27.6167 28.1044C27.5985 28.1284 27.5745 28.1583 27.5465 28.1874L27.6484 28.2766C27.7929 28.2027 27.8669 28.0975 27.8741 27.9504L27.8607 27.9519C27.778 27.9548 27.7278 27.9879 27.6823 28.0272ZM29.5372 27.4425C29.3752 27.4687 29.2365 27.4043 29.136 27.5616L29.1954 27.6125C29.3395 27.6926 29.467 27.6104 29.5922 27.563C29.6104 27.5037 29.5922 27.4851 29.5376 27.4429M28.9656 27.9082C28.9358 27.9646 28.9482 27.9992 28.9776 28.0585L29.0079 28.0331C29.088 27.9704 29.27 28.0549 29.2809 27.8557C29.1935 27.8303 29.1309 27.7829 29.0297 27.8142C29.0042 27.8441 28.9806 27.8725 28.9656 27.9089M28.9358 28.234C28.8404 28.2267 28.7337 28.2857 28.7799 28.3596C28.8491 28.4754 28.9718 28.4157 29.0778 28.4095L29.0938 28.3676C29.0599 28.3472 29.0472 28.3447 29.0137 28.3254C28.9725 28.2945 28.9554 28.2777 28.9358 28.234ZM28.4159 27.5896C28.3744 27.6726 28.33 27.7105 28.2448 27.744L28.1923 27.7716C28.1261 27.8037 28.1013 27.8153 28.1039 27.8638C28.1039 27.8747 28.105 27.8841 28.1082 27.8994L28.1454 27.9227L28.177 27.9446C28.1952 27.9213 28.2189 27.9016 28.2644 27.9002H28.3198C28.3249 27.9002 28.3296 27.9002 28.3354 27.9016L28.3806 27.8954C28.433 27.7935 28.5735 27.7771 28.5619 27.6945C28.56 27.6817 28.5571 27.6632 28.5499 27.6464C28.5346 27.6082 28.4552 27.5918 28.4151 27.5892M24.9084 28.1729C25.014 28.1758 25.0759 27.9719 25.1902 27.9289C25.3132 27.8951 25.4239 27.8343 25.5331 27.7815C25.5732 27.7112 25.6289 27.6886 25.6886 27.6886C25.7811 27.6886 25.8816 27.7341 25.985 27.7323C26.0214 27.7323 26.0578 27.725 26.1015 27.7087C26.1051 27.7087 26.1087 27.7087 26.1124 27.7094C26.2023 27.7083 26.2791 27.6992 26.3403 27.6821L26.3782 27.669L26.361 27.7065C26.3305 27.7731 26.2857 27.8339 26.2118 27.8703C26.1805 27.8958 26.14 27.9049 26.0989 27.9049C26.0261 27.9056 25.9413 27.8809 25.8794 27.8809C25.8066 27.9817 25.6136 27.9835 25.6245 28.1164C25.6263 28.1324 25.6296 28.1514 25.6347 28.1681C25.6511 28.202 25.682 28.2155 25.7243 28.2155C25.7388 28.2155 25.757 28.2136 25.7752 28.2074C25.8943 27.9439 26.3458 28.2118 26.507 27.8743C26.609 27.5783 27.0036 27.3639 27.1169 27.3238C27.122 27.3202 27.122 27.3147 27.122 27.3085C27.1227 27.2838 27.0666 27.2368 27.0608 27.18C27.059 27.1564 27.0681 27.132 27.0917 27.1123L27.1463 27.0697L27.1562 27.0741C27.2508 27.1243 27.3247 27.1877 27.4154 27.215C27.4518 27.2215 27.4838 27.2259 27.5137 27.2259C27.647 27.2223 27.6994 27.1545 27.6983 27.1058C27.6954 27.0672 27.6619 27.0293 27.5763 27.0293C27.569 27.0293 27.5592 27.0304 27.5414 27.0322C27.4915 27.0151 27.4238 27.0129 27.3688 26.9958C27.348 26.9874 27.3317 26.9922 27.3226 26.963C27.3207 26.947 27.3284 26.9434 27.3415 26.9303C27.4085 26.9022 27.4762 26.884 27.5465 26.8538C27.9262 26.7053 27.7249 26.6055 27.8559 26.4908C27.8909 26.461 27.9368 26.4508 27.9841 26.4508C28.0431 26.4508 28.1079 26.461 28.1705 26.461C28.244 26.4581 28.3143 26.4435 28.3726 26.37C28.398 26.3383 28.4257 26.3055 28.4217 26.2688C28.4217 26.2513 28.4162 26.2302 28.4013 26.2098C28.3904 26.2025 28.3813 26.1908 28.3707 26.1792L28.3664 26.1712V26.1639C28.3926 25.9928 28.4494 25.9367 28.4428 25.8118C28.441 25.7711 28.3791 25.7561 28.3591 25.6917C28.2306 25.758 28.2215 25.7973 28.1243 25.8792C28.1315 25.9877 28.1519 26.0103 28.184 26.1129L28.1905 26.1362L28.1672 26.1348H28.149C28.1199 26.1373 28.117 26.1373 28.0849 26.1675L28.113 26.276L28.0831 26.2688C28.0442 26.2542 28.0088 26.2516 27.9775 26.2516C27.8403 26.2516 27.7554 26.3481 27.6775 26.4439C27.5843 26.5651 27.5082 26.6856 27.3215 26.6871H27.2967C27.2705 26.7526 27.2377 26.781 27.1722 26.8145L27.1183 26.8411C27.0521 26.8687 26.98 26.9048 26.9581 26.9842L26.9556 26.9951H26.9439C26.7226 27.0187 26.7998 27.1917 26.7313 27.3391L26.7262 27.3482L26.7164 27.3497C26.6909 27.3508 26.6654 27.3562 26.6465 27.3584L26.5504 27.4291C26.3924 27.4618 26.1826 27.5328 25.9926 27.5361C25.9234 27.5346 25.8604 27.5277 25.8011 27.507C25.792 27.5208 25.7727 27.5543 25.7367 27.5565C25.7268 27.5565 25.7177 27.5539 25.7119 27.5499L25.6708 27.5328C25.6482 27.5208 25.6263 27.5157 25.6041 27.5124C25.5852 27.5124 25.5666 27.5197 25.5415 27.5328C25.3952 27.5394 25.4104 27.6402 25.3303 27.7323C25.2823 27.7855 25.2481 27.8113 25.2109 27.8124C25.1549 27.8099 25.1236 27.7589 25.0737 27.7087C25.0176 27.6599 24.9743 27.6384 24.9193 27.6384C24.8924 27.6384 24.8625 27.6442 24.8385 27.65C24.7529 27.7906 24.6211 27.7884 24.5425 27.8845C24.5425 27.8856 24.5134 27.9449 24.5181 27.9803C24.5206 28.0014 24.5206 28.005 24.5436 28.0057C24.5563 28.0057 24.5778 28.001 24.6084 27.9912C24.655 27.9591 24.7311 27.9074 24.8305 27.8914L24.837 27.89L24.8443 27.8951C24.8625 27.9071 24.8727 27.9253 24.8727 27.9424C24.8713 28.0043 24.8097 28.0735 24.8097 28.1299C24.8498 28.1627 24.8825 28.1743 24.9091 28.1743M25.9864 24.9774C25.8473 24.9817 25.7447 25.0393 25.7487 25.1365C25.7501 25.1591 25.7559 25.1849 25.7698 25.2129L25.8124 25.1911L25.816 25.1889C25.8561 25.1889 25.879 25.1864 25.9107 25.1762C26.0184 25.0342 26.3199 24.9341 26.3687 24.8601C26.364 24.8325 26.3607 24.7975 26.3505 24.7779L26.3498 24.775C26.3352 24.7338 26.3217 24.7229 26.2806 24.7203C26.2602 24.7713 26.1211 24.9796 26.045 24.9872C26.0323 24.9854 26.021 24.9836 26.0093 24.9781H25.9857L25.9864 24.9774ZM25.832 24.6479C25.7774 24.6879 25.7461 24.7233 25.6835 24.7593L25.6853 24.7629C25.7035 24.7979 25.7771 24.815 25.808 24.8139H25.8091C25.8856 24.8066 25.9922 24.6574 25.9999 24.6173C25.9744 24.6082 25.9536 24.6049 25.9351 24.6049C25.9016 24.6049 25.8732 24.6173 25.832 24.6479Z" fill="white"/>
</g>
<mask id="mask11_9303_7616" style="mask-type:luminance" maskUnits="userSpaceOnUse" x="6" y="6" width="36" height="36">
<path d="M6 6H41.9996V41.6126H6V6Z" fill="white"/>
</mask>
<g mask="url(#mask11_9303_7616)">
<path d="M24.3965 27.3179C24.3965 27.3241 24.3983 27.331 24.3965 27.3336C24.43 27.3641 24.4529 27.3853 24.4864 27.3838C24.5046 27.3838 24.5265 27.3773 24.5549 27.3641C24.5647 27.3576 24.5767 27.3503 24.5891 27.3503C24.6062 27.3503 24.6182 27.3576 24.6343 27.3667C24.6969 27.4104 24.7537 27.4213 24.8079 27.4213C24.8691 27.4213 24.9262 27.4016 24.9776 27.3929C25.0333 27.3736 25.1461 27.3692 25.2907 27.3499L25.3722 27.3292C25.456 27.3219 25.5324 27.2913 25.5885 27.2273C25.6431 27.1945 25.6984 27.1828 25.7541 27.1828C25.8696 27.1814 25.9791 27.2247 26.0891 27.2356C26.2267 27.2018 26.4342 27.0798 26.424 26.9225C26.4219 26.8996 26.416 26.8767 26.4073 26.8541L26.4029 26.8432L26.4113 26.8359C26.4441 26.8002 26.4732 26.7485 26.5049 26.7095L26.5369 26.6695C26.5679 26.6345 26.6039 26.6127 26.6476 26.612C26.6621 26.612 26.6803 26.6149 26.6967 26.6182C26.7062 26.6211 26.7149 26.624 26.7259 26.624C26.8598 26.6251 27.0688 26.364 27.197 26.3389C27.3135 26.3156 27.3237 26.2603 27.359 26.1918L27.3881 26.1598C27.4158 26.1001 27.4682 26.0895 27.5352 26.0862C27.5563 25.9785 27.5978 25.9574 27.7027 25.9129C27.8192 25.8569 27.8658 25.8358 27.9004 25.7189C27.8785 25.6388 27.8385 25.4706 27.7657 25.4801C27.7511 25.4801 27.7365 25.4855 27.7234 25.4881C27.699 25.5478 27.7016 25.61 27.6896 25.6687C27.6568 25.7757 27.6167 25.838 27.4955 25.8471C27.2829 26.0378 27.095 26.142 26.9141 26.3484L26.9061 26.3557L26.897 26.3531C26.8751 26.3502 26.8547 26.348 26.8336 26.348C26.6086 26.348 26.4284 26.6149 26.2278 26.6713L26.2205 26.6739L26.2143 26.6702C26.1961 26.6575 26.1961 26.6411 26.1936 26.6211C26.1961 26.6149 26.1936 26.6094 26.1918 26.6036V26.5872C26.1918 26.5737 26.191 26.5581 26.1881 26.5377C26.2041 26.4915 26.2347 26.4576 26.2791 26.4449L26.3185 26.4219C26.4022 26.3884 26.4255 26.3549 26.4299 26.2701C26.4226 26.2566 26.4237 26.2545 26.4044 26.2545C26.3534 26.2523 26.1969 26.3229 25.7804 26.5807L25.7713 26.5869L25.7632 26.5807C25.733 26.5577 25.7294 26.5253 25.7123 26.4871C25.6977 26.4634 25.6882 26.4554 25.6697 26.4445C25.618 26.462 25.5725 26.4693 25.5437 26.4991L25.5357 26.5057L25.5262 26.502C25.4669 26.4765 25.4217 26.4656 25.3861 26.4656C25.204 26.4591 25.2368 26.7503 25.006 26.7623C24.9819 26.7623 24.9539 26.7609 24.9222 26.7503C24.8713 26.7274 24.8512 26.6899 24.8494 26.6546C24.8476 26.6 24.876 26.5468 24.8742 26.5173C24.8724 26.4991 24.8669 26.4867 24.7813 26.4867H24.7427C24.7114 26.4886 24.7136 26.494 24.6787 26.5111L24.6102 26.5464C24.5665 26.5756 24.5276 26.6047 24.5036 26.6764C24.4176 26.7601 24.2356 26.7256 24.2465 26.8686L24.2509 26.9029C24.2654 26.9342 24.2902 26.9407 24.3321 26.9407H24.3648C24.3987 26.9233 24.4497 26.881 24.5043 26.8788C24.537 26.8788 24.5735 26.8981 24.5844 26.9309L24.6426 26.9491L24.7235 26.9407C24.7646 26.8934 24.8145 26.873 24.8618 26.873C24.9576 26.873 25.0518 26.9313 25.1338 26.9313C25.1866 26.9294 25.2346 26.9094 25.2823 26.833L25.2918 26.8184L25.3063 26.8293C25.3347 26.8497 25.358 26.8548 25.377 26.8548C25.4301 26.8563 25.4753 26.7882 25.5135 26.7365C25.5295 26.711 25.5477 26.6946 25.5808 26.6808C25.7913 26.7157 26.0316 26.6575 26.2253 26.8239L26.2314 26.8297L26.2322 26.837L26.2314 26.8417C26.2314 26.9764 26.0156 26.9932 25.9358 27.0347L25.9231 27.0405L25.9136 27.0274C25.8808 26.9753 25.8473 26.9629 25.8117 26.9629C25.7884 26.9629 25.7632 26.9702 25.7425 26.979L25.6952 27.0008C25.674 27.0044 25.6558 27.0081 25.6406 27.0081C25.6114 27.0092 25.5881 26.9986 25.5597 26.976C25.4032 27.0026 25.4141 27.0754 25.3012 27.1726C25.2758 27.1788 25.2517 27.181 25.2295 27.181C25.0839 27.1821 25.0194 27.0871 24.8764 27.09C24.8461 27.09 24.8126 27.0947 24.7828 27.0984C24.7296 27.165 24.6688 27.1876 24.5906 27.2214L24.5796 27.2243C24.4813 27.2549 24.3867 27.26 24.3958 27.319M24.2243 28.0792C24.2214 28.0209 24.1828 27.9263 24.1642 27.8637L23.9585 27.9984C23.9338 28.0945 23.8624 28.1404 23.9724 28.2277L24.0124 28.1913C24.0328 28.1906 24.0525 28.2073 24.067 28.2154C24.158 28.203 24.2265 28.1684 24.2243 28.0792ZM24.0142 27.6084L24.0565 27.6365C24.1176 27.682 24.1682 27.6911 24.2349 27.6423C24.2349 27.5775 24.2076 27.5425 24.1548 27.5018L24.1165 27.4719C24.0437 27.4275 24.0248 27.4053 24.0445 27.3285C23.9294 27.3055 23.9046 27.3503 23.8275 27.4049C23.8056 27.4202 23.7852 27.4282 23.767 27.4341C23.7397 27.5637 23.6997 27.6277 23.7452 27.7606L23.8886 27.6274C23.9301 27.564 23.9563 27.5709 24.0142 27.6084ZM23.8988 27.0106C23.9716 27.0121 24.0091 27.0663 24.0445 27.0711C24.0721 27.0325 24.1009 27.0092 24.1009 27.0143C24.0991 26.9939 24.0779 27.0004 24.0659 26.9651C24.0496 26.9189 24.0386 26.8879 24.0386 26.8559C24.0372 26.8341 24.1828 26.6859 24.0066 26.7558C23.9858 26.7645 23.8773 26.7922 23.8773 26.7922C23.6931 26.8432 23.6837 26.9 23.5672 27.0368L23.5653 27.039C23.5551 27.0492 23.5522 27.0572 23.5522 27.0572C23.5522 27.0609 23.5595 27.0743 23.5937 27.0882L23.6338 27.0875C23.652 27.0875 23.6665 27.0875 23.68 27.0802L23.6997 27.0736C23.7004 27.0736 23.8897 27.0103 23.8985 27.0117M23.9873 26.3142L23.9818 26.3214L23.9702 26.3229C23.8781 26.3309 23.8045 26.3786 23.7361 26.4358L23.6669 26.5013C23.6829 26.5461 23.6888 26.565 23.7033 26.5996L23.7048 26.6014C23.7172 26.6498 23.7215 26.679 23.7994 26.6342C23.854 26.6036 23.8468 26.581 23.8468 26.581C23.8468 26.581 23.9371 26.5155 24.0171 26.5155C24.0463 26.5155 24.1082 26.49 24.1082 26.49C24.1446 26.4507 24.1519 26.4765 24.1653 26.4157L24.1788 26.3546C24.1806 26.3327 24.2214 26.2563 24.185 26.2563L24.086 26.2621C24.0441 26.2614 24.0091 26.2748 23.9873 26.3142ZM24.1781 25.8412L24.1555 25.8012C24.1144 25.74 24.0801 25.7149 24.0288 25.7138C24.0128 25.7138 23.8125 25.9395 23.7084 26.0396H23.7048C23.6698 26.0633 23.6392 26.099 23.6072 26.143C23.5952 26.154 23.5868 26.1598 23.5661 26.1704L23.5158 26.1907C23.4539 26.2271 23.4503 26.2443 23.4448 26.2952L23.6232 26.2606C23.8089 26.0913 24.1012 26.0924 24.1781 25.8412ZM26.2649 25.1065C26.1612 25.1742 26.1047 25.3614 25.9435 25.4174L26.0498 25.4964C26.2598 25.4506 26.5063 25.4498 26.5937 25.2471L26.7 25.1062L26.7128 25.1043C26.7157 25.1043 26.7273 25.1018 26.7404 25.1018C26.7404 25.1018 26.7433 25.0996 26.7459 25.0996C26.7732 25.0996 26.7706 25.1083 26.7797 25.1225L26.8089 25.1306C26.8515 25.1102 26.8424 25.0956 26.8424 25.0734C26.8424 25.0577 26.838 25.0388 26.8322 25.0093V24.9795C26.7666 24.9343 26.7095 24.9158 26.6611 24.9183C26.5555 24.9183 26.3836 25.1149 26.3654 25.2474L26.3632 25.2602L26.3487 25.2653C26.3378 25.2696 26.3268 25.2704 26.3159 25.2704C26.2788 25.2718 26.3185 25.2219 26.2941 25.2099L26.2904 25.2063L26.2882 25.1073H26.2642L26.2649 25.1065ZM25.6398 24.4268L25.6486 24.4202C25.7523 24.3594 25.9205 24.3241 25.9253 24.2535C25.8947 24.2251 25.8561 24.212 25.8124 24.2124C25.7188 24.2131 25.6249 24.2852 25.6282 24.3798C25.6282 24.3922 25.6311 24.4031 25.6344 24.4151L25.6398 24.4268ZM23.7619 25.4903C23.7627 25.5048 23.759 25.5194 23.7547 25.5369C23.7255 25.6104 23.692 25.6869 23.6909 25.7211C23.7317 25.7065 23.8577 25.6191 23.8708 25.5791L23.8915 25.5339C23.9097 25.4881 23.9436 25.4502 23.9997 25.4356H24.0091C24.0219 25.4367 24.0324 25.4367 24.0419 25.4367C24.1053 25.4353 24.1591 25.412 24.2057 25.3821L24.2593 25.345C24.3248 25.2969 24.3867 25.2598 24.4668 25.2591C24.473 25.2591 24.4806 25.2583 24.4923 25.2591H24.4981L24.5017 25.2638C24.5389 25.2929 24.5716 25.3057 24.5993 25.3049C24.6255 25.3049 24.6521 25.2933 24.6819 25.2671L24.7275 25.2187C24.7657 25.175 24.7985 25.1415 24.8483 25.1415C24.8793 25.1415 24.9088 25.1535 24.9477 25.1786C25.0577 25.1386 25.113 25.0905 25.1782 25.0075L25.223 24.9274L25.235 24.9259C25.2412 24.9223 25.2474 24.9223 25.2557 24.9223C25.3001 24.9212 25.3103 24.9667 25.3114 24.9908C25.3114 25.0042 25.3114 25.0191 25.3122 25.0323C25.3165 25.0723 25.3209 25.1051 25.3584 25.1255C25.373 25.1309 25.3853 25.1327 25.3963 25.1327C25.4217 25.1327 25.4418 25.1211 25.4629 25.0927C25.4946 25.057 25.4993 25.0512 25.5332 25.0242C25.5179 25.0086 25.5004 24.9922 25.4967 24.9624C25.4957 24.9376 25.5099 24.9103 25.5361 24.8837C25.5681 24.856 25.5747 24.8364 25.5739 24.8073C25.5739 24.7992 25.5728 24.7883 25.5685 24.7759C25.5204 24.7577 25.4469 24.7359 25.3799 24.7377C25.3242 24.7395 25.2772 24.7537 25.2514 24.796L25.2459 24.8022L25.2386 24.8043C25.0577 24.856 24.9306 25.0749 24.7118 25.0905L24.7082 25.092L24.7002 25.0894C24.6077 25.0374 24.5312 25.021 24.4635 25.021C24.3536 25.021 24.2676 25.0763 24.1843 25.1429L24.0852 25.2267C24.0517 25.2547 24.0168 25.2824 23.9789 25.302C23.9199 25.3421 23.8489 25.3457 23.7878 25.3483C23.7678 25.3483 23.7477 25.3446 23.7303 25.3468H23.7222C23.6822 25.3479 23.6662 25.3577 23.6658 25.3599V25.3625C23.6531 25.377 23.7485 25.3989 23.7612 25.4877M23.9097 25.0556L23.9847 25.017C24.1413 24.8422 24.3561 24.7971 24.5429 24.7057L24.5538 24.7009L24.5629 24.706C24.5993 24.7242 24.6284 24.7293 24.6539 24.7253C24.7282 24.7217 24.7835 24.6671 24.8643 24.6562C24.8993 24.6525 24.9364 24.6653 24.9728 24.6951C25.002 24.7035 25.0289 24.705 25.0548 24.7017C25.1483 24.6922 25.2077 24.6289 25.2758 24.5451L25.3056 24.5029C25.3216 24.4829 25.3438 24.4701 25.3398 24.4363C25.3387 24.4344 25.3387 24.4326 25.3387 24.4319C25.3147 24.4319 25.2535 24.4745 25.2077 24.4814C25.1957 24.4825 25.1807 24.4807 25.1676 24.4683V24.4676C25.1585 24.4592 25.1505 24.4457 25.1501 24.4323C25.1465 24.3838 25.188 24.3558 25.2492 24.3267C25.3671 24.2812 25.5095 24.2007 25.4924 24.1643C25.4916 24.157 25.4785 24.149 25.4363 24.1548C25.3908 24.161 25.3322 24.2011 25.2754 24.2058C25.2481 24.2087 25.2339 24.2557 25.208 24.2495L25.168 24.2641L25.1622 24.2633C25.1385 24.2568 25.1185 24.256 25.1039 24.2575C24.9921 24.2611 25.0165 24.3776 24.9608 24.4778L24.9521 24.4934L24.9375 24.4883L24.9048 24.4774H24.9033C24.88 24.4803 24.8531 24.481 24.8429 24.4829C24.4588 24.7647 24.0954 24.4071 23.8038 24.9645C23.7994 24.9696 23.7987 24.9744 23.7994 24.9802C23.8002 25.002 23.8577 25.0439 23.9097 25.0541M25.5149 25.2969C25.5004 25.2915 25.4858 25.2882 25.4742 25.2897C25.456 25.2878 25.4414 25.2933 25.4268 25.3028L25.4203 25.3075L25.4141 25.3093L25.4152 25.3104C25.4116 25.3122 25.4068 25.314 25.4017 25.3177C25.3923 25.3239 25.3842 25.3297 25.3653 25.3323L25.3566 25.3301C25.3384 25.3235 25.3245 25.3119 25.3176 25.2998L25.1603 25.4535H25.1531C25.0671 25.463 24.9623 25.5227 24.8582 25.5263C24.8145 25.5281 24.7671 25.5139 24.7271 25.4801C24.6925 25.4728 24.6634 25.4691 24.6361 25.4691C24.4941 25.4691 24.4213 25.5867 24.2684 25.6414C24.2793 25.6981 24.2902 25.7116 24.3277 25.7116C24.3437 25.7142 24.3641 25.708 24.3921 25.7007L24.4591 25.6759L24.4686 25.6905C24.4821 25.708 24.4897 25.7269 24.4915 25.7429C24.4915 25.7822 24.4675 25.8099 24.4387 25.8449L24.4009 25.8813C24.3645 25.9213 24.3441 25.9566 24.3455 25.9985C24.3448 26.0029 24.3477 26.0113 24.3477 26.0178C24.3648 26.0298 24.3776 26.0331 24.3867 26.0331C24.4122 26.0331 24.4468 26.0003 24.4813 25.9646L24.5301 25.9173C24.5429 25.8977 24.5647 25.8882 24.5811 25.8867C24.7329 25.8598 24.8141 25.7866 24.9605 25.7367C24.9568 25.7207 24.9554 25.704 24.9539 25.6887C24.9532 25.6534 24.9568 25.6242 24.9768 25.602C24.9961 25.5802 25.0278 25.574 25.0653 25.5722C25.085 25.5722 25.1068 25.574 25.1338 25.5776L25.2302 25.5907C25.263 25.5962 25.295 25.6002 25.3256 25.5988C25.3784 25.5988 25.4276 25.5871 25.4654 25.5514L25.48 25.5405L25.4953 25.554C25.5353 25.5824 25.5703 25.594 25.6071 25.5922C25.6362 25.5922 25.6653 25.5849 25.6944 25.5722C25.7665 25.5467 25.7993 25.5372 25.8473 25.5365C25.8641 25.5365 25.8867 25.5372 25.9129 25.5394C25.8747 25.4782 25.8335 25.4528 25.7345 25.4491C25.7126 25.4644 25.6952 25.4735 25.6762 25.4735C25.6238 25.4699 25.6132 25.424 25.5947 25.3909C25.5779 25.3508 25.5583 25.3166 25.5168 25.2984M28.8626 26.9549C28.84 26.968 28.8142 26.9928 28.7898 27.011C28.7468 27.0401 28.7341 27.0328 28.6853 27.0256C28.697 27.1086 28.717 27.1566 28.8127 27.1654C28.8684 27.1756 28.9059 27.1705 28.9645 27.189C28.9817 27.1563 29.0046 27.1355 29.0374 27.1082C29.0527 27.0816 29.0781 27.055 29.0738 27.0135C29.009 26.9167 28.9463 26.8952 28.8626 26.9549ZM29.2103 25.9803V25.9778C29.1885 25.8867 29.1677 25.8795 29.0843 25.8784L28.9875 25.894C28.9693 25.894 28.8346 25.9778 28.8138 25.9814L28.7654 26.0579C28.737 26.1066 28.7115 26.1627 28.7122 26.2133C28.7144 26.2352 28.7195 26.2552 28.7334 26.2796L28.7406 26.2879L28.7341 26.3032C28.6893 26.3568 28.623 26.3287 28.587 26.3808C28.5848 26.3928 28.5834 26.4019 28.5834 26.4099C28.5848 26.4401 28.599 26.4572 28.6343 26.4864L28.6944 26.5344L28.6798 26.5512C28.6274 26.6083 28.5535 26.6076 28.4993 26.6156C28.4592 26.6302 28.457 26.6411 28.457 26.652C28.4548 26.6786 28.5025 26.7314 28.5324 26.7601C28.5688 26.7361 28.6143 26.7154 28.6635 26.7143C28.6889 26.7143 28.717 26.7186 28.7414 26.7325C28.8743 26.7034 28.9278 26.6633 28.9227 26.6087C28.922 26.5832 28.9096 26.5504 28.8783 26.5068C28.8429 26.4536 28.8025 26.4063 28.7996 26.3458C28.796 26.3087 28.8131 26.2694 28.8521 26.2301C28.8542 26.2031 28.8732 26.17 28.9154 26.17L28.9773 26.1252C29.0232 26.1121 29.2103 26.0258 29.2103 25.981" fill="white"/>
</g>
<mask id="mask12_9303_7616" style="mask-type:luminance" maskUnits="userSpaceOnUse" x="6" y="6" width="36" height="36">
<path d="M6 6H41.9996V41.6126H6V6Z" fill="white"/>
</mask>
<g mask="url(#mask12_9303_7616)">
<path d="M25.7291 25.9686L25.7124 25.9806L25.5813 25.8292C25.5577 25.8263 25.5333 25.7982 25.5107 25.7993C25.3749 25.8015 25.2595 25.8576 25.2034 25.9595L25.195 25.9763L25.1816 25.9672C25.1645 25.9628 25.151 25.9591 25.1393 25.9599C25.0906 25.9588 25.0483 25.9999 24.9919 26.0243L24.9828 26.0265L24.9755 26.0207C24.9409 25.9988 24.9143 25.9923 24.8918 25.993C24.8415 25.993 24.7971 26.0367 24.7509 26.0877C24.7217 26.1204 24.6981 26.1343 24.6719 26.1343C24.6508 26.1343 24.6333 26.1299 24.6089 26.1233C24.6515 26.2471 24.7327 26.2522 24.9082 26.2806C25.0192 26.2617 25.1812 26.2224 25.2402 26.1357L25.2438 26.1303L25.2522 26.1295C25.258 26.1281 25.2631 26.1281 25.2693 26.1281C25.3676 26.1281 25.4637 26.2009 25.5497 26.1991C25.585 26.198 25.621 26.1863 25.6563 26.1517L25.6636 26.1445H25.6709C25.6847 26.147 25.6971 26.1499 25.7109 26.1499C25.7619 26.147 25.8103 26.1288 25.8566 26.1051L25.9112 26.0702C25.945 26.0491 25.976 26.0345 26.008 26.0323C26.0466 26.0323 26.0819 26.0527 26.1202 26.0877C26.1544 26.0986 26.1908 26.1051 26.2308 26.1037C26.3255 26.1022 26.4274 26.0636 26.5013 26.0283L26.5458 25.997C26.5931 25.9398 26.6339 25.8805 26.6674 25.815L26.671 25.8077L26.6794 25.8055C26.6903 25.804 26.6998 25.8019 26.7111 25.8019C26.7795 25.8019 26.9076 25.7684 26.9783 25.7655C26.9928 25.7655 27.0089 25.7644 27.0227 25.7611C27.1807 25.7112 27.366 25.5281 27.3995 25.4312C27.3995 25.4312 27.2976 25.44 27.2342 25.4385C27.1723 25.4403 26.647 25.5707 26.3284 25.8594C26.2702 25.8994 26.2101 25.914 26.1537 25.914C26.0736 25.9162 25.9971 25.8958 25.9228 25.8987C25.8573 25.8987 25.7954 25.914 25.7299 25.9693M29.2723 26.3349L29.2104 26.3225C29.1412 26.3079 29.1576 26.3101 29.0844 26.3625C29.0735 26.3909 29.0699 26.4142 29.0735 26.4317C29.0735 26.4681 29.0939 26.4936 29.166 26.5264L29.1747 26.53L29.1784 26.5384C29.1784 26.5413 29.1857 26.5566 29.1857 26.5762C29.1893 26.6108 29.1766 26.6629 29.1201 26.7C29.1434 26.7838 29.1755 26.8031 29.217 26.8031C29.2541 26.8045 29.276 26.7827 29.3273 26.7506C29.3517 26.7299 29.3244 26.7171 29.3499 26.7033C29.3571 26.6622 29.3735 26.6312 29.3724 26.605C29.3673 26.486 29.4077 26.3589 29.2723 26.3349ZM27.4166 25.2168C27.5659 25.1396 27.8237 25.2292 27.808 24.9594C27.6169 24.8283 27.4097 24.9521 27.3282 25.1061C27.2972 25.1644 27.3274 25.2124 27.3766 25.2346L27.4166 25.2168ZM27.0951 24.9936C27.2528 24.9463 27.311 24.7249 27.2612 24.6696C27.1337 24.666 27.125 24.6805 27.0398 24.7613L27.0078 24.7879C26.9659 24.8152 26.9714 24.7821 26.9328 24.8352L26.9109 24.9019L26.9328 24.9441C26.963 25.0031 27.0147 25.0315 27.0951 24.994M26.4074 24.5695C26.4096 24.6445 26.4635 24.6372 26.5676 24.67V24.6692C26.604 24.6802 26.6211 24.6994 26.6346 24.7202C26.6994 24.6161 26.7449 24.5607 26.8549 24.4919L26.8505 24.489C26.8177 24.4672 26.7806 24.4552 26.7376 24.4552C26.6342 24.4581 26.5108 24.5156 26.4081 24.5327C26.4074 24.5458 26.4074 24.5586 26.4074 24.5695ZM26.5549 24.1854V24.1719C26.5538 24.1548 26.5461 24.1428 26.5228 24.126L26.489 24.1016C26.4853 24.0991 26.4762 24.0944 26.4635 24.0834C26.4591 24.0823 26.4526 24.0823 26.4482 24.0798C26.438 24.0798 26.4325 24.0834 26.4176 24.0944L26.3983 24.1035L26.391 24.1078L26.3812 24.1035C26.3677 24.0991 26.3543 24.0984 26.3426 24.0973C26.2589 24.0936 26.1052 24.3569 26.0717 24.4461C26.0947 24.4479 26.1154 24.4482 26.1358 24.4482C26.2585 24.4468 26.4689 24.2698 26.5549 24.1854ZM27.0806 24.3528C27.1068 24.3572 27.1381 24.3627 27.168 24.3689C27.2393 24.3332 27.247 24.2706 27.2444 24.2007L27.2433 24.1581C27.2521 24.1144 27.1887 24.0641 27.1407 24.0853C27.0635 24.1078 27.0121 24.1927 26.9892 24.2593L26.9703 24.3194L26.9593 24.3594C27.0074 24.3496 27.0278 24.3448 27.0806 24.3528ZM29.5978 26.8675C29.5891 26.9258 29.5516 26.9483 29.5141 26.9636C29.5592 26.9942 29.6051 27.0201 29.6378 27.0255C29.679 27.0292 29.6961 27.0219 29.7125 26.944C29.7139 26.9367 29.7147 26.9258 29.715 26.9141C29.7201 26.8675 29.7168 26.8194 29.7223 26.7758C29.7296 26.7259 29.7522 26.6775 29.8075 26.6425L29.7401 26.5606C29.6309 26.573 29.5971 26.5999 29.5887 26.6545C29.5851 26.6764 29.5851 26.7055 29.5923 26.7408L29.5949 26.7991C29.6007 26.818 29.604 26.8362 29.6007 26.8537L29.5985 26.8631V26.8682M29.2425 27.1282L29.2192 27.1537L29.1944 27.1937C29.1635 27.2505 29.1605 27.2866 29.1019 27.2982C29.1194 27.3266 29.1281 27.3284 29.1722 27.331H29.1857L29.2111 27.3284C29.3156 27.2833 29.438 27.2483 29.4289 27.1602C29.4289 27.1457 29.4259 27.1282 29.4187 27.1111C29.3859 27.0936 29.3597 27.0878 29.34 27.087C29.3025 27.0878 29.2741 27.0798 29.2425 27.1282ZM27.575 24.5604C27.6314 24.5221 27.6806 24.4865 27.6769 24.4111C27.6143 24.3274 27.5331 24.3317 27.4585 24.3882C27.393 24.4304 27.3438 24.4948 27.3081 24.568L27.4137 24.6237C27.4698 24.6033 27.5197 24.5917 27.575 24.5604ZM27.9245 24.8298C27.9354 24.9405 27.9682 25.0242 28.1065 25.0446C28.1404 24.9477 28.1262 24.9681 28.2212 24.931L28.2849 24.9237C28.3068 24.9186 28.3607 24.9019 28.3767 24.8899C28.4229 24.8545 28.447 24.7672 28.447 24.7129C28.2511 24.6306 28.0585 24.6645 27.9249 24.8294M28.0294 25.6078L28.0938 25.5568C28.1637 25.4829 28.3472 25.5408 28.3705 25.3439C28.2223 25.188 28.0101 25.3158 27.9689 25.4553C28.0585 25.5255 27.9798 25.5645 28.0294 25.6082M28.9374 27.3616C28.8165 27.2014 28.6352 27.3157 28.5718 27.4256C28.5784 27.5014 28.6017 27.5505 28.6938 27.5545C28.752 27.4722 28.8889 27.5309 28.9374 27.3616ZM28.5598 27.0142L28.5591 27.012C28.5591 27.0037 28.5511 26.9782 28.5416 26.9436C28.4812 26.8671 28.3643 26.9188 28.266 26.8835C28.2176 26.9145 27.9252 27.0608 27.9391 27.2629C27.942 27.2975 27.9129 27.2975 27.9354 27.3313L27.942 27.3437L27.9347 27.351C27.8765 27.4366 27.7829 27.4588 27.6944 27.4901H27.6871L27.6806 27.4864C27.6271 27.4609 27.5837 27.4493 27.5477 27.4493C27.453 27.45 27.3962 27.5276 27.3438 27.5993L27.3194 27.6364L27.2987 27.6707C27.2623 27.7092 27.2393 27.7289 27.2113 27.7289C27.1592 27.7253 27.1869 27.6852 27.1326 27.6466C27.1108 27.655 27.0307 27.6885 27.0351 27.7347C27.0351 27.7406 27.0351 27.7435 27.0343 27.742L27.0828 27.7711C27.0992 27.8083 27.1388 27.9131 27.2164 27.9102C27.2226 27.9113 27.232 27.9102 27.2484 27.9073C27.2746 27.916 27.2958 27.9175 27.314 27.9175C27.4286 27.9211 27.4385 27.7755 27.5153 27.6881L27.5226 27.6823L27.5299 27.6849H27.5761C27.8149 27.6827 27.8819 27.5258 28.1357 27.4784L28.1994 27.4209C28.1768 27.3444 28.1885 27.3102 28.1455 27.2625L28.1419 27.2552L28.143 27.248C28.1582 27.1544 28.2631 27.1515 28.3152 27.1271H28.317C28.3476 27.1162 28.3669 27.0943 28.3811 27.0768C28.3811 27.0379 28.4029 27.0113 28.4357 27.0113H28.451L28.4928 27.0102C28.5198 27.0113 28.5372 27.0139 28.5504 27.0139H28.5602M29.1999 23.1933C29.1999 23.1933 29.2013 23.1933 29.202 23.1918C29.2294 23.1616 29.2614 23.131 29.304 23.107L29.3113 23.1052C29.3295 23.1008 29.3466 23.0935 29.3695 23.087C29.5042 23.0506 29.5679 23.0207 29.6127 22.8794C29.5916 22.8441 29.5956 22.8441 29.5909 22.8467L29.5836 22.8474C29.5781 22.8474 29.5763 22.8445 29.5749 22.8463C29.5658 22.8449 29.553 22.8449 29.5392 22.8449C29.4045 22.925 29.2042 23.0385 29.1787 23.1776C29.1787 23.1827 29.1838 23.1838 29.1838 23.1842C29.1919 23.1893 29.1984 23.1951 29.1995 23.194M29.8483 23.9626V23.9618C29.892 23.8843 29.8909 23.8679 29.9065 23.7834L29.9043 23.7252C29.8752 23.7033 29.849 23.6931 29.8352 23.6931C29.8257 23.6931 29.8221 23.6946 29.8177 23.6997C29.7325 23.7849 29.6637 23.9061 29.6728 24.0587C29.6764 24.1533 29.675 24.1315 29.699 24.2043L29.7463 24.157C29.7536 24.0368 29.7955 24.066 29.8483 23.9626ZM28.8718 25.7028C28.8937 25.6748 28.8769 25.6555 28.925 25.6264C28.9687 25.6002 28.984 25.5699 29.0342 25.5543C29.0186 25.5408 29.0033 25.5288 28.9861 25.5164L28.9552 25.4873C28.9268 25.4691 28.9042 25.452 28.8722 25.452C28.7841 25.4738 28.7349 25.5233 28.6818 25.594C28.649 25.6322 28.6519 25.6399 28.6443 25.6551C28.6348 25.6704 28.6235 25.6806 28.5959 25.6941C28.6614 25.7458 28.7167 25.7815 28.7597 25.7804C28.7925 25.7804 28.8263 25.7636 28.8718 25.7028ZM28.4681 25.2281L28.5001 25.2718C28.5139 25.29 28.5274 25.3082 28.5438 25.3278C28.6148 25.3992 28.613 25.3555 28.704 25.3606C28.704 25.3606 28.6756 25.3024 28.712 25.2397C28.7419 25.1902 28.7593 25.1487 28.7932 25.1061L28.7677 25.0734C28.7109 24.9885 28.6647 24.9587 28.5784 24.9994C28.5354 25.085 28.4218 25.1014 28.4684 25.2277M27.8652 24.3973C27.8353 24.4431 27.8615 24.4763 27.9034 24.4945L27.9416 24.4777C28.0734 24.422 28.301 24.485 28.2911 24.2826C28.1226 24.1843 27.9365 24.2811 27.8652 24.3969M28.0701 23.8996C28.1371 23.8595 28.1914 23.8217 28.1885 23.7394C28.1156 23.652 28.0257 23.6556 27.9416 23.7154C27.8673 23.7616 27.8124 23.8319 27.7694 23.912L27.8888 23.9688C27.9529 23.9454 28.0079 23.9323 28.0709 23.8996M28.6403 24.2873C28.661 24.2276 28.6512 24.24 28.7131 24.2174L28.7524 24.2123C28.7659 24.2087 28.7997 24.2014 28.8088 24.1923C28.8394 24.1712 28.8544 24.1202 28.8547 24.0856C28.732 24.0365 28.6097 24.0579 28.526 24.1562C28.5318 24.2243 28.5518 24.2742 28.6403 24.2873ZM29.7685 24.7351C29.805 24.7078 29.8221 24.6416 29.8221 24.5997C29.6728 24.5371 29.5253 24.5633 29.423 24.6885C29.4303 24.7734 29.4558 24.8378 29.5614 24.8545C29.5876 24.7788 29.5759 24.7952 29.6495 24.7672L29.699 24.7599C29.7147 24.7562 29.7573 24.7453 29.7682 24.7344M28.7546 24.4519C28.7167 24.5174 28.6199 24.5331 28.6585 24.6303L28.6851 24.6656C28.696 24.6776 28.7069 24.6922 28.7233 24.7056C28.783 24.7628 28.783 24.7289 28.8598 24.7329C28.8598 24.7329 28.8358 24.6856 28.8664 24.6408C28.8929 24.599 28.9075 24.568 28.9366 24.5338L28.9155 24.5083C28.8671 24.4428 28.8281 24.4166 28.7542 24.4515M29.2326 25.0002L29.217 24.8749C29.2213 24.8072 29.1514 24.8087 29.1139 24.8229C29.1128 24.8775 29.103 24.8859 29.0422 24.8931L29.0094 24.9004C28.9974 24.9048 28.9854 24.9048 28.9712 24.9099C28.9392 24.9281 28.9264 24.9507 28.9203 24.9863C29.0091 25.0672 29.1387 25.0337 29.2326 25.0002ZM29.1434 25.4021L29.1747 25.3996C29.2126 25.3559 29.4551 25.4214 29.3895 25.2721C29.3255 25.1902 29.2221 25.2492 29.1292 25.2565C29.0917 25.2892 29.1016 25.3693 29.1434 25.4021ZM30.717 22.7127C30.6966 22.7436 30.6831 22.7709 30.6478 22.7753C30.4315 22.8991 30.342 22.9308 30.342 22.9308C30.3431 22.9461 30.311 23.0313 30.3063 23.0487L30.2378 23.1117C30.2204 23.1554 30.2098 23.1834 30.2116 23.2137C30.2123 23.2326 30.177 23.2122 30.1854 23.2381V23.2461C30.1803 23.3087 30.11 23.3182 30.0835 23.3444L30.0019 23.3928C29.948 23.4387 29.9062 23.4838 29.9062 23.4838L29.9579 23.5268C29.9579 23.5268 30.1705 23.4412 30.3281 23.3942C30.3827 23.3888 30.4046 23.3131 30.4727 23.2734L30.4789 23.2697H30.4861C30.5131 23.2825 30.5051 23.2916 30.5105 23.2978C30.5142 23.3061 30.5171 23.316 30.5207 23.3276L30.5331 23.3757L30.5367 23.384L30.5338 23.3891C30.5411 23.451 30.769 23.5348 30.8305 23.5413C30.8735 23.5501 30.9114 23.5522 30.9478 23.5522C31.1029 23.5501 31.2063 23.4722 31.2711 23.3192C31.2347 23.3083 31.2037 23.301 31.175 23.3029C31.144 23.3029 31.1131 23.3101 31.0778 23.3283C31.0322 23.3487 30.9995 23.3746 30.9489 23.3746C30.9197 23.376 30.8888 23.3658 30.8524 23.3447L30.8316 23.3345L30.8411 23.3138C30.9376 23.1223 30.9824 23.1172 31.1997 23.0615C31.3151 23.0487 31.3173 22.9559 31.3199 22.8547C31.2845 22.8419 31.2518 22.8365 31.2241 22.8365C31.0614 22.8358 30.9744 23.0101 30.8163 23.0997C30.8083 23.1041 30.8003 23.1055 30.7927 23.1055C30.7461 23.1019 30.6518 23.0793 30.6383 23.0054C30.6383 22.9974 30.6383 22.9901 30.6409 22.985C30.658 22.9341 30.7399 22.878 30.8204 22.8074C30.9034 22.7418 30.9798 22.6628 30.9762 22.6399C30.9762 22.6377 30.9769 22.6377 30.9762 22.6355C30.9762 22.6282 30.9689 22.6188 30.9532 22.6115C30.9387 22.6057 30.9227 22.602 30.9205 22.6006C30.9012 22.5984 30.8852 22.5962 30.8713 22.5962C30.8229 22.5962 30.7894 22.6268 30.7512 22.669L30.7148 22.7138L30.717 22.7127Z" fill="white"/>
</g>
<mask id="mask13_9303_7616" style="mask-type:luminance" maskUnits="userSpaceOnUse" x="6" y="6" width="36" height="36">
<path d="M6 6H41.9996V41.6126H6V6Z" fill="white"/>
</mask>
<g mask="url(#mask13_9303_7616)">
<path d="M29.5867 22.5656L29.5921 22.5612H29.6591C29.6671 22.5612 29.6591 22.5612 29.6762 22.5576C29.6995 22.5612 29.6653 22.606 29.7053 22.6326C29.7101 22.6369 29.7148 22.6391 29.7235 22.6369C29.7698 22.6417 29.8666 22.5434 29.9493 22.4819C29.9667 22.4698 29.9857 22.4622 30.0039 22.4622C30.0519 22.4622 30.0767 22.5001 30.0913 22.5095L30.1058 22.519L30.1 22.5365C30.0581 22.6675 30.0538 22.752 29.8961 22.8037L29.8426 22.8598C29.8419 22.8896 29.8335 22.9399 29.8062 22.9927C29.8062 22.9927 29.7534 23.0363 29.6671 23.131C29.5816 23.2209 29.496 23.3342 29.5033 23.3629L29.504 23.3691C29.504 23.3691 29.504 23.3698 29.5106 23.3698C29.5604 23.3727 29.6926 23.2926 29.8066 23.2278L29.8095 23.2242H29.8138C30.0585 23.1867 29.9984 22.9093 30.1393 22.7618L30.1524 22.7473L30.4029 22.5245C30.4065 22.5062 30.4149 22.4862 30.4298 22.4735C30.4688 22.44 30.5074 22.4181 30.5318 22.3617C30.5343 22.357 30.5354 22.3497 30.5343 22.3406C30.5336 22.2812 30.5409 22.1604 30.4735 22.0493L30.4688 22.0421L30.4714 22.033C30.4815 21.9976 30.515 21.9878 30.5456 21.9878L30.6195 21.9463C30.669 21.9434 30.6974 21.9245 30.7207 21.8862C30.7542 21.8444 30.7739 21.8374 30.7706 21.8061C30.7684 21.7588 30.7342 21.7188 30.609 21.7126H30.542C30.5332 21.7235 30.5187 21.7355 30.5056 21.7453C30.4837 21.7817 30.4575 21.8232 30.4109 21.8498L30.4065 21.8527H30.3993C30.3927 21.8527 30.3858 21.8513 30.3818 21.8527C30.3334 21.8527 30.349 21.9281 30.3294 21.9354C30.2777 21.97 30.2777 21.9543 30.2762 21.9874C30.2784 22.0421 30.2544 22.0759 30.25 22.0806L30.3046 22.2081C30.2948 22.235 30.2762 22.2747 30.2307 22.2863C30.199 22.2871 30.065 22.1833 30.0523 22.2274C29.9897 22.4211 29.7829 22.413 29.6132 22.4338C29.441 22.4629 29.3416 22.4582 29.3526 22.7385C29.3515 22.7403 29.3526 22.7403 29.3526 22.7403H29.3551C29.5062 22.7385 29.4905 22.6639 29.5881 22.5649M30.1419 27.0255C30.0909 26.9873 30.0108 27.0554 30.0108 27.0554C29.8608 27.1427 29.7072 27.0612 29.7385 27.3058C29.8834 27.3761 29.9482 27.2374 30.0589 27.1875L30.0927 27.2148C30.1375 27.2461 30.1714 27.2374 30.218 27.2203L30.2107 27.1445C30.2099 27.1445 30.1943 27.0608 30.1419 27.0255ZM29.5339 27.8137L29.4956 27.8159C29.5266 27.8902 29.5517 27.9215 29.6427 27.9259C29.7072 27.9342 29.7192 27.9284 29.757 27.9703L29.7796 27.9546C29.8422 27.9073 29.8532 27.8134 29.8481 27.7482C29.7075 27.6954 29.6526 27.809 29.5339 27.8144M25.3026 28.4119C25.3412 28.3402 25.3561 28.3282 25.4464 28.3646C25.5939 28.2852 25.5127 28.1989 25.5483 28.1079L25.4854 28.0799C25.382 28.3223 25.0485 28.1556 24.9021 28.4057C24.8573 28.5331 24.8832 28.7203 24.9473 28.828L25.0558 28.8608C25.1595 28.7297 25.0303 28.5768 25.1129 28.504C25.2301 28.5393 25.276 28.464 25.3022 28.4123M24.2621 28.4381L24.2322 28.4658C24.2104 28.4942 24.1849 28.5146 24.1558 28.5404C24.2104 28.5805 24.2457 28.5998 24.2967 28.5564C24.3196 28.5393 24.3458 28.5138 24.3804 28.5149C24.4361 28.4883 24.4816 28.488 24.4547 28.4057C24.3673 28.3464 24.3163 28.3817 24.2617 28.4385M25.6794 28.6041L25.7202 28.5983L25.7617 28.6129C25.8127 28.65 25.7959 28.6726 25.7872 28.6973L25.9121 28.6908C25.9612 28.6638 25.971 28.6252 25.9667 28.5805C25.9648 28.5612 25.963 28.5462 25.963 28.5324L25.9557 28.5033L25.9579 28.4789C25.9266 28.4705 25.8931 28.4592 25.8618 28.4461L25.7937 28.4221C25.7235 28.3977 25.678 28.3835 25.6019 28.3828L25.572 28.5502C25.5939 28.5939 25.6284 28.6085 25.6787 28.6049M25.4439 28.6755C25.248 28.7974 25.3084 28.946 25.2618 29.1306C25.3809 29.1917 25.4304 29.175 25.4504 29.0567L25.4584 28.9995C25.4621 28.9857 25.4701 28.9729 25.4755 28.9595C25.4959 28.9121 25.521 28.9056 25.5615 28.8921C25.5462 28.8073 25.5341 28.7232 25.4435 28.6751M34.4256 18.654C34.4328 18.6613 34.4365 18.6649 34.4438 18.6696C34.4561 18.6722 34.4561 18.6722 34.4609 18.6722C34.4609 18.6722 34.4634 18.6715 34.4652 18.6722H34.4733L34.474 18.6715H34.4791C34.5017 18.6642 34.4893 18.6642 34.4936 18.6605C34.4947 18.658 34.4947 18.6533 34.5009 18.6387C34.5017 18.6241 34.5038 18.6067 34.5071 18.5877C34.5118 18.5528 34.5854 18.4628 34.5854 18.4359C34.5854 18.4323 34.5905 18.4323 34.5796 18.4239C34.5748 18.4192 34.5366 18.3838 34.5271 18.3838C34.4944 18.3875 34.4398 18.402 34.4161 18.4192C34.387 18.4446 34.3855 18.5484 34.3844 18.5495V18.5531C34.3844 18.5531 34.3801 18.563 34.3771 18.5735V18.5761C34.3797 18.5957 34.4088 18.6227 34.4099 18.6289C34.4165 18.6383 34.4208 18.6503 34.4256 18.654ZM32.8899 18.0329C32.8571 18.0343 32.8404 18.0503 32.8164 18.0711C32.7887 18.0977 32.785 18.2076 32.7843 18.2094C32.7843 18.2094 32.7807 18.2218 32.7785 18.2335V18.2364C32.7803 18.2582 32.8105 18.2859 32.8113 18.2928C32.8164 18.3045 32.824 18.3139 32.8265 18.3183C32.8338 18.3267 32.8393 18.3329 32.8462 18.3376C32.8571 18.3401 32.8579 18.3401 32.8644 18.3401H32.8808C32.9045 18.3329 32.8928 18.33 32.8954 18.3292C32.8975 18.3245 32.8975 18.3183 32.9019 18.3045C32.9048 18.2892 32.9056 18.2702 32.9081 18.2488C32.9147 18.2124 32.9871 18.1151 32.9871 18.0875C32.9871 18.0846 32.9496 18.0838 32.9416 18.0729C32.938 18.0711 32.8972 18.0329 32.8899 18.0329ZM35.6776 18.8819C35.6849 18.9219 35.6831 19.0239 35.6896 19.0508C35.6918 19.0545 35.6896 19.0545 35.6984 19.0632C35.702 19.0679 35.7748 19.0974 35.781 19.0974C35.8021 19.0883 35.8094 19.0712 35.8203 19.0483C35.8338 19.014 35.8094 18.9037 35.8094 18.9037V18.9015C35.8094 18.9015 35.8094 18.8892 35.808 18.8761V18.8732C35.8018 18.8524 35.7373 18.828 35.7333 18.8222C35.7282 18.8131 35.7209 18.8011 35.7173 18.7982C35.71 18.792 35.7056 18.7883 35.6998 18.7858C35.6918 18.784 35.6907 18.784 35.6889 18.784C35.6867 18.7858 35.6867 18.7858 35.686 18.7858H35.6798L35.6762 18.788C35.6609 18.7982 35.6689 18.7963 35.6678 18.8007C35.6678 18.8054 35.6685 18.8116 35.6685 18.8269C35.6721 18.8422 35.6758 18.8615 35.6769 18.8815M34.103 18.307C34.1103 18.3179 34.1197 18.3289 34.1274 18.3361C34.1383 18.3434 34.143 18.3398 34.1474 18.3434H34.1733C34.1893 18.3372 34.186 18.3361 34.1893 18.334C34.1918 18.3278 34.1893 18.3285 34.1893 18.3278C34.1929 18.3179 34.19 18.2495 34.2017 18.1639C34.222 18.0452 34.2981 17.8752 34.2989 17.8239C34.2981 17.8203 34.2989 17.8173 34.2934 17.8101C34.2879 17.8035 34.277 17.798 34.2657 17.8002C34.2421 17.8002 34.2279 17.8101 34.21 17.8221C34.1929 17.8319 34.1765 17.8476 34.1591 17.8687C34.1354 17.8942 34.1103 17.9451 34.0899 17.9932C34.079 18.0172 34.0717 18.0369 34.0615 18.0543C34.0593 18.0631 34.0571 18.0689 34.0542 18.0733C34.0513 18.0755 34.0513 18.0769 34.0513 18.0798C34.0513 18.0798 34.0513 18.0813 34.0506 18.0813H34.0491C34.0491 18.0842 34.0473 18.1031 34.0418 18.1315C34.0411 18.1341 34.0411 18.1352 34.0411 18.137C34.0411 18.1734 34.0822 18.2364 34.0866 18.2528C34.0913 18.2746 34.1012 18.2965 34.1041 18.3074M33.353 18.3875C33.3603 18.3802 33.3894 18.3463 33.3901 18.3427C33.392 18.3376 33.3981 18.2764 33.404 18.2054C33.4076 18.1374 33.3858 17.9353 33.3858 17.9189C33.3858 17.9044 33.3719 17.8763 33.3483 17.8945C33.3235 17.9105 33.2827 17.9994 33.2791 18.0059C33.2773 18.0143 33.2689 18.0478 33.2653 18.0678C33.2616 18.0908 33.2492 18.1567 33.2471 18.177C33.2423 18.1942 33.2081 18.2888 33.179 18.3482C33.1509 18.4064 32.9948 18.5266 33.0115 18.5462C33.0268 18.5681 33.088 18.579 33.1233 18.5626C33.1604 18.5462 33.298 18.4446 33.3151 18.4304C33.3304 18.4159 33.3479 18.3977 33.353 18.3875ZM33.0763 17.5319C33.1007 17.5075 33.1222 17.4471 33.1393 17.4311C33.1444 17.4223 33.1539 17.3775 33.1575 17.3743C33.1593 17.3732 33.1611 17.3724 33.1611 17.3695C33.1691 17.3724 33.1782 17.3724 33.1903 17.3724H33.2066C33.2292 17.3695 33.2623 17.3404 33.2853 17.3338C33.3235 17.3215 33.3253 17.2858 33.3253 17.2592C33.3242 17.241 33.3253 17.1919 33.3264 17.1536C33.3264 17.1416 33.3064 17.1507 33.318 17.122C33.3501 17.0564 33.1943 17.1194 33.1943 17.1194C33.1742 17.1842 33.1571 17.2195 33.0683 17.3262C33.0221 17.3808 32.9463 17.4318 32.9147 17.4689C32.899 17.4893 32.8848 17.5053 32.8739 17.517C32.8651 17.5304 32.86 17.5352 32.8593 17.5497C32.8579 17.5545 32.8582 17.5614 32.8593 17.5679C32.86 17.5996 32.8666 17.6459 32.8713 17.6844C32.8757 17.711 32.887 17.7471 32.8983 17.7777C32.9019 17.7922 32.9066 17.8057 32.9106 17.8177C32.915 17.8232 32.9165 17.8286 32.919 17.8294C32.919 17.8323 32.9216 17.8352 32.9234 17.8366C32.9245 17.8385 32.9289 17.845 32.9445 17.8439C32.9467 17.8439 32.9492 17.8428 32.9518 17.8428L32.9583 17.8385C32.9729 17.8246 32.9729 17.8115 32.9729 17.7919V17.7835C32.9729 17.7828 32.9718 17.7824 32.9718 17.7813C32.9704 17.7547 32.9769 17.7354 32.9864 17.6662C32.9893 17.6397 33.0326 17.5803 33.0767 17.5323M33.5878 18.8174C33.5915 18.7956 33.6271 18.7384 33.6341 18.7312C33.6355 18.7217 33.6545 18.7286 33.6694 18.7428C33.6828 18.7581 33.7011 18.7512 33.7021 18.7261C33.7051 18.7035 33.7349 18.6096 33.7466 18.5797C33.7589 18.5484 33.8012 18.4541 33.7775 18.4108C33.7546 18.37 33.7375 18.2968 33.7396 18.2739C33.7426 18.2513 33.7695 18.1891 33.7695 18.1876C33.7702 18.1854 33.775 18.1818 33.7768 18.1803C33.7768 18.1803 33.8034 18.1585 33.8314 18.1312C33.8605 18.1075 33.8507 17.987 33.8416 17.9426C33.8318 17.8989 33.8525 17.7431 33.8587 17.7096C33.8652 17.6753 33.9242 17.5803 33.9155 17.5567C33.9082 17.5334 33.8773 17.5301 33.8416 17.5523C33.8063 17.5727 33.7003 17.6892 33.6901 17.7391C33.6803 17.7889 33.6428 17.8381 33.6501 17.8421C33.6548 17.8432 33.6748 17.9382 33.6803 17.9426C33.6876 17.948 33.6876 17.9582 33.6803 17.9644C33.6748 17.971 33.6468 17.9327 33.6177 17.9743C33.5907 18.0125 33.5682 18.1468 33.574 18.1789C33.5758 18.2109 33.6068 18.3318 33.614 18.3656C33.6228 18.3999 33.6686 18.5524 33.6566 18.5986C33.6428 18.6467 33.471 18.7177 33.4673 18.7206H33.4593C33.4571 18.7206 33.452 18.7177 33.4484 18.7177C33.4447 18.7177 33.4295 18.7206 33.4211 18.7224C33.4109 18.7283 33.3774 18.7752 33.3694 18.7952C33.3621 18.8156 33.3384 18.8779 33.333 18.9008C33.3246 18.9227 33.282 18.9955 33.2674 19.0137C33.2674 19.0137 33.1429 19.3971 33.2674 19.3173C33.3028 19.2933 33.385 19.1917 33.3887 19.1899C33.3898 19.1899 33.3923 19.1884 33.3949 19.1884H33.3985C33.3985 19.1884 33.4102 19.1848 33.4225 19.1819C33.4353 19.1782 33.4546 19.1265 33.4626 19.1043C33.4771 19.0825 33.5055 18.9951 33.5136 18.9645C33.5245 18.9383 33.5791 18.8407 33.5871 18.8171M34.1303 20.1612C34.1696 20.1423 34.1594 20.0957 34.1922 20.0484C34.2228 20.0011 34.379 20.0367 34.3797 20.0396C34.3804 20.0396 34.4332 19.9825 34.4561 19.9377C34.4834 19.8922 34.5406 19.7302 34.5752 19.6654C34.6116 19.5998 34.616 19.5591 34.608 19.5514C34.5898 19.5234 34.5595 19.5332 34.5475 19.5525C34.5348 19.5729 34.4594 19.7247 34.4354 19.7491C34.4165 19.7739 34.34 19.8547 34.3254 19.8685C34.308 19.8824 34.2989 19.8758 34.3025 19.8554C34.3032 19.8336 34.3207 19.7717 34.3396 19.7171C34.3626 19.6636 34.4401 19.5241 34.4652 19.4877C34.4871 19.4549 34.5024 19.329 34.4987 19.3039C34.4973 19.2776 34.4878 19.0672 34.49 19.0512C34.4944 19.033 34.49 18.9733 34.5046 18.966C34.5144 18.9605 34.5337 18.9325 34.5337 18.9325C34.5337 18.9325 34.5483 18.9198 34.5497 18.9198C34.5497 18.9198 34.5534 18.9187 34.5534 18.9161C34.5534 18.9161 34.5497 18.9099 34.5453 18.8979C34.5388 18.8899 34.5162 18.8706 34.498 18.8833C34.482 18.8961 34.4339 18.9791 34.4194 19.0144C34.407 19.0508 34.3739 19.1528 34.3629 19.1954C34.3509 19.2354 34.3167 19.3606 34.3083 19.392C34.3003 19.4255 34.269 19.4873 34.2661 19.4903C34.2661 19.4939 34.2639 19.4939 34.2625 19.4939C34.2581 19.4968 34.2341 19.523 34.2053 19.5492C34.1762 19.5802 34.095 19.6526 34.0669 19.6778C34.036 19.7062 33.925 19.7171 33.914 19.7171C33.9031 19.7171 33.8751 19.7116 33.8612 19.7076C33.8467 19.7058 33.8711 19.6435 33.9377 19.578C34.0229 19.4906 34.0542 19.3985 34.0542 19.3901C34.0506 19.3781 34.0542 19.3246 34.056 19.294C34.0597 19.2671 34.0983 19.1786 34.1034 19.164C34.1044 19.1451 34.1044 19.0985 34.1034 19.0825C34.1023 19.0665 34.083 19.0326 34.0808 19.0315C34.0808 19.0272 34.0771 19.0231 34.0786 19.017C34.0786 19.0162 34.0859 18.9944 34.0932 18.9685C34.1041 18.9449 34.1703 18.9019 34.1835 18.8823C34.1955 18.8586 34.1762 18.7792 34.1762 18.7767C34.1762 18.773 34.1707 18.7621 34.1689 18.7585C34.1674 18.7559 34.1674 18.7475 34.1689 18.7465C34.17 18.7428 34.1787 18.7071 34.1922 18.6656C34.2031 18.6278 34.2118 18.5225 34.2118 18.5178C34.2118 18.5134 34.1609 18.4923 34.1281 18.5448C34.1019 18.5968 34.0138 18.7475 34.0189 18.7516C34.0305 18.7537 34.0542 18.769 34.0619 18.7719C34.068 18.777 34.0619 18.796 34.0491 18.8138C34.0345 18.832 34.0105 18.8746 33.9909 18.9096C33.9727 18.9423 33.9599 19.0526 33.9599 19.0566V19.0832C33.9606 19.0931 33.9526 19.0989 33.9453 19.0989C33.937 19.0989 33.9453 19.1353 33.9126 19.1484C33.8791 19.1604 33.8933 19.2656 33.8816 19.3035C33.8714 19.345 33.8197 19.42 33.8197 19.4327C33.8197 19.4458 33.8234 19.4739 33.8248 19.4782C33.8263 19.4855 33.8237 19.4928 33.8194 19.4964L33.7011 19.6166C33.7011 19.6166 33.6038 19.7276 33.6355 19.7571C33.6646 19.7826 33.7884 19.7935 33.8066 19.7997C33.823 19.8059 33.76 19.858 33.6657 19.9151C33.5704 19.9734 33.5055 20.0389 33.5143 20.0407C33.5241 20.0426 33.578 20.0855 33.5998 20.0819C33.6217 20.0782 33.6974 20.0411 33.7134 20.0364C33.7291 20.0342 33.7797 19.9799 33.8066 19.9588C33.8358 19.9406 33.9413 19.8416 33.973 19.8117C34.0065 19.7801 34.115 19.7509 34.1186 19.7535C34.1259 19.7535 34.1478 19.7589 34.1594 19.7608C34.1696 19.7644 34.1747 19.7753 34.1696 19.7826C34.1642 19.7935 34.0822 19.9028 33.9839 20.0236C33.8867 20.1452 33.7822 20.3076 33.7822 20.3112C33.7822 20.3134 33.7444 20.3753 33.7506 20.3793C33.7742 20.4012 33.8015 20.3793 33.827 20.3779C33.8569 20.3757 33.9443 20.2818 33.9836 20.2861C34.0247 20.2861 34.0928 20.1824 34.1299 20.1616M35.8633 19.3235C35.856 19.2806 35.765 19.2937 35.7621 19.3162C35.7595 19.3257 35.7461 19.3781 35.7461 19.381C35.7431 19.3883 35.7479 19.4983 35.7461 19.5245C35.741 19.5565 35.749 19.6788 35.7388 19.7229C35.7297 19.7677 35.6798 19.9104 35.6703 19.9403C35.663 19.953 35.6594 19.9701 35.6325 19.973C35.6052 19.9701 35.6015 19.9519 35.5961 19.9366C35.5899 19.9082 35.5804 19.8565 35.5724 19.8187C35.5695 19.8015 35.5688 19.7677 35.5688 19.7313C35.5688 19.6752 35.5695 19.6064 35.576 19.5667C35.5833 19.5048 35.5906 19.3399 35.5906 19.3173V19.3137C35.5906 19.3002 35.5746 19.2292 35.5615 19.1899C35.5524 19.1615 35.4894 19.0319 35.4777 19.0202C35.4777 19.0202 35.4584 18.8593 35.4523 18.8444C35.4421 18.8316 35.3831 18.8131 35.3794 18.8553C35.3845 18.9136 35.394 19.0505 35.4013 19.0978C35.4093 19.1535 35.4333 19.3173 35.4359 19.3552C35.4402 19.3898 35.4431 19.4651 35.445 19.4779V19.4797H35.4435L35.4453 19.4819C35.4439 19.4903 35.4417 19.5074 35.4417 19.511C35.4417 19.5147 35.4402 19.5168 35.4402 19.5219H35.4384C35.4362 19.523 35.4362 19.5241 35.4362 19.527C35.4362 19.5336 35.434 19.5405 35.43 19.5489C35.4235 19.5671 35.4166 19.5918 35.41 19.6206C35.3944 19.6759 35.3299 19.7356 35.3117 19.7946C35.2782 19.8711 35.126 19.9537 35.0987 19.9665L35.0561 20.0149C35.0332 20.0112 35.0692 19.9512 35.0692 19.9464C35.0692 19.9406 35.0856 19.8955 35.0889 19.8875C35.0962 19.8791 35.0947 19.9166 35.1217 19.8001C35.145 19.6887 35.0732 19.613 35.0732 19.5398C35.0732 19.507 35.0725 19.483 35.0674 19.4728C35.0492 19.4218 35.0467 19.2252 35.0339 19.1797C35.0266 19.1484 35.0208 19.0723 35.0121 19.0657C35.0084 19.0596 35.0012 19.0566 34.999 19.0461L34.9917 19.0144L34.991 18.9729C34.991 18.9482 34.9921 18.9157 34.9957 18.8917C34.9968 18.8713 34.9968 18.8284 34.9968 18.7876C34.9968 18.7614 34.9968 18.7337 34.9961 18.7257C34.9961 18.7141 34.9822 18.6857 34.9768 18.6809C34.9706 18.6744 34.9688 18.6693 34.9673 18.6591C34.9673 18.6591 34.96 18.6059 34.9527 18.5462C34.9506 18.5269 34.9429 18.4971 34.9345 18.4705C34.9072 18.4475 34.8726 18.4705 34.8701 18.4861C34.8643 18.5499 34.7973 18.6813 34.7791 18.7319H34.7893C34.7976 18.7355 34.806 18.7392 34.8137 18.7392C34.8297 18.7428 34.8337 18.7559 34.8366 18.7617C34.8373 18.7701 34.8402 18.7774 34.8402 18.785C34.8402 18.796 34.8373 18.8018 34.8366 18.8134C34.833 18.8375 34.8268 18.8728 34.8231 18.8906V18.9198C34.8231 18.9525 34.8239 18.9962 34.8279 19.0232C34.8333 19.057 34.8686 19.1753 34.8708 19.1797L34.873 19.1906C34.8716 19.2052 34.8621 19.4127 34.8621 19.4964C34.8621 19.5354 34.8646 19.5736 34.8694 19.5962C34.8832 19.6727 34.8745 19.7899 34.8788 19.7979C34.8832 19.8041 34.8832 19.8103 34.8832 19.8161C34.8832 19.8179 34.8832 19.8241 34.8796 19.8285C34.8741 19.8339 34.8741 19.8339 34.873 19.8379C34.8716 19.8409 34.8672 19.8452 34.8632 19.8481L34.829 19.8867C34.8016 19.9159 34.8151 19.9606 34.7743 20.0058C34.7008 20.0822 34.5293 20.4063 34.5293 20.533C34.5293 20.5341 34.5086 20.6422 34.5086 20.6058C34.5144 20.6913 34.5632 20.7871 34.5632 20.8592C34.5632 20.8563 34.636 20.9247 34.6378 20.841C34.6378 20.7798 34.6269 20.7106 34.6604 20.6058C34.7288 20.4019 34.8486 20.1849 35.0776 20.1609C35.0904 20.1536 35.0922 20.1521 35.1046 20.1485H35.1111C35.1304 20.15 35.133 20.1631 35.133 20.1685C35.1366 20.1751 35.1366 20.1813 35.1366 20.1849C35.1366 20.2424 35.082 20.3924 35.0383 20.5708C35.0008 20.731 34.9753 20.8122 34.96 20.8781C34.9662 20.8737 34.9975 20.928 35.0008 20.9254C35.0991 20.9509 35.1173 20.8308 35.13 20.8169C35.13 20.8169 35.1326 20.8144 35.133 20.8122C35.1366 20.8064 35.1381 20.8002 35.1413 20.7904C35.1472 20.7765 35.1523 20.7518 35.1603 20.7248C35.173 20.6702 35.1865 20.5992 35.1905 20.529C35.1996 20.3822 35.2516 20.1117 35.2706 20.0506C35.2881 19.9941 35.3601 19.9413 35.4016 19.9115C35.4173 19.9035 35.4235 19.8984 35.4351 19.8955C35.4366 19.894 35.4424 19.8937 35.4461 19.8937C35.4679 19.8937 35.4825 19.9108 35.4825 19.9286V19.9333C35.4825 19.9526 35.5444 20.229 35.5844 20.545V20.5523C35.5844 20.5523 35.5597 20.75 35.5597 20.9739C35.5597 20.9979 35.5597 21.0205 35.5633 21.0449C35.5742 21.2487 35.5232 21.481 35.5917 21.4952C35.599 21.489 35.6252 21.5018 35.6266 21.4788C35.6485 21.4624 35.6995 21.3354 35.6958 21.2651V21.2487C35.6936 21.2393 35.6922 21.2313 35.6922 21.2232C35.6936 21.1417 35.7417 21.0383 35.7417 20.9975C35.7431 20.9404 35.7664 20.8737 35.7664 20.8526C35.7679 20.8271 35.7679 20.7987 35.7679 20.7813V20.7703C35.7679 20.758 35.8014 20.5592 35.7948 20.4926C35.7883 20.4259 35.7533 20.3236 35.753 20.2639H35.7224C35.7242 20.1966 35.753 20.1157 35.7603 20.0964V20.0921C35.7603 20.0702 35.8021 20.0003 35.8021 19.9697C35.8036 19.9304 35.852 19.7174 35.8691 19.5867C35.8837 19.4921 35.8564 19.4812 35.8607 19.444C35.8607 19.444 35.8873 19.3803 35.8862 19.3803L35.8651 19.3228L35.8633 19.3235ZM36.7691 20.0134C36.7727 20.0062 36.7473 19.8835 36.7629 19.8023C36.776 19.7214 36.7658 19.5263 36.74 19.4899C36.7127 19.4571 36.78 19.4229 36.7793 19.4193C36.772 19.4156 36.7695 19.4076 36.772 19.3992C36.7742 19.3941 36.7516 19.3177 36.7575 19.2765C36.76 19.2354 36.7549 19.2194 36.7538 19.2001C36.7516 19.183 36.7567 19.1819 36.7516 19.1571C36.7454 19.1295 36.7538 19.1244 36.7596 19.108C36.7713 19.0861 36.7742 19.0679 36.7764 19.0679C36.7808 19.0679 36.7924 19.041 36.8092 19.0133C36.8128 19.0046 36.7888 18.8513 36.7808 18.773C36.7746 18.6944 36.7291 18.6951 36.7291 18.6893C36.7291 18.6849 36.6854 18.698 36.6792 18.8546C36.6766 18.915 36.6628 18.9955 36.6628 18.9984C36.6628 19.0006 36.6602 19.0046 36.6592 19.0082C36.6555 19.01 36.6373 19.0144 36.6362 19.0384C36.63 19.0858 36.6362 19.1681 36.6373 19.1768C36.6399 19.2161 36.6399 19.2824 36.6373 19.2969C36.6362 19.3093 36.6329 19.2685 36.6329 19.2714C36.6315 19.2751 36.6271 19.2776 36.6257 19.2813C36.6231 19.2824 36.6177 19.3188 36.6075 19.365C36.5976 19.4102 36.5485 19.5791 36.531 19.629C36.5135 19.6792 36.531 19.8474 36.5638 20.0058C36.6013 20.1623 36.6038 20.2053 36.5747 20.2177C36.531 20.2395 36.4098 20.1165 36.389 20.0568C36.3697 20 36.2889 19.8725 36.274 19.8176C36.2576 19.7629 36.2448 19.7156 36.2448 19.7156L36.2427 19.7109C36.2427 19.7102 36.2405 19.692 36.2405 19.6843C36.2405 19.6756 36.2448 19.5962 36.2488 19.5594C36.2539 19.523 36.2754 19.3577 36.2845 19.3024C36.2911 19.2452 36.3049 19.1648 36.3089 19.1193C36.3115 19.0745 36.3053 18.9336 36.2933 18.9008C36.2849 18.8681 36.266 18.8706 36.2634 18.8753C36.1553 18.8706 36.195 19.0384 36.1859 19.0596C36.1706 19.0796 36.2223 19.1823 36.2132 19.195C36.2052 19.211 36.2041 19.2474 36.2012 19.2525C36.1982 19.2576 36.1968 19.2634 36.1968 19.2656C36.1968 19.2693 36.1946 19.2747 36.1924 19.2758C36.1902 19.2765 36.093 19.3486 36.0806 19.3894C36.0686 19.432 36.0504 19.5041 36.0504 19.5183C36.0504 19.5329 36.057 19.7058 36.065 19.7731C36.0737 19.8387 36.117 19.9821 36.1123 20.0178C36.1058 20.0535 36.093 20.1063 36.0883 20.135C36.0854 20.1379 36.0854 20.1423 36.0854 20.1423C36.0854 20.1423 36.0501 20.3185 36.0468 20.518C36.0461 20.6036 36.1258 20.6174 36.1393 20.7037C36.1647 20.8756 36.2376 21.1734 36.2638 21.2232C36.2922 21.2753 36.3038 21.307 36.3147 21.307C36.3249 21.3059 36.3541 21.3368 36.3675 21.3667C36.4047 21.4402 36.4229 21.4381 36.4575 21.4621C36.4884 21.4817 36.4884 21.4271 36.4884 21.4195C36.492 21.4122 36.3537 21.0092 36.3002 20.7059C36.2485 20.403 36.2758 20.2301 36.2758 20.218C36.2751 20.2078 36.2809 20.1744 36.2922 20.178C36.3038 20.1816 36.3999 20.2006 36.4203 20.2588C36.4367 20.3182 36.5113 20.589 36.5477 20.7321C36.5823 20.8752 36.5707 20.9458 36.5842 20.9578C36.5965 20.9709 36.689 21.054 36.7174 21.0707C36.7465 21.0853 36.7738 21.0998 36.7757 21.0998C36.7771 21.0998 36.7913 20.9932 36.7138 20.77C36.6326 20.5501 36.6166 20.3433 36.6337 20.3386C36.7028 20.3185 36.8943 20.4987 36.9967 20.7226C37.0975 20.9455 37.1375 21.0347 37.1532 21.0168C37.1933 20.9717 37.135 20.8697 37.1142 20.7419C37.0942 20.612 36.9526 20.3651 36.8696 20.2759C36.7851 20.1867 36.7724 20.0291 36.7706 20.0258C36.7684 20.0222 36.7684 20.0149 36.7706 20.0123M37.1015 19.7651C37.1015 19.7651 37.1306 19.7589 37.1263 19.7469C37.1092 19.6887 37.1645 19.7105 37.171 19.7105C37.1761 19.7105 37.1882 19.7156 37.1911 19.72C37.1925 19.7247 37.2977 19.8875 37.3709 19.9807C37.4303 20.0564 37.4547 20.0644 37.4641 20.0593C37.4736 20.0538 37.4037 19.9523 37.4132 19.8809C37.4252 19.8146 37.3644 19.7426 37.344 19.7342C37.324 19.7251 37.2202 19.6221 37.2071 19.5714C37.1936 19.5183 37.1332 19.2773 37.1059 19.2125C37.0767 19.1455 37.1168 19.1069 37.1117 19.1025C37.1059 19.0978 37.1044 19.0872 37.1106 19.0832C37.1161 19.0778 37.0997 19.0432 37.1033 19.0388C37.107 19.0344 37.1179 18.9416 37.1142 18.8943C37.1142 18.8469 37.0968 18.8335 37.0906 18.8397C37.0848 18.8506 37.001 19.0763 36.9613 19.171C36.9224 19.2656 36.9821 19.5751 37.0363 19.6574C37.0873 19.736 37.0993 19.7651 37.1015 19.7651ZM31.7147 27.6699C31.7547 27.671 31.7875 27.6637 31.8093 27.6397C31.821 27.5978 31.8319 27.5978 31.8301 27.5698C31.8279 27.5388 31.8166 27.5126 31.7798 27.4904C31.7543 27.5651 31.7077 27.6087 31.6488 27.6087C31.6003 27.6087 31.5468 27.5825 31.4886 27.5403C31.4718 27.5498 31.4547 27.5585 31.4332 27.5621C31.3801 27.5894 31.3397 27.6131 31.344 27.6677V27.6714L31.3451 27.6823L31.3393 27.6877C31.32 27.7089 31.3153 27.7271 31.3153 27.7424C31.3145 27.7908 31.3979 27.8505 31.4547 27.8734L31.4649 27.7729C31.4868 27.7161 31.5421 27.7019 31.5923 27.7019C31.6346 27.7009 31.6753 27.6728 31.7147 27.6692M31.6287 28.0333C31.6076 28.0817 31.6156 28.0795 31.6382 28.129L31.6615 28.1057C31.7198 28.054 31.8625 28.2004 31.8701 28.0267C31.8017 28.0027 31.7558 27.9626 31.6808 27.9867C31.6615 28.0136 31.6389 28.0023 31.6287 28.0333ZM31.1016 22.511C31.1318 22.4345 31.119 22.4476 31.2013 22.4185L31.2581 22.412C31.2752 22.4072 31.3222 22.3948 31.3357 22.385C31.3768 22.3559 31.3976 22.2867 31.3987 22.243C31.2275 22.1768 31.0637 22.2048 30.9443 22.3384C30.9538 22.4269 30.9814 22.495 31.1008 22.5113M33.5168 17.5578C33.5288 17.5487 33.5605 17.5213 33.566 17.5068C33.5878 17.4747 33.5769 17.4183 33.5623 17.3892C33.408 17.4147 33.2907 17.5013 33.2492 17.6368C33.2871 17.6925 33.3366 17.7241 33.4331 17.6877C33.4269 17.6237 33.424 17.6397 33.4761 17.5865L33.5168 17.5574V17.5578ZM31.6601 23.0181C31.5778 23.04 31.5326 23.0848 31.4842 23.1492C31.4529 23.1856 31.4558 23.1892 31.4471 23.2056C31.4398 23.2191 31.4296 23.2282 31.4052 23.2409C31.4649 23.2872 31.5144 23.321 31.5559 23.32C31.5858 23.32 31.6171 23.3025 31.6597 23.2471C31.6786 23.2235 31.6633 23.2056 31.7077 23.1772C31.7463 23.1525 31.7624 23.1277 31.8097 23.1106C31.7922 23.099 31.7806 23.0869 31.7635 23.0757L31.7343 23.0494C31.7081 23.0323 31.6877 23.0167 31.6593 23.0185M31.5101 24.1202C31.4802 24.1573 31.4828 24.1631 31.4744 24.1792C31.4671 24.1926 31.4554 24.201 31.4325 24.2134C31.4908 24.2596 31.5417 24.2971 31.5811 24.2935C31.6131 24.2935 31.6429 24.276 31.6844 24.2214C31.7056 24.1974 31.6899 24.1795 31.7347 24.1508C31.7758 24.1253 31.7904 24.0998 31.8366 24.0834C31.8213 24.0714 31.8064 24.0616 31.7904 24.0488L31.7627 24.0215C31.7351 24.0055 31.7154 23.9895 31.6863 23.9906C31.6062 24.0088 31.5607 24.0583 31.5101 24.1202ZM31.4161 22.7269L31.454 22.7393C31.47 22.7422 31.4853 22.7473 31.5028 22.7516C31.5818 22.7636 31.5763 22.7418 31.6666 22.7152C31.6666 22.7152 31.6313 22.6948 31.6608 22.6533C31.6844 22.6177 31.6972 22.594 31.7263 22.5616L31.6972 22.5528C31.6291 22.5303 31.5818 22.5303 31.5017 22.5802C31.4653 22.6348 31.3557 22.6806 31.4161 22.7269ZM30.4368 25.137C30.4357 25.1188 30.4331 25.097 30.4313 25.077C30.4306 25.0497 30.4306 25.0209 30.4375 24.9874L30.4397 24.9754L30.4517 24.9699C30.4615 24.9681 30.4735 24.959 30.4888 24.951L30.5311 24.9255C30.5529 24.9 30.5868 24.8855 30.6301 24.8855C30.7339 24.8469 30.8868 24.7799 30.8766 24.6954C30.8751 24.6736 30.8642 24.6455 30.8372 24.6091L30.8285 24.6004L30.8322 24.5902C30.8784 24.4071 31.0965 24.2662 31.2363 24.1559C31.2188 24.1209 31.2101 24.0896 31.2093 24.0587C31.2057 23.9913 31.2414 23.9392 31.2905 23.8777L31.3368 23.8493C31.3681 23.8093 31.3885 23.7699 31.3863 23.7292C31.3852 23.7095 31.3783 23.6877 31.3644 23.668C31.3364 23.6389 31.3087 23.6261 31.2942 23.6261C31.2781 23.6272 31.2661 23.6327 31.2512 23.6698L31.2366 23.6928C31.2243 23.7255 31.205 23.7121 31.1806 23.7172C31.1169 23.7699 31.0586 23.7911 31.0058 23.7911C30.8846 23.7885 30.7965 23.7044 30.7062 23.7095C30.6953 23.7121 30.68 23.7121 30.6669 23.7161L30.6559 23.7175L30.6468 23.7121C30.617 23.688 30.5973 23.6822 30.5864 23.6822C30.5536 23.6738 30.5362 23.7659 30.4699 23.8096C30.2398 23.9243 30.1193 24.3121 30.1284 24.4235C30.1284 24.4278 30.1299 24.4307 30.1306 24.4326C30.2034 24.4304 30.5274 24.1693 30.5292 24.1384C30.5329 24.1329 30.5329 24.1311 30.5329 24.1246C30.5365 24.1082 30.499 24.0954 30.4892 24.0503C30.4892 24.0248 30.511 24.0121 30.5329 24.0055L30.5784 23.9898C30.6257 23.9716 30.6672 23.9498 30.6858 23.9098L30.6931 23.8966L30.7131 23.8996C30.7954 23.9236 30.9497 24.0051 31.0164 24.0547L31.0338 24.0663L31.0255 24.0845C31.0065 24.1246 30.9756 24.1573 30.9337 24.1901C30.7925 24.2895 30.6243 24.3521 30.6345 24.4988C30.6363 24.5258 30.6432 24.5571 30.6578 24.5928L30.6614 24.6L30.6596 24.6084C30.6341 24.7235 30.5638 24.765 30.4775 24.765C30.447 24.765 30.4149 24.7613 30.3792 24.7588L30.2737 24.7417C30.2391 24.7373 30.2081 24.7344 30.1816 24.7358C30.0996 24.7373 30.0407 24.7584 29.9733 24.829C29.9999 24.8545 30.0141 24.88 30.0148 24.9077C30.0155 24.9237 30.0137 24.9383 30.0083 24.955L30.1888 24.8549L30.2008 24.8622C30.2744 24.9131 30.2864 24.975 30.2882 25.0333V25.0406C30.2882 25.0872 30.2875 25.1214 30.2882 25.1483C30.2904 25.1913 30.2977 25.2219 30.3305 25.2809C30.4382 25.2288 30.4382 25.1935 30.4371 25.1363M31.8406 25.6631C31.821 25.8761 31.6076 25.7967 31.5148 25.9282C31.4711 25.9813 31.4442 26.052 31.4471 26.1211C31.4471 26.1401 31.4514 26.1583 31.4554 26.1747L31.4664 26.1674C31.5556 26.1055 31.6207 26.0035 31.7128 25.9318L31.7165 25.9264H31.7201L31.75 25.9256H31.7558C31.7631 25.9256 31.7667 25.9256 31.7766 25.9231H31.7802C31.805 25.9231 31.7864 25.9741 31.7948 25.9893C31.8603 25.9675 31.9076 25.9209 31.9051 25.8546C31.9051 25.8503 31.9033 25.8437 31.9014 25.8393L31.9105 25.8266L31.9116 25.8182C31.959 25.7957 31.9925 25.7578 32.0238 25.7126L32.0503 25.6697C32.0849 25.6129 32.0496 25.6282 32.1013 25.6282C32.1213 25.6282 32.1392 25.5936 32.1647 25.5991C32.2025 25.5619 32.2429 25.5605 32.2357 25.5361C32.2357 25.5295 32.1581 25.5197 32.1494 25.5026C31.9429 25.5157 32.0158 25.571 31.841 25.6639M31.2122 26.199C31.1922 26.2001 31.1722 26.2027 31.1591 26.2063C31.0371 26.2799 30.9843 26.3338 30.8551 26.3352C30.8245 26.3352 30.7932 26.3345 30.7575 26.3305C30.5762 26.5016 30.5682 26.6236 30.5682 26.7528L30.7175 26.7776L30.7065 26.6916C30.6978 26.5387 30.917 26.4903 30.917 26.4903C31.1158 26.4077 31.2119 26.3964 31.3342 26.2464C31.3087 26.2173 31.2639 26.199 31.2122 26.199ZM31.7642 26.3035C31.6986 26.3024 31.7467 26.3571 31.6877 26.4033L31.6797 26.4106L31.6673 26.4091C31.6462 26.4048 31.6295 26.4404 31.6113 26.4404C31.486 26.4331 31.2443 26.6061 31.241 26.6126C31.1525 26.7452 31.1227 26.8588 30.9716 26.9731C31.0036 26.9967 31.0273 27.0095 31.0517 27.0109C31.075 27.012 31.1037 27.0029 31.1434 26.9709C31.1777 26.9403 31.2024 26.8944 31.2723 26.8908C31.3207 26.7033 31.4493 26.6461 31.6546 26.6032V26.601L31.7409 26.4452C31.9302 26.4 31.9207 26.4033 31.9968 26.2777C31.9582 26.2886 31.9269 26.2959 31.8738 26.3003L31.7638 26.3039L31.7642 26.3035ZM31.5989 27.1944C31.6062 27.1405 31.6309 27.0914 31.6681 27.0513C31.687 27.0321 31.7088 27.0131 31.7289 26.9996L31.7726 26.9658L31.7434 26.8682L31.7369 26.87C31.6284 26.8904 31.6 26.9429 31.5614 26.9967L31.5381 27.0382C31.4995 27.0892 31.4645 27.1238 31.407 27.154C31.3764 27.1733 31.3397 27.1788 31.3044 27.1759C31.2352 27.1802 31.1646 27.1584 31.1092 27.1478C31.0815 27.1668 31.0786 27.1842 31.0786 27.2115C31.0786 27.221 31.0808 27.2334 31.0841 27.2454L31.0914 27.3029C31.0925 27.3229 31.0925 27.3342 31.0903 27.351C31.103 27.3557 31.1121 27.3583 31.1187 27.3583C31.1307 27.3564 31.1405 27.3517 31.1544 27.3386L31.1824 27.3L31.1919 27.3015L31.221 27.3C31.2326 27.3015 31.245 27.3015 31.2552 27.3015C31.2858 27.3 31.3025 27.316 31.3127 27.3306C31.4172 27.3015 31.5486 27.2807 31.5982 27.1952M31.1795 25.7265C31.194 25.6584 31.2632 25.6209 31.3324 25.6191C31.3626 25.6191 31.3906 25.6278 31.4169 25.6409L31.4372 25.6191L31.4536 25.5062L31.4609 25.5015C31.5792 25.4039 31.58 25.4724 31.7329 25.4531C31.7249 25.429 31.7201 25.4043 31.7201 25.3788C31.7114 25.1443 31.8712 25.0803 31.8778 24.8582C31.8425 24.8239 31.8148 24.8036 31.7802 24.8036C31.7747 24.8072 31.7678 24.8072 31.7627 24.8072C31.7329 24.8713 31.6979 24.9346 31.7016 24.9991V25.01L31.7059 25.0267L31.6903 25.0322C31.498 25.1123 31.6513 25.1086 31.5483 25.2677L31.5395 25.2809L31.525 25.275C31.502 25.2685 31.4813 25.2677 31.4638 25.2677C31.3859 25.2677 31.3448 25.3198 31.3036 25.3733L31.2658 25.425C31.2061 25.4993 31.1037 25.5321 31.0965 25.5699C31.0735 25.7258 31.0065 25.717 30.8817 25.8357C30.8438 25.871 30.807 25.8849 30.7746 25.8852C30.7273 25.8852 30.6982 25.8597 30.6887 25.8488C30.6851 25.8437 30.6829 25.8379 30.6814 25.8299C30.6829 25.8044 30.6996 25.7906 30.7022 25.7873C30.7386 25.7341 30.7808 25.6751 30.7764 25.622C30.7764 25.61 30.7735 25.5936 30.7681 25.5805L30.7619 25.5677L30.7703 25.5583C30.8795 25.4356 30.9596 25.3034 31.0105 25.1527C31.0593 25.0508 31.1649 24.9754 31.2785 24.9656L31.2902 24.9641L31.2974 24.975C31.3127 24.9914 31.3317 24.9998 31.3484 25.0078L31.3775 25.0224C31.3965 25.0296 31.4074 25.0406 31.4165 25.0508C31.4544 25.0318 31.4587 25.0253 31.4587 24.9863V24.9536C31.4078 24.9113 31.3866 24.8625 31.3841 24.8141C31.3794 24.7085 31.4554 24.6077 31.4995 24.521C31.4449 24.4919 31.4078 24.4763 31.3823 24.4763C31.344 24.4763 31.3211 24.5054 31.3069 24.5964L31.2978 24.6729C31.2905 24.7282 31.2785 24.8148 31.205 24.8454L31.1991 24.8462H31.1955C31.1875 24.8454 31.1809 24.8447 31.1729 24.8447C30.9661 24.8418 30.9235 25.0799 30.7513 25.1826L30.7575 25.3264L30.7528 25.3318C30.7149 25.3817 30.6545 25.4108 30.6064 25.4476C30.5889 25.4571 30.5729 25.4756 30.5529 25.4964C30.5777 25.5233 30.5948 25.5517 30.5973 25.5852C30.5973 25.618 30.5842 25.6486 30.5558 25.6857C30.4866 25.7651 30.392 25.7847 30.3978 25.8532C30.3993 25.8583 30.4004 25.8641 30.4004 25.8721L30.4586 25.9096C30.5671 25.926 30.7011 26.0516 30.83 26.0625C30.9792 25.9773 31.1249 25.8892 31.1795 25.7258M37.1405 19.9865C37.1186 19.981 37.1539 20.1347 37.1332 20.1303C37.1834 20.225 37.2315 20.3422 37.376 20.3262C37.3553 20.2177 37.2431 20.1467 37.1831 20.0393L37.1405 19.9865ZM26.3216 28.8342L26.3555 28.8269C26.3992 28.8015 26.4338 28.7785 26.4272 28.7232C26.3529 28.6707 26.3085 28.6059 26.2343 28.5746C26.1884 28.5542 26.16 28.5626 26.1163 28.5819C26.1702 28.7093 26.1462 28.7632 26.0588 28.8644L26.0078 28.9227C25.9263 29.0093 25.9059 29.0596 25.9241 29.1819C26.1068 29.1211 26.1993 29.0559 26.3209 28.915C26.298 28.8761 26.2714 28.8531 26.3216 28.8342ZM26.8605 29.6985C26.8252 29.6978 26.7913 29.7196 26.7585 29.7422L26.7403 29.7506L26.7341 29.7571L26.7323 29.7644L26.7265 29.8118L26.7228 29.8325L26.7411 29.8318L26.744 29.8289C26.7738 29.8289 26.8193 29.8616 26.8663 29.8635H26.8692C26.9012 29.8635 26.9311 29.8427 26.9519 29.7943L26.9555 29.787L26.9519 29.7797C26.9264 29.7222 26.8936 29.6985 26.8597 29.6985M26.432 29.6159C26.3198 29.5897 26.2062 29.5868 26.0948 29.5831L26.1676 29.8318L26.282 29.8274C26.2838 29.7673 26.2747 29.7415 26.3562 29.7364C26.4436 29.7375 26.4898 29.7484 26.5528 29.6803L26.5084 29.6283L26.432 29.6159ZM25.7832 29.1641C25.6638 29.1797 25.6594 29.242 25.6678 29.345C25.6732 29.3825 25.6805 29.4204 25.6787 29.4568C25.6805 29.4954 25.6947 29.4946 25.6823 29.5212C25.6823 29.5212 25.6911 29.5613 25.7125 29.5769C25.7344 29.5959 25.8305 29.5198 25.8305 29.5198C25.8895 29.4615 25.8767 29.3905 25.8276 29.297L25.7832 29.1641ZM26.7269 29.0534C26.3912 28.9529 26.5157 29.3366 26.429 29.4331L26.4593 29.4641C26.5721 29.4131 26.6533 29.3228 26.6821 29.23C26.7902 29.1269 26.926 29.1601 27.0352 29.0133C26.9067 28.9005 26.8142 28.9442 26.7269 29.0534ZM37.55 13.5537C37.4161 13.6665 37.2486 13.8897 37.0658 13.9243C36.965 13.941 36.6872 13.9134 36.6679 13.8588C36.6515 13.8078 36.9905 13.5664 37.0655 13.5285C37.1492 13.483 37.222 13.4787 37.3349 13.439C37.3931 13.4164 37.5388 13.3316 37.5752 13.3356C37.6407 13.3454 37.6735 13.3866 37.6516 13.4641C37.64 13.5085 37.5985 13.5125 37.5497 13.554" fill="white"/>
</g>
</g>
<defs>
<clipPath id="clip0_9303_7616">
<rect width="36" height="35.6126" fill="white" transform="translate(6 6)"/>
</clipPath>
</defs>
</svg>
