<svg width="48" height="48" viewBox="0 0 48 48" fill="none" xmlns="http://www.w3.org/2000/svg">
<rect width="48" height="48" rx="12" fill="#EAECF0"/>
<path d="M24.441 38.5041C25.35 29.05 30.4407 23.5957 30.4407 18.1414C30.4407 14.1416 28.9862 10.869 24.441 5.77832C19.8958 10.869 18.4413 14.3234 18.4413 18.1414C18.2595 23.5957 23.3501 29.05 24.441 38.5041Z" fill="#EE2E24"/>
<path d="M14.4412 37.2318C12.0776 39.4135 7.35059 37.959 7.35059 32.8684C7.35059 29.9594 10.4414 27.4141 13.3503 27.4141C19.1682 27.4141 21.8954 33.5956 21.8954 36.5045C22.0772 38.6863 20.9863 42.3225 17.1683 42.3225C18.9864 41.4134 19.5318 39.4135 19.35 37.7772C19.1682 35.9591 18.0774 33.5956 15.532 33.5956C14.0775 33.5956 13.1685 34.5046 13.1685 35.4137C13.1685 36.5045 13.7139 37.2318 14.4412 37.2318Z" fill="#EE2E24"/>
<path d="M34.2603 37.2318C36.6238 39.4135 41.3509 37.959 41.3509 32.8684C41.3509 29.9594 38.2601 27.4141 35.3511 27.4141C29.5332 27.4141 26.8061 33.5956 26.8061 36.5045C26.6243 38.6863 27.7151 42.3225 31.5331 42.3225C29.715 41.4134 29.1696 39.4135 29.3514 37.7772C29.5332 35.9591 30.6241 33.5956 33.1694 33.5956C34.6239 33.5956 35.533 34.5046 35.533 35.4137C35.533 36.5045 35.1693 37.2318 34.2603 37.2318Z" fill="#EE2E24"/>
</svg>
