<svg width="14" height="22" viewBox="0 0 14 22" fill="none" xmlns="http://www.w3.org/2000/svg">
<path d="M8.49988 12.5704L5.49988 12.5704M8.49988 12.5704C8.93267 11.6064 9.26768 10.6014 9.49988 9.57044M8.49988 12.5704L10.9999 15.0704C10.9999 15.0704 12.2399 13.2804 11.9999 12.0704C11.7299 10.7204 9.49988 9.57044 9.49988 9.57044M5.49988 12.5704C5.07567 11.6141 4.74901 10.6174 4.52488 9.59544C4.17596 8.08134 4.22022 6.50315 4.65343 5.01098C5.08664 3.51881 5.8944 2.16229 6.99988 1.07044C8.35988 2.43044 10.3599 5.21044 9.49988 9.57044M5.49988 12.5704L2.99988 15.0704C2.99988 15.0704 1.75988 13.2804 1.99988 12.0704C2.26988 10.7204 4.49988 9.57044 4.49988 9.57044M5.49988 17.0704C5.37988 18.4504 6.99988 20.5704 6.99988 20.5704C6.99988 20.5704 8.61988 18.4504 8.49988 17.0704C8.43488 16.2954 7.78488 15.6554 6.99988 15.6604C6.62004 15.6693 6.25684 15.8181 5.98001 16.0783C5.70317 16.3386 5.53219 16.6919 5.49988 17.0704Z" stroke="#8280FF" stroke-width="2" stroke-linecap="round" stroke-linejoin="round"/>
</svg>
