<svg width="57" height="56" viewBox="0 0 57 56" fill="none" xmlns="http://www.w3.org/2000/svg">
<rect x="0.869995" width="56" height="56" rx="28" fill="#EAECF0"/>
<path d="M28.87 18.3175C32.0038 18.3175 32.3903 18.3175 33.6333 18.38C34.3822 18.392 35.1237 18.5293 35.8269 18.7863C36.3397 18.9775 36.8035 19.28 37.1849 19.6717C37.5777 20.0459 37.8781 20.5059 38.0624 21.0155C38.3253 21.7154 38.4632 22.4557 38.4698 23.203C38.5324 24.4427 38.5428 24.8177 38.5428 27.9636C38.5428 31.1095 38.5429 31.4741 38.4698 32.7137C38.4632 33.461 38.3253 34.2014 38.0624 34.9012C37.8781 35.4108 37.5777 35.8708 37.1849 36.245C36.8035 36.6368 36.3397 36.9392 35.8269 37.1305C35.1237 37.3875 34.3822 37.5248 33.6333 37.5367C32.3903 37.5367 32.0247 37.5992 28.87 37.5992C25.7154 37.5992 25.3498 37.5992 24.1067 37.5367C23.3577 37.526 22.616 37.3886 21.9131 37.1305C21.4003 36.9392 20.9365 36.6368 20.5551 36.245C20.1657 35.868 19.8659 35.4089 19.6776 34.9012C19.4147 34.2014 19.2769 33.461 19.2703 32.7137C19.2076 31.4741 19.1972 31.0991 19.1972 27.9636C19.1972 24.8281 19.1972 24.4427 19.2703 23.203C19.2769 22.4557 19.4147 21.7154 19.6776 21.0155C19.8659 20.5079 20.1657 20.0487 20.5551 19.6717C20.9365 19.28 21.4003 18.9775 21.9131 18.7863C22.616 18.5281 23.3577 18.3908 24.1067 18.38C25.3498 18.38 25.7154 18.3175 28.87 18.3175ZM28.87 16.2341C25.6632 16.2341 25.2662 16.2341 24.0022 16.3071C23.0241 16.3227 22.0559 16.5059 21.1401 16.8487C20.3532 17.148 19.6405 17.6136 19.0509 18.2134C18.4479 18.798 17.9839 19.5099 17.693 20.2967C17.3501 21.2107 17.163 22.1754 17.1393 23.151C17.0871 24.401 17.0766 24.8073 17.0766 28.0052C17.0766 31.2032 17.0766 31.5991 17.1393 32.8491C17.163 33.8247 17.3501 34.7894 17.693 35.7033C17.9839 36.4902 18.4479 37.2021 19.0509 37.7867C19.6405 38.3865 20.3532 38.852 21.1401 39.1513C22.0559 39.4942 23.0241 39.6774 24.0022 39.693C25.2662 39.7555 25.6632 39.7659 28.87 39.7659C32.0769 39.7659 32.4738 39.7659 33.7378 39.693C34.7159 39.6774 35.684 39.4942 36.5999 39.1513C37.3868 38.852 38.0995 38.3865 38.6891 37.7867C39.2921 37.2021 39.7561 36.4902 40.047 35.7033C40.3899 34.7894 40.577 33.8247 40.6007 32.8491C40.6007 31.5991 40.6634 31.1928 40.6634 28.0052C40.6634 24.8177 40.6634 24.401 40.6007 23.151C40.577 22.1754 40.3899 21.2107 40.047 20.2967C39.7561 19.5099 39.2921 18.798 38.6891 18.2134C38.0995 17.6136 37.3868 17.148 36.5999 16.8487C35.684 16.5059 34.7159 16.3227 33.7378 16.3071C32.4738 16.2446 32.0769 16.2341 28.87 16.2341Z" fill="#3684A4"/>
<path d="M28.8696 21.9202C27.6713 21.9202 26.4999 22.2745 25.5036 22.9384C24.5072 23.6023 23.7307 24.5459 23.2721 25.6499C22.8136 26.7539 22.6936 27.9687 22.9273 29.1407C23.1611 30.3127 23.7381 31.3892 24.5855 32.2342C25.4328 33.0791 26.5123 33.6546 27.6876 33.8877C28.8628 34.1208 30.081 34.0012 31.1881 33.5439C32.2951 33.0866 33.2414 32.3122 33.9071 31.3186C34.5728 30.3251 34.9281 29.1569 34.9281 27.962C34.9281 26.3596 34.2898 24.8228 33.1536 23.6898C32.0174 22.5567 30.4764 21.9202 28.8696 21.9202ZM28.8696 31.8787C28.0898 31.8808 27.327 31.6519 26.6778 31.2212C26.0285 30.7905 25.5221 30.1773 25.2228 29.4592C24.9234 28.7412 24.8446 27.9507 24.9962 27.188C25.1478 26.4252 25.5231 25.7245 26.0745 25.1746C26.6259 24.6248 27.3285 24.2505 28.0934 24.0993C28.8583 23.9481 29.651 24.0268 30.371 24.3253C31.091 24.6239 31.7059 25.1288 32.1378 25.7762C32.5698 26.4237 32.7992 27.1844 32.7972 27.962C32.7972 29.0008 32.3834 29.997 31.6468 30.7315C30.9102 31.4661 29.9112 31.8787 28.8696 31.8787Z" fill="#3684A4"/>
<path d="M36.5787 21.6809C36.5787 21.9615 36.4952 22.2358 36.3386 22.469C36.1821 22.7022 35.9596 22.8838 35.6994 22.9907C35.4392 23.0976 35.153 23.1251 34.8772 23.0696C34.6013 23.014 34.3481 22.8781 34.1499 22.6789C33.9516 22.4797 33.8172 22.2263 33.7635 21.9508C33.7099 21.6753 33.7396 21.3902 33.8487 21.1315C33.9578 20.8728 34.1415 20.6523 34.3765 20.4979C34.6115 20.3435 34.8872 20.2621 35.1686 20.2642C35.3547 20.2642 35.5389 20.3009 35.7106 20.3722C35.8824 20.4435 36.0383 20.5481 36.1694 20.6798C36.3005 20.8114 36.4042 20.9677 36.4744 21.1395C36.5447 21.3114 36.5801 21.4953 36.5787 21.6809Z" fill="#3684A4"/>
</svg>
