<svg width="48" height="48" viewBox="0 0 48 48" fill="none" xmlns="http://www.w3.org/2000/svg">
<rect width="48" height="48" rx="12" fill="#EAECF0"/>
<path d="M34.9454 9.91211H13.5027C11.5014 9.91211 9.91306 11.5005 9.91306 13.47V34.9127C9.91306 36.914 11.5014 38.5023 13.5027 38.5023H34.9454C36.9149 38.5023 38.5033 36.914 38.5033 34.9444V13.5018C38.5033 11.5005 36.9149 9.91211 34.9454 9.91211ZM28.0202 15.1537C28.0202 14.6136 28.4332 14.2006 28.9732 14.2006C29.5132 14.2006 29.9262 14.6136 29.9262 15.1537V27.8922C29.9262 28.4322 29.5132 28.8452 28.9732 28.8452C28.4332 28.8452 28.0202 28.4322 28.0202 27.8922V15.1537ZM23.2552 14.6771C23.2552 14.1371 23.6681 13.7241 24.2082 13.7241C24.7482 13.7241 25.1612 14.1371 25.1612 14.6771V28.4958C25.1612 29.0358 24.7482 29.4488 24.2082 29.4488C23.6681 29.4488 23.2552 29.0358 23.2552 28.4958V14.6771ZM18.4901 15.1537C18.4901 14.6136 18.9031 14.2006 19.4431 14.2006C19.9832 14.2006 20.3961 14.6136 20.3961 15.1537V27.8922C20.3961 28.4322 19.9832 28.8452 19.4431 28.8452C18.9031 28.8452 18.4901 28.4322 18.4901 27.8922V15.1537ZM13.7251 17.0597C13.7251 16.5196 14.1381 16.1067 14.6781 16.1067C15.2181 16.1067 15.6311 16.5196 15.6311 17.0597V25.6367C15.6311 26.1768 15.2181 26.5897 14.6781 26.5897C14.1381 26.5897 13.7251 26.1768 13.7251 25.6367V17.0597ZM34.3736 31.6089C34.2148 31.736 30.6886 34.6903 24.2082 34.6903C17.7277 34.6903 14.2016 31.736 14.0428 31.6089C13.6298 31.2595 13.598 30.6559 13.9475 30.2747C14.2969 29.8617 14.9005 29.83 15.2817 30.1794C15.3452 30.1794 18.4901 32.7843 24.2082 32.7843C29.9898 32.7843 33.1029 30.1794 33.1029 30.1476C33.5159 29.7982 34.1195 29.8617 34.4371 30.2429C34.8183 30.6559 34.7548 31.2595 34.3736 31.6089ZM34.6913 25.6367C34.6913 26.1768 34.2783 26.5897 33.7382 26.5897C33.1982 26.5897 32.7852 26.1768 32.7852 25.6367V17.0597C32.7852 16.5196 33.1982 16.1067 33.7382 16.1067C34.2783 16.1067 34.6913 16.5196 34.6913 17.0597V25.6367Z" fill="#1F8DED"/>
</svg>
