<svg width="48" height="48" viewBox="0 0 48 48" fill="none" xmlns="http://www.w3.org/2000/svg">
<rect width="48" height="48" rx="12" fill="#EAECF0"/>
<g clip-path="url(#clip0_3541_16071)">
<path d="M39.8081 23.4336C40.1057 23.4324 40.348 23.6726 40.3492 23.9702C40.3505 24.2678 40.1102 24.5101 39.8126 24.5113C39.515 24.5126 39.2727 24.2723 39.2715 23.9747C39.2709 23.8318 39.3271 23.6945 39.4277 23.593C39.5284 23.4916 39.6652 23.4342 39.8081 23.4336ZM39.8081 24.4321C39.9924 24.4376 40.1616 24.3309 40.236 24.1622C40.3104 23.9935 40.2751 23.7965 40.1467 23.6642C40.0183 23.5318 39.8226 23.4905 39.6517 23.5598C39.4808 23.629 39.3689 23.7949 39.3689 23.9793C39.3645 24.0997 39.4098 24.2166 39.4941 24.3026C39.5784 24.3887 39.6944 24.4363 39.8149 24.4344L39.8081 24.4321ZM39.6021 23.66H39.8443C39.9892 23.66 40.0707 23.7166 40.0707 23.8366C40.0753 23.8823 40.06 23.9278 40.0289 23.9615C39.9977 23.9953 39.9536 24.0141 39.9077 24.0132L40.0866 24.2917H39.9621L39.7832 24.0132H39.6972V24.294H39.5953L39.6021 23.66ZM39.7062 23.9317H39.8285C39.9055 23.9317 39.9575 23.9159 39.9575 23.8344C39.9575 23.7528 39.8919 23.7415 39.8262 23.7415H39.7039L39.7062 23.9317Z" fill="#0000C1"/>
<path d="M26.7169 18.1266C25.775 18.9326 25.3584 19.6277 24.6792 20.8232C24.9186 21.2172 25.0563 21.6646 25.0799 22.1251L25.4512 21.55C26.1305 20.5062 27.1244 19.193 28.5033 18.5681C28.5033 18.5681 28.5305 18.5884 28.5327 18.5862V18.6337C27.1946 19.5666 25.5509 22.8043 25.2316 23.3273C26.2233 22.9515 27.0429 22.116 27.541 22.7432L27.6543 22.562H28.141L27.3644 23.9409C27.3078 24.113 27.3758 24.3779 27.7267 23.9658L27.9169 23.7394C28.3878 23.1258 28.5282 22.8768 28.7818 22.7047C28.9244 22.5598 29.4203 22.4352 29.5177 22.7205L29.5765 22.8677C29.9003 22.7137 30.2082 22.4149 30.5592 22.6413C30.6678 22.7545 30.8173 22.8496 30.618 23.2617C30.4097 23.5877 30.4482 23.5401 30.2399 23.8798C30.0701 24.1424 30.1335 24.602 30.8693 23.7869C31.3222 23.1824 31.7614 22.3039 32.7214 22.5756C32.8686 22.6707 32.9275 22.7364 32.889 22.8813C32.831 22.9744 32.7146 23.0126 32.6127 22.9718C32.4792 22.913 32.538 22.6164 32.1916 22.8383C31.9205 23.1348 31.6995 23.4736 31.5373 23.8413C31.4626 24.0337 31.492 24.1945 31.6912 24.2601C31.9395 24.2545 32.1712 24.1341 32.3184 23.9341C32.9478 23.4337 33.4301 22.3628 34.3992 22.5756C34.8814 22.7318 34.5803 23.3069 35.1599 22.9651C35.6648 22.6866 35.855 22.4511 36.4958 22.5915C36.6298 22.6437 36.7192 22.7715 36.7222 22.9152C36.7107 22.9917 36.6529 23.0531 36.5773 23.0692C36.2965 23.1552 36.4867 22.6639 36.095 22.8428C35.8424 23.0557 35.6431 23.3247 35.5131 23.6284C35.2301 24.07 35.3592 24.5545 36.0746 24.0451C36.3138 23.8683 36.5305 23.663 36.7199 23.4337C38.1033 21.953 38.1848 21.0315 39.6792 19.6888C40.2452 19.0798 41.1146 19.0277 40.6052 19.7862C40.5158 19.8983 40.4206 20.0056 40.3199 20.1077C39.9555 20.4658 39.5423 20.7707 39.0927 21.0134C38.7124 21.5545 38.4814 22.0322 38.1146 22.6254L38.0014 22.8518C38.2295 22.7047 38.4723 22.5817 38.726 22.4851C39.4844 22.2994 39.4437 22.9198 39.3305 23.1032C38.9705 23.6307 38.3297 23.676 37.7863 23.7824C38.4384 24.2081 38.7509 24.713 39.292 25.5552C39.8235 25.6352 40.3415 25.7876 40.8316 26.0081C41.1152 26.1404 41.382 26.3061 41.6263 26.5017C42.6429 27.5296 41.4384 28.1613 40.1592 27.3009C39.5841 26.8639 39.4097 26.5877 38.8844 25.8269C36.661 25.569 34.4151 25.569 32.1916 25.8269L32.1531 25.7884C33.5456 25.4103 36.5184 25.202 38.615 25.4601C38.366 25.0413 37.8158 23.9545 37.4829 23.8617C37.3267 24.0881 37.1139 24.5047 37.1139 24.5047H36.4346C36.6316 24.122 36.9418 23.599 37.1026 23.2481C36.7941 23.6168 36.4463 23.9508 36.0656 24.2443C35.4407 24.6428 35.1441 24.5115 34.9335 24.3032C34.741 23.9884 34.9199 23.5651 35.0241 23.2141C34.8271 23.2481 34.8588 23.3658 34.6233 23.3115C34.4241 23.7326 34.3312 23.9771 34.0075 24.2398C33.4641 24.6541 33.0248 24.5318 32.8414 24.2556C32.7599 24.0451 32.7599 23.8118 32.8414 23.6013C32.409 24.0179 31.8882 24.7175 31.1909 24.4254C31.0341 24.3405 30.9374 24.1757 30.9395 23.9975C30.9487 23.9483 30.9616 23.8999 30.978 23.8526C30.4618 24.4594 29.9139 24.6722 29.6014 24.3507C29.375 24.0881 29.855 23.4564 29.9637 23.2458L30.0158 23.1552C30.2195 22.8496 29.8143 22.9288 29.7486 22.9854C29.4995 23.0715 29.2958 23.4269 29.0965 23.7756L28.7071 24.5047H28.0731C28.3426 24.0066 28.6188 23.5696 28.8746 23.0783C28.8882 23.0171 28.8973 22.8156 28.6686 22.9786C28.5735 23.1077 28.4422 23.2707 28.2158 23.5877C28.0324 23.8322 27.5229 24.6315 27.0361 24.5205C26.8097 24.4435 26.8097 24.3892 26.769 24.2647C26.7554 24.2262 26.7848 24.1515 26.769 24.1786C26.5561 24.3937 26.2604 24.506 25.9584 24.4866C25.7775 24.4689 25.628 24.3377 25.5871 24.1605C25.5616 23.8324 25.6656 23.5073 25.8769 23.2549L25.809 23.273C25.5893 23.3715 25.3622 23.4525 25.1297 23.5152C24.9305 23.8209 24.7652 24.1832 24.5705 24.5047H23.8414L24.2943 23.599C23.9815 23.5926 23.6733 23.5225 23.3886 23.393C23.0835 24.0033 22.5166 24.441 21.849 24.5817C21.2671 24.6903 20.6943 24.3983 20.2641 24.1492C19.5984 24.6768 18.3192 24.722 19.0777 23.6964C19.2112 23.4858 19.0527 23.7303 19.2339 23.4428C19.2867 23.3708 19.3344 23.2951 19.3765 23.2164C19.6324 22.8722 19.1501 22.6096 18.618 23.4926C18.3916 23.8662 18.292 23.993 17.9931 24.5024H17.4293C17.7124 24.0088 17.9954 23.5583 18.2716 23.0647C18.3667 22.9107 18.2897 22.6684 17.9795 23.0081L17.9275 23.0737C17.7463 23.3001 17.3524 23.8413 17.0965 24.1718C16.5939 24.7651 15.8897 24.4979 16.2407 23.8639C16.3924 23.5764 16.4014 23.5854 16.4671 23.4722C16.5327 23.359 16.5758 23.2707 16.5984 23.2186C16.9448 22.6775 16.2248 22.7658 15.6746 23.83L15.2829 24.4979H14.6943C14.6943 24.4979 15.4256 23.2458 15.7584 22.6322L15.6339 22.7183C15.4448 22.9234 15.1814 23.0441 14.9026 23.0534C14.8211 23.4801 14.6006 23.8679 14.2754 24.156C13.7524 24.6088 13.3516 24.4707 13.1977 24.3824C13.0635 24.2636 12.9868 24.0929 12.9871 23.9137C13.0052 23.479 13.2543 23.2005 13.5101 22.8541C13.3199 22.9107 13.0709 22.913 12.8422 22.999C12.566 23.5175 11.3909 26.2051 10.5554 27.4209C8.87539 29.7756 6.87161 30.1198 6.2535 29.5017C5.80067 28.9311 6.30784 27.7084 7.36067 26.3318C8.40444 25.0571 10.1184 23.8186 12.095 23.0601C12.8852 21.6459 13.8767 20.3539 15.0384 19.2247C14.4293 19.5326 13.2927 19.4986 12.8241 19.0866C12.9712 19.9922 12.2309 20.9454 11.4112 21.2375C12.172 20.6715 12.8377 19.8949 12.6429 18.9734C12.5275 18.8217 12.4505 18.842 12.3848 18.6405C12.3554 18.3824 12.5931 18.4141 12.6995 18.7243C12.926 19.0571 13.4218 19.2473 13.9946 19.2722C14.5927 19.2749 15.1722 19.0646 15.6293 18.679L15.6588 18.7447C14.4429 19.8768 13.2293 22.1635 12.9554 22.793C13.8135 22.5326 14.4995 22.3764 14.701 22.6435C14.8233 22.7341 14.8007 22.8066 14.9275 22.87C15.2037 22.9651 15.8037 22.3786 16.1727 21.8896C16.8384 21.0564 17.1395 19.9968 18.5048 19.2269C18.7312 19.116 19.0777 19.2451 18.8263 19.6639C18.5999 20.0466 17.8097 20.6986 17.3818 20.9862C17.0331 21.2126 16.689 22.0594 16.2497 22.7205C16.612 22.562 17.5607 22.2134 17.2256 23.0692C17.1025 23.3297 16.9634 23.5822 16.809 23.8254C16.6369 24.0269 16.7343 24.3235 17.0716 23.8866C17.1531 23.7915 17.4361 23.3952 17.5561 23.2458C17.9297 22.7817 18.1675 22.399 18.6656 22.5666C18.7946 22.639 18.8127 22.8247 18.806 22.9628C18.9797 22.8151 19.1742 22.6938 19.3833 22.6028C19.5487 22.5162 19.7432 22.5047 19.9177 22.5711C20.1758 22.7522 19.9629 23.1213 19.9177 23.2028L19.4444 23.959C19.3493 24.1696 19.4173 24.3417 19.7116 24.2534C19.8726 24.1999 20.0251 24.1237 20.1644 24.0269C20.0399 23.8888 19.9199 23.7711 20.0263 23.7303C20.058 23.7462 20.2935 23.9364 20.2935 23.9364C20.9541 23.4362 21.5537 22.8602 22.0799 22.2201C22.0026 22.0616 21.9535 21.8907 21.935 21.7152C21.8263 21.2194 22.0709 19.9968 23.3388 20.0013C23.3388 20.0013 23.5312 19.4149 23.538 19.3786C23.6263 19.0939 23.631 18.7898 23.5516 18.5024C23.5267 18.3801 23.5199 18.276 23.6173 18.242C23.8618 18.2624 23.7735 18.5613 23.8437 18.713C23.9139 18.8647 23.9569 19.0005 24.1177 19.0594C25.1795 19.5122 26.101 18.2194 26.7305 18.0654L26.7169 18.1266ZM18.2263 19.6911C17.9224 20.0173 17.6614 20.381 17.4497 20.7734C17.898 20.4814 18.2988 20.1225 18.6384 19.7092C18.8829 19.4488 18.6792 19.1884 18.2263 19.6911ZM40.166 19.5847C39.8206 19.9054 39.5286 20.2791 39.301 20.6918L39.7109 20.4088C39.916 20.259 40.1083 20.0924 40.286 19.9107C40.852 19.3175 40.4037 19.3288 40.166 19.5847ZM22.3743 20.5968C22.0619 21.0174 21.9883 21.5693 22.1795 22.0571C22.6355 21.5024 22.9945 20.8748 23.2414 20.2005C22.9067 20.1942 22.5875 20.341 22.3743 20.599V20.5968ZM23.4339 20.2232C23.1688 20.9307 22.7945 21.5923 22.3244 22.1839L22.2769 22.2609C22.4063 22.5061 22.5946 22.7154 22.8248 22.87C23.2618 22.1703 23.6286 21.3779 24.1833 20.5447C24.0429 20.3522 23.5878 20.2254 23.4339 20.2232ZM24.5909 21.0292L23.5403 23.1349L23.4837 23.239C23.7637 23.354 24.0603 23.4235 24.3622 23.4451C24.8741 22.7421 24.9618 21.8158 24.5909 21.0292ZM22.3448 22.7001L22.1343 22.4239C21.6436 23.0235 21.0817 23.561 20.461 24.0247C20.7733 24.195 21.1332 24.2571 21.4844 24.2013C22.0573 24.0858 22.4444 23.5107 22.7207 23.0511L22.3448 22.7001ZM26.7577 22.8994C26.5462 23.1398 26.3673 23.407 26.2256 23.6941C26.0648 23.9817 26.101 24.1696 26.2256 24.2284C26.3501 24.2873 26.452 24.2284 26.6784 24.002C26.8897 23.7295 27.0797 23.4411 27.2467 23.1394C27.5456 22.562 27.0022 22.5756 26.7577 22.8994ZM34.3199 23.0284C34.3992 22.5756 33.9848 22.6752 33.4663 23.4292C33.1018 23.9522 33.2399 24.8103 34.1048 23.8232C34.1887 23.7008 34.2644 23.573 34.3312 23.4405C34.5305 23.0579 34.3109 23.1688 34.3154 23.0783L34.3199 23.0284ZM38.3569 22.8383C38.0807 22.9832 37.9041 23.0828 37.5735 23.6624C38.0263 23.59 38.4067 23.4881 38.6467 23.1915C38.9388 22.7907 38.6037 22.7047 38.3546 22.8405L38.3569 22.8383ZM11.9614 23.2911C9.69727 24.2647 8.29576 25.5801 7.0052 27.3417C6.50256 28.1364 6.00218 29.076 6.49803 29.4632C7.22482 29.8707 8.57878 29.3341 10.2452 26.3726C10.8792 25.2405 11.5335 24.1334 11.9592 23.2911H11.9614ZM39.5569 25.9718C39.7295 26.2258 39.9308 26.4591 40.1569 26.6669C40.3109 26.7937 40.5893 27.0768 40.775 27.2035C41.8867 27.962 42.326 27.0337 41.2414 26.4654C40.7176 26.1923 40.1453 26.0246 39.5569 25.9718ZM23.7622 18.9983C23.713 19.3531 23.628 19.702 23.5086 20.0398C23.7897 20.0695 24.0559 20.1813 24.2739 20.3613C24.583 19.9271 24.9235 19.5162 25.2927 19.1318C25.0799 19.3175 24.1358 19.5417 23.7622 18.9983ZM14.5652 22.9809C14.6127 22.6368 14.255 22.6096 13.766 23.3749C13.2769 24.0745 13.5395 24.7062 14.2505 23.9205C14.3852 23.7478 14.5035 23.5629 14.6037 23.3681C14.7622 22.999 14.5697 23.1213 14.5743 23.0307L14.5652 22.9809ZM15.6112 18.7039C15.6452 18.67 15.6973 18.7175 15.6543 18.756C15.6316 18.7492 15.5999 18.7152 15.6112 18.7062V18.7039Z" fill="#0000C1"/>
</g>
<defs>
<clipPath id="clip0_3541_16071">
<rect width="36" height="11.7736" fill="white" transform="translate(6 18)"/>
</clipPath>
</defs>
</svg>
