<svg width="24" height="24" viewBox="0 0 24 24" fill="none" xmlns="http://www.w3.org/2000/svg">
<path d="M18.4 1.84C16.52 0.68 14.36 0 12 0V1.84H18.4Z" fill="#ED4C5C"/>
<path d="M12 3.68064H20.64C19.96 3.00064 19.2 2.36064 18.4 1.84064H12V3.68064Z" fill="white"/>
<path d="M12 5.52127H22.12C21.68 4.84127 21.2 4.24127 20.68 3.68127H12V5.52127Z" fill="#ED4C5C"/>
<path d="M12 7.35874H23.08C22.8 6.71874 22.48 6.07874 22.12 5.51874H12V7.35874Z" fill="white"/>
<path d="M12 9.19938H23.68C23.52 8.55938 23.32 7.95938 23.08 7.35938H12V9.19938Z" fill="#ED4C5C"/>
<path d="M12 11.0806H23.96C23.92 10.4406 23.8 9.8406 23.68 9.2406H12V11.0806Z" fill="white"/>
<path d="M23.96 11.0812H12V12.0012H0C0 12.3212 -3.8743e-08 12.6012 0.04 12.9212H23.96C24 12.6012 24 12.3212 24 12.0012C24 11.6812 24 11.3612 23.96 11.0812Z" fill="#ED4C5C"/>
<path d="M0.319856 14.7588H23.6799C23.8399 14.1588 23.9199 13.5588 23.9599 12.9188H0.039856C0.079856 13.5188 0.159856 14.1588 0.319856 14.7588Z" fill="white"/>
<path d="M0.920313 16.5994H23.0803C23.3203 15.9994 23.5203 15.3994 23.6803 14.7594H0.320312C0.480313 15.3994 0.680313 15.9994 0.920313 16.5994Z" fill="#ED4C5C"/>
<path d="M1.88029 18.44H22.1203C22.4803 17.84 22.8003 17.24 23.0803 16.6H0.920288C1.20029 17.24 1.52029 17.84 1.88029 18.44Z" fill="white"/>
<path d="M3.3197 20.2806H20.6797C21.1997 19.7206 21.7197 19.0806 22.1197 18.4406H1.8797C2.2797 19.1206 2.7997 19.7206 3.3197 20.2806Z" fill="#ED4C5C"/>
<path d="M5.56031 22.1213H18.4403C19.2803 21.6012 20.0003 20.9613 20.6803 20.2812H3.32031C4.00031 21.0013 4.76031 21.6012 5.56031 22.1213Z" fill="white"/>
<path d="M12.0002 23.9987C14.3602 23.9987 16.5602 23.3187 18.4402 22.1187H5.56018C7.44018 23.3187 9.64018 23.9987 12.0002 23.9987Z" fill="#ED4C5C"/>
<path d="M5.6 1.84C4.76 2.36 4 3 3.32 3.68C2.76 4.24 2.28 4.88 1.88 5.52C1.52 6.12 1.16 6.72 0.92 7.36C0.68 7.96 0.48 8.56 0.32 9.2C0.16 9.8 0.08 10.4 0.04 11.04C-3.8743e-08 11.36 0 11.68 0 12H12V0C9.64 0 7.48 0.68 5.6 1.84Z" fill="#428BC1"/>
<path d="M9.20018 0.400024L9.40018 1.00002H10.0002L9.52018 1.40002L9.68018 2.00002L9.20018 1.64002L8.72018 2.00002L8.88018 1.40002L8.40018 1.00002H9.00018L9.20018 0.400024ZM10.8002 2.80002L11.0002 3.40002H11.6002L11.1202 3.80002L11.2802 4.40002L10.8002 4.04002L10.3202 4.40002L10.4802 3.80002L10.0002 3.40002H10.6002L10.8002 2.80002ZM7.60018 2.80002L7.80018 3.40002H8.40018L7.92018 3.80002L8.08018 4.40002L7.60018 4.04002L7.12018 4.40002L7.28018 3.80002L6.80018 3.40002H7.40018L7.60018 2.80002ZM9.20018 5.20002L9.40018 5.80002H10.0002L9.52018 6.20003L9.68018 6.80002L9.20018 6.44003L8.72018 6.80002L8.88018 6.20003L8.40018 5.80002H9.00018L9.20018 5.20002ZM6.00018 5.20002L6.20018 5.80002H6.80018L6.32018 6.20003L6.48018 6.80002L6.00018 6.44003L5.52018 6.80002L5.68018 6.20003L5.20018 5.80002H5.80018L6.00018 5.20002ZM2.80018 5.20002L3.00018 5.80002H3.60018L3.12018 6.20003L3.28018 6.80002L2.80018 6.44003L2.32018 6.80002L2.48018 6.20003L2.00018 5.80002H2.60018L2.80018 5.20002ZM10.8002 7.60003L11.0002 8.20003H11.6002L11.1202 8.60003L11.2802 9.20003L10.8002 8.84002L10.3202 9.20003L10.4802 8.60003L10.0002 8.20003H10.6002L10.8002 7.60003ZM7.60018 7.60003L7.80018 8.20003H8.40018L7.92018 8.60003L8.08018 9.20003L7.60018 8.84002L7.12018 9.20003L7.28018 8.60003L6.80018 8.20003H7.40018L7.60018 7.60003ZM4.40018 7.60003L4.60018 8.20003H5.20018L4.72018 8.60003L4.88018 9.20003L4.40018 8.84002L3.92018 9.20003L4.08018 8.60003L3.60018 8.20003H4.20018L4.40018 7.60003ZM9.20018 10L9.40018 10.6H10.0002L9.52018 11L9.68018 11.6L9.20018 11.24L8.72018 11.6L8.88018 11L8.40018 10.6H9.00018L9.20018 10ZM6.00018 10L6.20018 10.6H6.80018L6.32018 11L6.48018 11.6L6.00018 11.24L5.52018 11.6L5.68018 11L5.20018 10.6H5.80018L6.00018 10ZM2.80018 10L3.00018 10.6H3.60018L3.12018 11L3.28018 11.6L2.80018 11.24L2.32018 11.6L2.48018 11L2.00018 10.6H2.60018L2.80018 10ZM3.92018 4.40002L4.40018 4.04002L4.88018 4.40002L4.68018 3.80002L5.16018 3.40002H4.56018L4.40018 2.80002L4.20018 3.40002H3.64018L4.12018 3.76002L3.92018 4.40002ZM0.720181 9.20003L1.20018 8.84002L1.68018 9.20003L1.48018 8.60003L1.96018 8.20003H1.40018L1.20018 7.60003L1.00018 8.20003H0.600181C0.600181 8.24003 0.560181 8.28003 0.560181 8.32002L0.880181 8.56003L0.720181 9.20003Z" fill="white"/>
</svg>
