<svg width="56" height="56" viewBox="0 0 56 56" fill="none" xmlns="http://www.w3.org/2000/svg">
<rect width="56" height="56" rx="28" fill="#EBF3F6"/>
<path d="M28 14.666V15.9993M16 27.9993H14.6667M19.3333 19.3327L18.5332 18.5326M36.6667 19.3327L37.467 18.5326M41.3333 27.9993H40M25.3333 29.9993H30.6667M28 29.9993V36.666M32.6667 34.498C34.6854 33.0457 36 30.6761 36 27.9993C36 23.5811 32.4183 19.9993 28 19.9993C23.5817 19.9993 20 23.5811 20 27.9993C20 30.6761 21.3146 33.0457 23.3333 34.498V37.066C23.3333 38.5595 23.3333 39.3062 23.624 39.8767C23.8796 40.3784 24.2876 40.7864 24.7893 41.042C25.3598 41.3327 26.1065 41.3327 27.6 41.3327H28.4C29.8935 41.3327 30.6402 41.3327 31.2106 41.042C31.7124 40.7864 32.1203 40.3784 32.376 39.8767C32.6667 39.3062 32.6667 38.5595 32.6667 37.066V34.498Z" stroke="#3684A4" stroke-width="2" stroke-linecap="round" stroke-linejoin="round"/>
</svg>
