<svg width="57" height="56" viewBox="0 0 57 56" fill="none" xmlns="http://www.w3.org/2000/svg">
<rect x="0.970001" width="56" height="56" rx="28" fill="#EAECF0"/>
<path d="M23.0256 24.4119H18.5757V38.756H23.0256V24.4119Z" fill="#3684A4"/>
<path d="M20.791 22.5359C21.3166 22.54 21.8317 22.3883 22.2707 22.1001C22.7098 21.8119 23.0531 21.4001 23.2571 20.917C23.4611 20.4339 23.5167 19.9013 23.4167 19.3867C23.3167 18.872 23.0656 18.3986 22.6954 18.0265C22.3252 17.6544 21.8525 17.4003 21.3373 17.2965C20.822 17.1927 20.2875 17.2439 19.8014 17.4435C19.3154 17.6432 18.8998 17.9823 18.6073 18.4178C18.3148 18.8534 18.1586 19.3658 18.1586 19.8899C18.1572 20.236 18.2243 20.579 18.3558 20.8993C18.4874 21.2196 18.6809 21.5109 18.9253 21.7566C19.1697 22.0023 19.4603 22.1975 19.7804 22.3313C20.1005 22.465 20.4439 22.5345 20.791 22.5359Z" fill="#3684A4"/>
<path d="M30.1605 31.2358C30.1605 29.215 31.0902 28.017 32.866 28.017C34.6418 28.017 35.2999 29.1733 35.2999 31.2358V38.7464H39.7812V29.6837C39.7812 25.8399 37.598 23.9856 34.5583 23.9856C33.6924 23.973 32.8381 24.1841 32.0784 24.5985C31.3187 25.0129 30.6795 25.6164 30.2232 26.3503V24.4232H25.8882V38.7464H30.1605V31.2358Z" fill="#3684A4"/>
</svg>
