<svg width="20" height="20" viewBox="0 0 20 20" fill="none" xmlns="http://www.w3.org/2000/svg">
<path d="M0.5 4C0.5 2.067 2.067 0.5 4 0.5H16C17.933 0.5 19.5 2.067 19.5 4V16C19.5 17.933 17.933 19.5 16 19.5H4C2.067 19.5 0.5 17.933 0.5 16V4Z" fill="white"/>
<path d="M0.5 4C0.5 2.067 2.067 0.5 4 0.5H16C17.933 0.5 19.5 2.067 19.5 4V16C19.5 17.933 17.933 19.5 16 19.5H4C2.067 19.5 0.5 17.933 0.5 16V4Z" stroke="#EAECF0"/>
<path fill-rule="evenodd" clip-rule="evenodd" d="M10.1052 14.0243C9.40867 14.856 8.50519 15.3581 7.51794 15.3581C5.31507 15.3581 3.5293 12.8583 3.5293 9.77474C3.5293 6.69115 5.31507 4.19141 7.51794 4.19141C8.50519 4.19141 9.40867 4.69349 10.1052 5.52519C10.8017 4.69349 11.7051 4.19141 12.6924 4.19141C14.8953 4.19141 16.681 6.69115 16.681 9.77474C16.681 12.8583 14.8953 15.3581 12.6924 15.3581C11.7051 15.3581 10.8017 14.856 10.1052 14.0243Z" fill="#ED0006"/>
<path fill-rule="evenodd" clip-rule="evenodd" d="M10.105 14.0243C10.9626 13.0002 11.5064 11.4764 11.5064 9.77474C11.5064 8.07311 10.9626 6.54927 10.105 5.52519C10.8015 4.69349 11.705 4.19141 12.6922 4.19141C14.8951 4.19141 16.6808 6.69115 16.6808 9.77474C16.6808 12.8583 14.8951 15.3581 12.6922 15.3581C11.705 15.3581 10.8015 14.856 10.105 14.0243Z" fill="#F9A000"/>
<path fill-rule="evenodd" clip-rule="evenodd" d="M10.105 14.0225C10.9626 12.9984 11.5064 11.4746 11.5064 9.77297C11.5064 8.07135 10.9626 6.54752 10.105 5.52344C9.24741 6.54752 8.70361 8.07135 8.70361 9.77297C8.70361 11.4746 9.24742 12.9984 10.105 14.0225Z" fill="#FF5E00"/>
</svg>
