<svg width="48" height="48" viewBox="0 0 48 48" fill="none" xmlns="http://www.w3.org/2000/svg">
<rect width="48" height="48" rx="12" fill="#EAECF0"/>
<g clip-path="url(#clip0_7988_55389)">
<rect width="32" height="32" transform="translate(8 8)" fill="#EAECF0"/>
<path d="M24 8C15.1916 8 8.02413 15.1379 8 23.9397V24.0121C8 32.838 15.1916 40 24 40C32.8326 40 40 32.8139 40 24.0121C40 15.162 32.8326 8 24 8ZM19.994 9.51922C21.2006 9.18161 22.4796 8.9887 23.8069 8.96458C23.8793 8.96458 23.9276 8.96458 24 8.96458C24.0724 8.96458 24.1448 8.96458 24.1931 8.96458C26.2443 9.03693 28.006 10.3391 28.7541 12.1236C28.9231 12.5094 29.0196 12.8952 29.092 13.3293C29.1403 13.5705 29.1403 13.8357 29.1403 14.101C29.1403 15.2585 28.7541 16.3195 28.1267 17.1876C27.451 16.7777 26.7029 16.4642 25.9306 16.2713C26.5339 15.7408 26.8959 14.9691 26.8959 14.101C26.8959 13.474 26.7029 12.8952 26.3409 12.413C25.81 11.6895 24.9653 11.2072 24 11.2072C22.3107 11.2072 20.7179 11.5207 19.2459 12.1236C18.8356 12.2924 18.4495 12.4853 18.0633 12.6782C15.7949 13.8839 13.9125 15.7408 12.7059 18.0317C11.451 18.321 10.3409 18.9962 9.52036 19.9367C10.9442 14.8968 14.9261 10.9179 19.994 9.51922ZM30.1056 13.884C31.7466 14.8726 33.1222 16.2472 34.1116 17.887C34.0392 17.887 33.9668 17.887 33.8944 17.887C32.543 17.887 31.2881 18.321 30.2745 19.0927C29.8884 18.5863 29.4299 18.1281 28.9231 17.7423C29.6712 16.7295 30.1297 15.4755 30.1297 14.1251C30.1056 14.0286 30.1056 13.9563 30.1056 13.884ZM35.5837 21.6488C35.1011 21.3112 34.5219 21.0942 33.8944 21.0942C33.0256 21.0942 32.2534 21.4559 31.7225 22.0588C31.264 22.5652 30.9985 23.2404 30.9985 23.9879C30.9985 25.2419 30.6606 26.4235 30.0814 27.4363C29.9125 27.7257 29.7436 27.991 29.5264 28.2562C29.1644 28.7385 28.73 29.1485 28.2715 29.5102C27.6923 28.9314 26.9925 28.4732 26.1961 28.1839C27.0407 27.7498 27.7406 27.0505 28.175 26.2065C28.537 25.5554 28.73 24.7837 28.73 23.9879C28.73 22.6616 29.2368 21.4559 30.0573 20.5396C30.2745 20.2984 30.5158 20.0814 30.7813 19.8644C31.6501 19.2133 32.7119 18.8515 33.8703 18.8515C34.1357 18.8515 34.4012 18.8757 34.6425 18.8998C35.0769 19.7679 35.3906 20.6842 35.5837 21.6488ZM35.825 23.8915C35.825 23.9156 35.825 23.9638 35.825 23.9879C35.825 24.0121 35.825 24.0603 35.825 24.0844C35.7768 25.0972 34.9321 25.9171 33.8944 25.9171C32.8326 25.9171 31.9638 25.049 31.9638 23.9879C31.9638 22.9269 32.8326 22.0588 33.8944 22.0588C34.9321 22.0588 35.7768 22.8787 35.825 23.8915ZM28.9231 30.2577C29.4299 29.8719 29.8884 29.4137 30.2745 28.9073C31.2881 29.6549 32.543 30.0889 33.8944 30.0889C33.9668 30.0889 34.0392 30.0889 34.1116 30.0889C33.1222 31.7287 31.7466 33.1032 30.1056 34.0919C30.1056 34.0196 30.1056 33.9473 30.1056 33.8749C30.1056 32.5245 29.6712 31.2705 28.9231 30.2577ZM25.9306 31.7287C25.4238 31.2705 24.7481 31.0053 24.0241 31.0053C22.7692 31.0053 21.5867 30.6677 20.5732 30.0889C20.2836 29.9201 20.0181 29.7513 19.7526 29.5343C19.27 29.1726 18.8356 28.7385 18.4736 28.2562C19.0528 27.6775 19.5113 26.9781 19.825 26.2065C20.2594 27.0505 20.9593 27.7498 21.8281 28.208C22.4796 28.5697 23.2519 28.7626 24.0483 28.7626C25.3756 28.7626 26.5822 29.269 27.4992 30.0889C27.7406 30.306 27.9578 30.5471 28.175 30.8124C28.8265 31.6805 29.1885 32.7415 29.1885 33.899C29.1885 34.1643 29.1644 34.4054 29.1403 34.6707C28.2715 35.0806 27.3544 35.3941 26.3891 35.587C26.727 35.1047 26.9442 34.526 26.9442 33.899C26.8959 33.0309 26.5098 32.2592 25.9306 31.7287ZM25.9306 33.899C25.9306 34.8877 25.1825 35.7076 24.2172 35.8041C24.1448 35.8041 24.0965 35.8041 24.0241 35.8041C23.9517 35.8041 23.8793 35.8041 23.8311 35.8041C22.8658 35.7076 22.1176 34.8877 22.1176 33.899C22.1176 32.838 22.9864 31.9699 24.0483 31.9699C25.0618 31.9699 25.9306 32.838 25.9306 33.899ZM17.8944 34.0919C16.2534 33.1032 14.8537 31.7046 13.8643 30.0648C13.9367 30.0648 14.0332 30.0648 14.1056 30.0648C15.457 30.0648 16.7119 29.6307 17.7014 28.8832C18.1116 29.3896 18.5701 29.8478 19.0769 30.2577C18.3288 31.2705 17.8703 32.5245 17.8703 33.8749C17.8944 33.9714 17.8944 34.0437 17.8944 34.0919ZM14.1056 26.8576C14.9502 26.8576 15.7225 26.4959 16.2534 25.893C16.2775 25.8689 16.3017 25.8207 16.3258 25.7965C16.3741 25.7242 16.4223 25.676 16.4706 25.6036C16.4947 25.5795 16.5189 25.5313 16.5189 25.5072C16.543 25.483 16.543 25.4589 16.5671 25.4348C16.5912 25.3866 16.6154 25.3384 16.6636 25.2901C16.6636 25.2901 16.6636 25.2901 16.6636 25.266C16.6878 25.2419 16.6878 25.1937 16.7119 25.1696C16.736 25.1213 16.7361 25.0972 16.7602 25.049C16.7602 25.0249 16.7843 25.0008 16.7843 24.9766C16.8085 24.9525 16.8084 24.9043 16.8084 24.8802C16.8326 24.832 16.8326 24.7596 16.8567 24.7114C16.8567 24.7114 16.8567 24.7114 16.8567 24.6873C16.8567 24.6631 16.8808 24.639 16.8808 24.5908C16.8808 24.5667 16.905 24.5426 16.905 24.5185V24.4943C16.905 24.4702 16.905 24.4461 16.905 24.422C16.905 24.3979 16.905 24.3738 16.905 24.3497C16.905 24.3014 16.905 24.2532 16.9291 24.205C16.9291 24.1809 16.9291 24.1567 16.9291 24.1326C16.9291 24.0844 16.9291 24.0603 16.9291 24.0121V23.9879C16.9291 22.734 17.267 21.5524 17.8462 20.5396C18.0151 20.2502 18.184 19.9849 18.4012 19.7197C18.7632 19.2615 19.1735 18.8274 19.6561 18.4657C20.2353 19.0445 20.9351 19.5026 21.7315 19.8161C20.8869 20.2502 20.187 20.9495 19.7526 21.7935C19.3906 22.4446 19.1976 23.1922 19.1976 23.9879V24.0121C19.1976 25.3384 18.6667 26.5441 17.8462 27.4363C17.629 27.6775 17.3876 27.8945 17.1222 28.0874C16.2534 28.7144 15.2157 29.1002 14.0573 29.1002C13.7919 29.1002 13.5264 29.0761 13.2609 29.052C12.8507 28.1839 12.537 27.2675 12.3439 26.3029C12.8989 26.6647 13.4781 26.8576 14.1056 26.8576ZM12.175 23.9879C12.175 23.9397 12.175 23.9156 12.175 23.8674C12.2232 22.8546 13.0679 22.0347 14.1056 22.0347C15.1674 22.0347 16.0362 22.9028 16.0362 23.9638V23.9879C16.0121 25.0249 15.1674 25.8689 14.1056 25.8689C13.0437 25.893 12.1991 25.049 12.175 23.9879ZM19.0769 17.7423C18.5701 18.1281 18.1357 18.5863 17.7496 19.0686C16.7361 18.321 15.4811 17.8629 14.1056 17.8629C14.0332 17.8629 13.9608 17.8629 13.9125 17.8629C14.902 16.2472 16.2775 14.8726 17.8944 13.884C17.8944 13.9563 17.8944 14.0286 17.8944 14.101C17.8944 15.4514 18.3288 16.7053 19.0769 17.7423ZM22.0935 16.2713C22.6003 16.7295 23.276 16.9947 24.0241 16.9947C25.279 16.9947 26.4615 17.3323 27.4751 17.9111C27.7647 18.0799 28.0302 18.2487 28.2956 18.4657C28.7783 18.8274 29.1885 19.2615 29.5505 19.7197C28.9713 20.2984 28.5128 20.9977 28.2232 21.7935C27.7888 20.9495 27.089 20.2502 26.2443 19.8161C25.5928 19.4544 24.8205 19.2615 24.0241 19.2615C22.6968 19.2615 21.4902 18.7551 20.5732 17.9352C20.3318 17.7182 20.1146 17.477 19.8974 17.2118C19.2459 16.3436 18.8839 15.2826 18.8839 14.1251C18.8839 13.8598 18.908 13.5946 18.9321 13.3534C19.8009 12.9435 20.7179 12.63 21.6833 12.4371C21.3454 12.9194 21.1282 13.4981 21.1282 14.1251C21.1041 14.9691 21.4902 15.7408 22.0935 16.2713ZM22.0694 14.101C22.0694 13.064 22.8899 12.2201 23.9035 12.1718C23.9276 12.1718 23.9759 12.1718 24 12.1718C24.0241 12.1718 24.0724 12.1718 24.0965 12.1718C25.1101 12.2201 25.9306 13.064 25.9306 14.101C25.9306 15.162 25.0618 16.0301 24 16.0301C22.9382 16.0301 22.0694 15.162 22.0694 14.101ZM27.7888 23.9879C27.7888 26.0859 26.0995 27.7739 24 27.7739C21.9005 27.7739 20.2112 26.0859 20.2112 23.9879V23.9638C20.2353 21.89 21.9246 20.202 24 20.202C26.0754 20.202 27.7888 21.9141 27.7888 23.9879ZM9.49623 27.9668C9.15837 26.7611 8.98944 25.5072 8.96531 24.205C8.96531 24.1326 8.96531 24.0844 8.96531 24.0121V23.9638C8.96531 23.8915 8.96531 23.8433 8.96531 23.7709C9.06184 21.7212 10.3409 19.9849 12.1508 19.2374C12.5369 19.0927 12.9231 18.9721 13.3575 18.8998C13.5988 18.8515 13.8642 18.8515 14.1056 18.8515C15.2639 18.8515 16.3258 19.2374 17.1946 19.8885C16.7843 20.5637 16.4706 21.3112 16.2775 22.0829C15.7466 21.48 14.9744 21.1183 14.1056 21.1183C13.4781 21.1183 12.8989 21.3112 12.4163 21.6488C11.6923 22.1794 11.2097 23.0234 11.2097 23.9638V24.0121C11.2097 25.676 11.5234 27.2675 12.1026 28.7144C12.2715 29.1243 12.4404 29.5102 12.6576 29.896C13.8643 32.211 15.7466 34.0919 18.0392 35.2977C18.3288 36.5516 19.0287 37.6609 19.9698 38.4808C14.902 37.0821 10.8959 33.055 9.49623 27.9668ZM28.0302 38.4808C26.8235 38.8184 25.5445 39.0113 24.2172 39.0113C24.1448 39.0113 24.0965 39.0113 24.0241 39.0113C23.9517 39.0113 23.8793 39.0113 23.8311 39.0113C21.7798 38.939 20.0181 37.6368 19.27 35.8523C19.1011 35.4665 19.0045 35.0806 18.9321 34.6466C18.8839 34.4054 18.8839 34.1402 18.8839 33.8749C18.8839 32.7174 19.27 31.6564 19.8974 30.7882C20.5732 31.1982 21.3213 31.5117 22.0935 31.7046C21.4902 32.2351 21.1282 33.0068 21.1282 33.8749C21.1282 34.5019 21.3213 35.0806 21.6833 35.5629C22.1659 36.2381 22.914 36.6963 23.7828 36.7687H23.8069C23.8793 36.7687 23.9517 36.7687 24.0241 36.7687C24.0965 36.7687 24.1689 36.7687 24.2413 36.7687H24.2655C25.8582 36.7445 27.3786 36.4069 28.7783 35.8523C29.1885 35.6835 29.5747 35.5147 29.9608 35.2977C32.2534 34.0919 34.1357 32.211 35.3424 29.9201C36.5973 29.6307 37.7074 28.9314 38.5038 27.991C37.1041 33.0791 33.098 37.0821 28.0302 38.4808ZM39.0347 23.9879C39.0347 24.0603 39.0347 24.1085 39.0347 24.1809C38.9623 26.2306 37.6591 27.9668 35.8733 28.7144C35.4872 28.8832 35.1011 28.9797 34.6667 29.052C34.4253 29.1002 34.1599 29.1002 33.8944 29.1002C32.736 29.1002 31.6742 28.7144 30.8296 28.0874C31.2398 27.4122 31.5535 26.6647 31.7466 25.893C32.2775 26.4959 33.0498 26.8576 33.9186 26.8576C34.546 26.8576 35.1252 26.6405 35.6078 26.3029C36.3318 25.7724 36.8145 24.9284 36.8145 23.9638C36.8145 22.2999 36.5008 20.6843 35.8974 19.2133C35.7285 18.8033 35.5354 18.4175 35.3424 18.0317C34.1357 15.7408 32.2534 13.8598 29.9608 12.6541C29.6712 11.4001 28.9713 10.2909 28.0302 9.47099C33.098 10.8696 37.1041 14.8726 38.5038 19.9367C38.8416 21.1424 39.0347 22.4205 39.0347 23.7468C39.0347 23.8433 39.0347 23.9156 39.0347 23.9879Z" fill="#28253B"/>
</g>
<defs>
<clipPath id="clip0_7988_55389">
<rect width="32" height="32" fill="white" transform="translate(8 8)"/>
</clipPath>
</defs>
</svg>
