<svg width="24" height="25" viewBox="0 0 24 25" fill="none" xmlns="http://www.w3.org/2000/svg">
<path d="M11.7799 15.4232C13.3931 15.4232 14.6856 14.0464 14.6856 12.3409L14.6954 6.17612C14.6954 4.47054 13.3931 3.09375 11.7799 3.09375C10.1666 3.09375 8.86437 4.47054 8.86437 6.17612V12.3409C8.86437 14.0464 10.1666 15.4232 11.7799 15.4232ZM16.9306 12.3409C16.9306 15.4232 14.4621 17.5809 11.7799 17.5809C9.09761 17.5809 6.62916 15.4232 6.62916 12.3409H4.97705C4.97705 15.8547 7.62043 18.7419 10.808 19.2454V22.6154H12.7517V19.2454C15.9393 18.7522 18.5827 15.8547 18.5827 12.3409H16.9306Z" fill="#070311" fill-opacity="0.33"/>
</svg>
