<svg width="48" height="48" viewBox="0 0 48 48" fill="none" xmlns="http://www.w3.org/2000/svg">
<rect width="48" height="48" rx="12" fill="#EAECF0"/>
<g clip-path="url(#clip0_9279_5587)">
<path d="M9.45819 21.9086C9.71026 22.1607 9.84418 22.5309 9.84418 23.0115V25.0596H9.50545V23.043C9.50545 22.6491 9.40304 22.3498 9.20611 22.1449C9.00917 21.9401 8.72558 21.8377 8.3711 21.8377C7.96147 21.8377 7.63849 21.9638 7.39429 22.208C7.15797 22.4522 7.0398 22.783 7.0398 23.2005V25.0675H6.70895V21.5541H7.03193V22.3104C7.15009 22.0662 7.33127 21.8692 7.57547 21.7353C7.8118 21.5935 8.09538 21.5305 8.42624 21.5305C8.8595 21.5305 9.20611 21.6565 9.45819 21.9086ZM11.4748 24.8627C11.207 24.713 11.0022 24.5003 10.8446 24.2246C10.6949 23.9568 10.6162 23.6495 10.6162 23.3108C10.6162 22.9721 10.6949 22.6649 10.8446 22.397C10.9943 22.1292 11.207 21.9165 11.4748 21.759C11.7426 21.6093 12.042 21.5305 12.3728 21.5305C12.7037 21.5305 13.003 21.6093 13.2709 21.759C13.5387 21.9086 13.7435 22.1213 13.9011 22.397C14.0507 22.6649 14.1295 22.9721 14.1295 23.3108C14.1295 23.6495 14.0507 23.9568 13.9011 24.2246C13.7514 24.4924 13.5387 24.7051 13.2709 24.8627C12.9952 25.0123 12.6958 25.0832 12.365 25.0832C12.0341 25.0832 11.7348 25.0123 11.4748 24.8627ZM13.0897 24.5948C13.3024 24.4688 13.4678 24.2955 13.5939 24.0749C13.7199 23.8544 13.775 23.5944 13.775 23.3108C13.775 23.0272 13.712 22.7673 13.5939 22.5467C13.4678 22.3261 13.3024 22.1449 13.0897 22.0268C12.877 21.9007 12.6328 21.8377 12.365 21.8377C12.0971 21.8377 11.8529 21.9007 11.6402 22.0268C11.4276 22.1528 11.2621 22.3261 11.1361 22.5467C11.01 22.7673 10.9549 23.0272 10.9549 23.3108C10.9549 23.5944 11.0179 23.8544 11.1361 24.0749C11.2621 24.2955 11.4276 24.4767 11.6402 24.5948C11.8529 24.7209 12.0971 24.7839 12.365 24.7839C12.6328 24.7839 12.877 24.7209 13.0897 24.5948ZM15.9886 21.7353C16.217 21.6014 16.4928 21.5305 16.8236 21.5305V21.8614L16.7448 21.8535C16.3588 21.8535 16.0516 21.9716 15.8311 22.2158C15.6105 22.46 15.5002 22.7988 15.5002 23.232V25.0596H15.1615V21.5541H15.4844V22.3183C15.5869 22.0662 15.7602 21.8692 15.9886 21.7353ZM19.9116 24.839C19.8249 24.9178 19.7225 24.9808 19.5965 25.0202C19.4704 25.0596 19.3365 25.0832 19.1947 25.0832C18.8875 25.0832 18.6591 24.9966 18.4936 24.8312C18.3282 24.6657 18.2416 24.4294 18.2416 24.1301V21.8456H17.5956V21.5541H18.2416V20.79H18.5803V21.5541H19.691V21.8456H18.5803V24.0986C18.5803 24.327 18.6354 24.5003 18.7457 24.6185C18.856 24.7366 19.0214 24.7997 19.2341 24.7997C19.4547 24.7997 19.6359 24.7366 19.7777 24.6027L19.9116 24.839ZM23.5982 21.9086C23.8503 22.1607 23.9842 22.5309 23.9842 23.0115V25.0596H23.6455V23.043C23.6455 22.6491 23.5431 22.3498 23.3461 22.1449C23.1492 21.9401 22.8656 21.8377 22.5111 21.8377C22.1015 21.8377 21.7785 21.9638 21.5343 22.208C21.298 22.4522 21.1798 22.783 21.1798 23.2005V25.0675H20.8411V20.0811H21.1798V22.2867C21.298 22.0425 21.4792 21.8614 21.7155 21.7274C21.9518 21.5935 22.2354 21.5305 22.5584 21.5305C22.9995 21.5305 23.3461 21.6565 23.5982 21.9086ZM30.7352 21.4517L29.4276 25.0675H28.4192L27.6079 22.8224L26.765 25.0675H25.7567L24.4569 21.4517H25.4416L26.2923 23.8937L27.1746 21.4517H28.0648L28.9234 23.8937L29.8057 21.4517H30.7352ZM34.6424 23.5471H31.909C31.9562 23.7677 32.0744 23.9489 32.2556 24.0749C32.4367 24.201 32.6652 24.2719 32.9409 24.2719C33.13 24.2719 33.2954 24.2404 33.4372 24.1852C33.579 24.1301 33.7208 24.0434 33.8468 23.9174L34.4061 24.5239C34.0674 24.9099 33.5711 25.1069 32.9173 25.1069C32.5076 25.1069 32.1532 25.0281 31.8381 24.8706C31.523 24.713 31.2866 24.4924 31.1133 24.2088C30.94 23.9253 30.8612 23.6102 30.8612 23.2478C30.8612 22.8933 30.9479 22.5782 31.1133 22.2946C31.2788 22.011 31.5151 21.7905 31.8065 21.6329C32.098 21.4754 32.4289 21.3966 32.7912 21.3966C33.1457 21.3966 33.4687 21.4754 33.7523 21.625C34.0359 21.7747 34.2643 21.9953 34.4297 22.2789C34.5952 22.5625 34.6739 22.8933 34.6739 23.2714C34.6661 23.2793 34.6582 23.3738 34.6424 23.5471ZM32.1925 22.3892C32.035 22.5231 31.9326 22.7042 31.8932 22.9406H33.6735C33.6341 22.7121 33.5396 22.5309 33.3742 22.397C33.2166 22.2631 33.0197 22.1922 32.7833 22.1922C32.5549 22.1843 32.358 22.2552 32.1925 22.3892ZM35.698 25.0045C35.4144 24.9336 35.186 24.839 35.0127 24.7288L35.3593 23.9804C35.5168 24.0828 35.7138 24.1695 35.9422 24.2325C36.1707 24.2955 36.3912 24.327 36.6118 24.327C37.0529 24.327 37.2735 24.2167 37.2735 23.9962C37.2735 23.8937 37.2105 23.8228 37.0923 23.7756C36.9742 23.7283 36.7851 23.6889 36.533 23.6653C36.2337 23.618 35.9974 23.5708 35.8004 23.5078C35.6114 23.4526 35.4381 23.3502 35.2963 23.2005C35.1545 23.0509 35.0836 22.846 35.0836 22.5703C35.0836 22.3419 35.1466 22.1371 35.2805 21.9638C35.4144 21.7905 35.6035 21.6487 35.8556 21.5541C36.1076 21.4596 36.407 21.4045 36.7536 21.4045C37.0057 21.4045 37.2656 21.436 37.5177 21.4911C37.7698 21.5463 37.9825 21.625 38.1479 21.7196L37.8013 22.4679C37.4862 22.2867 37.1396 22.2001 36.7615 22.2001C36.5409 22.2001 36.3676 22.2316 36.2573 22.2946C36.147 22.3576 36.0919 22.4364 36.0919 22.5388C36.0919 22.6491 36.1549 22.7279 36.2731 22.7751C36.3912 22.8224 36.5882 22.8618 36.8481 22.9012C37.1475 22.9485 37.3838 23.0036 37.5728 23.0587C37.7619 23.1139 37.9273 23.2163 38.0612 23.366C38.203 23.5156 38.2661 23.7204 38.2661 23.9804C38.2661 24.201 38.1952 24.4058 38.0612 24.5791C37.9273 24.7524 37.7304 24.8863 37.4704 24.9887C37.2105 25.0832 36.9111 25.1305 36.5567 25.1305C36.2809 25.1148 35.9816 25.0754 35.698 25.0045ZM41.5273 24.8863C41.4249 24.9651 41.2989 25.0202 41.1492 25.0596C40.9995 25.099 40.842 25.1148 40.6766 25.1148C40.2433 25.1148 39.9125 25.0045 39.6761 24.7839C39.4398 24.5633 39.3216 24.2404 39.3216 23.815V22.334H38.7702V21.5305H39.3295V20.6482H40.3772V21.5305H41.2753V22.334H40.3772V23.8071C40.3772 23.9568 40.4166 24.0749 40.4954 24.1616C40.5742 24.2482 40.6844 24.2876 40.8262 24.2876C40.9917 24.2876 41.1335 24.2404 41.2516 24.1537L41.5273 24.8863ZM7.1816 27.352H6.99254V27.6749H6.65381V26.4618H7.20523C7.31552 26.4618 7.41004 26.4776 7.48882 26.5169C7.56759 26.5563 7.63061 26.6036 7.67788 26.6745C7.72514 26.7454 7.7409 26.8242 7.7409 26.9108C7.7409 26.9975 7.71727 27.0762 7.67788 27.1393C7.63849 27.2023 7.57547 27.2574 7.50457 27.2889L7.76453 27.6671H7.39429L7.1816 27.352ZM7.34703 26.7769C7.30764 26.7454 7.26037 26.7296 7.18948 26.7296H7.00042V27.0841H7.18948C7.26037 27.0841 7.31552 27.0684 7.34703 27.0369C7.37854 27.0053 7.40217 26.966 7.40217 26.9029C7.40217 26.8399 7.38641 26.8084 7.34703 26.7769ZM9.25337 27.4071V27.6749H8.28444V26.4618H9.23762V26.7296H8.62317V26.9344H9.15884V27.1944H8.62317V27.415H9.25337V27.4071ZM10.6083 27.0447H10.9076V27.5489C10.8367 27.5962 10.758 27.6355 10.6713 27.6671C10.5847 27.6907 10.4901 27.7064 10.4035 27.7064C10.2774 27.7064 10.1593 27.6828 10.0569 27.6277C9.95447 27.5725 9.87569 27.5016 9.82055 27.4071C9.76541 27.3126 9.7339 27.2023 9.7339 27.0841C9.7339 26.966 9.76541 26.8557 9.82055 26.7611C9.87569 26.6666 9.96234 26.5878 10.0647 26.5406C10.1672 26.4854 10.2853 26.4618 10.4114 26.4618C10.5216 26.4618 10.624 26.4776 10.7186 26.5169C10.8052 26.5563 10.884 26.6115 10.947 26.6824L10.7265 26.8793C10.6477 26.7927 10.5453 26.7454 10.435 26.7454C10.3326 26.7454 10.2459 26.7769 10.1829 26.8399C10.1199 26.9029 10.0884 26.9896 10.0884 27.092C10.0884 27.1629 10.1041 27.218 10.1278 27.2732C10.1593 27.3283 10.1987 27.3677 10.2459 27.3992C10.2932 27.4307 10.3562 27.4465 10.4271 27.4465C10.4901 27.4465 10.5532 27.4307 10.6162 27.4071V27.0447H10.6083ZM11.4748 26.4618H11.8214V27.6749H11.4748V26.4618ZM12.5461 27.6671C12.4516 27.6434 12.3807 27.6119 12.3177 27.5725L12.428 27.3204C12.4831 27.3598 12.5461 27.3835 12.617 27.4071C12.6879 27.4307 12.7588 27.4386 12.8297 27.4386C12.9637 27.4386 13.0267 27.4071 13.0267 27.3362C13.0267 27.3047 13.0109 27.2732 12.9715 27.2574C12.9321 27.2417 12.877 27.2259 12.7904 27.2023C12.6958 27.1865 12.6249 27.1629 12.5619 27.1393C12.4989 27.1156 12.4516 27.0841 12.4044 27.029C12.3571 26.9817 12.3413 26.9108 12.3413 26.8242C12.3413 26.7533 12.365 26.6824 12.4044 26.6272C12.4437 26.5642 12.5068 26.5169 12.5855 26.4854C12.6643 26.4539 12.7667 26.4303 12.8849 26.4303C12.9637 26.4303 13.0424 26.4382 13.1212 26.4539C13.2 26.4697 13.263 26.5012 13.326 26.5327L13.2236 26.7848C13.1054 26.7218 12.9952 26.6902 12.8849 26.6902C12.814 26.6902 12.7667 26.6981 12.7352 26.7218C12.7037 26.7454 12.6879 26.769 12.6879 26.8005C12.6879 26.832 12.7037 26.8557 12.7431 26.8714C12.7825 26.8872 12.8376 26.9029 12.9243 26.9187C13.0188 26.9344 13.0897 26.9581 13.1527 26.9817C13.2157 27.0053 13.263 27.0369 13.3103 27.092C13.3575 27.1393 13.3733 27.2102 13.3733 27.2889C13.3733 27.3598 13.3497 27.4307 13.3103 27.4859C13.2709 27.541 13.2079 27.5883 13.1291 27.6277C13.0503 27.6592 12.9479 27.6828 12.8376 27.6828C12.7352 27.6986 12.6407 27.6907 12.5461 27.6671ZM14.1138 26.7375H13.7435V26.4618H14.8306V26.7375H14.4604V27.6749H14.1138V26.7375ZM16.2801 27.4071V27.6749H15.3033V26.4618H16.2564V26.7296H15.642V26.9344H16.1777V27.1944H15.642V27.415H16.2801V27.4071ZM17.3435 27.352H17.1545V27.6749H16.8079V26.4618H17.3593C17.4696 26.4618 17.5641 26.4776 17.6429 26.5169C17.7216 26.5563 17.7847 26.6036 17.8319 26.6745C17.8792 26.7454 17.8949 26.8242 17.8949 26.9108C17.8949 26.9975 17.8713 27.0762 17.8319 27.1393C17.7925 27.2023 17.7295 27.2574 17.6586 27.2889L17.9186 27.6671H17.5483L17.3435 27.352ZM17.509 26.7769C17.4696 26.7454 17.4223 26.7296 17.3514 26.7296H17.1623V27.0841H17.3514C17.4223 27.0841 17.4774 27.0684 17.509 27.0369C17.5405 27.0053 17.5641 26.966 17.5641 26.9029C17.5641 26.8399 17.5483 26.8084 17.509 26.7769ZM19.4232 27.4071V27.6749H18.4464V26.4618H19.3995V26.7296H18.7851V26.9344H19.3208V27.1944H18.7851V27.415H19.4232V27.4071ZM19.9588 26.4618H20.5339C20.6678 26.4618 20.786 26.4854 20.8884 26.5327C20.9908 26.58 21.0696 26.6509 21.1247 26.7454C21.1798 26.8399 21.2114 26.9423 21.2114 27.0684C21.2114 27.1944 21.1798 27.2968 21.1247 27.3913C21.0696 27.4859 20.9908 27.5568 20.8884 27.604C20.786 27.6513 20.6678 27.6749 20.5339 27.6749H19.9588V26.4618ZM20.5181 27.3992C20.6205 27.3992 20.7072 27.3677 20.7702 27.3126C20.8332 27.2574 20.8647 27.1708 20.8647 27.0684C20.8647 26.966 20.8332 26.8793 20.7702 26.8242C20.7072 26.769 20.6205 26.7375 20.5181 26.7375H20.2976V27.3992H20.5181ZM23.4013 27.4386H22.8893L22.7947 27.6749H22.4481L22.9838 26.4618H23.3225L23.8582 27.6749H23.5037L23.4013 27.4386ZM23.2989 27.1865L23.1413 26.8005L22.9838 27.1865H23.2989ZM25.0871 27.0447H25.3864V27.5489C25.3155 27.5962 25.2367 27.6355 25.1501 27.6671C25.0634 27.6907 24.9689 27.7064 24.8823 27.7064C24.7562 27.7064 24.6381 27.6828 24.5356 27.6277C24.4332 27.5725 24.3545 27.5016 24.2993 27.4071C24.2442 27.3126 24.2127 27.2023 24.2127 27.0841C24.2127 26.966 24.2442 26.8557 24.2993 26.7611C24.3545 26.6666 24.4411 26.5878 24.5435 26.5406C24.6459 26.4854 24.7641 26.4618 24.8901 26.4618C25.0004 26.4618 25.1028 26.4776 25.1974 26.5169C25.284 26.5563 25.3628 26.6115 25.4258 26.6824L25.2052 26.8793C25.1265 26.7927 25.024 26.7454 24.9138 26.7454C24.8114 26.7454 24.7247 26.7769 24.6617 26.8399C24.5987 26.9029 24.5672 26.9896 24.5672 27.092C24.5672 27.1629 24.5829 27.218 24.6065 27.2732C24.6381 27.3283 24.6774 27.3677 24.7247 27.3992C24.772 27.4307 24.835 27.4465 24.9059 27.4465C24.9689 27.4465 25.0319 27.4307 25.0949 27.4071V27.0447H25.0871ZM26.9304 27.4071V27.6749H25.9536V26.4618H26.9068V26.7296H26.2923V26.9344H26.828V27.1944H26.2923V27.415H26.9304V27.4071ZM28.6241 26.4618V27.6749H28.3405L27.8048 27.029V27.6749H27.4661V26.4618H27.7497L28.2853 27.1078V26.4618H28.6241ZM29.4748 26.7375H29.1046V26.4618H30.1838V26.7375H29.8135V27.6749H29.4748V26.7375Z" fill="#003952"/>
</g>
<defs>
<clipPath id="clip0_9279_5587">
<rect width="36" height="8.54705" fill="white" transform="translate(6 19.7266)"/>
</clipPath>
</defs>
</svg>
