<svg width="48" height="48" viewBox="0 0 48 48" fill="none" xmlns="http://www.w3.org/2000/svg">
<rect width="48" height="48" rx="12" fill="#EAECF0"/>
<g clip-path="url(#clip0_3834_22213)">
<path d="M5.5 25.4486V28.6689H8.3106V22.2759C7.56518 22.2759 6.85029 22.6101 6.3232 23.205C5.79612 23.8 5.5 24.6069 5.5 25.4482" fill="#3873FF"/>
<path d="M8.31012 19.1353V22.3079C8.67935 22.3077 9.04498 22.3895 9.38615 22.5489C9.72732 22.7082 10.0373 22.9419 10.2984 23.2366C10.5595 23.5312 10.7666 23.8811 10.9078 24.2661C11.049 24.6512 11.1215 25.0639 11.1214 25.4806V28.6689H13.9326V25.4806C13.9326 24.6473 13.7871 23.8221 13.5046 23.0522C13.222 22.2823 12.8079 21.5827 12.2857 20.9935C11.7636 20.4043 11.1438 19.9369 10.4617 19.6181C9.77956 19.2992 9.04844 19.1352 8.31012 19.1353Z" fill="#3873FF"/>
<path d="M16.717 22.3832H18.3268V23.2668H18.436C18.8492 22.5565 19.3825 22.1992 20.0568 22.1992C21.3183 22.1992 22.1563 23.3041 22.1563 24.8143V28.6696H20.5465V25.0718C20.5465 24.2979 20.1544 23.7577 19.5018 23.7577C18.8602 23.7577 18.3268 24.3348 18.3268 25.1325V28.6696H16.717V22.3832Z" fill="black"/>
<path d="M22.8921 25.5265C22.8921 23.5003 24.1211 22.188 25.9811 22.188C27.8304 22.188 29.0708 23.5021 29.0708 25.5265C29.0708 27.5645 27.8304 28.8651 25.9811 28.8651C24.1211 28.8651 22.8921 27.551 22.8921 25.5265ZM27.45 25.5265C27.45 24.4831 26.8408 23.7461 25.9811 23.7461C25.1111 23.7461 24.5022 24.4831 24.5022 25.5265C24.5022 26.57 25.1114 27.319 25.9811 27.319C26.8408 27.319 27.45 26.57 27.45 25.5265Z" fill="black"/>
<path d="M29.0954 22.3833H30.7921L32.1412 27.1841H32.2502L33.6099 22.3833H35.2958L33.3594 28.6697H31.0318L29.0954 22.3833Z" fill="black"/>
<path d="M35.3212 25.5265C35.3212 23.5003 36.5501 22.188 38.4101 22.188C40.2596 22.188 41.5 23.5021 41.5 25.5265C41.5 27.5645 40.2596 28.8651 38.4101 28.8651C36.5501 28.8651 35.3212 27.551 35.3212 25.5265ZM39.879 25.5265C39.879 24.4831 39.27 23.7461 38.4101 23.7461C37.5402 23.7461 36.9312 24.4831 36.9312 25.5265C36.9312 26.57 37.5402 27.319 38.4101 27.319C39.27 27.319 39.879 26.57 39.879 25.5265Z" fill="black"/>
</g>
<defs>
<clipPath id="clip0_3834_22213">
<rect width="36" height="9.72973" fill="white" transform="translate(5.5 19.1353)"/>
</clipPath>
</defs>
</svg>
