<svg width="48" height="48" viewBox="0 0 48 48" fill="none" xmlns="http://www.w3.org/2000/svg">
<rect width="48" height="48" rx="12" fill="#EAECF0"/>
<g clip-path="url(#clip0_8456_7174)">
<mask id="mask0_8456_7174" style="mask-type:alpha" maskUnits="userSpaceOnUse" x="8" y="14" width="32" height="21">
<path d="M15.8298 34.0005C11.5055 34.0005 7.99997 30.568 7.99997 26.3338C7.99997 22.1926 11.3532 18.8184 15.5461 18.6721C17.2753 15.8721 20.4144 14.0005 24 14.0005C28.6308 14.0005 32.5169 17.1223 33.5829 21.334C37.1316 21.3608 40 24.186 40 27.6672C40 31.0532 37 34.0005 33.8723 33.9919L15.8298 34.0005Z" fill="#C4C4C4"/>
</mask>
<g mask="url(#mask0_8456_7174)">
<path d="M15.8301 34.0006C13.3781 34.0006 11.1895 32.8971 9.75381 31.1696L26.0428 24.334L38.7088 31.4652C37.5925 32.9216 35.9065 34.0006 34.0003 33.992C31.1253 34.0006 20.0628 34.0006 15.8301 34.0006Z" fill="url(#paint0_linear_8456_7174)"/>
<path d="M33.5785 21.3149L26.043 24.3334L38.709 31.4647C39.5199 30.4065 40.0004 29.0916 40.0004 27.6669C40.0004 24.1857 37.1321 21.3605 33.5833 21.3337C33.5817 21.3274 33.5801 21.3212 33.5785 21.3149Z" fill="url(#paint1_linear_8456_7174)"/>
<path d="M15.0644 18.7033L26.0423 24.3338L33.5779 21.3153C32.5051 17.1131 28.6237 14.0005 23.9997 14.0005C20.4141 14.0005 17.2751 15.8721 15.5458 18.6721C15.3841 18.6778 15.2236 18.6882 15.0644 18.7033Z" fill="url(#paint2_linear_8456_7174)"/>
<path d="M9.75344 31.1692L26.0424 24.3336L15.0646 18.7031C11.0994 19.0797 7.99994 22.3522 7.99994 26.3336C7.99994 28.167 8.65714 29.85 9.75344 31.1692Z" fill="url(#paint3_linear_8456_7174)"/>
</g>
</g>
<defs>
<linearGradient id="paint0_linear_8456_7174" x1="12.4258" y1="32.6673" x2="35.2308" y2="31.2769" gradientUnits="userSpaceOnUse">
<stop stop-color="#2086B8"/>
<stop offset="1" stop-color="#46D3F6"/>
</linearGradient>
<linearGradient id="paint1_linear_8456_7174" x1="31.8302" y1="27.6668" x2="38.2108" y2="23.2082" gradientUnits="userSpaceOnUse">
<stop stop-color="#1694DB"/>
<stop offset="1" stop-color="#62C3FE"/>
</linearGradient>
<linearGradient id="paint2_linear_8456_7174" x1="16.5103" y1="15.3338" x2="31.3335" y2="23.9353" gradientUnits="userSpaceOnUse">
<stop stop-color="#0D3D78"/>
<stop offset="1" stop-color="#063B83"/>
</linearGradient>
<linearGradient id="paint3_linear_8456_7174" x1="7.65951" y1="28.0003" x2="22.5633" y2="22.4654" gradientUnits="userSpaceOnUse">
<stop stop-color="#16589B"/>
<stop offset="1" stop-color="#1464B7"/>
</linearGradient>
<clipPath id="clip0_8456_7174">
<rect width="32" height="32" fill="white" transform="translate(8 8)"/>
</clipPath>
</defs>
</svg>
