<svg width="48" height="48" viewBox="0 0 48 48" fill="none" xmlns="http://www.w3.org/2000/svg">
<rect width="48" height="48" rx="12" fill="#EFEFEF"/>
<g clip-path="url(#clip0_9579_12098)">
<path d="M42 24.5821C42.002 24.3006 41.8566 24.0386 41.6166 23.8914H41.6124L41.5973 23.8831L29.1229 16.4989C29.0691 16.4625 29.0132 16.4292 28.9555 16.3993C28.4738 16.1508 27.9017 16.1508 27.42 16.3993C27.3623 16.4292 27.3064 16.4625 27.2526 16.4989L14.7782 23.8831L14.7631 23.8914C14.3819 24.1285 14.265 24.6298 14.5021 25.0111C14.5719 25.1234 14.6682 25.217 14.7824 25.2837L27.2568 32.6679C27.3109 32.704 27.3667 32.7372 27.4243 32.7675C27.9059 33.016 28.478 33.016 28.9597 32.7675C29.0172 32.7372 29.0731 32.704 29.1271 32.6679L41.6016 25.2837C41.8508 25.1384 42.0029 24.8706 42 24.5821Z" fill="#0A2767"/>
<path d="M16.2322 19.6511H24.4184V27.155H16.2322V19.6511ZM40.3254 12.0233V8.59069C40.345 7.73247 39.6657 7.02056 38.8075 7H17.5642C16.706 7.02056 16.0267 7.73247 16.0463 8.59069V12.0233L28.6044 15.3721L40.3254 12.0233Z" fill="#0364B8"/>
<path d="M16.0464 12.0234H24.4185V19.5583H16.0464V12.0234Z" fill="#0078D4"/>
<path d="M32.7906 12.0234H24.4185V19.5583L32.7906 27.0932H40.3254V19.5583L32.7906 12.0234Z" fill="#28A8EA"/>
<path d="M24.4185 19.5586H32.7905V27.0935H24.4185V19.5586Z" fill="#0078D4"/>
<path d="M24.4185 27.0938H32.7905V34.6286H24.4185V27.0938Z" fill="#0364B8"/>
<path d="M16.2324 27.1553H24.4187V33.9768H16.2324V27.1553Z" fill="#14447D"/>
<path d="M32.7905 27.0938H40.3254V34.6286H32.7905V27.0938Z" fill="#0078D4"/>
<path d="M41.6165 25.2376L41.6006 25.2459L29.1262 32.2617C29.0718 32.2952 29.0165 32.327 28.9587 32.3555C28.7469 32.4564 28.5168 32.5134 28.2823 32.523L27.6008 32.1244C27.5432 32.0955 27.4873 32.0634 27.4334 32.0282L14.7915 24.8131H14.7856L14.3721 24.582V38.7844C14.3785 39.732 15.1517 40.495 16.0992 40.489H40.2996C40.3138 40.489 40.3264 40.4823 40.3414 40.4823C40.5416 40.4695 40.7389 40.4283 40.9275 40.3601C41.009 40.3256 41.0876 40.2847 41.1627 40.2378C41.2188 40.206 41.3151 40.1366 41.3151 40.1366C41.744 39.8192 41.9978 39.318 41.9999 38.7845V24.582C41.9997 24.8537 41.8531 25.1042 41.6165 25.2376Z" fill="url(#paint0_linear_9579_12098)"/>
<path opacity="0.5" d="M41.33 24.5255V25.3962L28.2863 34.3769L14.7821 24.8185C14.7821 24.8139 14.7784 24.8101 14.7737 24.8101L13.5347 24.065V23.4371L14.0454 23.4287L15.1254 24.0483L15.1505 24.0566L15.2426 24.1152C15.2426 24.1152 27.9346 31.3571 27.9681 31.3738L28.4537 31.6585C28.4956 31.6417 28.5374 31.625 28.5877 31.6082C28.6128 31.5915 41.1876 24.5171 41.1876 24.5171L41.33 24.5255Z" fill="#0A2767"/>
<path d="M41.6165 25.2376L41.6006 25.2468L29.1262 32.2626C29.0718 32.2961 29.0165 32.3279 28.9587 32.3563C28.4743 32.593 27.9077 32.593 27.4233 32.3563C27.3659 32.3279 27.31 32.2966 27.2558 32.2626L14.7815 25.2468L14.7664 25.2376C14.5256 25.107 14.3746 24.856 14.3721 24.582V38.7844C14.3781 39.7318 15.1509 40.495 16.0983 40.489C16.0983 40.489 16.0984 40.489 16.0984 40.489H40.2736C41.221 40.495 41.9939 39.7319 42 38.7845C42 38.7845 42 38.7845 42 38.7844V24.582C41.9996 24.8537 41.8531 25.1042 41.6165 25.2376Z" fill="#1490DF"/>
<path opacity="0.1" d="M29.3081 32.1582L29.1214 32.2629C29.0673 32.2973 29.0114 32.3289 28.9539 32.3575C28.7482 32.4584 28.5246 32.5176 28.2959 32.5316L33.042 38.1442L41.3212 40.1393C41.5481 39.968 41.7285 39.7426 41.8461 39.4838L29.3081 32.1582Z" fill="black"/>
<path opacity="0.05" d="M30.1537 31.6826L29.1214 32.2628C29.0673 32.2972 29.0114 32.3288 28.9539 32.3574C28.7482 32.4584 28.5246 32.5176 28.2959 32.5315L30.5195 38.6624L41.3237 40.1367C41.7493 39.8172 41.9999 39.3161 42.0002 38.7838V38.6005L30.1537 31.6826Z" fill="black"/>
<path d="M16.1218 40.489H40.2711C40.6427 40.4909 41.0051 40.3735 41.3051 40.1541L27.6 32.1261C27.5424 32.0972 27.4865 32.0651 27.4325 32.0299L14.7907 24.8148H14.7848L14.3721 24.582V38.7359C14.3711 39.7032 15.1545 40.4881 16.1218 40.489Z" fill="#28A8EA"/>
<path opacity="0.1" d="M26.093 15.2328V33.0905C26.0915 33.7166 25.7108 34.2794 25.1302 34.5138C24.9503 34.5911 24.7567 34.6309 24.5609 34.631H14.3721V14.5354H16.0465V13.6982H24.5609C25.4067 13.7014 26.0912 14.387 26.093 15.2328Z" fill="black"/>
<path opacity="0.2" d="M25.2558 16.0698V33.9275C25.2579 34.1297 25.215 34.3299 25.1302 34.5135C24.8977 35.0866 24.3422 35.4626 23.7237 35.4654H14.3721V14.5352H23.7237C23.9666 14.5328 24.206 14.5934 24.4186 14.7111C24.9318 14.9696 25.2556 15.4952 25.2558 16.0698Z" fill="black"/>
<path opacity="0.2" d="M25.2558 16.0698V32.2531C25.2517 33.0985 24.5691 33.7837 23.7237 33.791H14.3721V14.5352H23.7237C23.9666 14.5328 24.206 14.5934 24.4186 14.7111C24.9318 14.9696 25.2556 15.4952 25.2558 16.0698Z" fill="black"/>
<path opacity="0.2" d="M24.4186 16.0698V32.253C24.4177 33.0997 23.7332 33.7868 22.8865 33.7909H14.3721V14.5352H22.8865C23.7331 14.5356 24.419 15.2223 24.4186 16.0689C24.4186 16.0692 24.4186 16.0695 24.4186 16.0698Z" fill="black"/>
<path d="M7.5346 14.5352H22.884C23.7315 14.5352 24.4186 15.2222 24.4186 16.0698V31.4191C24.4186 32.2667 23.7315 32.9537 22.884 32.9537H7.5346C6.68705 32.9537 6 32.2667 6 31.4191V16.0698C6 15.2222 6.68707 14.5352 7.5346 14.5352Z" fill="url(#paint1_linear_9579_12098)"/>
<path d="M10.7964 20.9718C11.1747 20.166 11.7852 19.4916 12.5496 19.0354C13.3961 18.5507 14.3599 18.3091 15.335 18.3371C16.2387 18.3175 17.1304 18.5466 17.9127 18.9994C18.6483 19.438 19.2407 20.0808 19.6181 20.8496C20.0291 21.6968 20.2339 22.6291 20.2159 23.5705C20.2358 24.5544 20.0251 25.5293 19.6005 26.417C19.2142 27.2133 18.603 27.879 17.8424 28.3317C17.0299 28.7983 16.1051 29.0335 15.1684 29.0115C14.2454 29.0338 13.334 28.8021 12.5337 28.3418C11.7917 27.9025 11.1919 27.2591 10.8057 26.4882C10.3922 25.6533 10.185 24.7314 10.2012 23.7999C10.184 22.8244 10.3875 21.8577 10.7964 20.9718ZM12.6651 25.5179C12.8668 26.0273 13.2087 26.4692 13.6513 26.7921C14.1021 27.1072 14.642 27.2697 15.1918 27.2559C15.7773 27.2791 16.3545 27.111 16.8361 26.777C17.2731 26.4551 17.606 26.0121 17.7938 25.5028C18.0037 24.9341 18.1073 24.3316 18.0994 23.7254C18.1059 23.1134 18.0085 22.5048 17.8114 21.9254C17.6373 21.4023 17.3151 20.941 16.8838 20.5976C16.4143 20.2479 15.8387 20.0705 15.2537 20.0953C14.692 20.0807 14.1401 20.2446 13.6773 20.5633C13.2272 20.8876 12.8787 21.3333 12.6726 21.8484C12.2154 23.029 12.213 24.3373 12.6659 25.5196L12.6651 25.5179Z" fill="white"/>
<path d="M32.7905 12.0234H40.3254V19.5583H32.7905V12.0234Z" fill="#50D9FF"/>
</g>
<defs>
<linearGradient id="paint0_linear_9579_12098" x1="28.186" y1="24.582" x2="28.186" y2="40.489" gradientUnits="userSpaceOnUse">
<stop stop-color="#35B8F1"/>
<stop offset="1" stop-color="#28A8EA"/>
</linearGradient>
<linearGradient id="paint1_linear_9579_12098" x1="9.19968" y1="13.3361" x2="21.2189" y2="34.1529" gradientUnits="userSpaceOnUse">
<stop stop-color="#1784D9"/>
<stop offset="0.5" stop-color="#107AD5"/>
<stop offset="1" stop-color="#0A63C9"/>
</linearGradient>
<clipPath id="clip0_9579_12098">
<rect width="36" height="33.4884" fill="white" transform="translate(6 7)"/>
</clipPath>
</defs>
</svg>
