<svg width="48" height="48" viewBox="0 0 48 48" fill="none" xmlns="http://www.w3.org/2000/svg">
<rect width="48" height="48" rx="12" fill="#EAECF0"/>
<path d="M26.8333 16.2083H37.1275C37.7012 16.2083 38.1666 16.6736 38.1666 17.2474V30.7525C38.1666 31.3262 37.7012 31.7916 37.1275 31.7916H26.8333V16.2083Z" fill="#1976D2"/>
<path d="M36.7499 19.7202H26.8333V30.7291H36.7499V19.7202Z" fill="white"/>
<path d="M26.1249 38.1666L9.83325 34.9791V13.0208L26.1249 9.83325V38.1666Z" fill="#1976D2"/>
<path d="M17.8022 18.6875C15.5525 18.6875 13.7292 21.0661 13.7292 24C13.7292 26.9339 15.5525 29.3125 17.8022 29.3125C20.0518 29.3125 21.8751 26.9339 21.8751 24C21.8751 21.0661 20.0518 18.6875 17.8022 18.6875ZM17.6251 27.1875C16.4514 27.1875 15.5001 25.7602 15.5001 24C15.5001 22.2398 16.4514 20.8125 17.6251 20.8125C18.7988 20.8125 19.7501 22.2398 19.7501 24C19.7501 25.7602 18.7988 27.1875 17.6251 27.1875Z" fill="white"/>
<path d="M28.779 28.0635H26.8665V30.1176H28.779V28.0635Z" fill="#1976D2"/>
<path d="M31.1884 28.0635H29.2759V30.1176H31.1884V28.0635Z" fill="#1976D2"/>
<path d="M33.5971 28.0635H31.6846V30.1176H33.5971V28.0635Z" fill="#1976D2"/>
<path d="M28.779 25.5291H26.8665V27.5832H28.779V25.5291Z" fill="#1976D2"/>
<path d="M31.1884 25.5291H29.2759V27.5832H31.1884V25.5291Z" fill="#1976D2"/>
<path d="M33.5971 25.5291H31.6846V27.5832H33.5971V25.5291Z" fill="#1976D2"/>
<path d="M36.0063 25.5291H34.0938V27.5832H36.0063V25.5291Z" fill="#1976D2"/>
<path d="M28.779 23.0835H26.8665V25.1377H28.779V23.0835Z" fill="#1976D2"/>
<path d="M31.1884 23.0835H29.2759V25.1377H31.1884V23.0835Z" fill="#1976D2"/>
<path d="M33.5971 23.0835H31.6846V25.1377H33.5971V23.0835Z" fill="#1976D2"/>
<path d="M36.0063 23.0835H34.0938V25.1377H36.0063V23.0835Z" fill="#1976D2"/>
<path d="M31.1884 20.5376H29.2759V22.5918H31.1884V20.5376Z" fill="#1976D2"/>
<path d="M33.5971 20.5376H31.6846V22.5918H33.5971V20.5376Z" fill="#1976D2"/>
<path d="M36.0063 20.5376H34.0938V22.5918H36.0063V20.5376Z" fill="#1976D2"/>
</svg>
