<svg width="14" height="18" viewBox="0 0 14 18" fill="none" xmlns="http://www.w3.org/2000/svg">
<path d="M1.16666 3.1576C1.16666 2.3483 1.16666 1.94365 1.3354 1.72059C1.4824 1.52626 1.70709 1.40601 1.95032 1.39149C2.22952 1.37482 2.56621 1.59928 3.23959 2.0482L12.0026 7.89018C12.559 8.26111 12.8372 8.44658 12.9341 8.68035C13.0189 8.88473 13.0189 9.11443 12.9341 9.3188C12.8372 9.55257 12.559 9.73804 12.0026 10.109L3.23959 15.951C2.56621 16.3999 2.22952 16.6243 1.95032 16.6077C1.70709 16.5931 1.4824 16.4729 1.3354 16.2786C1.16666 16.0555 1.16666 15.6509 1.16666 14.8416V3.1576Z" stroke="#344054" stroke-width="1.66667" stroke-linecap="round" stroke-linejoin="round"/>
</svg>
