<svg width="57" height="56" viewBox="0 0 57 56" fill="none" xmlns="http://www.w3.org/2000/svg">
<rect x="0.570007" width="56" height="56" rx="28" fill="#EAECF0"/>
<path d="M27.2367 17.3333H21.6367C19.3965 17.3333 18.2764 17.3333 17.4207 17.7693C16.6681 18.1528 16.0562 18.7647 15.6727 19.5174C15.2367 20.373 15.2367 21.4931 15.2367 23.7333V34.9333C15.2367 37.1735 15.2367 38.2936 15.6727 39.1493C16.0562 39.9019 16.6681 40.5138 17.4207 40.8973C18.2764 41.3333 19.3965 41.3333 21.6367 41.3333H32.8367C35.0769 41.3333 36.197 41.3333 37.0527 40.8973C37.8053 40.5138 38.4172 39.9019 38.8007 39.1493C39.2367 38.2936 39.2367 37.1735 39.2367 34.9333V29.3333M23.2367 33.3333H25.4694C26.1216 33.3333 26.4477 33.3333 26.7546 33.2596C27.0267 33.1943 27.2869 33.0866 27.5255 32.9404C27.7946 32.7754 28.0252 32.5448 28.4864 32.0836L41.2367 19.3333C42.3413 18.2287 42.3413 16.4379 41.2367 15.3333C40.1321 14.2287 38.3413 14.2287 37.2367 15.3333L24.4863 28.0836C24.0251 28.5448 23.7945 28.7754 23.6296 29.0446C23.4834 29.2831 23.3757 29.5433 23.3103 29.8154C23.2367 30.1223 23.2367 30.4484 23.2367 31.1006V33.3333Z" stroke="#3684A4" stroke-width="2" stroke-linecap="round" stroke-linejoin="round"/>
</svg>
