<svg width="20" height="20" viewBox="0 0 20 20" fill="none" xmlns="http://www.w3.org/2000/svg">
<path d="M11.7081 5.0013C12.522 5.16011 13.27 5.55818 13.8564 6.14458C14.4428 6.73098 14.8409 7.47902 14.9997 8.29297M11.7081 1.66797C13.3991 1.85583 14.976 2.61311 16.1799 3.81548C17.3838 5.01784 18.1431 6.59381 18.3331 8.28464M8.52221 11.5539C7.52089 10.5525 6.73023 9.42034 6.15024 8.21233C6.10035 8.10842 6.0754 8.05646 6.05624 7.99072C5.98813 7.75709 6.03705 7.47021 6.17873 7.27235C6.2186 7.21668 6.26623 7.16905 6.36149 7.07379C6.65283 6.78245 6.79849 6.63678 6.89373 6.4903C7.25289 5.93789 7.25289 5.22574 6.89373 4.67333C6.79849 4.52685 6.65283 4.38118 6.36149 4.08984L6.1991 3.92745C5.75623 3.48458 5.53479 3.26314 5.29697 3.14286C4.82401 2.90363 4.26545 2.90363 3.79249 3.14286C3.55467 3.26315 3.33323 3.48458 2.89036 3.92745L2.759 4.05881C2.31765 4.50016 2.09697 4.72084 1.92843 5.02087C1.74142 5.35379 1.60695 5.87086 1.60809 6.25272C1.60911 6.59684 1.67586 6.83202 1.80937 7.3024C2.52684 9.83023 3.88057 12.2155 5.87056 14.2055C7.86054 16.1955 10.2458 17.5492 12.7737 18.2667C13.244 18.4002 13.4792 18.467 13.8234 18.468C14.2052 18.4691 14.7223 18.3346 15.0552 18.1476C15.3552 17.9791 15.5759 17.7584 16.0173 17.3171L16.1486 17.1857C16.5915 16.7428 16.8129 16.5214 16.9332 16.2836C17.1724 15.8106 17.1724 15.2521 16.9332 14.7791C16.8129 14.5413 16.5915 14.3198 16.1486 13.877L15.9862 13.7146C15.6949 13.4232 15.5492 13.2776 15.4027 13.1823C14.8503 12.8232 14.1382 12.8232 13.5858 13.1823C13.4393 13.2776 13.2936 13.4232 13.0023 13.7146C12.907 13.8098 12.8594 13.8575 12.8037 13.8973C12.6059 14.039 12.319 14.0879 12.0853 14.0198C12.0196 14.0007 11.9676 13.9757 11.8637 13.9258C10.6557 13.3458 9.52352 12.5552 8.52221 11.5539Z" stroke="#494848" stroke-width="2" stroke-linecap="round" stroke-linejoin="round"/>
</svg>
