<svg width="48" height="48" viewBox="0 0 48 48" fill="none" xmlns="http://www.w3.org/2000/svg">
<rect width="48" height="48" rx="12" fill="#EFEFEF"/>
<g clip-path="url(#clip0_9579_7968)">
<mask id="mask0_9579_7968" style="mask-type:luminance" maskUnits="userSpaceOnUse" x="17" y="14" width="4" height="4">
<path d="M17.7417 14.6836H20.0894V17.0507H17.7417V14.6836Z" fill="white"/>
</mask>
<g mask="url(#mask0_9579_7968)">
<path fill-rule="evenodd" clip-rule="evenodd" d="M18.9348 14.6836C18.2806 14.6836 17.7417 15.2268 17.7417 15.8671C17.7417 16.5267 18.2806 17.0507 18.9348 17.0507C19.589 17.0507 20.0894 16.5267 20.0894 15.8671C20.0894 15.2268 19.589 14.6836 18.9348 14.6836Z" fill="#5F2EE5"/>
</g>
<path fill-rule="evenodd" clip-rule="evenodd" d="M21.6778 29.3505H23.3326V14.7998H21.6778V29.3505ZM29.7132 19.4561C26.8074 19.4561 24.6711 21.7066 24.6711 24.5005C24.6711 27.2941 26.8074 29.5447 29.7132 29.5447C32.5998 29.5447 34.7357 27.2941 34.7357 24.5005C34.7357 21.7066 32.5998 19.4561 29.7132 19.4561ZM29.7132 27.9925C27.7118 27.9925 26.3647 26.4405 26.3647 24.5005C26.3647 22.5603 27.7118 21.0081 29.7132 21.0081C31.7145 21.0081 33.0424 22.5603 33.0424 24.5005C33.0424 26.4405 31.7145 27.9925 29.7132 27.9925ZM41.405 21.1828V19.6501H38.634V17.0932L36.979 17.9321V19.6501H34.9391V21.1828H36.979V26.4793C36.979 28.4971 38.249 29.4478 39.9232 29.4478C40.5198 29.4478 41.0009 29.3505 41.405 29.2147V27.7209C41.0971 27.8373 40.6352 27.915 40.2311 27.915C39.1918 27.915 38.634 27.5076 38.634 26.266V21.1828H41.405ZM11.532 19.4221C10.2328 19.4221 9.04886 19.9187 8.15598 20.7336V19.6421H6.5V33.4054H8.15593V28.2569C9.04881 29.0718 10.2328 29.5682 11.532 29.5682C14.3112 29.5682 16.5639 27.2971 16.5639 24.4952C16.5639 21.6935 14.3112 19.4221 11.532 19.4221ZM11.532 27.8988C9.6675 27.8988 8.15593 26.3749 8.15593 24.4952C8.15593 22.6155 9.6675 21.0916 11.532 21.0916C13.3965 21.0916 14.908 22.6155 14.908 24.4952C14.908 26.3749 13.3965 27.8988 11.532 27.8988Z" fill="#5F2EE5"/>
<path fill-rule="evenodd" clip-rule="evenodd" d="M11.5324 23.1681C10.8216 23.1681 10.2455 23.7489 10.2455 24.4654C10.2455 25.1818 10.8216 25.7627 11.5324 25.7627C12.2431 25.7627 12.8191 25.1818 12.8191 24.4654C12.8191 23.7489 12.2431 23.1681 11.5324 23.1681ZM16.6205 19.6504L17.0828 21.1831H18.0881V29.3508H19.743V19.6504H16.6205Z" fill="#5F2EE5"/>
</g>
<defs>
<clipPath id="clip0_9579_7968">
<rect width="35" height="19" fill="white" transform="translate(6.5 14.5)"/>
</clipPath>
</defs>
</svg>
