<svg width="48" height="48" viewBox="0 0 48 48" fill="none" xmlns="http://www.w3.org/2000/svg">
<rect width="48" height="48" rx="12" fill="#EAECF0"/>
<path d="M24.0614 7.30475C33.3235 7.33081 40.8091 14.8256 40.7815 24.0464C40.7532 33.2541 33.2277 40.7213 24.007 40.6906C14.767 40.66 7.27836 33.1629 7.30442 23.9705C7.33124 14.7574 14.8498 7.27946 24.0614 7.30475ZM24.9811 21.7793C24.9811 24.5568 24.9811 27.3345 24.9811 30.1126C24.9811 30.3103 24.9228 30.5096 25.2685 30.5042C26.8642 30.4766 28.4629 30.5372 30.0548 30.4544C34.1436 30.2436 36.9778 26.2391 35.9056 22.2951C35.2273 19.7966 32.8207 17.2367 28.8975 17.5134C28.7258 17.5257 28.6836 17.5901 28.6852 17.7433C28.6913 18.3922 28.6913 19.0419 28.6852 19.6924C28.6852 19.8571 28.7388 19.9223 28.9044 19.9154C29.1596 19.907 29.4156 19.9085 29.6708 19.9154C31.8167 19.9752 33.4622 21.5072 33.7006 23.6708C33.9144 25.6099 32.5425 27.4929 30.5514 27.9674C29.6317 28.1865 28.6944 28.0363 27.767 28.09C27.4328 28.1091 27.3777 27.9919 27.3784 27.6861C27.3899 24.5384 27.3861 21.3915 27.3853 18.2438C27.3853 17.2758 27.3991 16.3071 27.3761 15.3391C27.3493 14.2286 26.4602 13.2575 25.3834 13.0927C25.0715 13.0445 24.9703 13.1065 24.9719 13.4476C24.9864 16.2235 24.9803 19.0018 24.9803 21.7793H24.9811ZM23.1079 26.2475C23.1079 23.4578 23.1079 20.668 23.1141 17.8782C23.1141 17.6092 23.0704 17.5058 22.7661 17.5096C21.2854 17.5272 19.8047 17.5004 18.3209 17.5219C13.9876 17.5862 10.9426 21.846 12.2593 25.9685C13.0181 28.3444 15.3311 30.7065 19.1571 30.5004C19.3763 30.4889 19.4008 30.3946 19.3985 30.216C19.3908 29.6029 19.3809 28.9898 19.3985 28.382C19.4084 28.1114 19.3019 28.0624 19.0682 28.0754C18.8137 28.0915 18.5577 28.0823 18.3017 28.0754C16.2278 27.9988 14.5869 26.4238 14.3746 24.3016C14.183 22.3817 15.5403 20.5216 17.4778 20.0449C18.3592 19.8272 19.2567 19.9399 20.1465 19.9177C20.693 19.9039 20.693 19.9177 20.693 20.4588C20.693 24.459 20.693 28.4586 20.693 32.4578C20.693 33.7185 21.5092 34.6881 22.681 34.905C23.0336 34.9701 23.1064 34.8881 23.1041 34.5409C23.101 31.7757 23.1072 29.0112 23.1072 26.2444L23.1079 26.2475Z" fill="#2DA01D"/>
</svg>
