<svg width="19" height="19" viewBox="0 0 19 19" fill="none" xmlns="http://www.w3.org/2000/svg">
<path d="M9.00001 12.4996L6.50001 9.99956M9.00001 12.4996C10.164 12.0568 11.2807 11.4985 12.3333 10.8329M9.00001 12.4996V16.6662C9.00001 16.6662 11.525 16.2079 12.3333 14.9996C13.2333 13.6496 12.3333 10.8329 12.3333 10.8329M6.50001 9.99956C6.94346 8.84908 7.50185 7.74627 8.16668 6.70789C9.13766 5.15538 10.4897 3.8771 12.0942 2.99463C13.6987 2.11217 15.5022 1.65486 17.3333 1.66622C17.3333 3.93289 16.6833 7.91622 12.3333 10.8329M6.50001 9.99956H2.33334C2.33334 9.99956 2.79168 7.47456 4.00001 6.66622C5.35001 5.76622 8.16668 6.66622 8.16668 6.66622M2.75001 13.7496C1.50001 14.7996 1.08334 17.9162 1.08334 17.9162C1.08334 17.9162 4.20001 17.4996 5.25001 16.2496C5.84168 15.5496 5.83334 14.4746 5.17501 13.8246C4.8511 13.5154 4.42442 13.3368 3.97687 13.3229C3.52931 13.3091 3.09241 13.461 2.75001 13.7496Z" stroke="#494848" stroke-width="2" stroke-linecap="round" stroke-linejoin="round"/>
</svg>
