<svg width="24" height="26" viewBox="0 0 24 26" fill="none" xmlns="http://www.w3.org/2000/svg">
<path d="M12 22.584C14.6522 22.584 17.1957 21.5304 19.0711 19.6551C20.9464 17.7797 22 15.2361 22 12.584C22 9.93182 20.9464 7.38828 19.0711 5.51292C17.1957 3.63755 14.6522 2.58398 12 2.58398C9.34784 2.58398 6.8043 3.63755 4.92893 5.51292C3.05357 7.38828 2 9.93182 2 12.584C2 15.2361 3.05357 17.7797 4.92893 19.6551C6.8043 21.5304 9.34784 22.584 12 22.584ZM10.75 10.709C10.75 11.744 10.19 12.584 9.5 12.584C8.81 12.584 8.25 11.744 8.25 10.709C8.25 9.67398 8.81 8.83398 9.5 8.83398C10.19 8.83398 10.75 9.67398 10.75 10.709ZM7.35625 14.5427C7.4998 14.4599 7.67039 14.4374 7.8305 14.4803C7.99061 14.5232 8.12712 14.6279 8.21 14.7715C8.59389 15.4369 9.14632 15.9894 9.81166 16.3735C10.477 16.7575 11.2318 16.9594 12 16.959C12.7682 16.9594 13.523 16.7575 14.1883 16.3735C14.8537 15.9894 15.4061 15.4369 15.79 14.7715C15.8307 14.6998 15.8852 14.6369 15.9504 14.5864C16.0155 14.5359 16.09 14.4988 16.1696 14.4772C16.2491 14.4556 16.3321 14.45 16.4139 14.4606C16.4956 14.4712 16.5744 14.4979 16.6458 14.5391C16.7172 14.5803 16.7797 14.6353 16.8298 14.7007C16.8799 14.7662 16.9165 14.841 16.9376 14.9206C16.9586 15.0003 16.9637 15.0834 16.9526 15.1651C16.9414 15.2467 16.9142 15.3254 16.8725 15.3965C16.3789 16.2519 15.6687 16.9623 14.8133 17.456C13.958 17.9497 12.9876 18.2094 12 18.209C11.0124 18.2094 10.042 17.9497 9.18668 17.456C8.33132 16.9623 7.6211 16.2519 7.1275 15.3965C7.04462 15.2529 7.02216 15.0823 7.06506 14.9222C7.10796 14.7621 7.2127 14.6256 7.35625 14.5427ZM14.5 12.584C13.81 12.584 13.25 11.744 13.25 10.709C13.25 9.67398 13.81 8.83398 14.5 8.83398C15.19 8.83398 15.75 9.67398 15.75 10.709C15.75 11.744 15.19 12.584 14.5 12.584Z" fill="#070311" fill-opacity="0.33"/>
</svg>
