<svg width="344" height="259" viewBox="0 0 344 259" fill="none" xmlns="http://www.w3.org/2000/svg">
<g clip-path="url(#clip0_3152_8675)">
<path d="M173.082 0H19.6247C14.4217 0.00580935 9.43347 2.05792 5.75439 5.7061C2.07531 9.35429 0.00583796 14.3006 -7.62939e-06 19.4599V198.137C0.00583905 203.297 2.07532 208.243 5.7544 211.891C9.43348 215.539 14.4217 217.591 19.6247 217.597H173.082C178.285 217.591 183.273 215.539 186.952 211.891C190.631 208.243 192.701 203.297 192.707 198.137V19.4599C192.701 14.3006 190.631 9.35429 186.952 5.7061C183.273 2.05792 178.285 0.00580935 173.082 0Z" fill="#F2F2F2"/>
<path d="M173.082 5.60156H19.6247C15.9195 5.60568 12.3673 7.06702 9.7473 9.66497C7.12733 12.2629 5.65361 15.7853 5.64945 19.4594V198.137C5.65362 201.811 7.12734 205.333 9.74731 207.931C12.3673 210.529 15.9195 211.99 19.6247 211.995H173.082C176.787 211.99 180.34 210.529 182.96 207.931C185.579 205.333 187.053 201.811 187.057 198.137V19.4594C187.053 15.7854 185.58 12.263 182.96 9.66503C180.34 7.06708 176.787 5.60572 173.082 5.60156Z" fill="white"/>
<path d="M149.987 57.5574H72.3846C71.5179 57.5574 70.6866 57.2159 70.0738 56.6082C69.4609 56.0005 69.1166 55.1762 69.1166 54.3168C69.1166 53.4573 69.4609 52.6331 70.0738 52.0253C70.6866 51.4176 71.5179 51.0762 72.3846 51.0762H149.987C150.416 51.0762 150.841 51.16 151.238 51.3229C151.634 51.4857 151.994 51.7244 152.298 52.0253C152.601 52.3262 152.842 52.6835 153.006 53.0767C153.171 53.4698 153.255 53.8912 153.255 54.3168C153.255 54.7423 153.171 55.1637 153.006 55.5569C152.842 55.9501 152.601 56.3073 152.298 56.6082C151.994 56.9091 151.634 57.1478 151.238 57.3107C150.841 57.4735 150.416 57.5574 149.987 57.5574Z" fill="#F2F2F2"/>
<path d="M163.468 68.4949H72.3845C71.5183 68.4939 70.6881 68.1521 70.076 67.5444C69.4639 66.9368 69.1201 66.1131 69.1201 65.2543C69.1201 64.3954 69.4639 63.5717 70.076 62.9641C70.6881 62.3565 71.5183 62.0146 72.3845 62.0137H163.468C164.334 62.0146 165.164 62.3565 165.776 62.9641C166.388 63.5717 166.732 64.3954 166.732 65.2543C166.732 66.1131 166.388 66.9368 165.776 67.5444C165.164 68.1521 164.334 68.4939 163.468 68.4949Z" fill="#F2F2F2"/>
<path d="M149.987 106.57H72.3846C71.5179 106.57 70.6866 106.229 70.0738 105.621C69.4609 105.013 69.1166 104.189 69.1166 103.329C69.1166 102.47 69.4609 101.646 70.0738 101.038C70.6866 100.43 71.5179 100.089 72.3846 100.089H149.987C150.416 100.089 150.841 100.173 151.238 100.336C151.634 100.498 151.994 100.737 152.298 101.038C152.601 101.339 152.842 101.696 153.006 102.089C153.171 102.483 153.255 102.904 153.255 103.329C153.255 103.755 153.171 104.176 153.006 104.57C152.842 104.963 152.601 105.32 152.298 105.621C151.994 105.922 151.634 106.161 151.238 106.323C150.841 106.486 150.416 106.57 149.987 106.57Z" fill="#F2F2F2"/>
<path d="M163.468 117.508H72.3845C71.5183 117.507 70.6881 117.165 70.076 116.557C69.4639 115.95 69.1201 115.126 69.1201 114.267C69.1201 113.408 69.4639 112.584 70.076 111.977C70.6881 111.369 71.5183 111.027 72.3845 111.026H163.468C164.334 111.027 165.164 111.369 165.776 111.977C166.388 112.584 166.732 113.408 166.732 114.267C166.732 115.126 166.388 115.95 165.776 116.557C165.164 117.165 164.334 117.507 163.468 117.508Z" fill="#F2F2F2"/>
<path d="M149.987 155.586H72.3846C71.5179 155.586 70.6866 155.244 70.0738 154.637C69.4609 154.029 69.1166 153.205 69.1166 152.345C69.1166 151.486 69.4609 150.661 70.0738 150.054C70.6866 149.446 71.5179 149.104 72.3846 149.104H149.987C150.416 149.104 150.842 149.187 151.239 149.35C151.636 149.513 151.996 149.751 152.3 150.052C152.604 150.353 152.845 150.711 153.01 151.104C153.174 151.498 153.259 151.919 153.259 152.345C153.259 152.771 153.174 153.193 153.01 153.586C152.845 153.979 152.604 154.337 152.3 154.638C151.996 154.939 151.636 155.177 151.239 155.34C150.842 155.503 150.416 155.586 149.987 155.586Z" fill="#F2F2F2"/>
<path d="M163.468 166.522H72.3845C71.5183 166.521 70.6881 166.179 70.076 165.572C69.4639 164.964 69.1201 164.14 69.1201 163.282C69.1201 162.423 69.4639 161.599 70.076 160.991C70.6881 160.384 71.5183 160.042 72.3845 160.041H163.468C164.334 160.042 165.164 160.384 165.776 160.991C166.388 161.599 166.732 162.423 166.732 163.282C166.732 164.14 166.388 164.964 165.776 165.572C165.164 166.179 164.334 166.521 163.468 166.522Z" fill="#F2F2F2"/>
<path d="M55.0008 73.4584H27.5381C27.1226 73.458 26.7243 73.2941 26.4305 73.0028C26.1367 72.7115 25.9715 72.3165 25.971 71.9046V47.6642C25.9715 47.2522 26.1367 46.8573 26.4305 46.566C26.7243 46.2747 27.1226 46.1108 27.5381 46.1104H55.0008C55.4163 46.1108 55.8146 46.2747 56.1084 46.566C56.4021 46.8573 56.5674 47.2522 56.5678 47.6642V71.9046C56.5674 72.3165 56.4021 72.7115 56.1084 73.0028C55.8146 73.2941 55.4163 73.458 55.0008 73.4584Z" fill="#E6E6E6"/>
<path d="M55.0008 122.473H27.5381C27.1226 122.473 26.7243 122.309 26.4305 122.017C26.1367 121.726 25.9715 121.331 25.971 120.919V96.6789C25.9715 96.2669 26.1367 95.8719 26.4305 95.5806C26.7243 95.2893 27.1226 95.1255 27.5381 95.125H55.0008C55.4163 95.1255 55.8146 95.2893 56.1084 95.5806C56.4021 95.8719 56.5674 96.2669 56.5678 96.6789V120.919C56.5674 121.331 56.4021 121.726 56.1083 122.017C55.8146 122.309 55.4163 122.473 55.0008 122.473Z" fill="#E6E6E6"/>
<path d="M55.0008 171.487H27.5381C27.1226 171.486 26.7243 171.322 26.4305 171.031C26.1367 170.74 25.9715 170.345 25.971 169.933V145.693C25.9715 145.281 26.1367 144.886 26.4305 144.594C26.7243 144.303 27.1226 144.139 27.5381 144.139H55.0008C55.4163 144.139 55.8146 144.303 56.1084 144.594C56.4021 144.886 56.5674 145.281 56.5678 145.693V169.933C56.5674 170.345 56.4021 170.74 56.1084 171.031C55.8146 171.322 55.4163 171.486 55.0008 171.487Z" fill="#E6E6E6"/>
<path d="M308.268 168.988L309.485 158.43L315.59 105.496L316.807 94.9391C317.392 89.8125 315.903 84.6651 312.666 80.6261C309.428 76.5871 304.708 73.9863 299.539 73.3944L161.029 57.6892C155.859 57.1088 150.668 58.5856 146.595 61.7957C142.522 65.0058 139.899 69.687 139.302 74.8122L139.299 74.8395L130.766 148.834L130.763 148.861C130.178 153.987 131.667 159.135 134.904 163.174C138.142 167.213 142.863 169.814 148.031 170.406L286.541 186.111C291.711 186.691 296.902 185.214 300.975 182.004C305.048 178.794 307.671 174.113 308.268 168.988Z" fill="#E6E6E6"/>
<path d="M302.655 168.35L304.097 155.845L309.752 106.805L311.194 94.3009C311.611 90.6502 310.55 86.9846 308.245 84.1083C305.94 81.232 302.578 79.38 298.897 78.9585L160.388 63.2531C156.706 62.8398 153.009 63.8916 150.109 66.1776C147.208 68.4635 145.34 71.7971 144.915 75.4469L144.912 75.4742L136.379 149.468L136.376 149.496C135.959 153.146 137.02 156.812 139.325 159.688C141.631 162.565 144.992 164.417 148.673 164.838L287.183 180.543C290.864 180.957 294.561 179.905 297.462 177.619C300.362 175.333 302.23 172 302.655 168.35Z" fill="white"/>
<path d="M279.983 101.258L202.883 92.5163C202.456 92.4683 202.043 92.3374 201.668 92.1311C201.292 91.9248 200.961 91.6471 200.694 91.3138C200.426 90.9806 200.228 90.5984 200.109 90.189C199.991 89.7797 199.955 89.3512 200.004 88.9281C200.053 88.505 200.185 88.0956 200.394 87.7233C200.602 87.351 200.883 87.0231 201.219 86.7583C201.555 86.4935 201.941 86.2971 202.354 86.1802C202.767 86.0633 203.199 86.0282 203.626 86.077L280.726 94.8192C281.586 94.9177 282.372 95.3508 282.91 96.0235C283.449 96.6961 283.696 97.5533 283.598 98.4066C283.5 99.2599 283.064 100.04 282.386 100.574C281.708 101.109 280.844 101.355 279.983 101.258Z" fill="#E6E6E6"/>
<path d="M292.124 113.643L201.63 103.382C201.204 103.334 200.791 103.204 200.415 102.997C200.039 102.791 199.709 102.513 199.441 102.18C199.174 101.847 198.975 101.465 198.857 101.055C198.739 100.646 198.703 100.217 198.752 99.7943C198.801 99.3713 198.933 98.9619 199.141 98.5896C199.35 98.2173 199.63 97.8894 199.966 97.6246C200.303 97.3598 200.688 97.1633 201.101 97.0464C201.514 96.9295 201.946 96.8944 202.373 96.9432L292.866 107.204C293.293 107.252 293.705 107.384 294.081 107.59C294.456 107.796 294.786 108.074 295.053 108.407C295.32 108.741 295.519 109.123 295.637 109.532C295.755 109.941 295.791 110.369 295.742 110.792C295.693 111.215 295.561 111.624 295.353 111.996C295.145 112.368 294.864 112.696 294.528 112.961C294.192 113.225 293.807 113.422 293.395 113.539C292.982 113.656 292.55 113.692 292.124 113.643Z" fill="#E6E6E6"/>
<path d="M289.601 135.315L156.185 120.187C155.325 120.089 154.539 119.656 154 118.983C153.462 118.31 153.215 117.453 153.313 116.6C153.411 115.747 153.847 114.967 154.525 114.432C155.203 113.897 156.067 113.651 156.928 113.748L290.343 128.876C290.77 128.924 291.183 129.055 291.558 129.261C291.934 129.467 292.265 129.745 292.532 130.078C292.8 130.412 292.998 130.794 293.117 131.203C293.235 131.612 293.271 132.041 293.222 132.464C293.173 132.887 293.041 133.296 292.832 133.669C292.624 134.041 292.343 134.369 292.007 134.634C291.671 134.898 291.285 135.095 290.872 135.212C290.459 135.329 290.027 135.364 289.601 135.315Z" fill="#E6E6E6"/>
<path d="M288.776 146.23L154.932 131.054C154.072 130.955 153.286 130.522 152.748 129.849C152.209 129.177 151.962 128.32 152.06 127.466C152.158 126.613 152.595 125.833 153.272 125.298C153.95 124.764 154.814 124.518 155.675 124.614L289.519 139.791C290.379 139.889 291.165 140.322 291.704 140.995C292.242 141.668 292.49 142.525 292.391 143.378C292.293 144.231 291.857 145.011 291.179 145.546C290.501 146.081 289.637 146.327 288.776 146.23Z" fill="#E6E6E6"/>
<path d="M287.145 156.607L153.73 141.479C153.303 141.431 152.89 141.3 152.515 141.094C152.139 140.888 151.808 140.61 151.54 140.277C151.273 139.943 151.075 139.561 150.956 139.152C150.838 138.743 150.802 138.314 150.851 137.891C150.9 137.468 151.032 137.059 151.241 136.686C151.449 136.314 151.729 135.986 152.066 135.721C152.402 135.456 152.788 135.26 153.201 135.143C153.614 135.026 154.046 134.991 154.472 135.04L287.888 150.168C288.748 150.266 289.534 150.699 290.073 151.372C290.611 152.044 290.858 152.902 290.76 153.755C290.662 154.608 290.226 155.388 289.548 155.923C288.87 156.457 288.006 156.703 287.145 156.607Z" fill="#E6E6E6"/>
<path d="M286.321 167.523L152.477 152.347C151.616 152.248 150.831 151.815 150.292 151.142C149.753 150.47 149.506 149.612 149.605 148.759C149.703 147.906 150.139 147.126 150.817 146.591C151.495 146.057 152.359 145.811 153.219 145.907L287.063 161.084C287.49 161.132 287.903 161.262 288.279 161.469C288.654 161.675 288.985 161.953 289.253 162.286C289.52 162.619 289.719 163.001 289.837 163.411C289.955 163.82 289.991 164.249 289.942 164.672C289.894 165.095 289.761 165.504 289.553 165.877C289.344 166.249 289.064 166.577 288.727 166.842C288.391 167.106 288.006 167.303 287.593 167.42C287.18 167.537 286.747 167.572 286.321 167.523Z" fill="#E6E6E6"/>
<path d="M183.791 106.357L156.506 103.263C156.093 103.216 155.716 103.008 155.457 102.685C155.199 102.363 155.08 101.952 155.127 101.543L157.904 77.4592C157.952 77.0499 158.161 76.6761 158.486 76.4198C158.812 76.1635 159.226 76.0456 159.639 76.0919L186.924 79.1857C187.336 79.2329 187.713 79.4406 187.972 79.7631C188.23 80.0856 188.349 80.4967 188.303 80.906L185.525 104.989C185.478 105.399 185.268 105.772 184.943 106.029C184.618 106.285 184.203 106.403 183.791 106.357Z" fill="#3684A4"/>
<path d="M343.592 258.936H254.287C254.179 258.936 254.075 258.893 253.999 258.817C253.922 258.741 253.879 258.639 253.879 258.531C253.879 258.424 253.922 258.321 253.999 258.245C254.075 258.17 254.179 258.127 254.287 258.127H343.592C343.701 258.127 343.804 258.17 343.881 258.245C343.957 258.321 344 258.424 344 258.531C344 258.639 343.957 258.741 343.881 258.817C343.804 258.893 343.701 258.936 343.592 258.936Z" fill="#3F3D56"/>
<path d="M310.059 104.456C309.921 104.993 309.905 105.554 310.009 106.098C310.114 106.643 310.338 107.158 310.666 107.607C310.993 108.056 311.416 108.429 311.904 108.699C312.392 108.969 312.934 109.129 313.492 109.169L316.255 117.389L321.702 116.943L317.636 105.388C317.641 104.455 317.301 103.552 316.679 102.851C316.058 102.15 315.199 101.7 314.265 101.585C313.331 101.47 312.387 101.699 311.612 102.228C310.836 102.757 310.284 103.55 310.059 104.456Z" fill="#FFB8B8"/>
<path d="M314.23 158.284C314.869 158.866 315.65 159.27 316.497 159.456C317.343 159.642 318.224 159.603 319.05 159.344C319.877 159.084 320.619 158.614 321.204 157.979C321.788 157.344 322.193 156.567 322.378 155.727L326.692 136.127C327.43 132.775 327.256 129.289 326.188 126.026L321.139 110.589C321.067 110.368 320.947 110.164 320.788 109.993C320.629 109.821 320.434 109.686 320.218 109.596C320.001 109.506 319.767 109.464 319.532 109.472C319.298 109.48 319.067 109.538 318.857 109.642L315.562 111.278C315.221 111.447 314.95 111.73 314.797 112.077C314.645 112.423 314.619 112.812 314.726 113.176L315.058 114.309C317.821 123.731 317.966 133.717 315.478 143.214L312.794 153.457C312.569 154.315 312.584 155.217 312.837 156.068C313.09 156.918 313.572 157.684 314.23 158.284Z" fill="#3684A4"/>
<path d="M296.967 254.708L292.305 254.708L290.088 236.877L296.969 236.877L296.967 254.708Z" fill="#FFB8B8"/>
<path d="M288.976 253.386H297.967V258.999H283.315C283.315 258.262 283.461 257.532 283.746 256.851C284.03 256.17 284.447 255.551 284.973 255.03C285.499 254.509 286.123 254.095 286.809 253.813C287.496 253.531 288.232 253.386 288.976 253.386Z" fill="#2F2E41"/>
<path d="M322.096 254.708L317.434 254.708L315.217 236.877L322.097 236.877L322.096 254.708Z" fill="#FFB8B8"/>
<path d="M314.104 253.386H323.095V258.999H308.443C308.443 258.262 308.589 257.532 308.874 256.851C309.158 256.17 309.575 255.551 310.101 255.03C310.627 254.509 311.251 254.095 311.938 253.813C312.624 253.531 313.36 253.386 314.104 253.386Z" fill="#2F2E41"/>
<path d="M308.443 127.951C313.974 127.951 318.458 123.504 318.458 118.019C318.458 112.534 313.974 108.088 308.443 108.088C302.911 108.088 298.427 112.534 298.427 118.019C298.427 123.504 302.911 127.951 308.443 127.951Z" fill="#FFB8B8"/>
<path d="M274.196 182.789C274.266 182.239 274.456 181.711 274.754 181.242C275.052 180.773 275.45 180.375 275.921 180.075C276.391 179.775 276.921 179.581 277.475 179.507C278.029 179.432 278.593 179.479 279.127 179.644L284.724 172.99L289.631 175.377L281.594 184.663C281.255 185.534 280.606 186.251 279.769 186.679C278.933 187.107 277.967 187.215 277.055 186.985C276.143 186.754 275.349 186.199 274.822 185.426C274.295 184.653 274.072 183.715 274.196 182.789Z" fill="#FFB8B8"/>
<path d="M310.881 127.951C312.389 127.983 313.886 127.699 315.274 127.116C316.663 126.534 317.912 125.667 318.938 124.572C319.965 123.477 320.746 122.179 321.231 120.763C321.716 119.347 321.893 117.846 321.75 116.357C321.608 114.869 321.15 113.427 320.406 112.127C319.662 110.827 318.648 109.697 317.433 108.813C316.217 107.929 314.826 107.309 313.352 106.996C311.878 106.683 310.353 106.682 308.879 106.995C306.676 105.668 304.116 104.776 301.549 105.003C298.982 105.23 296.444 106.741 295.484 109.112C294.525 111.483 295.556 114.609 297.942 115.573C299.472 116.191 301.2 115.891 302.833 115.642C304.465 115.393 306.246 115.23 307.667 116.066C309.088 116.901 309.727 119.141 308.455 120.185C307.78 120.761 307.298 121.527 307.073 122.381C306.849 123.234 306.892 124.136 307.197 124.965C307.836 126.605 309.582 127.923 310.881 127.951Z" fill="#2F2E41"/>
<path d="M323.307 182.396L325.084 249.253C325.09 249.476 325.049 249.698 324.965 249.904C324.88 250.111 324.753 250.298 324.593 250.454C324.432 250.609 324.24 250.73 324.03 250.809C323.819 250.888 323.595 250.923 323.37 250.911L317.518 250.615C317.144 250.596 316.789 250.451 316.511 250.203C316.232 249.955 316.049 249.62 315.99 249.254L309.029 205.83C308.999 205.644 308.905 205.474 308.762 205.35C308.62 205.226 308.438 205.154 308.249 205.148C308.059 205.143 307.873 205.202 307.723 205.318C307.573 205.433 307.469 205.597 307.427 205.78L298.004 247.59C297.954 247.813 297.856 248.024 297.718 248.207C297.579 248.39 297.403 248.542 297.201 248.653C296.999 248.764 296.775 248.831 296.545 248.849C296.315 248.868 296.083 248.838 295.866 248.761L290.058 248.409C289.721 248.291 289.434 248.066 289.239 247.77C289.044 247.474 288.952 247.123 288.977 246.77L294.047 181.764L323.307 182.396Z" fill="#2F2E41"/>
<path d="M326.159 150.641C327.139 140.51 319.627 131.346 309.388 130.625C304.977 130.314 298.128 130.203 295.871 135.937C289.07 153.209 300.975 152.789 296.873 167.753C292.772 182.717 289.149 183.575 294.777 184.656C300.405 185.736 325.714 192.115 324.675 181.583C324.036 175.108 325.182 160.747 326.159 150.641Z" fill="#3684A4"/>
<path d="M297.891 134.181C298.699 133.871 299.576 133.777 300.432 133.91C301.288 134.043 302.094 134.398 302.768 134.939C303.442 135.479 303.96 136.186 304.271 136.989C304.581 137.791 304.672 138.661 304.535 139.51L301.338 159.32C300.792 162.707 299.347 165.89 297.152 168.542L286.77 181.087C286.621 181.267 286.435 181.413 286.224 181.515C286.013 181.617 285.782 181.673 285.547 181.678C285.312 181.683 285.079 181.638 284.863 181.546C284.648 181.454 284.455 181.316 284.297 181.143L281.831 178.428C281.576 178.146 281.428 177.785 281.413 177.407C281.399 177.029 281.518 176.658 281.751 176.358L282.478 175.423C288.517 167.651 292.328 158.405 293.506 148.663L294.777 138.156C294.883 137.276 295.229 136.441 295.778 135.74C296.326 135.04 297.057 134.501 297.891 134.181Z" fill="#3684A4"/>
</g>
<defs>
<clipPath id="clip0_3152_8675">
<rect width="344" height="259" fill="white"/>
</clipPath>
</defs>
</svg>
