<svg width="32" height="32" viewBox="0 0 32 32" fill="none" xmlns="http://www.w3.org/2000/svg">
<rect width="32" height="32" rx="16" fill="#EAECF0"/>
<path d="M15.9999 18.1619C17.1941 18.1619 18.1621 17.1938 18.1621 15.9997C18.1621 14.8056 17.1941 13.8375 15.9999 13.8375C14.8058 13.8375 13.8378 14.8056 13.8378 15.9997C13.8378 17.1938 14.8058 18.1619 15.9999 18.1619Z" stroke="#6F7784" stroke-width="1.08108" stroke-linecap="round" stroke-linejoin="round"/>
<path d="M20.8484 17.9653C20.7612 18.1629 20.7352 18.3821 20.7737 18.5947C20.8123 18.8072 20.9136 19.0033 21.0646 19.1578L21.1039 19.1971C21.2258 19.3188 21.3224 19.4633 21.3884 19.6224C21.4543 19.7815 21.4883 19.952 21.4883 20.1242C21.4883 20.2964 21.4543 20.4669 21.3884 20.626C21.3224 20.7851 21.2258 20.9296 21.1039 21.0513C20.9822 21.1731 20.8377 21.2698 20.6786 21.3357C20.5196 21.4017 20.349 21.4356 20.1768 21.4356C20.0046 21.4356 19.8341 21.4017 19.675 21.3357C19.516 21.2698 19.3714 21.1731 19.2497 21.0513L19.2104 21.012C19.056 20.8609 18.8599 20.7596 18.6473 20.7211C18.4348 20.6825 18.2156 20.7085 18.018 20.7958C17.8242 20.8788 17.6589 21.0167 17.5425 21.1925C17.4261 21.3683 17.3636 21.5743 17.3628 21.7851V21.8965C17.3628 22.244 17.2247 22.5773 16.9789 22.8231C16.7332 23.0688 16.3999 23.2069 16.0523 23.2069C15.7048 23.2069 15.3715 23.0688 15.1258 22.8231C14.88 22.5773 14.7419 22.244 14.7419 21.8965V21.8375C14.7369 21.6207 14.6667 21.4103 14.5405 21.2339C14.4143 21.0574 14.2379 20.9231 14.0343 20.8482C13.8367 20.761 13.6175 20.7349 13.405 20.7735C13.1924 20.812 12.9963 20.9133 12.8419 21.0644L12.8026 21.1037C12.6809 21.2255 12.5363 21.3222 12.3772 21.3881C12.2182 21.4541 12.0477 21.488 11.8754 21.488C11.7032 21.488 11.5327 21.4541 11.3736 21.3881C11.2146 21.3222 11.07 21.2255 10.9483 21.1037C10.8265 20.982 10.7298 20.8375 10.6639 20.6784C10.598 20.5193 10.564 20.3488 10.564 20.1766C10.564 20.0044 10.598 19.8339 10.6639 19.6748C10.7298 19.5157 10.8265 19.3712 10.9483 19.2495L10.9876 19.2102C11.1387 19.0558 11.24 18.8596 11.2786 18.6471C11.3171 18.4345 11.2911 18.2153 11.2039 18.0177C11.1208 17.8239 10.9829 17.6586 10.8071 17.5422C10.6313 17.4258 10.4253 17.3633 10.2145 17.3625H10.1031C9.75559 17.3625 9.42228 17.2244 9.17653 16.9787C8.93078 16.733 8.79272 16.3996 8.79272 16.0521C8.79272 15.7046 8.93078 15.3713 9.17653 15.1255C9.42228 14.8798 9.75559 14.7417 10.1031 14.7417H10.1621C10.379 14.7366 10.5893 14.6664 10.7657 14.5402C10.9422 14.414 11.0766 14.2377 11.1514 14.0341C11.2387 13.8365 11.2647 13.6173 11.2261 13.4047C11.1876 13.1922 11.0863 12.996 10.9352 12.8416L10.8959 12.8023C10.7741 12.6806 10.6774 12.5361 10.6115 12.377C10.5455 12.2179 10.5116 12.0474 10.5116 11.8752C10.5116 11.703 10.5455 11.5325 10.6115 11.3734C10.6774 11.2143 10.7741 11.0698 10.8959 10.9481C11.0176 10.8263 11.1621 10.7296 11.3212 10.6637C11.4803 10.5977 11.6508 10.5638 11.823 10.5638C11.9952 10.5638 12.1658 10.5977 12.3248 10.6637C12.4839 10.7296 12.6284 10.8263 12.7501 10.9481L12.7894 10.9874C12.9439 11.1385 13.14 11.2398 13.3525 11.2783C13.5651 11.3169 13.7843 11.2908 13.9819 11.2036H14.0343C14.2281 11.1206 14.3934 10.9827 14.5098 10.8069C14.6262 10.6311 14.6887 10.4251 14.6895 10.2143V10.1029C14.6895 9.75534 14.8276 9.42204 15.0733 9.17629C15.3191 8.93054 15.6524 8.79248 15.9999 8.79248C16.3475 8.79248 16.6808 8.93054 16.9265 9.17629C17.1723 9.42204 17.3103 9.75534 17.3103 10.1029V10.1619C17.3112 10.3727 17.3736 10.5787 17.4901 10.7545C17.6065 10.9302 17.7717 11.0681 17.9655 11.1512C18.1632 11.2384 18.3824 11.2644 18.5949 11.2259C18.8075 11.1874 19.0036 11.086 19.158 10.935L19.1973 10.8957C19.319 10.7738 19.4635 10.6772 19.6226 10.6112C19.7817 10.5453 19.9522 10.5114 20.1244 10.5114C20.2966 10.5114 20.4671 10.5453 20.6262 10.6112C20.7853 10.6772 20.9298 10.7738 21.0515 10.8957C21.1734 11.0174 21.27 11.1619 21.336 11.321C21.4019 11.4801 21.4359 11.6506 21.4359 11.8228C21.4359 11.995 21.4019 12.1655 21.336 12.3246C21.27 12.4837 21.1734 12.6282 21.0515 12.7499L21.0122 12.7892C20.8612 12.9436 20.7598 13.1397 20.7213 13.3523C20.6828 13.5648 20.7088 13.7841 20.796 13.9817V14.0341C20.8791 14.2279 21.017 14.3931 21.1927 14.5096C21.3685 14.626 21.5745 14.6884 21.7854 14.6893H21.8967C22.2443 14.6893 22.5776 14.8273 22.8233 15.0731C23.0691 15.3188 23.2071 15.6521 23.2071 15.9997C23.2071 16.3472 23.0691 16.6805 22.8233 16.9263C22.5776 17.172 22.2443 17.3101 21.8967 17.3101H21.8378C21.6269 17.3109 21.4209 17.3734 21.2452 17.4898C21.0694 17.6062 20.9315 17.7715 20.8484 17.9653Z" stroke="#6F7784" stroke-width="1.08108" stroke-linecap="round" stroke-linejoin="round"/>
</svg>
