<svg width="48" height="48" viewBox="0 0 48 48" fill="none" xmlns="http://www.w3.org/2000/svg">
<rect width="48" height="48" rx="12" fill="#EAECF0"/>
<path d="M35.3907 13.4878C35.3669 13.3146 35.2153 13.2189 35.09 13.2084C34.9649 13.1979 32.3182 13.0017 32.3182 13.0017C32.3182 13.0017 30.48 11.1768 30.2784 10.9749C30.0764 10.773 29.6822 10.8344 29.5293 10.8795C29.5066 10.8861 29.1276 11.0031 28.5005 11.197C27.8864 9.43022 26.8029 7.80644 24.8964 7.80644C24.8438 7.80644 24.7896 7.80865 24.7354 7.81169C24.1932 7.09468 23.5215 6.7832 22.9415 6.7832C18.5005 6.7832 16.3788 12.3348 15.7135 15.1561C13.988 15.6908 12.762 16.0709 12.6054 16.1201C11.6422 16.4222 11.6117 16.4526 11.4853 17.3602C11.3899 18.0474 8.86957 37.5383 8.86957 37.5383L28.5085 41.218L39.1497 38.9159C39.1497 38.9159 35.4142 13.6609 35.3907 13.4878ZM27.415 11.5328C26.9218 11.6855 26.3611 11.859 25.7534 12.0471C25.7539 11.9301 25.7545 11.8147 25.7545 11.6889C25.7545 10.5907 25.602 9.70657 25.3575 9.00561C26.3398 9.12898 26.994 10.2465 27.415 11.5328ZM24.139 9.22331C24.412 9.90768 24.5896 10.8897 24.5896 12.215C24.5896 12.2828 24.589 12.3447 24.5885 12.4075C23.5077 12.7423 22.3334 13.1057 21.1564 13.4703C21.8173 10.9198 23.056 9.68804 24.139 9.22331ZM22.8195 7.97435C23.0112 7.97435 23.2043 8.03936 23.389 8.1666C21.9658 8.83631 20.4402 10.5232 19.796 13.8916C18.8543 14.1832 17.934 14.4681 17.0831 14.7317C17.8377 12.1624 19.6297 7.97435 22.8195 7.97435Z" fill="#95BF46"/>
<path d="M35.0905 13.2075C34.9655 13.197 32.3188 13.0009 32.3188 13.0009C32.3188 13.0009 30.4806 11.176 30.2789 10.974C30.2034 10.8988 30.1016 10.8603 29.9951 10.8438L28.5102 41.2169L39.1503 38.9151C39.1503 38.9151 35.4147 13.6601 35.3912 13.4869C35.3674 13.3137 35.2158 13.218 35.0905 13.2075Z" fill="#5E8E3E"/>
<path d="M24.8963 19.0885L23.5842 22.9914C23.5842 22.9914 22.4346 22.3778 21.0255 22.3778C18.9596 22.3778 18.8556 23.6743 18.8556 24.001C18.8556 25.7836 23.5024 26.4666 23.5024 30.642C23.5024 33.9269 21.4188 36.0422 18.6094 36.0422C15.2382 36.0422 13.5143 33.944 13.5143 33.944L14.4169 30.9617C14.4169 30.9617 16.189 32.4832 17.6844 32.4832C18.6614 32.4832 19.0589 31.7139 19.0589 31.1518C19.0589 28.8265 15.2468 28.7227 15.2468 24.902C15.2468 21.6862 17.5549 18.5742 22.2141 18.5742C24.0094 18.5742 24.8963 19.0885 24.8963 19.0885Z" fill="white"/>
</svg>
