<svg width="48" height="48" viewBox="0 0 48 48" fill="none" xmlns="http://www.w3.org/2000/svg">
<rect width="48" height="48" rx="12" fill="#EAECF0"/>
<path fill-rule="evenodd" clip-rule="evenodd" d="M16.1568 27.5724C16.1568 29.1495 14.884 30.4222 13.307 30.4222C11.73 30.4222 10.4572 29.1452 10.4572 27.5724C10.4572 25.9997 11.73 24.7227 13.307 24.7227H16.1568V27.5724ZM17.5795 27.5724C17.5795 25.9954 18.8523 24.7227 20.4293 24.7227C22.0063 24.7227 23.2791 25.9954 23.2791 27.5724V34.6947C23.2791 36.2718 22.0063 37.5445 20.4293 37.5445C18.8523 37.5445 17.5795 36.2718 17.5795 34.6947V27.5724Z" fill="#E01E5A"/>
<path fill-rule="evenodd" clip-rule="evenodd" d="M20.4283 16.1351C18.8513 16.1351 17.5785 14.8623 17.5785 13.2853C17.5785 11.7083 18.8513 10.4355 20.4283 10.4355C22.0053 10.4355 23.2781 11.7083 23.2781 13.2853V16.1351H20.4283ZM20.4283 17.5793C22.0053 17.5793 23.2781 18.852 23.2781 20.4291C23.2781 22.0061 22.0053 23.2788 20.4283 23.2788H13.2846C11.7075 23.2788 10.4348 22.0018 10.4348 20.4291C10.4348 18.8563 11.7075 17.5793 13.2846 17.5793H20.4283Z" fill="#36C5F0"/>
<path fill-rule="evenodd" clip-rule="evenodd" d="M31.8438 20.4291C31.8438 18.852 33.1165 17.5793 34.6935 17.5793C36.2706 17.5793 37.5433 18.852 37.5433 20.4291C37.5433 22.0061 36.2706 23.2788 34.6935 23.2788H31.8438V20.4291ZM30.421 20.4291C30.421 22.0061 29.1483 23.2788 27.5712 23.2788C25.9942 23.2788 24.7215 22.0061 24.7215 20.4291V13.2853C24.7215 11.7083 25.9942 10.4355 27.5712 10.4355C29.1483 10.4355 30.421 11.7083 30.421 13.2853V20.4291Z" fill="#2EB67D"/>
<path fill-rule="evenodd" clip-rule="evenodd" d="M27.5712 31.845C29.1483 31.845 30.421 33.1177 30.421 34.6947C30.421 36.2718 29.1483 37.5445 27.5712 37.5445C25.9942 37.5445 24.7215 36.2718 24.7215 34.6947V31.845H27.5712ZM27.5712 30.4222C25.9942 30.4222 24.7215 29.1495 24.7215 27.5724C24.7215 25.9954 25.9942 24.7227 27.5712 24.7227H34.715C36.292 24.7227 37.5648 25.9954 37.5648 27.5724C37.5648 29.1495 36.292 30.4222 34.715 30.4222H27.5712Z" fill="#ECB22E"/>
</svg>
