<svg width="64" height="64" viewBox="0 0 64 64" fill="none" xmlns="http://www.w3.org/2000/svg">
<rect width="64" height="64" rx="32" fill="#E4F1F6"/>
<path d="M32.6672 20.0033H26.4005C24.1603 20.0033 23.0402 20.0033 22.1845 20.4392C21.4319 20.8227 20.82 21.4346 20.4365 22.1873C20.0005 23.0429 20.0005 24.163 20.0005 26.4033V37.6033C20.0005 39.8435 20.0005 40.9636 20.4365 41.8192C20.82 42.5719 21.4319 43.1838 22.1845 43.5673C23.0402 44.0033 24.1603 44.0033 26.4005 44.0033H38.6672C39.9071 44.0033 40.5271 44.0033 41.0358 43.867C42.4161 43.4971 43.4943 42.4189 43.8642 41.0385C44.0005 40.5299 44.0005 39.9099 44.0005 38.6699M41.3338 26.6699V18.6699M37.3338 22.6699H45.3338M30.0005 27.3366C30.0005 28.8093 28.8066 30.0033 27.3338 30.0033C25.8611 30.0033 24.6672 28.8093 24.6672 27.3366C24.6672 25.8638 25.8611 24.6699 27.3338 24.6699C28.8066 24.6699 30.0005 25.8638 30.0005 27.3366ZM35.9872 31.8941L24.7087 42.1473C24.0743 42.724 23.7571 43.0124 23.7291 43.2622C23.7047 43.4787 23.7878 43.6934 23.9514 43.8373C24.1402 44.0033 24.5689 44.0033 25.4262 44.0033H37.9418C39.8607 44.0033 40.8201 44.0033 41.5737 43.6809C42.5197 43.2762 43.2734 42.5225 43.6781 41.5765C44.0005 40.8229 44.0005 39.8635 44.0005 37.9446C44.0005 37.2989 44.0005 36.9761 43.9299 36.6755C43.8412 36.2976 43.6711 35.9437 43.4315 35.6385C43.2408 35.3955 42.9887 35.1939 42.4846 34.7905L38.7549 31.8068C38.2503 31.4031 37.998 31.2013 37.7202 31.1301C37.4753 31.0673 37.2176 31.0754 36.9772 31.1535C36.7044 31.2421 36.4653 31.4595 35.9872 31.8941Z" stroke="#3684A4" stroke-width="2" stroke-linecap="round" stroke-linejoin="round"/>
</svg>
