<svg width="57" height="56" viewBox="0 0 57 56" fill="none" xmlns="http://www.w3.org/2000/svg">
<rect x="0.725006" width="56" height="56" rx="28" fill="#EAECF0"/>
<path d="M44.6093 35.2769C44.3887 34.6722 43.9638 34.3453 43.4817 34.0839C43.3918 34.0348 43.3101 33.9858 43.2365 33.9531C43.0894 33.8796 42.9423 33.806 42.7953 33.7325C41.2917 32.9317 40.115 31.9348 39.306 30.7417C39.0772 30.4067 38.873 30.0472 38.7095 29.6794C38.636 29.4833 38.6442 29.3689 38.6932 29.2627C38.7422 29.181 38.8076 29.1156 38.8893 29.0584C39.1508 28.8868 39.4123 28.7152 39.592 28.6008C39.9107 28.3884 40.1722 28.2249 40.3357 28.1105C40.9485 27.6774 41.3816 27.2198 41.6513 26.705C42.0353 25.986 42.0843 25.1443 41.7902 24.3843C41.3816 23.3057 40.3683 22.6438 39.1344 22.6438C38.873 22.6438 38.6196 22.6683 38.3582 22.7255C38.2928 22.7419 38.2192 22.7582 38.1539 22.7746C38.162 22.0391 38.1457 21.2629 38.0803 20.4947C37.8515 17.8063 36.9036 16.4008 35.9231 15.2813C35.2939 14.5786 34.5584 13.9821 33.7331 13.5163C32.2459 12.6665 30.5544 12.2334 28.7158 12.2334C26.8773 12.2334 25.1939 12.6665 23.7067 13.5163C22.8814 13.9821 22.146 14.5786 21.5168 15.2813C20.5362 16.4008 19.5965 17.8145 19.3595 20.4947C19.2942 21.2629 19.2778 22.0391 19.286 22.7746C19.2206 22.7582 19.1552 22.7419 19.0817 22.7255C18.8284 22.6683 18.5669 22.6438 18.3136 22.6438C17.0797 22.6438 16.0664 23.3139 15.6579 24.3843C15.3637 25.1443 15.4127 25.986 15.7968 26.705C16.0664 27.2198 16.4995 27.6774 17.1124 28.1105C17.2758 28.2249 17.5291 28.3884 17.856 28.6008C18.0276 28.7152 18.2809 28.8786 18.5342 29.0421C18.6241 29.0993 18.6976 29.1728 18.7548 29.2627C18.8039 29.3689 18.812 29.4833 18.7303 29.6958C18.5669 30.0553 18.3708 30.4067 18.142 30.7336C17.3494 31.8939 16.2054 32.8827 14.7508 33.6753C13.9827 34.0839 13.1819 34.3535 12.8387 35.2769C12.5854 35.9715 12.7488 36.7559 13.3944 37.426C13.6313 37.6711 13.9092 37.8836 14.2115 38.047C14.8407 38.3902 15.5108 38.6599 16.2135 38.8478C16.3606 38.8887 16.4914 38.9459 16.6139 39.0276C16.8509 39.2319 16.8182 39.5424 17.1287 40C17.284 40.237 17.4883 40.4412 17.7171 40.6047C18.379 41.0623 19.1226 41.0868 19.907 41.1195C20.6179 41.144 21.4187 41.1767 22.3421 41.479C22.7262 41.6016 23.1184 41.8467 23.576 42.1327C24.6791 42.811 26.1827 43.7343 28.7077 43.7343C31.2327 43.7343 32.7444 42.8028 33.8557 42.1246C34.3133 41.8467 34.7055 41.6016 35.0732 41.479C35.9884 41.1767 36.7974 41.144 37.5083 41.1195C38.2928 41.0868 39.0364 41.0623 39.6983 40.6047C39.9761 40.4086 40.2049 40.1634 40.3683 39.8692C40.5971 39.4852 40.589 39.2155 40.8014 39.0276C40.9158 38.9459 41.0466 38.8887 41.1773 38.856C41.8801 38.668 42.5665 38.3984 43.2038 38.047C43.5225 37.8754 43.8167 37.6466 44.0618 37.377L44.07 37.3688C44.7074 36.7151 44.8626 35.947 44.6093 35.2769ZM42.3703 36.4781C41.0057 37.2299 40.0905 37.1482 39.3878 37.6058C38.7831 37.9898 39.1426 38.8233 38.7095 39.1256C38.1702 39.4934 36.585 39.1011 34.5421 39.7794C32.8506 40.335 31.7801 41.9448 28.7404 41.9448C25.7006 41.9448 24.6546 40.3432 22.9386 39.7794C20.8958 39.1011 19.3105 39.5015 18.7712 39.1256C18.3381 38.8233 18.6895 37.9898 18.093 37.6058C17.382 37.1482 16.475 37.2299 15.1104 36.4781C14.236 35.996 14.7345 35.7018 15.0205 35.5629C19.9724 33.1687 20.765 29.467 20.7977 29.1892C20.8386 28.8541 20.8876 28.5926 20.5199 28.2576C20.1685 27.9308 18.5996 26.9584 18.1583 26.656C17.4392 26.1494 17.1206 25.6509 17.3575 25.0299C17.521 24.605 17.9214 24.4415 18.3381 24.4415C18.4688 24.4415 18.5996 24.4579 18.7303 24.4824C19.523 24.654 20.2911 25.0462 20.7323 25.1606C20.7895 25.177 20.8386 25.1851 20.8958 25.1851C21.1327 25.1851 21.2145 25.0626 21.1981 24.7929C21.1491 23.9267 21.0265 22.2434 21.1654 20.6663C21.3534 18.5009 22.0479 17.4223 22.8814 16.4744C23.2818 16.0168 25.1531 14.0393 28.7404 14.0393C32.3276 14.0393 34.1989 16.0086 34.5993 16.4662C35.4328 17.4141 36.1274 18.4927 36.3153 20.6582C36.4542 22.2353 36.3316 23.9186 36.2744 24.7847C36.2581 25.0707 36.3398 25.177 36.5768 25.177C36.634 25.177 36.683 25.1688 36.7402 25.1525C37.1815 25.0462 37.9496 24.6458 38.7422 24.4742C38.873 24.4415 39.0037 24.4334 39.1344 24.4334C39.5512 24.4334 39.9516 24.5968 40.115 25.0217C40.352 25.6428 40.0333 26.1412 39.3142 26.6478C38.8811 26.9502 37.3122 27.9226 36.9527 28.2494C36.585 28.5845 36.634 28.846 36.6748 29.181C36.7075 29.4588 37.5002 33.1605 42.4521 35.5547C42.7462 35.6936 43.2365 35.996 42.3703 36.4781Z" fill="#3684A4"/>
</svg>
