<svg width="18" height="20" viewBox="0 0 18 20" fill="none" xmlns="http://www.w3.org/2000/svg">
<path d="M1.0127 11.25C1.11271 11.25 1.20698 11.2942 1.27692 11.3657C1.36967 11.4604 1.46815 11.5477 1.56871 11.6274C2.05108 12.0096 2.69793 12.3169 3.42394 12.5592C4.88457 13.0469 6.85302 13.3334 9.00033 13.3334C11.1476 13.3334 13.1161 13.0469 14.5767 12.5592C15.3027 12.3169 15.9496 12.0096 16.4319 11.6274C16.5325 11.5477 16.631 11.4604 16.7237 11.3657C16.7937 11.2942 16.8879 11.25 16.9879 11.25C17.1789 11.25 17.3337 11.4048 17.3337 11.5958V15.8334C17.3337 16.5412 16.906 17.0851 16.4319 17.4607C15.9496 17.843 15.3027 18.1502 14.5767 18.3926C13.1161 18.8802 11.1476 19.1667 9.00033 19.1667C6.85302 19.1667 4.88457 18.8802 3.42394 18.3926C2.69793 18.1502 2.05108 17.843 1.56871 17.4607C1.09465 17.0851 0.666992 16.5412 0.666992 15.8334V11.5958C0.666992 11.4048 0.821773 11.25 1.0127 11.25Z" fill="white"/>
<path fill-rule="evenodd" clip-rule="evenodd" d="M16.4267 2.53909C16.9012 2.91303 17.3337 3.45675 17.3337 4.16671V8.33337C17.3337 9.04119 16.906 9.58508 16.4319 9.96073C15.9496 10.343 15.3027 10.6502 14.5767 10.8926C13.1161 11.3802 11.1476 11.6667 9.00033 11.6667C6.85302 11.6667 4.88457 11.3802 3.42394 10.8926C2.69793 10.6502 2.05108 10.343 1.56871 9.96073C1.09465 9.58508 0.666992 9.04119 0.666992 8.33337V4.16671C0.666992 3.45675 1.0994 2.91303 1.5739 2.53909C2.05779 2.15773 2.70636 1.85075 3.4335 1.60837C4.8965 1.1207 6.86461 0.833374 9.00033 0.833374C11.136 0.833374 13.1041 1.1207 14.5671 1.60837C15.2943 1.85075 15.9429 2.15773 16.4267 2.53909ZM2.33366 4.16665C2.33366 4.16665 2.33365 4.16236 2.3362 4.15396C2.33903 4.14468 2.34602 4.12633 2.36289 4.09885C2.39826 4.04123 2.47039 3.9546 2.60552 3.8481C2.88067 3.63126 3.33046 3.39954 3.96055 3.18951C5.21201 2.77236 6.9939 2.50004 9.00033 2.50004C11.0068 2.50004 12.7886 2.77236 14.0401 3.18951C14.6702 3.39954 15.12 3.63126 15.3951 3.8481C15.5303 3.9546 15.6024 4.04123 15.6378 4.09885C15.6546 4.12633 15.6616 4.14468 15.6644 4.15396C15.667 4.16236 15.667 4.16689 15.667 4.16689C15.667 4.16689 15.6669 4.17147 15.6644 4.17945C15.6616 4.18874 15.6546 4.20708 15.6378 4.23457C15.6024 4.29219 15.5303 4.37881 15.3951 4.48531C15.12 4.70215 14.6702 4.93388 14.0401 5.14391C12.7886 5.56106 11.0068 5.83337 9.00033 5.83337C6.9939 5.83337 5.21201 5.56106 3.96055 5.14391C3.33046 4.93388 2.88067 4.70215 2.60552 4.48531C2.47039 4.37881 2.39826 4.29219 2.36289 4.23457C2.34602 4.20708 2.33903 4.18874 2.3362 4.17945C2.33381 4.17158 2.33366 4.16665 2.33366 4.16665Z" fill="white"/>
</svg>
