<svg width="48" height="48" viewBox="0 0 48 48" fill="none" xmlns="http://www.w3.org/2000/svg">
<rect width="48" height="48" rx="24" fill="#EAECF0"/>
<path fill-rule="evenodd" clip-rule="evenodd" d="M19.1543 16.7222H28.8453C29.1647 16.7221 29.481 16.7849 29.7762 16.9071C30.0714 17.0293 30.3396 17.2084 30.5655 17.4343C30.7914 17.6601 30.9706 17.9283 31.0929 18.2234C31.2152 18.5185 31.2781 18.8348 31.2781 19.1543V28.8446C31.2781 30.1882 30.1888 31.2774 28.8453 31.2774H19.1543C17.8109 31.277 16.7221 30.1879 16.7221 28.8446V19.1543C16.7221 17.811 17.811 16.7222 19.1543 16.7222ZM27.8658 28.6313C28.2897 28.6313 28.6334 28.2876 28.6334 27.8637L28.6313 20.1366C28.6313 19.7126 28.2876 19.369 27.8636 19.369H20.1373C20.0364 19.369 19.9365 19.3888 19.8433 19.4275C19.7502 19.4661 19.6655 19.5227 19.5942 19.594C19.5229 19.6654 19.4664 19.7501 19.4279 19.8433C19.3893 19.9365 19.3695 20.0364 19.3696 20.1373V27.8637C19.3696 28.2876 19.7133 28.6313 20.1373 28.6313H27.8658Z" fill="#1A1A1A"/>
<path d="M22.4562 25.9734C22.3399 25.9725 22.2288 25.9257 22.1469 25.8431C22.065 25.7606 22.019 25.649 22.019 25.5328V22.4481C22.0187 22.3901 22.0299 22.3325 22.052 22.2788C22.074 22.2251 22.1064 22.1763 22.1473 22.1352C22.1883 22.094 22.2369 22.0614 22.2905 22.0391C22.3441 22.0168 22.4016 22.0054 22.4597 22.0054H25.5486C25.6066 22.0055 25.664 22.017 25.7176 22.0393C25.7711 22.0617 25.8198 22.0943 25.8607 22.1354C25.9016 22.1765 25.934 22.2253 25.9561 22.279C25.9781 22.3326 25.9894 22.3901 25.9892 22.4481V25.532C25.9894 25.5901 25.9782 25.6476 25.9561 25.7012C25.9341 25.7549 25.9017 25.8037 25.8608 25.8448C25.8198 25.886 25.7712 25.9186 25.7176 25.9409C25.6641 25.9632 25.6066 25.9748 25.5486 25.9748L22.4562 25.9734Z" fill="#1A1A1A"/>
</svg>
