<svg width="48" height="48" viewBox="0 0 48 48" fill="none" xmlns="http://www.w3.org/2000/svg">
<rect width="48" height="48" rx="12" fill="#EAECF0"/>
<path d="M21.6697 18.0744C21.6697 16.822 22.7144 16.339 24.388 16.339C26.8255 16.339 29.9201 17.0859 32.3575 18.4001V10.8575C29.701 9.79597 27.0501 9.3916 24.3936 9.3916C17.8956 9.3916 13.5654 12.7838 13.5654 18.4563C13.5654 27.3244 25.7416 25.8867 25.7416 29.7113C25.7416 31.194 24.4554 31.6714 22.6694 31.6714C20.0186 31.6714 16.5926 30.5763 13.9024 29.116V36.333C16.6695 37.5267 19.6502 38.1458 22.6638 38.1526C29.3247 38.1526 33.9133 35.2883 33.9133 29.526C33.9133 19.9671 21.6697 21.68 21.6697 18.0744Z" fill="#6772E5"/>
</svg>
