<svg width="48" height="48" viewBox="0 0 48 48" fill="none" xmlns="http://www.w3.org/2000/svg">
<rect width="48" height="48" rx="24" fill="#EAECF0"/>
<path d="M22.8348 21.0372C22.8348 20.411 23.3571 20.1695 24.1939 20.1695C25.4127 20.1695 26.9599 20.543 28.1787 21.2001V17.4287C26.8504 16.898 25.525 16.6958 24.1967 16.6958C20.9477 16.6958 18.7826 18.3919 18.7826 21.2281C18.7826 25.6622 24.8707 24.9433 24.8707 26.8557C24.8707 27.597 24.2276 27.8357 23.3346 27.8357C22.0092 27.8357 20.2962 27.2881 18.9511 26.558V30.1665C20.3346 30.7634 21.825 31.0729 23.3318 31.0763C26.6623 31.0763 28.9565 29.6442 28.9565 26.763C28.9565 21.9835 22.8348 22.84 22.8348 21.0372Z" fill="#6772E5"/>
</svg>
