<svg width="48" height="48" viewBox="0 0 48 48" fill="none" xmlns="http://www.w3.org/2000/svg">
<rect width="48" height="48" rx="12" fill="#EAECF0"/>
<path d="M30.2214 21.4686H38.3574C39.1269 21.4686 39.7501 22.0896 39.7501 22.8568V30.2548C39.7495 30.9261 39.6167 31.5907 39.3593 32.2107C39.1018 32.8307 38.7248 33.3939 38.2497 33.8682C37.7746 34.3425 37.2107 34.7185 36.5902 34.9749C35.9698 35.2313 35.3049 35.3629 34.6336 35.3623H34.6111C33.9398 35.3629 33.2749 35.2313 32.6545 34.9749C32.0341 34.7185 31.4702 34.3425 30.9951 33.8682C30.52 33.3939 30.1429 32.8307 29.8855 32.2107C29.628 31.5907 29.4952 30.9261 29.4946 30.2548V22.1976C29.4946 21.7948 29.8209 21.4686 30.2214 21.4686ZM35.7226 20.0061C37.5406 20.0061 39.0166 18.5323 39.0166 16.7166C39.0166 14.8986 37.5406 13.4248 35.7204 13.4248C33.9001 13.4248 32.4241 14.8986 32.4241 16.7166C32.4241 18.5323 33.9001 20.0061 35.7204 20.0061H35.7226Z" fill="#5059C9"/>
<path d="M25.4646 20.0063C26.0895 20.0071 26.7083 19.8849 27.2859 19.6466C27.8635 19.4082 28.3884 19.0584 28.8308 18.6171C29.2731 18.1758 29.6242 17.6517 29.8639 17.0747C30.1036 16.4977 30.2273 15.8791 30.2279 15.2543C30.2276 14.6291 30.104 14.01 29.8643 13.4326C29.6246 12.8552 29.2734 12.3307 28.8308 11.8892C28.3882 11.4476 27.8628 11.0976 27.2849 10.8593C26.7069 10.6209 26.0876 10.4988 25.4624 10.5C24.8378 10.4994 24.2191 10.6219 23.6418 10.8604C23.0645 11.0988 22.5398 11.4487 22.0977 11.89C21.6556 12.3312 21.3048 12.8553 21.0652 13.4321C20.8256 14.009 20.702 14.6274 20.7014 15.252C20.7014 17.8778 22.8321 20.0063 25.4624 20.0063H25.4646ZM31.8141 21.4688H18.3816C18.0174 21.4776 17.6716 21.6307 17.4201 21.8944C17.1687 22.158 17.0322 22.5108 17.0406 22.875V31.3125C16.9917 33.4994 17.8128 35.6163 19.3235 37.1983C20.8342 38.7803 22.911 39.6981 25.0979 39.75C27.2851 39.6987 29.3625 38.7812 30.8737 37.1991C32.3849 35.6171 33.2063 33.4998 33.1574 31.3125V22.875C33.1616 22.6945 33.1301 22.5149 33.0649 22.3465C32.9996 22.1781 32.9019 22.0242 32.7771 21.8936C32.6524 21.763 32.5031 21.6583 32.3379 21.5854C32.1727 21.5125 31.9947 21.4728 31.8141 21.4688Z" fill="#7B83EB"/>
<path opacity="0.1" d="M25.8315 21.4688V33.2925C25.8297 33.6474 25.6877 33.9872 25.4366 34.238C25.1854 34.4887 24.8454 34.6301 24.4905 34.6313H17.6842C17.2583 33.5758 17.0391 32.4484 17.0385 31.3102V22.875C17.0343 22.6946 17.0657 22.5151 17.131 22.3468C17.1963 22.1785 17.2941 22.0248 17.4189 21.8944C17.5436 21.764 17.6929 21.6594 17.8581 21.5868C18.0233 21.5141 18.2013 21.4748 18.3817 21.471H25.8292L25.8315 21.4688Z" fill="black"/>
<path opacity="0.2" d="M25.0978 21.469V34.024C25.0949 34.3786 24.9526 34.7177 24.7017 34.9682C24.4508 35.2187 24.1114 35.3604 23.7569 35.3628H18.0306C17.7776 34.8987 17.5761 34.4083 17.4299 33.9003C17.1739 33.0616 17.0435 32.1897 17.0429 31.3128V22.8708C17.0387 22.6905 17.07 22.5112 17.1352 22.3431C17.2003 22.175 17.2979 22.0213 17.4225 21.891C17.547 21.7606 17.696 21.656 17.861 21.5832C18.0259 21.5105 18.2036 21.4709 18.3839 21.4668H25.1001L25.0978 21.469Z" fill="black"/>
<path opacity="0.2" d="M25.0978 21.469V32.5615C25.0949 32.9161 24.9526 33.2552 24.7017 33.5057C24.4508 33.7562 24.1114 33.8979 23.7569 33.9003H17.4299C17.1739 33.0616 17.0435 32.1897 17.0429 31.3128V22.8708C17.0387 22.6905 17.07 22.5112 17.1352 22.3431C17.2003 22.175 17.2979 22.0213 17.4225 21.891C17.547 21.7606 17.696 21.656 17.861 21.5832C18.0259 21.5105 18.2036 21.4709 18.3839 21.4668H25.1001L25.0978 21.469Z" fill="black"/>
<path opacity="0.2" d="M24.3669 21.469V32.5615C24.364 32.9161 24.2216 33.2552 23.9707 33.5057C23.7198 33.7562 23.3804 33.8979 23.0259 33.9003H17.4279C17.172 33.0616 17.0416 32.1897 17.0409 31.3128V22.8708C17.0367 22.6905 17.0681 22.5112 17.1332 22.3431C17.1984 22.175 17.296 22.0213 17.4205 21.891C17.545 21.7606 17.694 21.656 17.859 21.5832C18.024 21.5105 18.2016 21.4709 18.3819 21.4668L24.3669 21.469Z" fill="black"/>
<path opacity="0.1" d="M25.8317 17.6884V19.9924C25.708 19.9991 25.591 20.0059 25.465 20.0059C25.3412 20.0059 25.2242 19.9991 25.0982 19.9924C24.0934 19.9149 23.139 19.5204 22.3728 18.8658C21.6065 18.2111 21.0678 17.3301 20.8345 16.3496H24.4907C24.8452 16.3508 25.185 16.4918 25.4361 16.7421C25.6872 16.9924 25.8294 17.3316 25.8317 17.6861V17.6884Z" fill="black"/>
<path opacity="0.2" d="M25.0978 18.4205V19.9932C24.2236 19.9264 23.3849 19.6193 22.6743 19.1059C21.9636 18.5926 21.4085 17.8929 21.0703 17.084H23.7591C24.1132 17.0858 24.4523 17.2271 24.703 17.4773C24.9536 17.7275 25.0954 18.0664 25.0978 18.4205Z" fill="black"/>
<path opacity="0.2" d="M25.0978 18.4205V19.9932C24.2236 19.9264 23.3849 19.6193 22.6743 19.1059C21.9636 18.5926 21.4085 17.8929 21.0703 17.084H23.7591C24.1132 17.0858 24.4523 17.2271 24.703 17.4773C24.9536 17.7275 25.0954 18.0664 25.0978 18.4205Z" fill="black"/>
<path opacity="0.2" d="M24.3666 18.4198V19.8756C23.6356 19.7029 22.9558 19.3597 22.3829 18.874C21.81 18.3883 21.3602 17.7739 21.0703 17.0811H23.0278C23.3823 17.0828 23.7218 17.2244 23.9725 17.4751C24.2232 17.7258 24.3648 18.0653 24.3666 18.4198Z" fill="black"/>
<path d="M9.59325 17.0811H23.0235C23.766 17.0811 24.3667 17.6818 24.3667 18.4221V31.8276C24.3667 32.0038 24.332 32.1784 24.2645 32.3413C24.1969 32.5041 24.0979 32.652 23.9732 32.7766C23.8484 32.9011 23.7003 32.9999 23.5374 33.0671C23.3744 33.1344 23.1998 33.1688 23.0235 33.1686H9.591C9.4149 33.1686 9.24052 33.1339 9.07782 33.0665C8.91512 32.9991 8.76729 32.9003 8.64277 32.7758C8.51825 32.6513 8.41947 32.5034 8.35208 32.3407C8.28469 32.178 8.25 32.0037 8.25 31.8276V18.4221C8.25 17.6796 8.85075 17.0811 9.59325 17.0811Z" fill="url(#paint0_linear_9579_8456)"/>
<path d="M19.842 22.1841H17.1577V29.4809H15.4477V22.1841H12.7725V20.7666H19.8397L19.842 22.1841Z" fill="white"/>
<defs>
<linearGradient id="paint0_linear_9579_8456" x1="11.049" y1="16.0348" x2="21.5385" y2="34.2328" gradientUnits="userSpaceOnUse">
<stop stop-color="#5A62C3"/>
<stop offset="0.5" stop-color="#4D55BD"/>
<stop offset="1" stop-color="#3940AB"/>
</linearGradient>
</defs>
</svg>
