<svg width="48" height="48" viewBox="0 0 48 48" fill="none" xmlns="http://www.w3.org/2000/svg">
<rect width="48" height="48" rx="24" fill="#EAECF0"/>
<path d="M31.8833 26.9059C31.8972 25.8821 31.852 24.8582 31.7479 23.8413C31.6716 23.1541 31.439 22.2726 30.6929 22.0921C30.789 22.1165 30.8902 22.1129 30.9844 22.0817C31.8486 21.6305 31.7826 20.5165 31.4772 19.7113C31.0746 18.6562 30.1202 17.9065 29.1727 17.4102C27.4155 16.534 25.467 16.1115 23.5047 16.1812C21.5425 16.251 19.6288 16.8107 17.9383 17.8094C17.081 18.3369 16.0954 19.3677 16.5292 20.5165C16.6468 20.8024 16.8203 21.0619 17.0394 21.28L17.3656 21.6201C16.9248 22.2171 16.6021 22.7585 16.3938 23.4839C15.7691 25.6704 15.8732 27.076 16.0433 28.8321C16.1509 29.9184 16.5084 31.5357 17.7613 31.7162C18.7816 31.8585 19.8888 31.5218 20.9091 31.4004C22.0336 31.2685 23.1685 31.0603 24.3069 31.0915C25.9103 31.1331 27.4999 31.5114 29.1068 31.5288C29.9536 31.5357 31.3627 31.619 31.616 30.5015C31.8555 29.4395 31.8659 28.3358 31.8659 27.253C31.8798 27.1384 31.8798 27.0204 31.8798 26.9094L31.8833 26.9059ZM30.0508 28.7419C29.6517 29.6408 28.5237 29.5401 27.7359 29.4742L24.2132 29.0542C23.165 29.023 22.1273 29.2208 21.107 29.4464C20.3434 29.613 19.2779 30.0538 18.5873 29.4672C17.8203 28.8182 17.6849 27.7111 17.6745 26.7775C17.6889 25.9345 17.7725 25.0941 17.9244 24.2647C18.0181 23.7511 18.1708 23.2513 18.3721 22.7724C18.6463 22.0782 19.0523 21.6583 19.0732 21.6791C18.8684 21.4674 18.622 21.3529 18.4832 21.0648C17.9591 19.9716 19.2675 19.0449 19.9825 18.7291C22.4848 17.6115 25.9832 17.7226 28.3467 19.156C29.0825 19.6037 30.5124 21.1412 29.1762 21.9082C29.9987 22.2969 30.2104 23.47 30.3007 24.3029C30.445 25.6408 30.403 26.9922 30.1757 28.3184C30.1512 28.4645 30.108 28.6068 30.0473 28.7419H30.0508Z" fill="#FF4C00"/>
</svg>
