<svg width="30" height="30" viewBox="0 0 30 30" fill="none" xmlns="http://www.w3.org/2000/svg">
<path d="M25.9454 0.912109H4.50272C2.5014 0.912109 0.913055 2.50046 0.913055 4.47001V25.9127C0.913055 27.914 2.5014 29.5023 4.50272 29.5023H25.9454C27.9149 29.5023 29.5033 27.914 29.5033 25.9444V4.50177C29.5033 2.50046 27.9149 0.912109 25.9454 0.912109ZM19.0202 6.15365C19.0202 5.61361 19.4332 5.20064 19.9732 5.20064C20.5132 5.20064 20.9262 5.61361 20.9262 6.15365V18.8922C20.9262 19.4322 20.5132 19.8452 19.9732 19.8452C19.4332 19.8452 19.0202 19.4322 19.0202 18.8922V6.15365ZM14.2552 5.67715C14.2552 5.13711 14.6681 4.72414 15.2082 4.72414C15.7482 4.72414 16.1612 5.13711 16.1612 5.67715V19.4958C16.1612 20.0358 15.7482 20.4488 15.2082 20.4488C14.6681 20.4488 14.2552 20.0358 14.2552 19.4958V5.67715ZM9.49013 6.15365C9.49013 5.61361 9.9031 5.20064 10.4431 5.20064C10.9832 5.20064 11.3961 5.61361 11.3961 6.15365V18.8922C11.3961 19.4322 10.9832 19.8452 10.4431 19.8452C9.9031 19.8452 9.49013 19.4322 9.49013 18.8922V6.15365ZM4.72509 8.05967C4.72509 7.51963 5.13806 7.10666 5.67809 7.10666C6.21813 7.10666 6.6311 7.51963 6.6311 8.05967V16.6367C6.6311 17.1768 6.21813 17.5897 5.67809 17.5897C5.13806 17.5897 4.72509 17.1768 4.72509 16.6367V8.05967ZM25.3736 22.6089C25.2148 22.736 21.6886 25.6903 15.2082 25.6903C8.72772 25.6903 5.20159 22.736 5.04276 22.6089C4.62979 22.2595 4.59802 21.6559 4.94745 21.2747C5.29689 20.8617 5.90046 20.83 6.28167 21.1794C6.3452 21.1794 9.49013 23.7843 15.2082 23.7843C20.9898 23.7843 24.1029 21.1794 24.1029 21.1476C24.5159 20.7982 25.1195 20.8617 25.4371 21.2429C25.8183 21.6559 25.7548 22.2595 25.3736 22.6089ZM25.6913 16.6367C25.6913 17.1768 25.2783 17.5897 24.7382 17.5897C24.1982 17.5897 23.7852 17.1768 23.7852 16.6367V8.05967C23.7852 7.51963 24.1982 7.10666 24.7382 7.10666C25.2783 7.10666 25.6913 7.51963 25.6913 8.05967V16.6367Z" fill="#1F8DED"/>
</svg>
