<svg width="16" height="4" viewBox="0 0 16 4" fill="none" xmlns="http://www.w3.org/2000/svg">
<path d="M7.99992 2.83366C8.46016 2.83366 8.83325 2.46056 8.83325 2.00033C8.83325 1.54009 8.46016 1.16699 7.99992 1.16699C7.53968 1.16699 7.16659 1.54009 7.16659 2.00033C7.16659 2.46056 7.53968 2.83366 7.99992 2.83366Z" stroke="#344054" stroke-width="1.66667" stroke-linecap="round" stroke-linejoin="round"/>
<path d="M13.8333 2.83366C14.2935 2.83366 14.6666 2.46056 14.6666 2.00033C14.6666 1.54009 14.2935 1.16699 13.8333 1.16699C13.373 1.16699 12.9999 1.54009 12.9999 2.00033C12.9999 2.46056 13.373 2.83366 13.8333 2.83366Z" stroke="#344054" stroke-width="1.66667" stroke-linecap="round" stroke-linejoin="round"/>
<path d="M2.16659 2.83366C2.62682 2.83366 2.99992 2.46056 2.99992 2.00033C2.99992 1.54009 2.62682 1.16699 2.16659 1.16699C1.70635 1.16699 1.33325 1.54009 1.33325 2.00033C1.33325 2.46056 1.70635 2.83366 2.16659 2.83366Z" stroke="#344054" stroke-width="1.66667" stroke-linecap="round" stroke-linejoin="round"/>
</svg>
