<svg width="20" height="14" viewBox="0 0 20 14" fill="none" xmlns="http://www.w3.org/2000/svg">
<path d="M18.3333 4.44313C18.3333 3.93829 18.3333 3.68586 18.2335 3.56898C18.1468 3.46756 18.0169 3.41373 17.8839 3.4242C17.7307 3.43626 17.5522 3.61475 17.1952 3.97173L14.1666 7.00033L17.1952 10.0289C17.5522 10.3859 17.7307 10.5644 17.8839 10.5765C18.0169 10.5869 18.1468 10.5331 18.2335 10.4317C18.3333 10.3148 18.3333 10.0624 18.3333 9.55752V4.44313Z" stroke="#344054" stroke-width="1.66667" stroke-linecap="round" stroke-linejoin="round"/>
<path d="M1.66663 5.16699C1.66663 3.76686 1.66663 3.0668 1.93911 2.53202C2.17879 2.06161 2.56124 1.67916 3.03165 1.43948C3.56643 1.16699 4.26649 1.16699 5.66663 1.16699H10.1666C11.5668 1.16699 12.2668 1.16699 12.8016 1.43948C13.272 1.67916 13.6545 2.06161 13.8941 2.53202C14.1666 3.0668 14.1666 3.76686 14.1666 5.16699V8.83366C14.1666 10.2338 14.1666 10.9339 13.8941 11.4686C13.6545 11.939 13.272 12.3215 12.8016 12.5612C12.2668 12.8337 11.5668 12.8337 10.1666 12.8337H5.66663C4.26649 12.8337 3.56643 12.8337 3.03165 12.5612C2.56124 12.3215 2.17879 11.939 1.93911 11.4686C1.66663 10.9339 1.66663 10.2338 1.66663 8.83366V5.16699Z" stroke="#344054" stroke-width="1.66667" stroke-linecap="round" stroke-linejoin="round"/>
</svg>
