<svg width="48" height="48" viewBox="0 0 48 48" fill="none" xmlns="http://www.w3.org/2000/svg">
<rect width="48" height="48" rx="24" fill="#EAECF0"/>
<g clip-path="url(#clip0_3841_22919)">
<path d="M29.5701 31.4587V29.9227H30.6331V30.1601H29.8431V30.5568H30.6161V30.7941H29.8431V31.4587H29.5701ZM31.0501 31.4587V29.9227H31.3214V31.4587H31.0501ZM32.8997 31.4587L32.0911 30.3601V31.4587H31.8181V29.9227H32.0978L32.8896 30.9857V29.9227H33.1625V31.4587H32.8997ZM34.7035 31.4587L34.59 31.1603H33.8779L33.7643 31.4587H33.4524L34.061 29.9227H34.4001L35.0104 31.4587H34.7035ZM34.2339 30.1923L33.9542 30.9247H34.512L34.2339 30.1923ZM36.3904 31.4587L35.5817 30.3601V31.4587H35.3088V29.9227H35.5885L36.3819 30.9857V29.9227H36.6532V31.4587H36.3904ZM37.0007 30.6924C36.9983 30.5857 37.0178 30.4797 37.0581 30.3809C37.0983 30.2821 37.1585 30.1926 37.2348 30.1181C37.3111 30.0435 37.402 29.9854 37.5017 29.9474C37.6014 29.9095 37.7079 29.8924 37.8144 29.8973C37.9387 29.8931 38.0619 29.9224 38.171 29.982C38.2802 30.0417 38.3713 30.1295 38.4349 30.2364L38.2044 30.355C38.1643 30.2873 38.1072 30.2312 38.0389 30.1923C37.9705 30.1533 37.8931 30.1329 37.8144 30.133C37.6674 30.133 37.5264 30.1914 37.4224 30.2953C37.3185 30.3993 37.2601 30.5403 37.2601 30.6873C37.2601 30.8344 37.3185 30.9754 37.4224 31.0793C37.5264 31.1833 37.6674 31.2417 37.8144 31.2417C37.8931 31.2408 37.9703 31.2197 38.0385 31.1805C38.1068 31.1414 38.1639 31.0854 38.2044 31.0179L38.4383 31.1332C38.3733 31.2396 38.2815 31.327 38.1719 31.3865C38.0624 31.446 37.9391 31.4756 37.8144 31.4723C37.708 31.4772 37.6017 31.4601 37.5021 31.4223C37.4025 31.3844 37.3117 31.3265 37.2354 31.2521C37.1592 31.1777 37.099 31.0884 37.0586 30.9898C37.0182 30.8912 36.9985 30.7854 37.0007 30.6788V30.6924ZM38.8045 31.4587V29.9227H39.0775V31.4587H38.8045ZM40.6202 31.4587L40.5066 31.1603H39.7946L39.681 31.4587H39.369L39.9777 29.9227H40.3167L40.927 31.4587H40.6202ZM40.1506 30.1923L39.8709 30.9247H40.4201L40.1421 30.1923H40.1506ZM41.2237 31.4587V29.9227H41.4967V31.2213H42.1748V31.4587H41.2237Z" fill="#6D6E71"/>
<path d="M19.2932 20.42C18.7596 20.4173 18.2308 20.5198 17.7369 20.7218C17.243 20.9237 16.7938 21.221 16.4149 21.5967C16.0361 21.9724 15.735 22.4191 15.529 22.9113C15.323 23.4035 15.216 23.9314 15.2142 24.465C15.2142 25.5468 15.644 26.5843 16.4089 27.3492C17.1739 28.1142 18.2114 28.5439 19.2932 28.5439C20.375 28.5439 21.4124 28.1142 22.1774 27.3492C22.9423 26.5843 23.3721 25.5468 23.3721 24.465C23.3703 23.9314 23.2633 23.4035 23.0573 22.9113C22.8513 22.4191 22.5502 21.9724 22.1714 21.5967C21.7925 21.221 21.3433 20.9237 20.8494 20.7218C20.3556 20.5198 19.8267 20.4173 19.2932 20.42ZM19.2932 27.1351C18.9442 27.1354 18.5986 27.0662 18.2767 26.9317C17.9547 26.7971 17.6627 26.5998 17.4176 26.3513C17.1726 26.1029 16.9795 25.8081 16.8495 25.4843C16.7195 25.1604 16.6552 24.8139 16.6603 24.465C16.6603 24.1192 16.7284 23.7769 16.8607 23.4575C16.9931 23.138 17.187 22.8478 17.4315 22.6033C17.676 22.3588 17.9662 22.1649 18.2856 22.0326C18.6051 21.9003 18.9474 21.8322 19.2932 21.8322C19.6389 21.8322 19.9813 21.9003 20.3007 22.0326C20.6201 22.1649 20.9104 22.3588 21.1548 22.6033C21.3993 22.8478 21.5933 23.138 21.7256 23.4575C21.8579 23.7769 21.926 24.1192 21.926 24.465C21.9312 24.8139 21.8669 25.1604 21.7368 25.4843C21.6068 25.8081 21.4137 26.1029 21.1687 26.3513C20.9237 26.5998 20.6316 26.7971 20.3097 26.9317C19.9877 27.0662 19.6421 27.1354 19.2932 27.1351Z" fill="#F7941D"/>
<path d="M19.9814 20.7217C18.1166 20.7217 16.6603 22.395 16.6603 24.4514C16.6603 23.7531 16.9377 23.0834 17.4314 22.5897C17.9252 22.0959 18.5949 21.8185 19.2931 21.8185C19.9914 21.8185 20.6611 22.0959 21.1548 22.5897C21.6486 23.0834 21.926 23.7531 21.926 24.4514C21.926 25.1496 21.6486 25.8193 21.1548 26.3131C20.6611 26.8068 19.9914 27.0842 19.2931 27.0842C18.5949 27.0842 17.9252 26.8068 17.4314 26.3131C16.9377 25.8193 16.6603 25.1496 16.6603 24.4514C16.6603 26.5163 18.1098 28.1811 19.9814 28.1811C21.8531 28.1811 23.3721 26.5078 23.3721 24.4514C23.3721 22.395 21.8463 20.7217 19.9814 20.7217Z" fill="url(#paint0_linear_3841_22919)"/>
<path d="M15.16 20.6002C14.7853 20.4307 13.6732 20.3561 13.3138 21.1529L10.6691 27.0373L10.9929 27.7544C11.2675 28.3681 11.5659 28.4325 11.61 28.4325L15.16 20.6002Z" fill="url(#paint1_linear_3841_22919)"/>
<path d="M10.9912 27.7544C10.6945 27.0915 8.37871 21.9429 8.02439 21.1511C7.67007 20.3594 6.55286 20.4256 6.1748 20.5985L9.3959 27.7357C9.59764 28.1647 10.0164 28.4308 10.6589 28.4308H11.6134C11.6134 28.4308 11.2896 28.4173 10.9912 27.7544Z" fill="#F7941D"/>
<path d="M36.5328 20.5088C36.4921 20.5088 36.1768 20.5495 35.9123 21.1445C35.8513 21.2819 35.7309 21.548 35.5834 21.882C36.465 23.8452 37.3477 25.8089 38.2315 27.7732C38.5926 28.5683 39.703 28.4988 40.0794 28.3259L36.5328 20.5088Z" fill="url(#paint2_linear_3841_22919)"/>
<path d="M36.8176 26.4136L36.5209 25.7795C36.2972 25.2709 35.9411 25.1506 35.4902 25.1506H34.1034C34.1034 25.1506 35.6292 21.7803 35.9089 21.1445C36.1887 20.5088 36.5294 20.5088 36.5294 20.5088H35.5766C34.9494 20.5088 34.5222 20.7529 34.3119 21.2039L31.0756 28.3242C31.452 28.4937 32.5607 28.5751 32.9218 27.7715C33.2829 26.9679 33.588 26.3017 33.588 26.3017H36.1564C36.665 26.3017 36.8176 26.4187 36.8176 26.4187V26.4136Z" fill="#F7941D"/>
<path d="M32.4115 20.6002C32.0317 20.4307 30.9349 20.3561 30.5721 21.1529C30.2093 21.9497 25.9184 31.4332 25.9184 31.4332C26.2965 31.6028 27.3934 31.6791 27.7545 30.8806L32.4115 20.6002Z" fill="url(#paint3_linear_3841_22919)"/>
<path d="M28.2393 27.7524C27.9376 27.0844 25.6387 21.9646 25.2725 21.1508C24.9063 20.3371 23.8061 20.4252 23.4263 20.5982L26.6474 27.7337C26.8492 28.1644 27.2662 28.4288 27.9104 28.4288H28.8649C28.8649 28.4288 28.5428 28.422 28.2393 27.7524Z" fill="#F7941D"/>
<path d="M41.2882 28.4255C41.1721 28.4242 41.059 28.3886 40.9632 28.3231C40.8674 28.2577 40.793 28.1653 40.7495 28.0577C40.706 27.9501 40.6953 27.8321 40.7188 27.7184C40.7423 27.6047 40.7988 27.5005 40.8814 27.4189C40.9639 27.3374 41.0687 27.282 41.1826 27.2598C41.2966 27.2377 41.4145 27.2497 41.5216 27.2944C41.6287 27.3392 41.7202 27.4146 41.7845 27.5111C41.8489 27.6077 41.8832 27.7212 41.8832 27.8373C41.8828 27.915 41.867 27.9918 41.8369 28.0634C41.8067 28.135 41.7628 28.2 41.7075 28.2546C41.6523 28.3093 41.5868 28.3525 41.5148 28.3818C41.4429 28.4111 41.3659 28.426 41.2882 28.4255ZM41.2882 27.3236C41.188 27.3256 41.0907 27.3571 41.0084 27.4142C40.9261 27.4713 40.8625 27.5514 40.8256 27.6445C40.7887 27.7376 40.78 27.8395 40.8008 27.9375C40.8215 28.0355 40.8708 28.1251 40.9423 28.1952C41.0138 28.2654 41.1044 28.3128 41.2028 28.3316C41.3012 28.3504 41.4029 28.3398 41.4952 28.301C41.5876 28.2622 41.6664 28.1971 41.7219 28.1136C41.7773 28.0302 41.8069 27.9323 41.8069 27.8322C41.8069 27.7645 41.7935 27.6975 41.7673 27.6352C41.7411 27.5728 41.7027 27.5163 41.6544 27.4689C41.6061 27.4215 41.5488 27.3843 41.4859 27.3593C41.423 27.3344 41.3558 27.3222 41.2882 27.3236ZM41.4577 28.1712L41.2882 27.9051H41.161V28.1712H41.0762V27.4931H41.3526C41.3801 27.4917 41.4077 27.496 41.4335 27.5057C41.4593 27.5155 41.4828 27.5305 41.5025 27.5497C41.5223 27.569 41.5378 27.5921 41.5482 27.6177C41.5586 27.6432 41.5635 27.6707 41.5628 27.6982C41.5641 27.7466 41.5475 27.7937 41.5162 27.8306C41.485 27.8676 41.4412 27.8916 41.3933 27.8983L41.5764 28.1678L41.4577 28.1712ZM41.3458 27.5745H41.1491V27.8237H41.3424C41.373 27.8201 41.4011 27.8055 41.4216 27.7825C41.442 27.7595 41.4533 27.7298 41.4533 27.6991C41.4533 27.6683 41.442 27.6387 41.4216 27.6157C41.4011 27.5927 41.373 27.5781 41.3424 27.5745H41.3458Z" fill="#6D6E71"/>
</g>
<defs>
<linearGradient id="paint0_linear_3841_22919" x1="16.6428" y1="24.7365" x2="23.3546" y2="24.7365" gradientUnits="userSpaceOnUse">
<stop offset="0.01" stop-color="#EF3B24"/>
<stop offset="0.25" stop-color="#F05123"/>
<stop offset="0.45" stop-color="#F37021"/>
<stop offset="1" stop-color="#F68B1F"/>
</linearGradient>
<linearGradient id="paint1_linear_3841_22919" x1="12.9996" y1="27.8705" x2="16.0688" y2="21.4077" gradientUnits="userSpaceOnUse">
<stop stop-color="#F05123"/>
<stop offset="0.45" stop-color="#F37021"/>
<stop offset="1" stop-color="#F68B1F"/>
</linearGradient>
<linearGradient id="paint2_linear_3841_22919" x1="37.1849" y1="20.846" x2="40.2531" y2="27.3874" gradientUnits="userSpaceOnUse">
<stop stop-color="#F05123"/>
<stop offset="0.45" stop-color="#F37021"/>
<stop offset="1" stop-color="#F68B1F"/>
</linearGradient>
<linearGradient id="paint3_linear_3841_22919" x1="28.2688" y1="31.292" x2="32.7516" y2="21.737" gradientUnits="userSpaceOnUse">
<stop stop-color="#F05123"/>
<stop offset="0.45" stop-color="#F37021"/>
<stop offset="1" stop-color="#F68B1F"/>
</linearGradient>
<clipPath id="clip0_3841_22919">
<rect width="36" height="11.1857" fill="white" transform="translate(6.1748 20.3965)"/>
</clipPath>
</defs>
</svg>
