<svg width="48" height="48" viewBox="0 0 48 48" fill="none" xmlns="http://www.w3.org/2000/svg">
<rect width="48" height="48" rx="12" fill="#EAECF0"/>
<path fill-rule="evenodd" clip-rule="evenodd" d="M10.2072 32.4027C12.1388 33.0176 14.2024 32.0316 14.7931 30.2115L16.9785 23.1309C17.5693 21.3108 16.4721 19.3182 14.5406 18.7031L14.3793 18.6518C12.4478 18.0367 10.384 19.0227 9.79344 20.8429L7.60801 27.9235C7.01729 29.7438 8.11436 31.7363 10.046 32.3514L10.2072 32.4027Z" fill="#084F99"/>
<path fill-rule="evenodd" clip-rule="evenodd" d="M33.2808 12.2765C33.693 11.2798 34.4552 10.5226 35.3498 10.114C35.3948 10.0935 35.4393 10.0712 35.485 10.0525C35.5105 10.0416 35.5367 10.0327 35.5626 10.0224C36.3004 9.7382 37.1151 9.68767 37.8979 9.93684L38.0591 9.98826C39.9907 10.6032 41.0194 12.8068 40.345 14.8848C40.345 14.8848 35.0537 32.7601 35.0492 32.7742C33.6665 36.8889 29.274 39.0191 25.4934 37.9497C25.4934 37.9497 24.4743 37.6472 24.0539 37.3444C27.8114 36.5369 32.5305 14.0899 33.2808 12.2765Z" fill="#5EB7FF"/>
<path fill-rule="evenodd" clip-rule="evenodd" d="M10.8203 34.7665C11.6361 35.0261 12.4767 35.0423 13.2734 34.8574C13.4001 34.8309 13.5233 34.7953 13.6445 34.7545C15.2021 34.2603 16.5411 32.9862 17.109 31.2361L21.232 17.6277C21.9124 15.56 24.0369 14.3702 25.9632 14.9837L26.1245 15.035C28.056 15.65 29.0848 17.8535 28.4103 19.9317C28.4103 19.9317 24.4873 32.8269 23.9395 33.8994C19.9364 41.1522 12.4167 37.6084 10.2859 34.5734C10.4079 34.6244 10.5308 34.6743 10.659 34.7151L10.8203 34.7665Z" fill="#1479FB"/>
</svg>
