<svg width="48" height="48" viewBox="0 0 48 48" fill="none" xmlns="http://www.w3.org/2000/svg">
<rect width="48" height="48" rx="12" fill="#EAECF0"/>
<g clip-path="url(#clip0_10254_20963)">
<g clip-path="url(#clip1_10254_20963)">
<path d="M18.8549 40H29.1451V32.2196L26.6353 29.7098H21.302L18.8549 32.2196V40ZM32.1569 18.8549L29.7098 21.302V26.698L32.1569 29.1451H40V18.8549H32.1569ZM29.1451 8H18.8549V15.8431L21.302 18.2902H26.6353L29.1451 15.8431V8ZM40 40V32.2196L37.5529 29.7098H29.7098V40H40ZM10.4471 8L8 10.4471V18.2902H18.2902V8H10.4471ZM29.7098 8V15.8431L32.1569 18.2902H40V8H29.7098ZM24 25.5059C23.1843 25.5059 22.5569 24.8157 22.5569 24.0627C22.5569 23.2471 23.2471 22.6196 24 22.6196C24.8157 22.6196 25.4431 23.3098 25.4431 24.0627C25.4431 24.8157 24.8157 25.5059 24 25.5059ZM18.2902 18.8549H8V29.1451H15.7804L18.2902 26.698V18.8549ZM18.2902 32.2196L15.7804 29.7098H8V40H15.7804L18.2902 37.5529V32.2196Z" fill="#40BAC8"/>
</g>
</g>
<defs>
<clipPath id="clip0_10254_20963">
<rect width="32" height="32" fill="white" transform="translate(8 8)"/>
</clipPath>
<clipPath id="clip1_10254_20963">
<rect width="32" height="32" fill="white" transform="translate(8 8)"/>
</clipPath>
</defs>
</svg>
