<svg width="60" height="60" viewBox="0 0 60 60" fill="none" xmlns="http://www.w3.org/2000/svg">
<rect width="60" height="60" rx="12" fill="#EAECF0"/>
<path d="M30 40.6667H42M18.0001 40.6667H20.2328C20.885 40.6667 21.2111 40.6667 21.518 40.593C21.7901 40.5276 22.0503 40.4199 22.2889 40.2737C22.558 40.1088 22.7886 39.8782 23.2498 39.417L40.0001 22.6667C41.1047 21.5621 41.1047 19.7712 40.0001 18.6667C38.8955 17.5621 37.1047 17.5621 36.0001 18.6667L19.2497 35.417C18.7885 35.8782 18.5579 36.1088 18.393 36.3779C18.2468 36.6165 18.1391 36.8766 18.0737 37.1487C18.0001 37.4556 18.0001 37.7817 18.0001 38.434V40.6667Z" stroke="#3684A4" stroke-width="2" stroke-linecap="round" stroke-linejoin="round"/>
</svg>
