<svg width="57" height="56" viewBox="0 0 57 56" fill="none" xmlns="http://www.w3.org/2000/svg">
<rect x="0.769989" width="56" height="56" rx="28" fill="#EAECF0"/>
<path d="M41.6706 21.4946C41.5177 20.9239 41.2173 20.4033 40.7993 19.9846C40.3814 19.566 39.8606 19.2641 39.289 19.1091C37.1999 18.5466 28.77 18.5466 28.77 18.5466C28.77 18.5466 20.4134 18.5466 18.2615 19.1091C17.6899 19.2641 17.1691 19.566 16.7512 19.9846C16.3333 20.4033 16.0328 20.9239 15.8798 21.4946C15.1277 25.7956 15.1277 30.1939 15.8798 34.4949C16.0321 35.0671 16.3322 35.5894 16.7501 36.0098C17.168 36.4302 17.6892 36.7339 18.2615 36.8908C20.3507 37.4533 28.77 37.4533 28.77 37.4533C28.77 37.4533 37.1894 37.4533 39.289 36.8908C39.8614 36.7339 40.3825 36.4302 40.8004 36.0098C41.2183 35.5894 41.5184 35.0671 41.6706 34.4949C42.4088 30.1927 42.4088 25.7968 41.6706 21.4946ZM26.0019 31.9844V24.0051L33.0319 27.9947L26.0019 31.9844Z" fill="#3684A4"/>
</svg>
