<svg width="25" height="24" viewBox="0 0 25 24" fill="none" xmlns="http://www.w3.org/2000/svg">
<g clip-path="url(#clip0_11019_44071)">
<path d="M24.1135 7.71472L14.5353 3.33697C14.0501 3.11493 13.5227 3 12.9891 3C12.4556 3 11.9282 3.11493 11.443 3.33697L1.86402 7.71472C1.32402 7.96222 0.98877 8.48497 0.98877 9.07972C0.98877 9.67447 1.32402 10.1972 1.86402 10.4447L5.48877 12.1015V16.6427C5.48877 18.2545 6.49302 19.6765 7.98852 20.1812C9.61077 20.725 11.293 21.0002 12.9888 21.0002C14.6845 21.0002 16.3668 20.725 17.9905 20.1812C19.4845 19.6772 20.4888 18.2552 20.4888 16.6427V12.1015L21.9888 11.416V15.7502C21.9888 15.9491 22.0678 16.1399 22.2084 16.2806C22.3491 16.4212 22.5399 16.5002 22.7388 16.5002C22.9377 16.5002 23.1284 16.4212 23.2691 16.2806C23.4098 16.1399 23.4888 15.9491 23.4888 15.7502V10.7305L24.1135 10.4447C24.6535 10.198 24.9888 9.67522 24.9888 9.08047C24.9888 8.48572 24.6535 7.96147 24.1135 7.71472ZM18.9888 16.6427C18.9888 17.611 18.3948 18.4615 17.5128 18.7592C14.5775 19.7429 11.4016 19.7429 8.46627 18.7592C7.58277 18.4615 6.98877 17.6102 6.98877 16.6427V12.787L11.4423 14.8225C11.9277 15.0442 12.4551 15.1589 12.9888 15.1589C13.5224 15.1589 14.0499 15.0442 14.5353 14.8225L18.9888 12.787V16.6427ZM13.9105 13.4582C13.6211 13.5905 13.3066 13.659 12.9884 13.659C12.6702 13.659 12.3557 13.5905 12.0663 13.4582L2.48352 9.08122L2.48802 9.07897L12.067 4.70122C12.3564 4.56891 12.6709 4.50043 12.9891 4.50043C13.3074 4.50043 13.6219 4.56891 13.9113 4.70122L23.4895 9.08047L13.9105 13.4582Z" fill="black"/>
</g>
<defs>
<clipPath id="clip0_11019_44071">
<rect width="24" height="24" fill="white" transform="translate(0.98877)"/>
</clipPath>
</defs>
</svg>
