<svg width="25" height="24" viewBox="0 0 25 24" fill="none" xmlns="http://www.w3.org/2000/svg">
<path d="M12.0756 1.5C9.60109 1.5 7.57724 3.52386 7.57724 5.99841C7.57724 8.47295 9.60109 10.4996 12.0756 10.4996C14.553 10.4996 16.5769 8.47579 16.5769 5.99841C16.5769 3.52102 14.553 1.5 12.0756 1.5ZM12.0756 2.99947C13.7423 2.99947 15.0774 4.3317 15.0774 5.99841C15.0774 7.66511 13.7395 9.00018 12.0756 9.00018C10.4118 9.00018 9.07671 7.66511 9.07671 5.99841C9.07671 4.3317 10.4089 2.99947 12.0756 2.99947ZM10.5762 11.9991C8.78645 11.9999 7.07025 12.7112 5.80472 13.9767C4.5392 15.2422 3.8279 16.9584 3.82715 18.7481V22.4982H5.32662V18.7481C5.32662 16.1659 7.14922 14.0513 9.59259 13.5978L8.34823 18.5667C8.31722 18.6924 8.31919 18.8239 8.35395 18.9485C8.38871 19.0732 8.45509 19.1867 8.54665 19.2782L11.5456 22.28C11.6864 22.4202 11.877 22.4989 12.0756 22.4989C12.2743 22.4989 12.4649 22.4202 12.6057 22.28L15.6103 19.2754C15.7019 19.1839 15.7682 19.0704 15.803 18.9457C15.8378 18.8211 15.8397 18.6895 15.8087 18.5639L14.5615 13.595C15.7639 13.8169 16.8501 14.4542 17.6304 15.3956C18.4107 16.337 18.8354 17.5226 18.8303 18.7453V22.4954H20.3298V18.7481C20.3291 16.9579 19.6174 15.2413 18.3512 13.9757C17.0851 12.7101 15.3682 11.9991 13.5779 11.9991C13.4641 11.9996 13.3519 12.026 13.2498 12.0762C13.1477 12.1264 13.0583 12.1992 12.9884 12.289C12.9185 12.3788 12.8699 12.4833 12.8464 12.5947C12.8228 12.706 12.8248 12.8212 12.8523 12.9317L14.2497 18.5185L12.0785 20.687L9.91006 18.5185L11.3075 12.9317C11.3355 12.8208 11.3379 12.705 11.3144 12.5931C11.2909 12.4812 11.2422 12.3761 11.1719 12.2859C11.1016 12.1957 11.0117 12.1227 10.909 12.0725C10.8062 12.0223 10.6934 11.9962 10.579 11.9963L10.5762 11.9991Z" fill="black"/>
</svg>
