<svg width="25" height="24" viewBox="0 0 25 24" fill="none" xmlns="http://www.w3.org/2000/svg">
<path fill-rule="evenodd" clip-rule="evenodd" d="M12.4663 20.263H3.91631C3.86327 20.263 3.81239 20.2419 3.77489 20.2044C3.73738 20.1669 3.71631 20.116 3.71631 20.063V18.612C3.71631 17.782 4.30931 17.05 5.22331 16.428C6.85531 15.314 9.49631 14.612 12.4663 14.612C12.6652 14.612 12.856 14.533 12.9966 14.3923C13.1373 14.2517 13.2163 14.0609 13.2163 13.862C13.2163 13.6631 13.1373 13.4723 12.9966 13.3317C12.856 13.191 12.6652 13.112 12.4663 13.112C9.14431 13.112 6.20331 13.943 4.37731 15.188C2.98431 16.138 2.21631 17.345 2.21631 18.612V20.063C2.21631 20.5139 2.39542 20.9463 2.71423 21.2651C3.03304 21.5839 3.46544 21.763 3.91631 21.763H12.4663C12.6652 21.763 12.856 21.684 12.9966 21.5433C13.1373 21.4027 13.2163 21.2119 13.2163 21.013C13.2163 20.8141 13.1373 20.6233 12.9966 20.4827C12.856 20.342 12.6652 20.263 12.4663 20.263ZM12.4663 1.25C9.43031 1.25 6.96631 3.714 6.96631 6.75C6.96631 9.786 9.43031 12.25 12.4663 12.25C15.5023 12.25 17.9663 9.786 17.9663 6.75C17.9663 3.714 15.5023 1.25 12.4663 1.25ZM12.4663 2.75C14.6743 2.75 16.4663 4.542 16.4663 6.75C16.4663 8.958 14.6743 10.75 12.4663 10.75C10.2583 10.75 8.46631 8.958 8.46631 6.75C8.46631 4.542 10.2583 2.75 12.4663 2.75Z" fill="black"/>
<path fill-rule="evenodd" clip-rule="evenodd" d="M18.4663 12.25C15.5683 12.25 13.2163 14.602 13.2163 17.5C13.2163 20.398 15.5683 22.75 18.4663 22.75C21.3643 22.75 23.7163 20.398 23.7163 17.5C23.7163 14.602 21.3643 12.25 18.4663 12.25ZM18.4663 13.75C20.5363 13.75 22.2163 15.43 22.2163 17.5C22.2163 19.57 20.5363 21.25 18.4663 21.25C16.3963 21.25 14.7163 19.57 14.7163 17.5C14.7163 15.43 16.3963 13.75 18.4663 13.75Z" fill="black"/>
<path fill-rule="evenodd" clip-rule="evenodd" d="M16.0503 18.3733L17.5501 19.3732C17.6944 19.4693 17.8675 19.5124 18.0399 19.4953C18.2124 19.4781 18.3735 19.4018 18.4961 19.2793L20.9959 16.7794C21.1364 16.6389 21.2154 16.4483 21.2154 16.2495C21.2154 16.0507 21.1364 15.8601 20.9959 15.7195C20.8553 15.579 20.6647 15.5 20.4659 15.5C20.2672 15.5 20.0765 15.579 19.936 15.7195L17.8701 17.7844L16.8822 17.1254C16.7167 17.0177 16.5154 16.9796 16.322 17.0194C16.1286 17.0592 15.9586 17.1736 15.8491 17.3379C15.7396 17.5022 15.6993 17.7031 15.7369 17.897C15.7746 18.0908 15.8872 18.262 16.0503 18.3733Z" fill="black"/>
</svg>
