<svg width="25" height="24" viewBox="0 0 25 24" fill="none" xmlns="http://www.w3.org/2000/svg">
<path d="M12.6681 8.28433H11.6639C11.221 8.28433 10.8608 7.92405 10.8608 7.48117C10.8608 7.03834 11.221 6.67806 11.6639 6.67806H13.6722C14.0605 6.67806 14.3753 6.36325 14.3753 5.97494C14.3753 5.58663 14.0605 5.27181 13.6722 5.27181H12.869V4.46875C12.869 4.08044 12.5542 3.76562 12.1659 3.76562C11.7776 3.76562 11.4628 4.08044 11.4628 4.46875V5.28142C10.3385 5.38338 9.45452 6.33081 9.45452 7.48122C9.45452 8.6995 10.4456 9.69063 11.6639 9.69063H12.6681C13.111 9.69063 13.4712 10.0509 13.4712 10.4937C13.4712 10.9366 13.111 11.2968 12.6681 11.2968H10.6597C10.2714 11.2968 9.95655 11.6117 9.95655 12C9.95655 12.3883 10.2714 12.7031 10.6597 12.7031H11.4628V13.5062C11.4628 13.8945 11.7776 14.2093 12.1659 14.2093C12.5542 14.2093 12.869 13.8945 12.869 13.5062V12.6935C13.9934 12.5916 14.8775 11.6442 14.8775 10.4937C14.8775 9.27545 13.8864 8.28433 12.6681 8.28433ZM15.9316 16.5687H8.40039C8.01208 16.5687 7.69727 16.8835 7.69727 17.2719C7.69727 17.6602 8.01208 17.975 8.40039 17.975H15.9316C16.3199 17.975 16.6347 17.6602 16.6347 17.2719C16.6347 16.8835 16.3199 16.5687 15.9316 16.5687Z" fill="black"/>
<path d="M20.4505 0H3.88183C3.49352 0 3.17871 0.314812 3.17871 0.703124V21.2257C3.17871 21.4122 3.25282 21.591 3.38468 21.7229L5.4558 23.794C5.73035 24.0686 6.17556 24.0686 6.45016 23.794L8.02408 22.2201L9.59795 23.794C9.66324 23.8593 9.74075 23.9111 9.82606 23.9465C9.91138 23.9818 10.0028 24 10.0952 24C10.1875 24 10.2789 23.9818 10.3642 23.9465C10.4495 23.9111 10.5271 23.8593 10.5924 23.794L12.1662 22.2201L13.7401 23.794C13.872 23.9259 14.0508 24 14.2373 24C14.4238 24 14.6026 23.9259 14.7345 23.794L16.3083 22.2201L17.8822 23.794C18.0195 23.9313 18.1994 24 18.3794 24C18.5594 24 18.7393 23.9314 18.8766 23.794L20.9477 21.7229C21.0796 21.591 21.1537 21.4122 21.1537 21.2257V0.703124C21.1536 0.314812 20.8389 0 20.4505 0ZM18.3794 22.3025L16.8055 20.7286C16.6736 20.5967 16.4948 20.5226 16.3083 20.5226C16.1218 20.5226 15.943 20.5967 15.8111 20.7286L14.2372 22.3025L12.6633 20.7286C12.3887 20.454 11.9435 20.454 11.6689 20.7286L10.095 22.3025L8.52114 20.7286C8.38928 20.5967 8.21044 20.5226 8.02396 20.5226C7.83748 20.5226 7.65864 20.5967 7.52678 20.7286L5.95286 22.3025L4.58486 20.9345V1.40625H19.7474V20.9345H19.7474L18.3794 22.3025Z" fill="black"/>
</svg>
