<svg width="25" height="24" viewBox="0 0 25 24" fill="none" xmlns="http://www.w3.org/2000/svg">
<path d="M18.7503 9.98601V1.6286C18.7503 0.730562 18.0197 0 17.1216 0H3.87958C2.98154 0 2.25098 0.730562 2.25098 1.6286V18.9955C2.25098 19.8936 2.98154 20.6241 3.87958 20.6241H13.8755V23.249C13.8755 23.8225 14.4965 24.1864 14.9975 23.9002L17.2503 22.6128C19.7385 24.0347 19.6085 23.999 19.8752 23.999C20.2894 23.999 20.6252 23.6627 20.6252 23.249V18.1386C23.2945 15.5742 22.2372 11.1163 18.7503 9.98601ZM3.87958 19.1242C3.84547 19.1241 3.81276 19.1106 3.78864 19.0865C3.76452 19.0623 3.75095 19.0296 3.75091 18.9955V1.6286C3.75095 1.59449 3.76452 1.56178 3.78864 1.53766C3.81276 1.51354 3.84547 1.49997 3.87958 1.49994H17.1217C17.1558 1.49997 17.1885 1.51354 17.2126 1.53766C17.2367 1.56178 17.2503 1.59449 17.2503 1.6286V9.74958C14.5624 9.74958 12.3755 11.9364 12.3755 14.6244C12.3755 16.0037 12.9515 17.251 13.8755 18.1386V19.1242H3.87958ZM19.1253 21.9567L17.6224 21.0979C17.5091 21.0331 17.3808 20.9991 17.2503 20.9991C17.1198 20.9991 16.9915 21.0331 16.8782 21.0979L15.3754 21.9567V19.1239C16.5712 19.6241 17.9277 19.6248 19.1252 19.1239L19.1253 21.9567ZM17.2503 17.9992C15.3894 17.9992 13.8755 16.4853 13.8755 14.6244C13.8755 12.7635 15.3894 11.2495 17.2503 11.2495C19.1112 11.2495 20.6252 12.7635 20.6252 14.6244C20.6252 16.4853 19.1112 17.9992 17.2503 17.9992Z" fill="black"/>
<path d="M16.8748 16.5464C16.5819 16.5464 16.5445 16.4771 15.3346 15.6704C14.9899 15.4406 14.8968 14.975 15.1265 14.6304C15.3563 14.2857 15.8219 14.1926 16.1666 14.4224L16.6675 14.7563L17.7515 13.1305C17.9812 12.7858 18.4469 12.6927 18.7915 12.9224C19.1361 13.1522 19.2293 13.6178 18.9995 13.9625L17.4996 16.2124C17.355 16.4291 17.1171 16.5464 16.8748 16.5464ZM13.1257 5.24994H6.75094C6.33677 5.24994 6.00098 4.91414 6.00098 4.49997C6.00098 4.0858 6.33677 3.75 6.75094 3.75H13.1257C13.5399 3.75 13.8756 4.0858 13.8756 4.49997C13.8756 4.91414 13.5398 5.24994 13.1257 5.24994ZM13.1257 8.24981H6.75094C6.33677 8.24981 6.00098 7.91401 6.00098 7.49984C6.00098 7.08567 6.33677 6.74987 6.75094 6.74987H13.1257C13.5399 6.74987 13.8756 7.08567 13.8756 7.49984C13.8756 7.91401 13.5398 8.24981 13.1257 8.24981ZM10.5008 11.2497H6.75094C6.33677 11.2497 6.00098 10.9139 6.00098 10.4997C6.00098 10.0855 6.33677 9.74974 6.75094 9.74974H10.5008C10.915 9.74974 11.2508 10.0855 11.2508 10.4997C11.2508 10.9139 10.915 11.2497 10.5008 11.2497Z" fill="black"/>
</svg>
