<svg width="25" height="24" viewBox="0 0 25 24" fill="none" xmlns="http://www.w3.org/2000/svg">
<g clip-path="url(#clip0_11019_44106)">
<path d="M5.51533 23.0466C5.25236 23.0466 4.99126 22.9646 4.76841 22.8034C4.56572 22.6567 4.41064 22.4537 4.32245 22.2195C4.23425 21.9854 4.21683 21.7305 4.27236 21.4865L5.81637 14.6852L0.580114 10.0933C0.391791 9.92897 0.25594 9.7129 0.189463 9.47197C0.122986 9.23104 0.128816 8.97588 0.20623 8.73824C0.283168 8.50072 0.428124 8.29101 0.623127 8.13511C0.818129 7.9792 1.0546 7.88396 1.30323 7.86118L8.23139 7.23215L10.9706 0.821973C11.1725 0.351008 11.6324 0.046875 12.1435 0.046875C12.6546 0.046875 13.1146 0.351008 13.3166 0.820895L16.0557 7.23215L22.9828 7.86109C23.4929 7.90703 23.9228 8.25222 24.0808 8.73819C24.2389 9.2242 24.0927 9.75723 23.7078 10.0932L18.4716 14.6843L20.0156 21.4854C20.1288 21.9855 19.9347 22.5026 19.5198 22.8025C19.1058 23.1025 18.5537 23.1255 18.1177 22.8635L12.1435 19.2934L6.1694 22.8655C5.96741 22.9855 5.74235 23.0466 5.51533 23.0466ZM12.1435 17.7555C12.3706 17.7555 12.5954 17.8164 12.7976 17.9364L18.4358 21.3086L16.9786 14.8892C16.9276 14.6649 16.9382 14.4309 17.0093 14.2121C17.0804 13.9932 17.2094 13.7977 17.3826 13.6463L22.3268 9.31022L15.7856 8.71625C15.5554 8.69564 15.3351 8.61281 15.1484 8.47662C14.9617 8.34043 14.8155 8.15601 14.7256 7.94312L12.1435 1.89394L9.5584 7.94401C9.37638 8.37504 8.97133 8.67116 8.50149 8.71419L1.95931 9.3082L6.90334 13.6443C7.25744 13.9543 7.41232 14.4304 7.30741 14.8883L5.85134 21.3074L11.4895 17.9364C11.6915 17.8164 11.9165 17.7555 12.1435 17.7555ZM8.17846 7.35609C8.17846 7.35609 8.17846 7.35717 8.17739 7.35811L8.17846 7.35609ZM16.1066 7.35314L16.1077 7.35515C16.1077 7.35408 16.1077 7.35408 16.1066 7.35314H16.1066Z" fill="black"/>
</g>
<defs>
<clipPath id="clip0_11019_44106">
<rect width="24" height="24" fill="white" transform="translate(0.143555)"/>
</clipPath>
</defs>
</svg>
