<svg width="20" height="21" viewBox="0 0 20 21" fill="none" xmlns="http://www.w3.org/2000/svg">
<g clip-path="url(#clip0_3275_303053)">
<path d="M9.76562 15.2368C8.88021 15.1847 8.07292 14.9373 7.34375 14.4946C6.64062 14.0259 6.06771 13.4269 5.625 12.6978C5.20833 11.9425 5 11.1222 5 10.2368C5 9.32536 5.22135 8.49202 5.66406 7.73682C6.13281 6.98161 6.74479 6.38265 7.5 5.93994C8.25521 5.47119 9.08854 5.23682 10 5.23682C10.8854 5.23682 11.6927 5.45817 12.4219 5.90088C13.1771 6.31755 13.776 6.89046 14.2188 7.61963C14.6875 8.32275 14.9479 9.11702 15 10.0024L13.2422 9.45557C13.0599 8.7264 12.6693 8.12744 12.0703 7.65869C11.4714 7.1639 10.7812 6.9165 10 6.9165C9.375 6.9165 8.8151 7.07275 8.32031 7.38525C7.82552 7.67171 7.42188 8.06234 7.10938 8.55713C6.82292 9.05192 6.67969 9.61182 6.67969 10.2368C6.67969 11.0181 6.91406 11.7082 7.38281 12.3071C7.8776 12.9061 8.48958 13.2967 9.21875 13.479L9.76562 15.2368ZM18.3203 10.2368C18.3203 10.367 18.3203 10.4972 18.3203 10.6274C18.3203 10.7316 18.3073 10.8488 18.2812 10.979L16.6406 10.5103C16.6667 10.4582 16.6797 10.4191 16.6797 10.3931C16.6797 10.341 16.6797 10.2889 16.6797 10.2368C16.6797 9.32536 16.4974 8.46598 16.1328 7.65869C15.7943 6.8514 15.3125 6.14827 14.6875 5.54932C14.0885 4.92432 13.3854 4.44255 12.5781 4.104C11.7708 3.73942 10.9115 3.55713 10 3.55713C9.08854 3.55713 8.22917 3.73942 7.42188 4.104C6.61458 4.44255 5.89844 4.92432 5.27344 5.54932C4.67448 6.14827 4.19271 6.8514 3.82812 7.65869C3.48958 8.46598 3.32031 9.32536 3.32031 10.2368C3.32031 11.1483 3.48958 12.0076 3.82812 12.8149C4.19271 13.6222 4.67448 14.3384 5.27344 14.9634C5.89844 15.5623 6.61458 16.0441 7.42188 16.4087C8.22917 16.7472 9.08854 16.9165 10 16.9165C10.0521 16.9165 10.0911 16.9165 10.1172 16.9165C10.1693 16.9165 10.2214 16.9035 10.2734 16.8774L10.7422 18.5181C10.612 18.5441 10.4818 18.5571 10.3516 18.5571C10.2474 18.5571 10.1302 18.5571 10 18.5571C8.85417 18.5571 7.77344 18.3488 6.75781 17.9321C5.76823 17.4894 4.88281 16.8905 4.10156 16.1353C3.34635 15.354 2.7474 14.4686 2.30469 13.479C1.88802 12.4634 1.67969 11.3826 1.67969 10.2368C1.67969 9.09098 1.88802 8.02327 2.30469 7.03369C2.7474 6.01807 3.34635 5.13265 4.10156 4.37744C4.88281 3.59619 5.76823 2.99723 6.75781 2.58057C7.77344 2.13786 8.85417 1.9165 10 1.9165C11.1458 1.9165 12.2135 2.13786 13.2031 2.58057C14.2188 2.99723 15.1042 3.59619 15.8594 4.37744C16.6406 5.13265 17.2396 6.01807 17.6562 7.03369C18.099 8.02327 18.3203 9.09098 18.3203 10.2368ZM15.1953 13.7915L18.3203 12.7368L10 10.2368L12.5 18.5571L13.5547 15.4321L17.1094 18.9868L18.75 17.3462L15.1953 13.7915Z" fill="#616161"/>
</g>
<defs>
<clipPath id="clip0_3275_303053">
<rect width="20" height="20" fill="white" transform="translate(0 0.236816)"/>
</clipPath>
</defs>
</svg>
