<svg width="48" height="48" viewBox="0 0 48 48" fill="none" xmlns="http://www.w3.org/2000/svg">
<rect width="48" height="48" rx="12" fill="#EAECF0"/>
<g clip-path="url(#clip0_9490_29355)">
<path d="M21.354 29.6215C20.4807 29.6215 19.7021 29.4531 19.0182 29.1164C18.3343 28.7797 17.7924 28.2904 17.3926 27.6486C17.0033 26.9963 16.8086 26.2229 16.8086 25.3286C16.8086 24.3921 16.998 23.5661 17.3768 22.8507C17.7556 22.1352 18.2817 21.5828 18.9551 21.1935C19.639 20.7937 20.4228 20.5938 21.3067 20.5938C22.2221 20.5938 22.9902 20.7937 23.611 21.1935C24.2318 21.5828 24.6947 22.1457 24.9998 22.8823C25.3155 23.6188 25.4681 24.4921 25.4575 25.5022H17.6766V24.0344H24.2423L23.3111 24.7288C23.3111 24.2132 23.2374 23.7608 23.0901 23.3715C22.9534 22.9822 22.7324 22.6718 22.4273 22.4403C22.1326 22.2089 21.7591 22.0931 21.3067 22.0931C20.8437 22.0931 20.4386 22.2194 20.0914 22.4719C19.7442 22.7244 19.4759 23.0927 19.2865 23.5767C19.0971 24.0607 19.0024 24.6289 19.0024 25.2812C19.0024 25.8599 19.1024 26.3597 19.3023 26.7806C19.5127 27.2014 19.7968 27.5224 20.1545 27.7433C20.5228 27.9538 20.9279 28.059 21.3698 28.059C21.9801 28.059 22.4852 27.8959 22.885 27.5697C23.2953 27.233 23.5952 26.8121 23.7846 26.3071L25.568 27.3803C25.063 28.1379 24.4474 28.7008 23.7214 29.0691C23.006 29.4373 22.2168 29.6215 21.354 29.6215Z" fill="#1B1B1B"/>
<path d="M30.6275 29.6215C29.7542 29.6215 28.9756 29.4531 28.2916 29.1164C27.6077 28.7797 27.0659 28.2904 26.666 27.6486C26.2767 26.9963 26.082 26.2229 26.082 25.3286C26.082 24.3921 26.2714 23.5661 26.6502 22.8507C27.029 22.1352 27.5551 21.5828 28.2285 21.1935C28.9124 20.7937 29.6963 20.5938 30.5801 20.5938C31.4955 20.5938 32.2636 20.7937 32.8844 21.1935C33.5052 21.5828 33.9682 22.1457 34.2733 22.8823C34.5889 23.6188 34.7415 24.4921 34.731 25.5022H26.9501V24.0344H33.5157L32.5845 24.7288C32.5845 24.2132 32.5109 23.7608 32.3636 23.3715C32.2268 22.9822 32.0058 22.6718 31.7007 22.4403C31.4061 22.2089 31.0326 22.0931 30.5801 22.0931C30.1172 22.0931 29.7121 22.2194 29.3649 22.4719C29.0176 22.7244 28.7493 23.0927 28.5599 23.5767C28.3705 24.0607 28.2759 24.6289 28.2759 25.2812C28.2759 25.8599 28.3758 26.3597 28.5757 26.7806C28.7862 27.2014 29.0702 27.5224 29.428 27.7433C29.7962 27.9538 30.2013 28.059 30.6433 28.059C31.2535 28.059 31.7585 27.8959 32.1584 27.5697C32.5688 27.233 32.8686 26.8121 33.058 26.3071L34.8415 27.3803C34.3364 28.1379 33.7209 28.7008 32.9949 29.0691C32.2794 29.4373 31.4903 29.6215 30.6275 29.6215Z" fill="#1B1B1B"/>
<path d="M35.4336 18.1152H37.5485V27.3482C37.5485 28.0952 37.5853 28.7791 37.6589 29.3999H35.4336V18.1152Z" fill="#1B1B1B"/>
<path d="M7 25.1127C7 21.987 8.99529 20.5979 11.1832 20.5979C13.18 20.5979 14.022 21.8667 14.022 21.8667V18.1191H16.1847V27.3545C16.1847 28.1127 16.2108 28.7967 16.2637 29.4067H14.0227V28.3701C14.0227 28.3701 13.1646 29.6274 11.1839 29.6274C9.07228 29.6274 7 28.4157 7 25.1127ZM11.7355 27.968C13.2672 27.968 14.2576 26.8022 14.2576 25.1127C14.2576 23.3641 13.2665 22.2574 11.7355 22.2574C10.2045 22.2574 9.25014 23.3095 9.25014 25.1127C9.25014 26.9159 10.2447 27.968 11.7355 27.968Z" fill="#1B1B1B"/>
<path d="M38.916 27.3789H40.9993V29.3991H38.916V27.3789Z" fill="#1B1B1B"/>
</g>
<defs>
<clipPath id="clip0_9490_29355">
<rect width="34" height="11.7692" fill="white" transform="translate(7 18.1152)"/>
</clipPath>
</defs>
</svg>
