<svg width="25" height="24" viewBox="0 0 25 24" fill="none" xmlns="http://www.w3.org/2000/svg">
<g clip-path="url(#clip0_3267_300546)">
<path d="M10.3545 17.0156L19.3545 8.01562L17.9482 6.5625L10.3545 14.1562L6.79199 10.5938L5.38574 12L10.3545 17.0156ZM5.29199 4.96875C7.26074 3 9.62012 2.01562 12.3701 2.01562C15.1201 2.01562 17.4639 3 19.4014 4.96875C21.3701 6.90625 22.3545 9.25 22.3545 12C22.3545 14.75 21.3701 17.1094 19.4014 19.0781C17.4639 21.0156 15.1201 21.9844 12.3701 21.9844C9.62012 21.9844 7.26074 21.0156 5.29199 19.0781C3.35449 17.1094 2.38574 14.75 2.38574 12C2.38574 9.25 3.35449 6.90625 5.29199 4.96875Z" fill="#43A047"/>
</g>
<defs>
<clipPath id="clip0_3267_300546">
<rect width="24" height="24" fill="white" transform="translate(0.370117)"/>
</clipPath>
</defs>
</svg>
