<svg width="21" height="20" viewBox="0 0 21 20" fill="none" xmlns="http://www.w3.org/2000/svg">
<path d="M11.5942 10.9844V4.98438H9.62549V10.9844H11.5942ZM11.5942 15.0156V13H9.62549V15.0156H11.5942ZM3.53174 2.96875C5.50049 1 7.85986 0.015625 10.6099 0.015625C13.3599 0.015625 15.7036 1 17.6411 2.96875C19.6099 4.90625 20.5942 7.25 20.5942 10C20.5942 12.75 19.6099 15.1094 17.6411 17.0781C15.7036 19.0156 13.3599 19.9844 10.6099 19.9844C7.85986 19.9844 5.50049 19.0156 3.53174 17.0781C1.59424 15.1094 0.625488 12.75 0.625488 10C0.625488 7.25 1.59424 4.90625 3.53174 2.96875Z" fill="#FF8F00"/>
</svg>
