<svg width="48" height="48" viewBox="0 0 48 48" fill="none" xmlns="http://www.w3.org/2000/svg">
<rect width="48" height="48" rx="12" fill="#EEEEEE" fill-opacity="0.933333"/>
<path d="M38.0867 24.9036C38.0867 23.9149 37.991 22.8943 37.8315 21.9375H24.0215V27.5827H31.9312C31.6122 29.4007 30.5597 30.9954 28.9969 32.016L33.7172 35.6838C36.492 33.1003 38.0867 29.3369 38.0867 24.9036Z" fill="#4280EF"/>
<path d="M24.024 39.1921C27.9788 39.1921 31.2958 37.8844 33.7197 35.6519L28.9994 32.016C27.6918 32.909 26.0014 33.4193 24.024 33.4193C20.1967 33.4193 16.9754 30.8359 15.7954 27.3914L10.9475 31.1229C13.4352 36.0665 18.4745 39.1921 24.024 39.1921Z" fill="#34A353"/>
<path d="M15.794 27.3595C15.1881 25.5415 15.1881 23.5641 15.794 21.7461L10.9462 17.9827C8.87308 22.1289 8.87308 27.0086 10.9462 31.1229L15.794 27.3595Z" fill="#F6B704"/>
<path d="M24.024 15.7183C26.0971 15.6864 28.1383 16.4838 29.6373 17.919L33.8154 13.709C31.1682 11.2213 27.6599 9.88175 24.024 9.91364C18.4745 9.91364 13.4352 13.0392 10.9475 17.9828L15.7954 21.7463C16.9754 18.2698 20.1967 15.7183 24.024 15.7183Z" fill="#E54335"/>
</svg>
