<svg width="48" height="48" viewBox="0 0 48 48" fill="none" xmlns="http://www.w3.org/2000/svg">
<rect width="48" height="48" rx="12" fill="#EAECF0"/>
<path d="M42 8H6M42 40H6M18 18.5H6M18 29.5H6M29.2 32H38.8C39.9201 32 40.4802 32 40.908 31.782C41.2843 31.5903 41.5903 31.2843 41.782 30.908C42 30.4802 42 29.9201 42 28.8V19.2C42 18.0799 42 17.5198 41.782 17.092C41.5903 16.7157 41.2843 16.4097 40.908 16.218C40.4802 16 39.9201 16 38.8 16H29.2C28.0799 16 27.5198 16 27.092 16.218C26.7157 16.4097 26.4097 16.7157 26.218 17.092C26 17.5198 26 18.0799 26 19.2V28.8C26 29.9201 26 30.4802 26.218 30.908C26.4097 31.2843 26.7157 31.5903 27.092 31.782C27.5198 32 28.0799 32 29.2 32Z" stroke="black" stroke-width="2" stroke-linecap="round" stroke-linejoin="round"/>
</svg>
