<svg width="25" height="24" viewBox="0 0 25 24" fill="none" xmlns="http://www.w3.org/2000/svg">
<path d="M22.25 0.562465H2.75C2.30756 0.557962 1.8814 0.72916 1.56504 1.0385C1.24867 1.34783 1.06794 1.77003 1.0625 2.21246V21.7912C1.06892 22.233 1.25009 22.6542 1.56634 22.9628C1.8826 23.2713 2.3082 23.442 2.75 23.4375H22.25C22.6925 23.441 23.1183 23.2692 23.4345 22.9597C23.7507 22.6501 23.9316 22.228 23.9375 21.7856V2.20684C23.9296 1.76571 23.7479 1.34552 23.4319 1.0376C23.1159 0.729686 22.6912 0.558935 22.25 0.562465Z" fill="#0076B2"/>
<path d="M4.44874 9.13684H7.84437V20.0625H4.44874V9.13684ZM6.14749 3.69934C6.53695 3.69934 6.91767 3.81485 7.24147 4.03127C7.56527 4.24768 7.8176 4.55527 7.96656 4.91512C8.11551 5.27497 8.15439 5.67091 8.07827 6.05286C8.00216 6.43482 7.81447 6.78561 7.53894 7.06087C7.26342 7.33613 6.91245 7.52349 6.53043 7.59924C6.1484 7.67499 5.75249 7.63574 5.39278 7.48644C5.03307 7.33714 4.72573 7.08451 4.50962 6.7605C4.29352 6.4365 4.17837 6.05568 4.17874 5.66622C4.17924 5.1444 4.38688 4.64412 4.75604 4.27531C5.1252 3.9065 5.62567 3.69934 6.14749 3.69934ZM9.97437 9.13684H13.2294V10.6368H13.2744C13.7281 9.77809 14.8344 8.87247 16.4862 8.87247C19.925 8.86497 20.5625 11.1281 20.5625 14.0625V20.0625H17.1669V14.7468C17.1669 13.4812 17.1444 11.8518 15.4025 11.8518C13.6606 11.8518 13.3644 13.2318 13.3644 14.6643V20.0625H9.97437V9.13684Z" fill="white"/>
</svg>
