<svg width="40" height="40" viewBox="0 0 40 40" fill="none" xmlns="http://www.w3.org/2000/svg">
<rect x="0.5" y="0.5" width="39" height="39" rx="4.5" stroke="#E0E0E0"/>
<mask id="mask0_7709_3981" style="mask-type:luminance" maskUnits="userSpaceOnUse" x="8" y="7" width="24" height="26">
<path d="M31.818 7H8.18164V33H31.818V7Z" fill="white"/>
</mask>
<g mask="url(#mask0_7709_3981)">
<path d="M17.6859 7.6062L17.5532 7.68651C17.3419 7.81426 17.143 7.95711 16.9574 8.11318L17.3403 7.84381H20.5907L21.1816 12.3182L18.2271 15.2727L15.2726 17.3264V19.6944C15.2726 21.3484 16.137 22.8821 17.5519 23.7386L20.6623 25.6213L14.0907 29.4547H12.8233L10.461 28.0248C9.04606 27.1683 8.18164 25.6346 8.18164 23.9807V16.0176C8.18164 14.3631 9.0466 12.829 10.4623 11.9727L17.5532 7.6836C17.5971 7.65702 17.6414 7.63123 17.6859 7.6062Z" fill="url(#paint0_radial_7709_3981)"/>
<path d="M17.6859 7.6062L17.5532 7.68651C17.3419 7.81426 17.143 7.95711 16.9574 8.11318L17.3403 7.84381H20.5907L21.1816 12.3182L18.2271 15.2727L15.2726 17.3264V19.6944C15.2726 21.3484 16.137 22.8821 17.5519 23.7386L20.6623 25.6213L14.0907 29.4547H12.8233L10.461 28.0248C9.04606 27.1683 8.18164 25.6346 8.18164 23.9807V16.0176C8.18164 14.3631 9.0466 12.829 10.4623 11.9727L17.5532 7.6836C17.5971 7.65702 17.6414 7.63123 17.6859 7.6062Z" fill="url(#paint1_linear_7709_3981)"/>
<path d="M24.7268 17.0454V19.6929C24.7268 21.3469 23.8623 22.8805 22.4474 23.737L15.3565 28.0291C13.9059 28.9072 12.1011 28.9389 10.625 28.1242L17.5515 32.3169C19.0563 33.2278 20.9425 33.2278 22.4474 32.3169L29.5383 28.0247C30.9532 27.1683 31.8176 25.6345 31.8176 23.9806V22.0681L31.2267 21.1818L24.7268 17.0454Z" fill="url(#paint2_radial_7709_3981)"/>
<path d="M24.7268 17.0454V19.6929C24.7268 21.3469 23.8623 22.8805 22.4474 23.737L15.3565 28.0291C13.9059 28.9072 12.1011 28.9389 10.625 28.1242L17.5515 32.3169C19.0563 33.2278 20.9425 33.2278 22.4474 32.3169L29.5383 28.0247C30.9532 27.1683 31.8176 25.6345 31.8176 23.9806V22.0681L31.2267 21.1818L24.7268 17.0454Z" fill="url(#paint3_linear_7709_3981)"/>
<path d="M29.5373 11.9727L22.4463 7.68362C20.9888 6.80194 19.1737 6.77463 17.694 7.60168L17.5531 7.68689C16.1374 8.54319 15.2725 10.0773 15.2725 11.7318V17.3359L17.5531 15.9564C19.0572 15.0465 20.9422 15.0465 22.4463 15.9564L29.5373 20.2455C30.9087 21.075 31.7633 22.5406 31.8154 24.1356C31.8171 24.084 31.8179 24.0325 31.8179 23.9806V16.0176C31.8179 14.3632 30.9529 12.829 29.5373 11.9727Z" fill="url(#paint4_radial_7709_3981)"/>
<path d="M29.5373 11.9727L22.4463 7.68362C20.9888 6.80194 19.1737 6.77463 17.694 7.60168L17.5531 7.68689C16.1374 8.54319 15.2725 10.0773 15.2725 11.7318V17.3359L17.5531 15.9564C19.0572 15.0465 20.9422 15.0465 22.4463 15.9564L29.5373 20.2455C30.9087 21.075 31.7633 22.5406 31.8154 24.1356C31.8171 24.084 31.8179 24.0325 31.8179 23.9806V16.0176C31.8179 14.3632 30.9529 12.829 29.5373 11.9727Z" fill="url(#paint5_linear_7709_3981)"/>
</g>
<defs>
<radialGradient id="paint0_radial_7709_3981" cx="0" cy="0" r="1" gradientUnits="userSpaceOnUse" gradientTransform="translate(16.1108 12.1044) rotate(110.528) scale(19.7161 34.3889)">
<stop offset="0.06441" stop-color="#AE7FE2"/>
<stop offset="1" stop-color="#0078D4"/>
</radialGradient>
<linearGradient id="paint1_linear_7709_3981" x1="16.1659" y1="28.195" x2="13.3529" y2="23.3296" gradientUnits="userSpaceOnUse">
<stop stop-color="#114A8B"/>
<stop offset="1" stop-color="#0078D4" stop-opacity="0"/>
</linearGradient>
<radialGradient id="paint2_radial_7709_3981" cx="0" cy="0" r="1" gradientUnits="userSpaceOnUse" gradientTransform="translate(11.9808 27.2983) rotate(-8.36717) scale(18.3479 12.12)">
<stop offset="0.133928" stop-color="#D59DFF"/>
<stop offset="1" stop-color="#5E438F"/>
</radialGradient>
<linearGradient id="paint3_linear_7709_3981" x1="29.6648" y1="20.8135" x2="26.6503" y2="25.136" gradientUnits="userSpaceOnUse">
<stop stop-color="#493474"/>
<stop offset="1" stop-color="#8C66BA" stop-opacity="0"/>
</linearGradient>
<radialGradient id="paint4_radial_7709_3981" cx="0" cy="0" r="1" gradientUnits="userSpaceOnUse" gradientTransform="translate(30.0778 21.4797) rotate(-165.772) scale(14.7271 24.7917)">
<stop offset="0.0584996" stop-color="#50E6FF"/>
<stop offset="1" stop-color="#436DCD"/>
</radialGradient>
<linearGradient id="paint5_linear_7709_3981" x1="15.8491" y1="7.62439" x2="20.2874" y2="7.62439" gradientUnits="userSpaceOnUse">
<stop stop-color="#2D3F80"/>
<stop offset="1" stop-color="#436DCD" stop-opacity="0"/>
</linearGradient>
</defs>
</svg>
