<svg width="48" height="48" viewBox="0 0 48 48" fill="none" xmlns="http://www.w3.org/2000/svg">
<rect width="48" height="48" rx="12" fill="#EAECF0"/>
<path d="M10.5003 34.7425C8.95953 34.7425 7.41876 33.8865 6.56277 32.5169C5.70678 31.1474 5.87798 29.4354 6.73397 28.0658L14.7802 15.3974C15.6362 14.0279 17.177 13.1719 18.7178 13.1719C20.2586 13.1719 21.7993 14.199 22.6553 15.5686C23.3401 16.9382 23.3401 18.6501 22.4841 20.0197L14.4378 32.6881C13.5819 33.8865 12.0411 34.7425 10.5003 34.7425Z" fill="#F62B54"/>
<path d="M24.368 34.7418C22.6561 34.7418 21.2865 33.8858 20.4305 32.5162C19.7457 30.9755 19.7457 29.2635 20.6017 27.894L28.648 15.2255C29.504 13.856 31.0447 13 32.5855 13C34.2975 13 35.6671 14.0272 36.5231 15.3967C37.2078 16.7663 37.2078 18.4782 36.1807 19.8478L28.1344 32.5162C27.2784 33.8858 25.9088 34.7418 24.368 34.7418Z" fill="#FFCC00"/>
<path d="M37.8915 34.9127C40.1606 34.9127 42.0002 33.0732 42.0002 30.804C42.0002 28.5348 40.1606 26.6953 37.8915 26.6953C35.6223 26.6953 33.7827 28.5348 33.7827 30.804C33.7827 33.0732 35.6223 34.9127 37.8915 34.9127Z" fill="#00CA72"/>
</svg>
