<svg width="48" height="48" viewBox="0 0 48 48" fill="none" xmlns="http://www.w3.org/2000/svg">
<rect width="48" height="48" rx="12" fill="#EAECF0"/>
<path fill-rule="evenodd" clip-rule="evenodd" d="M19.9821 9.99064C15.3912 10.3455 11.4878 10.656 11.3103 10.6782C10.8002 10.7891 10.3345 11.1217 10.1127 11.5875L9.91309 11.9867L9.93526 21.6122L9.95744 31.2376L10.2458 31.8364C10.4232 32.1691 11.5321 33.7216 12.7519 35.2963C15.1694 38.4456 15.3468 38.6008 16.2561 38.7117C16.5223 38.7339 18.5405 38.6452 20.6918 38.5121C22.8653 38.3791 26.3695 38.1573 28.4543 38.0464C37.3922 37.4919 36.9264 37.5363 37.4587 37.0927C38.1019 36.5604 38.0354 37.4476 38.0797 25.7373C38.1019 15.8236 38.0797 15.1582 37.9245 14.8699C37.7692 14.515 37.4587 14.2933 33.3779 11.4322C30.6499 9.50272 30.4503 9.414 29.2305 9.39183C28.7204 9.36965 24.5509 9.65797 19.9821 9.99064Z" fill="white"/>
<path fill-rule="evenodd" clip-rule="evenodd" d="M19.9821 9.99064C15.3912 10.3455 11.4878 10.656 11.3103 10.6782C10.8002 10.7891 10.3345 11.1217 10.1127 11.5875L9.91309 11.9867L9.93526 21.6122L9.95744 31.2376L10.2458 31.8364C10.4232 32.1691 11.5321 33.7216 12.7519 35.2963C15.1694 38.4456 15.3468 38.6008 16.2561 38.7117C16.5223 38.7339 18.5405 38.6452 20.6918 38.5121C22.8653 38.3791 26.3695 38.1573 28.4543 38.0464C37.3922 37.4919 36.9264 37.5363 37.4587 37.0927C38.1019 36.5604 38.0354 37.4476 38.0797 25.7373C38.1019 15.8236 38.0797 15.1582 37.9245 14.8699C37.7692 14.515 37.4587 14.2933 33.3779 11.4322C30.6499 9.50272 30.4503 9.414 29.2305 9.39183C28.7204 9.36965 24.5509 9.65797 19.9821 9.99064ZM30.2951 11.2548C30.6943 11.4322 33.511 13.3839 33.9102 13.761C34.0211 13.8719 34.0654 13.9828 33.9989 14.0271C33.888 14.138 16.4335 15.1804 15.9234 15.0917C15.7017 15.0695 15.369 14.9364 15.1694 14.8034C14.371 14.2489 12.3971 12.6299 12.3971 12.519C12.3971 12.2085 12.3305 12.2085 20.093 11.6318C21.5789 11.5431 24.0408 11.3657 25.5267 11.2326C28.7426 10.9887 29.6963 10.9887 30.2951 11.2548ZM35.8397 16.2671C35.9728 16.4002 36.0837 16.6442 36.128 16.8881C36.1502 17.1099 36.1724 21.2351 36.1502 26.0257C36.128 34.2317 36.1058 34.764 35.9506 34.9858C35.8619 35.141 35.6844 35.2963 35.5292 35.3406C35.1522 35.4959 16.8771 36.5382 16.5001 36.4274C16.3227 36.383 16.0787 36.2277 15.9678 36.0947L15.746 35.8729L15.7238 27.0015C15.7017 20.7694 15.7238 18.0192 15.7904 17.7753C15.8347 17.5979 15.99 17.3761 16.1009 17.2874C16.2561 17.1765 17.3429 17.0877 21.0688 16.866C23.6859 16.7329 27.7446 16.4889 30.0511 16.3337C35.5957 16.001 35.5736 16.001 35.8397 16.2671Z" fill="black"/>
<path fill-rule="evenodd" clip-rule="evenodd" d="M30.9387 19.3048C29.9407 19.3713 29.0536 19.46 28.9649 19.5266C28.6544 19.6818 28.4769 19.9479 28.4326 20.2363C28.4104 20.5246 28.4991 20.5689 29.4971 20.702L29.9185 20.7464V24.672C29.9185 27.0007 29.8964 28.531 29.8298 28.4867C29.7855 28.4423 28.4991 26.4462 26.9466 24.0953C25.3941 21.7 24.1078 19.7483 24.0856 19.7483C24.0634 19.7262 23.0654 19.7705 21.8456 19.8592C20.3596 19.9479 19.539 20.0588 19.3838 20.1476C19.1176 20.2806 18.8071 20.7686 18.8071 21.079C18.8071 21.2787 19.162 21.3895 19.8939 21.3895H20.2931V32.6562L19.6499 32.8558C19.1842 32.9889 19.0067 33.0776 18.918 33.2772C18.785 33.5877 18.785 33.8538 18.9402 33.8538C18.9846 33.8538 20.0269 33.8095 21.2246 33.7208C23.5755 33.5877 23.8416 33.5212 24.0856 33.0332C24.1743 32.9002 24.2408 32.7449 24.2408 32.6784C24.2408 32.6562 23.9082 32.5453 23.5311 32.4566C23.1319 32.3679 22.7327 32.257 22.644 32.257C22.4888 32.2126 22.4888 31.9243 22.4888 27.9765V23.7405L25.2832 28.1096C28.2108 32.7006 28.5656 33.2328 29.0314 33.4546C29.5859 33.7429 31.0053 33.5433 31.715 33.0776L31.9368 32.9445L31.9589 26.6902L31.9811 20.4137L32.4691 20.325C33.0457 20.2141 33.3118 19.9479 33.3118 19.4822C33.3118 19.1939 33.2897 19.1717 33.0235 19.1939C32.8683 19.1939 31.9146 19.2604 30.9387 19.3048Z" fill="black"/>
</svg>
