<svg width="44" height="45" viewBox="0 0 44 45" fill="none" xmlns="http://www.w3.org/2000/svg">
<g filter="url(#filter0_d_7148_11641)">
<path d="M2.5 9.5C2.5 5.35786 5.85786 2 10 2H34C38.1421 2 41.5 5.35786 41.5 9.5V33.5C41.5 37.6421 38.1421 41 34 41H10C5.85786 41 2.5 37.6421 2.5 33.5V9.5Z" stroke="#EAECF0" shape-rendering="crispEdges"/>
<path d="M18.6667 24.8333L22.0001 21.5M22.0001 21.5L25.3334 24.8333M22.0001 21.5V29M28.6667 25.4524C29.6847 24.6117 30.3334 23.3399 30.3334 21.9167C30.3334 19.3854 28.2814 17.3333 25.7501 17.3333C25.568 17.3333 25.3976 17.2383 25.3052 17.0814C24.2185 15.2374 22.2121 14 19.9167 14C16.465 14 13.6667 16.7982 13.6667 20.25C13.6667 21.9718 14.363 23.5309 15.4892 24.6613" stroke="#344054" stroke-width="1.66667" stroke-linecap="round" stroke-linejoin="round"/>
</g>
<defs>
<filter id="filter0_d_7148_11641" x="0" y="0.5" width="44" height="44" filterUnits="userSpaceOnUse" color-interpolation-filters="sRGB">
<feFlood flood-opacity="0" result="BackgroundImageFix"/>
<feColorMatrix in="SourceAlpha" type="matrix" values="0 0 0 0 0 0 0 0 0 0 0 0 0 0 0 0 0 0 127 0" result="hardAlpha"/>
<feOffset dy="1"/>
<feGaussianBlur stdDeviation="1"/>
<feComposite in2="hardAlpha" operator="out"/>
<feColorMatrix type="matrix" values="0 0 0 0 0.0627451 0 0 0 0 0.0941176 0 0 0 0 0.156863 0 0 0 0.05 0"/>
<feBlend mode="normal" in2="BackgroundImageFix" result="effect1_dropShadow_7148_11641"/>
<feBlend mode="normal" in="SourceGraphic" in2="effect1_dropShadow_7148_11641" result="shape"/>
</filter>
</defs>
</svg>
